<svg width="153" height="32" viewBox="0 0 153 32" fill="none" xmlns="http://www.w3.org/2000/svg">
<path d="M48.8022 29.7798V0.867188H56.2239C60.3883 0.867188 63.6014 2.03855 65.8633 4.38126C68.1232 6.72595 69.2531 10.2558 69.2531 14.9709C69.2531 17.9852 68.7515 20.6015 67.7482 22.8198C66.7449 25.04 65.2713 26.7546 63.3275 27.9635C61.3818 29.1743 59.0002 29.7798 56.1827 29.7798H48.8022ZM56.059 5.01534H54.1211V25.2168H56.059C57.5708 25.2168 58.8284 24.9294 59.8317 24.3546C60.835 23.7818 61.6361 23.0143 62.2349 22.0524C62.8318 21.0924 63.2578 20.0069 63.5131 18.7961C63.7664 17.5872 63.893 16.3536 63.893 15.0953C63.893 13.3531 63.6525 11.7146 63.1715 10.1798C62.6904 8.64497 61.8795 7.40052 60.7388 6.44645C59.5981 5.49237 58.0381 5.01534 56.059 5.01534Z" fill="#037B2A"/>
<path d="M73.6848 29.7798V0.867188H88.6931V5.38867H78.8388V12.1502H86.6728V16.5472H78.8388V25.0924H89.5177V29.7798H73.6848Z" fill="#037B2A"/>
<path d="M90.6727 29.7785L102.836 0.368164H103.248L115.453 29.7785H109.845L108.237 25.5889H97.9707L96.4452 29.7785H90.6727ZM102.341 13.6837L99.4551 21.5652H106.712L103.702 13.6837L103.001 11.3608L102.341 13.6837Z" fill="#037B2A"/>
<path d="M117.701 29.7798V0.867188H122.937V25.2168H131.513V29.7798H117.701Z" fill="#037B2A"/>
<path d="M141.985 30.2348C139.965 30.2348 138.199 29.8961 136.687 29.2185C135.175 28.541 134.069 27.8289 133.368 27.0822L135.471 22.7267C135.759 23.1 136.217 23.5217 136.843 23.9919C137.468 24.462 138.196 24.8728 139.029 25.2245C139.859 25.578 140.721 25.7548 141.614 25.7548C142.645 25.7548 143.542 25.4645 144.306 24.8837C145.068 24.303 145.449 23.4457 145.449 22.3119C145.449 21.1919 145.054 20.303 144.265 19.6452C143.474 18.9894 142.398 18.2467 141.037 17.417C139.924 16.7395 138.831 16.0166 137.759 15.2482C136.687 14.4817 135.798 13.5415 135.091 12.4274C134.382 11.3153 134.028 9.9089 134.028 8.20816C134.028 5.92668 134.753 4.04915 136.204 2.57557C137.653 1.10397 139.759 0.368164 142.521 0.368164C143.923 0.368164 145.116 0.53409 146.1 0.865942C147.081 1.19779 147.879 1.57804 148.491 2.00668C149.102 2.43532 149.558 2.78792 149.861 3.06446L147.552 7.29557C147.359 7.01903 147.036 6.68026 146.583 6.27927C146.129 5.87829 145.573 5.52569 144.913 5.2215C144.253 4.9173 143.525 4.7652 142.728 4.7652C141.614 4.7652 140.78 5.08619 140.224 5.72816C139.667 6.37211 139.388 7.12964 139.388 8.00075C139.388 9.12075 139.797 10.0333 140.616 10.7385C141.433 11.4437 142.425 12.1489 143.593 12.8541C144.885 13.6284 146.081 14.4057 147.181 15.1859C148.28 15.9682 149.167 16.9015 149.84 17.9859C150.514 19.0724 150.85 20.459 150.85 22.1459C150.85 24.6763 150.06 26.6565 148.479 28.0867C146.899 29.5188 144.734 30.2348 141.985 30.2348Z" fill="#037B2A"/>
<path d="M34.6883 24.2598C34.1287 24.2598 33.7005 24.4915 33.3857 24.6598C33.2941 24.7098 33.1571 24.7827 33.1206 24.7884C33.0847 24.7884 32.8906 24.7202 32.48 23.3587C32.4577 23.2811 32.4339 23.2038 32.4088 23.127C32.0633 22.0811 31.2195 21.0325 30.3537 20.0538L31.0614 10.351C31.0614 8.3854 30.4939 6.4488 29.4218 4.75191L29.0284 4.12999L27.4056 16.9161L24.5871 14.2568V12.7961H23.4954V17.4301L24.2237 17.4304L27.18 20.285L26.9111 24.082V24.8811C26.9111 25.1685 26.867 25.1685 26.7951 25.1685C26.733 25.1685 26.6461 25.154 26.5336 25.1279C26.2214 25.039 26.0703 25.0064 25.7325 25.0064C24.2806 25.0064 23.2668 26.1901 23.2668 27.8861C23.2668 29.6553 24.6829 31.2669 26.2393 31.2669C27.6451 31.2669 28.6267 30.0947 28.6267 28.4135C28.6267 27.8402 28.495 27.2633 28.3675 26.7033C28.2467 26.1771 28.1227 25.6328 28.1227 25.1282C28.1227 23.9789 28.7984 22.7104 29.4519 21.9762C29.8486 22.2073 30.24 22.5629 30.6446 23.0589C31.5827 24.2221 31.8763 25.0349 32.1817 26.4195C32.2194 26.5721 32.255 26.7285 32.2957 26.9131C32.3999 27.3824 32.5077 27.8672 32.7042 28.3167C33.2673 29.613 34.2297 30.3567 35.3468 30.3567C36.678 30.3567 37.6835 29.213 37.6835 27.6941C37.6846 25.9297 36.228 24.2598 34.6883 24.2598ZM26.214 29.8918C25.2359 29.8918 24.5044 28.8322 24.5044 27.8864C24.5044 27.1605 24.9833 26.4091 25.7843 26.4091C26.8396 26.4091 27.3912 27.4313 27.3912 28.4396C27.3912 29.1528 26.9506 29.8918 26.214 29.8918ZM35.1946 29.0079C34.3508 29.0079 33.6381 27.6251 33.6381 26.7567C33.6381 26.0607 34.2427 25.695 34.8397 25.695C35.6655 25.695 36.4733 26.8402 36.4733 27.6938C36.473 28.5294 36.008 29.0079 35.1946 29.0079ZM23.4974 0.451172H24.5901V5.08465H23.4974V0.451172Z" fill="#001E0A"/>
<path d="M23.4976 18.9697H24.5903V23.6026H23.4976V18.9697ZM23.4976 6.62598H24.5903V11.2589H23.4976V6.62598ZM36.4609 19.8497H32.0697V18.5024H35.1252V8.81649L32.0697 8.82005V7.47279L36.4609 7.46538V19.8497ZM12.849 17.2971C13.4851 16.5789 13.9997 15.7735 14.366 15.1149C14.6297 15.129 14.8924 15.0725 15.1273 14.9512C15.3622 14.8299 15.5609 14.6481 15.7032 14.4243C15.8455 14.2005 15.9263 13.9428 15.9373 13.6773C15.9483 13.4119 15.8891 13.1483 15.7658 12.9134C15.5744 12.5727 15.2586 12.3205 14.8853 12.2103C14.5121 12.1001 14.1109 12.1405 13.7668 12.3231C13.4227 12.5056 13.1629 12.8158 13.0425 13.1879C12.922 13.56 12.9504 13.9647 13.1217 14.316C13.165 14.3981 13.2151 14.4737 13.2701 14.5442C12.9609 15.0968 12.5686 15.7063 12.118 16.2529L10.333 13.7054L13.5564 8.83012L21.9677 8.81827L21.9659 7.47279L12.8396 7.48553L8.712 13.7273L11.1558 17.2165C10.6363 17.6278 10.0735 17.895 9.49068 17.895C8.04581 17.895 7.93419 17.2728 7.71125 16.0328C7.53601 15.0598 7.31837 13.8488 6.17861 13.0491C5.06064 12.2651 3.83724 12.3054 2.73371 13.1635L2.73253 13.1646C1.96739 13.7602 1.51237 14.5602 1.49352 14.594C1.43997 14.6886 1.41207 14.7957 1.41261 14.9046C1.41314 15.0135 1.44211 15.1204 1.49659 15.2145C1.55108 15.3085 1.62918 15.3866 1.72307 15.4408C1.81696 15.4949 1.92335 15.5234 2.03159 15.5232C2.14119 15.5233 2.24885 15.4941 2.34355 15.4386C2.43825 15.3831 2.51659 15.3033 2.57055 15.2073C2.57408 15.2011 2.92868 14.5863 3.4906 14.1489C4.16768 13.6224 4.79647 13.5978 5.47031 14.0704C6.19186 14.5765 6.33823 15.3913 6.49344 16.2541C6.71256 17.4725 7.01237 19.14 9.49068 19.14C10.3698 19.14 11.1673 18.7706 11.8659 18.2289L13.0007 19.8491H21.9671V18.5033H13.6942L12.849 17.2971Z" fill="#001E0A"/>
</svg>
