<svg width="21" height="20" viewBox="0 0 21 20" fill="none" xmlns="http://www.w3.org/2000/svg">
<path d="M6.125 0C3.4135 0 1.875 1.43769 1.875 3.97243C1.875 3.97243 1.875 18.1696 1.875 18.869C1.875 19.5683 2.725 20.2419 3.575 19.9151C4.425 19.5883 10.375 16.5663 10.375 16.5663L17.175 19.9218C17.8763 20.2026 18.875 19.5819 18.875 18.869C18.875 18.156 18.875 3.97243 18.875 3.97243C18.875 1.36712 17.4884 0 14.625 0H6.125ZM6.125 1.65663H14.625C16.2889 1.65663 17.175 2.44091 17.175 3.97243V18.3193L10.7734 14.9897C10.5057 14.8826 10.2103 14.8826 9.94362 14.9897L3.575 18.3193V3.97243C3.575 2.53464 4.5865 1.65663 6.125 1.65663Z" fill="#00AD37"/>
<path d="M6.125 1.65663H14.625C16.2889 1.65663 17.175 2.44091 17.175 3.97243V18.3193L10.7734 14.9897C10.5057 14.8826 10.2103 14.8826 9.94362 14.9897L3.575 18.3193V3.97243C3.575 2.53464 4.5865 1.65663 6.125 1.65663Z" fill="#00AD37"/>
</svg>
