<svg width="18" height="24" viewBox="0 0 18 24" fill="none" xmlns="http://www.w3.org/2000/svg">
<path d="M13.4508 1.32816C13.0683 0.840656 12.4308 0.638156 11.8308 0.810656L8.08081 1.87566L6.34081 1.16316C5.73331 0.915655 5.05081 1.07316 4.61581 1.56816C4.18081 2.06316 4.10581 2.75316 4.42831 3.33066L6.13831 6.37566C6.27331 6.61566 6.52081 6.75816 6.79081 6.75816H11.0508C11.3208 6.75816 11.5683 6.60816 11.7033 6.37566L13.5783 3.03066C13.8858 2.49066 13.8333 1.82316 13.4433 1.33566L13.4508 1.32816Z" fill="#E2A042"/>
<path d="M7.54112 6.75085H6.79112C6.65823 6.75062 6.52778 6.71508 6.41313 6.64787C6.29848 6.58066 6.20374 6.4842 6.13862 6.36835L4.42862 3.32335C4.10612 2.74585 4.17362 2.05585 4.61612 1.56085C4.99862 1.12585 5.56862 0.953349 6.12362 1.09585C5.83862 1.16335 5.57612 1.32085 5.36612 1.56085C4.92362 2.05585 4.85612 2.74585 5.17862 3.32335L6.88862 6.36835C6.95374 6.4842 7.04848 6.58066 7.16313 6.64787C7.27778 6.71508 7.40823 6.75062 7.54112 6.75085Z" fill="#D18A34"/>
<path d="M12.4981 8.0925L11.7481 5.7675C11.6991 5.61713 11.6038 5.48612 11.4758 5.39317C11.3479 5.30023 11.1938 5.25012 11.0356 5.25H6.79062C6.63246 5.25012 6.47839 5.30023 6.35043 5.39317C6.22246 5.48612 6.12715 5.61713 6.07812 5.7675L5.32812 8.0925C5.25312 8.3175 5.29812 8.5725 5.43312 8.7675C5.50294 8.86305 5.59438 8.94072 5.69997 8.99416C5.80555 9.04761 5.92228 9.07531 6.04062 9.075H11.7856C11.9043 9.07574 12.0214 9.04817 12.1273 8.99458C12.2331 8.94099 12.3247 8.86293 12.3944 8.76686C12.464 8.6708 12.5098 8.55951 12.5278 8.44223C12.5459 8.32495 12.5357 8.20506 12.4981 8.0925Z" fill="#D18A34"/>
<path d="M17.0209 17.9697L14.5759 10.5822C14.2782 9.68335 13.7051 8.90108 12.9377 8.34642C12.1703 7.79176 11.2477 7.49288 10.3009 7.49219H7.7059C5.7634 7.49219 4.0459 8.72969 3.4309 10.5822L0.985899 17.9697C0.573399 19.2072 0.775899 20.5272 1.5409 21.5847C2.3059 22.6422 3.4909 23.2497 4.7959 23.2497H13.2034C14.5084 23.2497 15.6934 22.6422 16.4584 21.5847C17.2234 20.5272 17.4259 19.2072 17.0134 17.9697H17.0209Z" fill="#E2A042"/>
<path d="M5.5536 23.25H4.8036C3.4986 23.25 2.3061 22.6425 1.5486 21.585C1.17339 21.071 0.926554 20.4746 0.828702 19.8458C0.730851 19.2169 0.78482 18.5738 0.986104 17.97L3.4311 10.59C3.72746 9.69036 4.30032 8.90726 5.06798 8.35239C5.83564 7.79752 6.75891 7.49921 7.70611 7.5H8.45611C6.51361 7.5 4.7961 8.7375 4.1811 10.59L1.7361 17.97C1.3311 19.2075 1.5336 20.5275 2.2986 21.585C2.66774 22.1034 3.15621 22.5252 3.72275 22.815C4.28929 23.1048 4.91726 23.254 5.5536 23.25ZM10.8111 15.75H9.0036V15H11.2536C11.6661 15 12.0036 14.6625 12.0036 14.25C12.0036 13.8375 11.6661 13.5 11.2536 13.5H10.5036C10.5036 13.0875 10.1661 12.75 9.7536 12.75C9.34111 12.75 9.0036 13.0875 9.0036 13.5H8.74111C8.0586 13.5 7.50361 14.055 7.50361 14.7375V16.02C7.50361 16.1025 7.51861 16.1925 7.54861 16.275C7.72111 16.7475 8.11111 17.2575 8.69611 17.2575H10.5036V18.0075H8.25361C7.8411 18.0075 7.50361 18.345 7.50361 18.7575C7.50361 19.17 7.8411 19.5075 8.25361 19.5075H9.0036C9.0036 19.92 9.34111 20.2575 9.7536 20.2575C10.1661 20.2575 10.5036 19.92 10.5036 19.5075H10.7436C10.8186 19.5225 10.9086 19.53 11.0061 19.53C11.2386 19.53 11.5161 19.47 11.7336 19.2675C11.9286 19.08 12.0261 18.825 12.0036 18.555V17.0325C12.0336 16.725 11.9361 16.41 11.7336 16.1775C11.5086 15.9075 11.1711 15.7575 10.8111 15.7575V15.75Z" fill="#D18A34"/>
<path d="M10.0604 15H8.25293V14.25H10.5029C10.9154 14.25 11.2529 13.9125 11.2529 13.5C11.2529 13.0875 10.9154 12.75 10.5029 12.75H9.75293C9.75293 12.3375 9.41543 12 9.00293 12C8.59043 12 8.25293 12.3375 8.25293 12.75H7.99043C7.30793 12.75 6.75293 13.305 6.75293 13.9875V15.27C6.75293 15.3525 6.76793 15.4425 6.79793 15.525C6.97043 15.9975 7.36043 16.5075 7.94543 16.5075H9.75293V17.2575H7.50293C7.09043 17.2575 6.75293 17.595 6.75293 18.0075C6.75293 18.42 7.09043 18.7575 7.50293 18.7575H8.25293C8.25293 19.17 8.59043 19.5075 9.00293 19.5075C9.41543 19.5075 9.75293 19.17 9.75293 18.7575H9.99293C10.0679 18.7725 10.1579 18.78 10.2554 18.78C10.4879 18.78 10.7654 18.72 10.9829 18.5175C11.1779 18.33 11.2754 18.075 11.2529 17.805V16.2825C11.2829 15.975 11.1854 15.66 10.9829 15.4275C10.7579 15.1575 10.4204 15.0075 10.0604 15.0075V15Z" fill="#00AD37"/>
</svg>
