<svg width="21" height="20" viewBox="0 0 21 20" fill="none" xmlns="http://www.w3.org/2000/svg">
<g clip-path="url(#clip0_111308_7281)">
<path d="M18.5312 10.7812H14C12.7077 10.7812 11.6562 11.8327 11.6562 13.125V17.6562C11.6562 18.9486 12.7077 20 14 20H18.5312C19.8236 20 20.875 18.9486 20.875 17.6562V13.125C20.875 11.8327 19.8236 10.7812 18.5312 10.7812ZM19.3125 17.6562C19.3125 18.087 18.962 18.4375 18.5312 18.4375H14C13.5692 18.4375 13.2188 18.087 13.2188 17.6562V13.125C13.2188 12.6942 13.5692 12.3438 14 12.3438H18.5312C18.962 12.3438 19.3125 12.6942 19.3125 13.125V17.6562ZM7.75 10.7812H3.21875C1.92641 10.7812 0.875 11.8327 0.875 13.125V17.6562C0.875 18.9486 1.92641 20 3.21875 20H7.75C9.04234 20 10.0938 18.9486 10.0938 17.6562V13.125C10.0938 11.8327 9.04234 10.7812 7.75 10.7812ZM8.53125 17.6562C8.53125 18.087 8.18078 18.4375 7.75 18.4375H3.21875C2.78797 18.4375 2.4375 18.087 2.4375 17.6562V13.125C2.4375 12.6942 2.78797 12.3438 3.21875 12.3438H7.75C8.18078 12.3438 8.53125 12.6942 8.53125 13.125V17.6562ZM7.75 0H3.21875C1.92641 0 0.875 1.05141 0.875 2.34375V6.875C0.875 8.16734 1.92641 9.21875 3.21875 9.21875H7.75C9.04234 9.21875 10.0938 8.16734 10.0938 6.875V2.34375C10.0938 1.05141 9.04234 0 7.75 0ZM8.53125 6.875C8.53125 7.30578 8.18078 7.65625 7.75 7.65625H3.21875C2.78797 7.65625 2.4375 7.30578 2.4375 6.875V2.34375C2.4375 1.91297 2.78797 1.5625 3.21875 1.5625H7.75C8.18078 1.5625 8.53125 1.91297 8.53125 2.34375V6.875ZM18.5312 0H14C12.7077 0 11.6562 1.05141 11.6562 2.34375V6.875C11.6562 8.16734 12.7077 9.21875 14 9.21875H18.5312C19.8236 9.21875 20.875 8.16734 20.875 6.875V2.34375C20.875 1.05141 19.8236 0 18.5312 0ZM19.3125 6.875C19.3125 7.30578 18.962 7.65625 18.5312 7.65625H14C13.5692 7.65625 13.2188 7.30578 13.2188 6.875V2.34375C13.2188 1.91297 13.5692 1.5625 14 1.5625H18.5312C18.962 1.5625 19.3125 1.91297 19.3125 2.34375V6.875Z" fill="#00AD37"/>
<path d="M19.3125 6.875C19.3125 7.30578 18.962 7.65625 18.5312 7.65625H14C13.5692 7.65625 13.2188 7.30578 13.2188 6.875V2.34375C13.2188 1.91297 13.5692 1.5625 14 1.5625H18.5312C18.962 1.5625 19.3125 1.91297 19.3125 2.34375V6.875Z" fill="#00AD37"/>
<path d="M8.53125 6.875C8.53125 7.30578 8.18078 7.65625 7.75 7.65625H3.21875C2.78797 7.65625 2.4375 7.30578 2.4375 6.875V2.34375C2.4375 1.91297 2.78797 1.5625 3.21875 1.5625H7.75C8.18078 1.5625 8.53125 1.91297 8.53125 2.34375V6.875Z" fill="#00AD37"/>
<path d="M8.53125 17.6562C8.53125 18.087 8.18078 18.4375 7.75 18.4375H3.21875C2.78797 18.4375 2.4375 18.087 2.4375 17.6562V13.125C2.4375 12.6942 2.78797 12.3438 3.21875 12.3438H7.75C8.18078 12.3438 8.53125 12.6942 8.53125 13.125V17.6562Z" fill="#00AD37"/>
<path d="M19.3125 17.6562C19.3125 18.087 18.962 18.4375 18.5312 18.4375H14C13.5692 18.4375 13.2188 18.087 13.2188 17.6562V13.125C13.2188 12.6942 13.5692 12.3438 14 12.3438H18.5312C18.962 12.3438 19.3125 12.6942 19.3125 13.125V17.6562Z" fill="#00AD37"/>
</g>
<defs>
<clipPath id="clip0_111308_7281">
<rect width="20" height="20" fill="white" transform="translate(0.875)"/>
</clipPath>
</defs>
</svg>
