<svg width="17" height="14" viewBox="0 0 17 14" fill="none" xmlns="http://www.w3.org/2000/svg">
<path d="M15.5059 0.671875H1.49414C0.671965 0.671875 0 1.38024 0 2.25391V11.7461C0 12.6201 0.672396 13.3281 1.49414 13.3281H15.5059C16.328 13.3281 17 12.6198 17 11.7461V2.25391C17 1.38003 16.3277 0.671875 15.5059 0.671875ZM15.2764 1.72656L8.88595 8.51502C8.69125 8.72181 8.30885 8.72195 8.11405 8.51502L1.72357 1.72656H15.2764ZM0.996094 11.5522V2.44779L5.28146 7L0.996094 11.5522ZM1.72357 12.2734L5.98466 7.747L7.40858 9.2596C7.99209 9.87944 9.00814 9.87919 9.59145 9.2596L11.0154 7.74704L15.2764 12.2734H1.72357ZM16.0039 11.5522L11.7185 7L16.0039 2.44779V11.5522Z" fill="#121212"/>
</svg>
