<svg width="21" height="20" viewBox="0 0 21 20" fill="none" xmlns="http://www.w3.org/2000/svg">
<path d="M18.625 2.34375V4.17625C18.625 5.04262 18.0951 5.81141 17.242 6.1827C16.93 6.31852 16.7361 6.58379 16.7361 6.875C16.7361 7.16621 16.93 7.43149 17.242 7.56727C18.0951 7.9386 18.625 8.70739 18.625 9.57371V17.6563C18.625 18.9486 17.354 20 15.7917 20H13.3874C12.3402 20 11.825 19.5833 10.962 18.8561C10.882 18.7298 10.7617 18.6239 10.6142 18.5501C10.4666 18.4763 10.2974 18.3332 10.125 18.3333C9.95261 18.3332 9.78346 18.4763 9.63593 18.55C9.4884 18.6238 9.36812 18.7296 9.28818 18.8559C8.425 19.5833 7.90985 20 6.86256 20H4.45833C2.89603 20 1.625 18.9486 1.625 17.6563L1.625 9.57371C1.625 8.70742 2.15488 7.93863 3.00795 7.56727C3.32004 7.43145 3.51389 7.16617 3.51389 6.875C3.51389 6.58383 3.32004 6.31856 3.00795 6.1827C2.15493 5.81141 1.625 5.04262 1.625 4.17629L1.625 2.34375C1.625 1.05141 2.89603 4.29153e-06 4.45833 4.29153e-06H6.86256C7.90985 4.29153e-06 8.425 0.416666 9.28813 1.14407C9.36809 1.27041 9.48837 1.37621 9.63591 1.44998C9.78345 1.52375 9.9526 1.56267 10.125 1.5625C10.2974 1.56264 10.4666 1.52369 10.6142 1.44989C10.7617 1.37608 10.882 1.27025 10.962 1.14387C11.825 0.416666 12.3402 4.29153e-06 13.3874 4.29153e-06H15.7917C17.354 4.29153e-06 18.625 1.05141 18.625 2.34375ZM14.8472 6.875C14.8472 6.0018 15.65 5.41667 16.3625 4.79992C16.5859 4.7027 16.925 4.45207 16.925 4.17629V2.34375C16.925 1.91297 16.3124 1.71875 15.7917 1.71875H13.3874C13.0541 1.71875 12.7511 1.68668 12.6336 1.87145C11.825 2.5 11.1805 3.33333 10.125 3.33333C9.06944 3.33333 8.425 2.5 7.61651 1.87161C7.49893 1.68676 7.1959 1.71875 6.86256 1.71875H4.45833C3.93757 1.71875 3.325 1.91297 3.325 2.34375V4.17629C3.325 4.45207 3.66406 4.7027 3.88756 4.79996C4.6 5.41667 5.40278 6.00188 5.40278 6.875C5.40278 7.74817 4.6 8.33333 3.88751 8.95C3.66406 9.04727 3.325 9.29793 3.325 9.57371L3.325 17.6563C3.325 18.087 3.93757 18.3333 4.45833 18.3333H6.86256C7.19595 18.3333 7.49893 18.3132 7.61651 18.1284C8.425 17.5 9.06944 16.875 10.125 16.875C11.1805 16.875 11.825 17.5 12.6336 18.1285C12.7512 18.3133 13.0541 18.3333 13.3874 18.3333H15.65C16.1708 18.3333 16.925 18.087 16.925 17.6563V9.57371C16.925 9.29793 16.5859 9.04731 16.3624 8.95004C15.65 8.33333 14.8472 7.74821 14.8472 6.875Z" fill="#00AD37"/>
<path d="M14.8472 6.875C14.8472 6.0018 15.65 5.41667 16.3625 4.79992C16.5859 4.7027 16.925 4.45207 16.925 4.17629V2.34375C16.925 1.91297 16.3124 1.71875 15.7917 1.71875H13.3874C13.0541 1.71875 12.7511 1.68668 12.6336 1.87145C11.825 2.5 11.1805 3.33333 10.125 3.33333C9.06944 3.33333 8.425 2.5 7.61651 1.87161C7.49893 1.68676 7.1959 1.71875 6.86256 1.71875H4.45833C3.93757 1.71875 3.325 1.91297 3.325 2.34375V4.17629C3.325 4.45207 3.66406 4.7027 3.88756 4.79996C4.6 5.41667 5.40278 6.00188 5.40278 6.875C5.40278 7.74817 4.6 8.33333 3.88751 8.95C3.66406 9.04727 3.325 9.29793 3.325 9.57371L3.325 17.6563C3.325 18.087 3.93757 18.3333 4.45833 18.3333H6.86256C7.19595 18.3333 7.49893 18.3132 7.61651 18.1284C8.425 17.5 9.06944 16.875 10.125 16.875C11.1805 16.875 11.825 17.5 12.6336 18.1285C12.7512 18.3133 13.0541 18.3333 13.3874 18.3333H15.65C16.1708 18.3333 16.925 18.087 16.925 17.6563V9.57371C16.925 9.29793 16.5859 9.04731 16.3624 8.95004C15.65 8.33333 14.8472 7.74821 14.8472 6.875Z" fill="#00AD37"/>
<path d="M13.4668 15.1061C13.098 15.4112 12.5 15.4112 12.1312 15.1061L6.7886 10.6867C6.41975 10.3816 6.41975 9.8869 6.7886 9.58182C7.15741 9.27671 7.75543 9.27671 8.12424 9.58182L13.4668 14.0012C13.8356 14.3063 13.8356 14.801 13.4668 15.1061Z" fill="white"/>
<path d="M13.7405 10.1348C13.7405 9.70329 13.3176 9.35351 12.796 9.35351C12.2744 9.35351 11.8516 9.70329 11.8516 10.1348C11.8516 10.5662 12.2744 10.916 12.796 10.916C13.3176 10.916 13.7405 10.5662 13.7405 10.1348Z" fill="white"/>
<path d="M8.40085 14.5537C8.40085 14.1222 7.97801 13.7725 7.45641 13.7725C6.93481 13.7725 6.51196 14.1222 6.51196 14.5537C6.51196 14.9852 6.93481 15.335 7.45641 15.335C7.97801 15.335 8.40085 14.9852 8.40085 14.5537Z" fill="white"/>
<path d="M12.9611 6.875C12.9611 7.30648 12.5383 7.65625 12.0167 7.65625H8.23888C7.71726 7.65625 7.29443 7.30648 7.29443 6.875C7.29443 6.44352 7.71726 6.09375 8.23888 6.09375H12.0167C12.5383 6.09375 12.9611 6.44352 12.9611 6.875Z" fill="white"/>
</svg>
