<svg width="220" height="444" viewBox="0 0 220 444" fill="none" xmlns="http://www.w3.org/2000/svg" xmlns:xlink="http://www.w3.org/1999/xlink">
<rect width="220" height="444" fill="#D7D7D7"/>
<g clip-path="url(#clip0_110520_18917)">
<mask id="mask0_110520_18917" style="mask-type:alpha" maskUnits="userSpaceOnUse" x="12" y="10" width="196" height="424">
<path d="M165.847 10.4609H182.731C196.455 10.4609 207.567 21.5828 207.567 35.2966V408.338C207.567 422.063 196.445 433.174 182.731 433.174H37.2381C23.5139 433.174 12.4023 422.052 12.4023 408.338V35.2966C12.4023 21.5725 23.5242 10.4609 37.2381 10.4609H165.847Z" fill="url(#pattern0_110520_18917)"/>
<path d="M165.847 10.4609H182.731C196.455 10.4609 207.567 21.5828 207.567 35.2966V408.338C207.567 422.063 196.445 433.174 182.731 433.174H37.2381C23.5139 433.174 12.4023 422.052 12.4023 408.338V35.2966C12.4023 21.5725 23.5242 10.4609 37.2381 10.4609H165.847Z" fill="#A7A8A9"/>
</mask>
<g mask="url(#mask0_110520_18917)">
<path d="M165.847 10.4609H182.731C196.455 10.4609 207.567 21.5828 207.567 35.2966V408.338C207.567 422.063 196.445 433.174 182.731 433.174H37.2381C23.5139 433.174 12.4023 422.052 12.4023 408.338V35.2966C12.4023 21.5725 23.5242 10.4609 37.2381 10.4609H165.847Z" fill="url(#pattern1_110520_18917)"/>
</g>
<path d="M126.316 31.0313H91.7733C87.8905 31.0313 84.7408 27.8817 84.7408 23.9989C84.7408 20.116 87.8905 16.9561 91.7733 16.9561H126.316C130.199 16.9561 133.349 20.1057 133.349 23.9989C133.349 27.8817 130.199 31.0313 126.316 31.0313Z" fill="#1D1D1B"/>
<path d="M124.364 27.0766C126.064 27.0766 127.442 25.6988 127.442 23.9992C127.442 22.2997 126.064 20.9219 124.364 20.9219C122.665 20.9219 121.287 22.2997 121.287 23.9992C121.287 25.6988 122.665 27.0766 124.364 27.0766Z" fill="url(#paint0_linear_110520_18917)"/>
<path d="M124.364 25.7552C125.334 25.7552 126.12 24.9692 126.12 23.9997C126.12 23.0301 125.334 22.2441 124.364 22.2441C123.395 22.2441 122.609 23.0301 122.609 23.9997C122.609 24.9692 123.395 25.7552 124.364 25.7552Z" fill="url(#paint1_linear_110520_18917)"/>
<path d="M125.903 23.9996C125.903 24.8464 125.211 25.5383 124.364 25.5383C123.518 25.5383 122.826 24.8464 122.826 23.9996C122.826 23.1528 123.507 22.4609 124.364 22.4609C125.221 22.4609 125.903 23.1425 125.903 23.9996Z" fill="url(#paint2_linear_110520_18917)"/>
<path style="mix-blend-mode:multiply" d="M125.903 23.9996C125.903 24.8464 125.211 25.5383 124.364 25.5383C123.518 25.5383 122.826 24.8464 122.826 23.9996C122.826 23.1528 123.507 22.4609 124.364 22.4609C125.221 22.4609 125.903 23.1425 125.903 23.9996Z" fill="url(#paint3_radial_110520_18917)"/>
<path style="mix-blend-mode:screen" d="M125.758 24.8051C125.758 24.5057 125.511 24.2578 125.211 24.2578C124.912 24.2578 124.664 24.5057 124.664 24.8051C124.664 25.1046 124.912 25.3524 125.211 25.3524C125.511 25.3524 125.758 25.1046 125.758 24.8051Z" fill="url(#paint4_radial_110520_18917)"/>
<path d="M0 0H220V443.667H0V0Z" fill="url(#pattern2_110520_18917)"/>
<mask id="mask1_110520_18917" style="mask-type:alpha" maskUnits="userSpaceOnUse" x="12" y="10" width="196" height="424">
<path d="M165.847 10.4609H182.731C196.455 10.4609 207.567 21.5828 207.567 35.2966V408.338C207.567 422.063 196.445 433.174 182.731 433.174H37.2381C23.5139 433.174 12.4023 422.052 12.4023 408.338V35.2966C12.4023 21.5725 23.5242 10.4609 37.2381 10.4609H165.847Z" fill="url(#pattern3_110520_18917)"/>
<path d="M165.847 10.4609H182.731C196.455 10.4609 207.567 21.5828 207.567 35.2966V408.338C207.567 422.063 196.445 433.174 182.731 433.174H37.2381C23.5139 433.174 12.4023 422.052 12.4023 408.338V35.2966C12.4023 21.5725 23.5242 10.4609 37.2381 10.4609H165.847Z" fill="#A7A8A9"/>
</mask>
<g mask="url(#mask1_110520_18917)">
<path d="M208.16 10H13V432.72H208.16V10Z" fill="white"/>
<g filter="url(#filter0_d_110520_18917)">
<path d="M99.365 103.5C99.365 123.382 83.2472 139.5 63.365 139.5C43.4827 139.5 27.365 123.382 27.365 103.5C27.365 83.6177 43.4827 67.5 63.365 67.5C83.2472 67.5 99.365 83.6177 99.365 103.5Z" fill="url(#pattern4_110520_18917)"/>
</g>
<g filter="url(#filter1_d_110520_18917)">
<path d="M195.365 103.5C195.365 123.382 179.247 139.5 159.365 139.5C139.483 139.5 123.365 123.382 123.365 103.5C123.365 83.6177 139.483 67.5 159.365 67.5C179.247 67.5 195.365 83.6177 195.365 103.5Z" fill="url(#pattern5_110520_18917)"/>
</g>
<g filter="url(#filter2_d_110520_18917)">
<path d="M99.365 199.5C99.365 219.382 83.2472 235.5 63.365 235.5C43.4827 235.5 27.365 219.382 27.365 199.5C27.365 179.618 43.4827 163.5 63.365 163.5C83.2472 163.5 99.365 179.618 99.365 199.5Z" fill="url(#pattern6_110520_18917)"/>
</g>
<g filter="url(#filter3_d_110520_18917)">
<path d="M195.365 199.5C195.365 219.382 179.247 235.5 159.365 235.5C139.483 235.5 123.365 219.382 123.365 199.5C123.365 179.618 139.483 163.5 159.365 163.5C179.247 163.5 195.365 179.618 195.365 199.5Z" fill="url(#pattern7_110520_18917)"/>
</g>
<g filter="url(#filter4_d_110520_18917)">
<path d="M99.365 295.5C99.365 315.382 83.2472 331.5 63.365 331.5C43.4827 331.5 27.365 315.382 27.365 295.5C27.365 275.618 43.4827 259.5 63.365 259.5C83.2472 259.5 99.365 275.618 99.365 295.5Z" fill="url(#pattern8_110520_18917)"/>
</g>
<g filter="url(#filter5_d_110520_18917)">
<path d="M195.365 295.5C195.365 315.382 179.247 331.5 159.365 331.5C139.483 331.5 123.365 315.382 123.365 295.5C123.365 275.618 139.483 259.5 159.365 259.5C179.247 259.5 195.365 275.618 195.365 295.5Z" fill="url(#pattern9_110520_18917)"/>
</g>
<path d="M66.4822 369.5V368.013L69.8879 364.651C70.386 364.173 70.7717 363.78 71.0452 363.472C71.3186 363.16 71.509 362.889 71.6165 362.659C71.7239 362.425 71.7776 362.183 71.7776 361.934V361.912C71.7776 361.609 71.7117 361.343 71.5798 361.114C71.4529 360.884 71.2673 360.706 71.0232 360.579C70.7791 360.447 70.4885 360.381 70.1516 360.381C69.8098 360.381 69.5071 360.455 69.2434 360.601C68.9797 360.743 68.7747 360.94 68.6282 361.194C68.4817 361.443 68.4084 361.736 68.4084 362.073V362.11H66.365L66.3577 362.073C66.3577 361.399 66.5212 360.806 66.8484 360.293C67.1804 359.781 67.637 359.38 68.218 359.092C68.804 358.804 69.4827 358.66 70.2542 358.66C70.9817 358.66 71.6213 358.79 72.1731 359.048C72.7297 359.307 73.1643 359.666 73.4768 360.125C73.7942 360.584 73.9529 361.119 73.9529 361.729V361.751C73.9529 362.151 73.8748 362.544 73.7185 362.93C73.5623 363.311 73.2986 363.724 72.9275 364.168C72.5564 364.612 72.0486 365.132 71.4041 365.728L68.8552 368.108L69.4485 367.142V368.108L68.8552 367.72H74.1067V369.5H66.4822ZM80.2004 369.771C79.3313 369.771 78.5818 369.546 77.9519 369.097C77.3269 368.643 76.8459 368.001 76.509 367.171C76.1721 366.341 76.0037 365.357 76.0037 364.219V364.205C76.0037 363.062 76.1721 362.078 76.509 361.253C76.8459 360.423 77.3269 359.783 77.9519 359.334C78.5818 358.885 79.3313 358.66 80.2004 358.66C81.0745 358.66 81.824 358.885 82.449 359.334C83.074 359.783 83.5549 360.423 83.8918 361.253C84.2288 362.078 84.3972 363.062 84.3972 364.205V364.219C84.3972 365.357 84.2288 366.341 83.8918 367.171C83.5549 368.001 83.074 368.643 82.449 369.097C81.824 369.546 81.0745 369.771 80.2004 369.771ZM80.2004 368.021C80.6204 368.021 80.9744 367.869 81.2625 367.566C81.5554 367.264 81.7776 366.829 81.929 366.263C82.0852 365.696 82.1633 365.015 82.1633 364.219V364.205C82.1633 363.404 82.0852 362.723 81.929 362.161C81.7776 361.595 81.5554 361.163 81.2625 360.865C80.9744 360.562 80.6204 360.411 80.2004 360.411C79.7854 360.411 79.4314 360.562 79.1384 360.865C78.8503 361.163 78.6282 361.595 78.4719 362.161C78.3206 362.723 78.2449 363.404 78.2449 364.205V364.219C78.2449 365.015 78.3206 365.696 78.4719 366.263C78.6282 366.829 78.8503 367.264 79.1384 367.566C79.4314 367.869 79.7854 368.021 80.2004 368.021ZM90.469 369.771C89.5999 369.771 88.8503 369.546 88.2205 369.097C87.5955 368.643 87.1145 368.001 86.7776 367.171C86.4407 366.341 86.2722 365.357 86.2722 364.219V364.205C86.2722 363.062 86.4407 362.078 86.7776 361.253C87.1145 360.423 87.5955 359.783 88.2205 359.334C88.8503 358.885 89.5999 358.66 90.469 358.66C91.343 358.66 92.0925 358.885 92.7175 359.334C93.3425 359.783 93.8235 360.423 94.1604 361.253C94.4973 362.078 94.6658 363.062 94.6658 364.205V364.219C94.6658 365.357 94.4973 366.341 94.1604 367.171C93.8235 368.001 93.3425 368.643 92.7175 369.097C92.0925 369.546 91.343 369.771 90.469 369.771ZM90.469 368.021C90.8889 368.021 91.2429 367.869 91.531 367.566C91.824 367.264 92.0461 366.829 92.1975 366.263C92.3538 365.696 92.4319 365.015 92.4319 364.219V364.205C92.4319 363.404 92.3538 362.723 92.1975 362.161C92.0461 361.595 91.824 361.163 91.531 360.865C91.2429 360.562 90.8889 360.411 90.469 360.411C90.054 360.411 89.7 360.562 89.407 360.865C89.1189 361.163 88.8967 361.595 88.7405 362.161C88.5891 362.723 88.5134 363.404 88.5134 364.205V364.219C88.5134 365.015 88.5891 365.696 88.7405 366.263C88.8967 366.829 89.1189 367.264 89.407 367.566C89.7 367.869 90.054 368.021 90.469 368.021ZM96.5115 366.197V364.271H104.773V366.197H96.5115ZM99.6755 369.266V361.202H101.602V369.266H99.6755ZM113.826 369.668C113.094 369.668 112.469 369.568 111.951 369.368C111.438 369.163 111.035 368.882 110.742 368.526C110.454 368.169 110.286 367.762 110.237 367.303L110.23 367.273H112.332L112.346 367.303C112.434 367.552 112.6 367.757 112.844 367.918C113.094 368.079 113.428 368.16 113.848 368.16C114.121 368.16 114.361 368.123 114.566 368.05C114.771 367.972 114.932 367.867 115.049 367.735C115.166 367.603 115.225 367.449 115.225 367.273V367.259C115.225 367.044 115.137 366.866 114.961 366.724C114.785 366.583 114.492 366.465 114.082 366.373L112.735 366.087C112.222 365.979 111.795 365.823 111.453 365.618C111.111 365.408 110.855 365.152 110.684 364.849C110.518 364.546 110.435 364.195 110.435 363.794V363.787C110.435 363.279 110.574 362.837 110.852 362.461C111.135 362.081 111.529 361.785 112.031 361.575C112.539 361.365 113.128 361.26 113.797 361.26C114.5 361.26 115.098 361.368 115.591 361.583C116.084 361.792 116.463 362.076 116.726 362.432C116.995 362.784 117.144 363.177 117.173 363.611V363.641H115.188L115.181 363.604C115.122 363.384 114.976 363.191 114.741 363.025C114.507 362.854 114.19 362.769 113.789 362.769C113.545 362.769 113.328 362.806 113.137 362.879C112.947 362.952 112.796 363.055 112.683 363.187C112.576 363.318 112.522 363.475 112.522 363.655V363.663C112.522 363.804 112.559 363.929 112.632 364.036C112.705 364.144 112.825 364.236 112.991 364.314C113.157 364.393 113.379 364.463 113.657 364.527L114.998 364.812C115.803 364.988 116.399 365.252 116.785 365.604C117.171 365.955 117.364 366.429 117.364 367.024V367.032C117.364 367.564 117.212 368.028 116.909 368.423C116.607 368.819 116.189 369.126 115.657 369.346C115.125 369.561 114.514 369.668 113.826 369.668ZM122.417 369.529C121.441 369.529 120.738 369.358 120.308 369.017C119.878 368.67 119.663 368.106 119.663 367.325V363.047H118.418V361.436H119.663V359.51H121.824V361.436H123.487V363.047H121.824V366.834C121.824 367.195 121.905 367.461 122.066 367.632C122.232 367.798 122.495 367.881 122.857 367.881C122.993 367.881 123.106 367.879 123.194 367.874C123.286 367.864 123.384 367.854 123.487 367.845V369.434C123.355 369.458 123.196 369.48 123.01 369.5C122.825 369.52 122.627 369.529 122.417 369.529ZM128.789 369.668C127.964 369.668 127.254 369.502 126.658 369.17C126.062 368.833 125.606 368.353 125.288 367.728C124.971 367.098 124.812 366.346 124.812 365.472V365.457C124.812 364.588 124.973 363.841 125.296 363.216C125.618 362.591 126.074 362.11 126.665 361.773C127.261 361.431 127.969 361.26 128.789 361.26C129.61 361.26 130.315 361.429 130.906 361.766C131.502 362.103 131.961 362.586 132.283 363.216C132.605 363.841 132.766 364.588 132.766 365.457V365.472C132.766 366.346 132.608 367.098 132.29 367.728C131.973 368.353 131.516 368.833 130.921 369.17C130.33 369.502 129.619 369.668 128.789 369.668ZM128.789 367.991C129.17 367.991 129.492 367.891 129.756 367.691C130.02 367.491 130.222 367.203 130.364 366.827C130.506 366.451 130.576 365.999 130.576 365.472V365.457C130.576 364.93 130.506 364.48 130.364 364.109C130.222 363.733 130.017 363.445 129.749 363.245C129.485 363.04 129.165 362.938 128.789 362.938C128.413 362.938 128.091 363.04 127.823 363.245C127.559 363.445 127.356 363.733 127.215 364.109C127.073 364.48 127.002 364.93 127.002 365.457V365.472C127.002 366.004 127.071 366.458 127.207 366.834C127.349 367.21 127.552 367.498 127.815 367.698C128.084 367.894 128.408 367.991 128.789 367.991ZM134.51 369.5V361.436H136.648V362.688H136.78C136.912 362.249 137.154 361.91 137.505 361.67C137.857 361.426 138.294 361.304 138.816 361.304C138.963 361.304 139.104 361.314 139.241 361.333C139.383 361.353 139.507 361.377 139.615 361.407V363.274C139.453 363.235 139.29 363.206 139.124 363.187C138.963 363.162 138.799 363.15 138.633 363.15C138.228 363.15 137.876 363.226 137.578 363.377C137.281 363.523 137.051 363.733 136.89 364.007C136.729 364.28 136.648 364.607 136.648 364.988V369.5H134.51ZM144.412 369.668C143.596 369.668 142.893 369.5 142.302 369.163C141.717 368.821 141.265 368.338 140.948 367.713C140.63 367.088 140.471 366.343 140.471 365.479V365.472C140.471 364.617 140.628 363.875 140.94 363.245C141.258 362.615 141.704 362.127 142.281 361.78C142.862 361.434 143.543 361.26 144.324 361.26C145.11 361.26 145.789 361.429 146.36 361.766C146.931 362.103 147.371 362.574 147.678 363.179C147.986 363.785 148.14 364.495 148.14 365.311V365.977H141.541V364.637H147.115L146.111 365.904V365.047C146.111 364.563 146.035 364.161 145.884 363.838C145.738 363.516 145.532 363.274 145.269 363.113C145.01 362.947 144.707 362.864 144.361 362.864C144.019 362.864 143.714 362.95 143.445 363.121C143.181 363.287 142.971 363.533 142.815 363.86C142.664 364.183 142.588 364.578 142.588 365.047V365.911C142.588 366.365 142.664 366.753 142.815 367.076C142.967 367.398 143.181 367.645 143.46 367.815C143.738 367.986 144.07 368.072 144.456 368.072C144.768 368.072 145.034 368.025 145.254 367.933C145.474 367.84 145.65 367.732 145.781 367.61C145.918 367.483 146.011 367.369 146.06 367.266L146.082 367.222H148.074L148.059 367.295C147.996 367.549 147.881 367.815 147.715 368.094C147.549 368.367 147.32 368.624 147.027 368.863C146.739 369.102 146.377 369.297 145.943 369.449C145.513 369.595 145.003 369.668 144.412 369.668ZM153.098 369.668C152.366 369.668 151.741 369.568 151.223 369.368C150.711 369.163 150.308 368.882 150.015 368.526C149.727 368.169 149.558 367.762 149.51 367.303L149.502 367.273H151.604L151.619 367.303C151.707 367.552 151.873 367.757 152.117 367.918C152.366 368.079 152.7 368.16 153.12 368.16C153.394 368.16 153.633 368.123 153.838 368.05C154.043 367.972 154.204 367.867 154.322 367.735C154.439 367.603 154.497 367.449 154.497 367.273V367.259C154.497 367.044 154.409 366.866 154.234 366.724C154.058 366.583 153.765 366.465 153.355 366.373L152.007 366.087C151.494 365.979 151.067 365.823 150.725 365.618C150.384 365.408 150.127 365.152 149.956 364.849C149.79 364.546 149.707 364.195 149.707 363.794V363.787C149.707 363.279 149.846 362.837 150.125 362.461C150.408 362.081 150.801 361.785 151.304 361.575C151.812 361.365 152.4 361.26 153.069 361.26C153.772 361.26 154.37 361.368 154.864 361.583C155.357 361.792 155.735 362.076 155.999 362.432C156.267 362.784 156.416 363.177 156.446 363.611V363.641H154.461L154.453 363.604C154.395 363.384 154.248 363.191 154.014 363.025C153.78 362.854 153.462 362.769 153.062 362.769C152.818 362.769 152.6 362.806 152.41 362.879C152.219 362.952 152.068 363.055 151.956 363.187C151.848 363.318 151.795 363.475 151.795 363.655V363.663C151.795 363.804 151.831 363.929 151.905 364.036C151.978 364.144 152.097 364.236 152.263 364.314C152.429 364.393 152.652 364.463 152.93 364.527L154.27 364.812C155.076 364.988 155.672 365.252 156.057 365.604C156.443 365.955 156.636 366.429 156.636 367.024V367.032C156.636 367.564 156.485 368.028 156.182 368.423C155.879 368.819 155.462 369.126 154.929 369.346C154.397 369.561 153.787 369.668 153.098 369.668Z" fill="#00AD37"/>
</g>
<path d="M84.741 16.9561H133.508V31.2561H84.741V16.9561Z" fill="url(#pattern10_110520_18917)"/>
</g>
<defs>
<pattern id="pattern0_110520_18917" patternContentUnits="objectBoundingBox" width="1" height="1">
<use xlink:href="#image0_110520_18917" transform="matrix(0.00115517 0 0 0.000533333 -0.943956 0)"/>
</pattern>
<pattern id="pattern1_110520_18917" patternContentUnits="objectBoundingBox" width="1" height="1">
<use xlink:href="#image0_110520_18917" transform="matrix(0.00115517 0 0 0.000533333 -0.943956 0)"/>
</pattern>
<pattern id="pattern2_110520_18917" patternContentUnits="objectBoundingBox" width="1" height="1">
<use xlink:href="#image1_110520_18917" transform="scale(0.00166667 0.000826446)"/>
</pattern>
<pattern id="pattern3_110520_18917" patternContentUnits="objectBoundingBox" width="1" height="1">
<use xlink:href="#image0_110520_18917" transform="matrix(0.00115517 0 0 0.000533333 -0.943956 0)"/>
</pattern>
<filter id="filter0_d_110520_18917" x="23.365" y="64.5" width="80" height="80" filterUnits="userSpaceOnUse" color-interpolation-filters="sRGB">
<feFlood flood-opacity="0" result="BackgroundImageFix"/>
<feColorMatrix in="SourceAlpha" type="matrix" values="0 0 0 0 0 0 0 0 0 0 0 0 0 0 0 0 0 0 127 0" result="hardAlpha"/>
<feOffset dy="1"/>
<feGaussianBlur stdDeviation="2"/>
<feComposite in2="hardAlpha" operator="out"/>
<feColorMatrix type="matrix" values="0 0 0 0 0 0 0 0 0 0 0 0 0 0 0 0 0 0 0.25 0"/>
<feBlend mode="normal" in2="BackgroundImageFix" result="effect1_dropShadow_110520_18917"/>
<feBlend mode="normal" in="SourceGraphic" in2="effect1_dropShadow_110520_18917" result="shape"/>
</filter>
<pattern id="pattern4_110520_18917" patternContentUnits="objectBoundingBox" width="1" height="1">
<use xlink:href="#image2_110520_18917" transform="scale(0.00444444)"/>
</pattern>
<filter id="filter1_d_110520_18917" x="119.365" y="64.5" width="80" height="80" filterUnits="userSpaceOnUse" color-interpolation-filters="sRGB">
<feFlood flood-opacity="0" result="BackgroundImageFix"/>
<feColorMatrix in="SourceAlpha" type="matrix" values="0 0 0 0 0 0 0 0 0 0 0 0 0 0 0 0 0 0 127 0" result="hardAlpha"/>
<feOffset dy="1"/>
<feGaussianBlur stdDeviation="2"/>
<feComposite in2="hardAlpha" operator="out"/>
<feColorMatrix type="matrix" values="0 0 0 0 0 0 0 0 0 0 0 0 0 0 0 0 0 0 0.25 0"/>
<feBlend mode="normal" in2="BackgroundImageFix" result="effect1_dropShadow_110520_18917"/>
<feBlend mode="normal" in="SourceGraphic" in2="effect1_dropShadow_110520_18917" result="shape"/>
</filter>
<pattern id="pattern5_110520_18917" patternContentUnits="objectBoundingBox" width="1" height="1">
<use xlink:href="#image3_110520_18917" transform="translate(-0.00223214) scale(0.00446429)"/>
</pattern>
<filter id="filter2_d_110520_18917" x="23.365" y="160.5" width="80" height="80" filterUnits="userSpaceOnUse" color-interpolation-filters="sRGB">
<feFlood flood-opacity="0" result="BackgroundImageFix"/>
<feColorMatrix in="SourceAlpha" type="matrix" values="0 0 0 0 0 0 0 0 0 0 0 0 0 0 0 0 0 0 127 0" result="hardAlpha"/>
<feOffset dy="1"/>
<feGaussianBlur stdDeviation="2"/>
<feComposite in2="hardAlpha" operator="out"/>
<feColorMatrix type="matrix" values="0 0 0 0 0 0 0 0 0 0 0 0 0 0 0 0 0 0 0.25 0"/>
<feBlend mode="normal" in2="BackgroundImageFix" result="effect1_dropShadow_110520_18917"/>
<feBlend mode="normal" in="SourceGraphic" in2="effect1_dropShadow_110520_18917" result="shape"/>
</filter>
<pattern id="pattern6_110520_18917" patternContentUnits="objectBoundingBox" width="1" height="1">
<use xlink:href="#image4_110520_18917" transform="translate(-0.03125) scale(0.00520833)"/>
</pattern>
<filter id="filter3_d_110520_18917" x="119.365" y="160.5" width="80" height="80" filterUnits="userSpaceOnUse" color-interpolation-filters="sRGB">
<feFlood flood-opacity="0" result="BackgroundImageFix"/>
<feColorMatrix in="SourceAlpha" type="matrix" values="0 0 0 0 0 0 0 0 0 0 0 0 0 0 0 0 0 0 127 0" result="hardAlpha"/>
<feOffset dy="1"/>
<feGaussianBlur stdDeviation="2"/>
<feComposite in2="hardAlpha" operator="out"/>
<feColorMatrix type="matrix" values="0 0 0 0 0 0 0 0 0 0 0 0 0 0 0 0 0 0 0.25 0"/>
<feBlend mode="normal" in2="BackgroundImageFix" result="effect1_dropShadow_110520_18917"/>
<feBlend mode="normal" in="SourceGraphic" in2="effect1_dropShadow_110520_18917" result="shape"/>
</filter>
<pattern id="pattern7_110520_18917" patternContentUnits="objectBoundingBox" width="1" height="1">
<use xlink:href="#image5_110520_18917" transform="scale(0.00444444)"/>
</pattern>
<filter id="filter4_d_110520_18917" x="23.365" y="256.5" width="80" height="80" filterUnits="userSpaceOnUse" color-interpolation-filters="sRGB">
<feFlood flood-opacity="0" result="BackgroundImageFix"/>
<feColorMatrix in="SourceAlpha" type="matrix" values="0 0 0 0 0 0 0 0 0 0 0 0 0 0 0 0 0 0 127 0" result="hardAlpha"/>
<feOffset dy="1"/>
<feGaussianBlur stdDeviation="2"/>
<feComposite in2="hardAlpha" operator="out"/>
<feColorMatrix type="matrix" values="0 0 0 0 0 0 0 0 0 0 0 0 0 0 0 0 0 0 0.25 0"/>
<feBlend mode="normal" in2="BackgroundImageFix" result="effect1_dropShadow_110520_18917"/>
<feBlend mode="normal" in="SourceGraphic" in2="effect1_dropShadow_110520_18917" result="shape"/>
</filter>
<pattern id="pattern8_110520_18917" patternContentUnits="objectBoundingBox" width="1" height="1">
<use xlink:href="#image6_110520_18917" transform="translate(-0.251366) scale(0.00546448)"/>
</pattern>
<filter id="filter5_d_110520_18917" x="119.365" y="256.5" width="80" height="80" filterUnits="userSpaceOnUse" color-interpolation-filters="sRGB">
<feFlood flood-opacity="0" result="BackgroundImageFix"/>
<feColorMatrix in="SourceAlpha" type="matrix" values="0 0 0 0 0 0 0 0 0 0 0 0 0 0 0 0 0 0 127 0" result="hardAlpha"/>
<feOffset dy="1"/>
<feGaussianBlur stdDeviation="2"/>
<feComposite in2="hardAlpha" operator="out"/>
<feColorMatrix type="matrix" values="0 0 0 0 0 0 0 0 0 0 0 0 0 0 0 0 0 0 0.25 0"/>
<feBlend mode="normal" in2="BackgroundImageFix" result="effect1_dropShadow_110520_18917"/>
<feBlend mode="normal" in="SourceGraphic" in2="effect1_dropShadow_110520_18917" result="shape"/>
</filter>
<pattern id="pattern9_110520_18917" patternContentUnits="objectBoundingBox" width="1" height="1">
<use xlink:href="#image7_110520_18917" transform="translate(-0.149746) scale(0.00507614)"/>
</pattern>
<pattern id="pattern10_110520_18917" patternContentUnits="objectBoundingBox" width="1" height="1">
<use xlink:href="#image8_110520_18917" transform="scale(0.0075188 0.025641)"/>
</pattern>
<linearGradient id="paint0_linear_110520_18917" x1="124.364" y1="26.8804" x2="124.364" y2="20.8289" gradientUnits="userSpaceOnUse">
<stop stop-color="#666666"/>
<stop offset="1" stop-color="#010104"/>
</linearGradient>
<linearGradient id="paint1_linear_110520_18917" x1="124.375" y1="22.3577" x2="124.375" y2="25.8172" gradientUnits="userSpaceOnUse">
<stop stop-color="#0B131C"/>
<stop offset="1" stop-color="#354039"/>
</linearGradient>
<linearGradient id="paint2_linear_110520_18917" x1="125.449" y1="25.0839" x2="123.28" y2="22.9153" gradientUnits="userSpaceOnUse">
<stop stop-color="#231F20"/>
<stop offset="0.08" stop-color="#212226"/>
<stop offset="0.2" stop-color="#1F2C37"/>
<stop offset="0.33" stop-color="#1A3C53"/>
<stop offset="0.47" stop-color="#13537B"/>
<stop offset="0.62" stop-color="#0A70AE"/>
<stop offset="0.78" stop-color="#0095EE"/>
<stop offset="0.8" stop-color="#0387D6"/>
<stop offset="0.84" stop-color="#0D689F"/>
<stop offset="0.88" stop-color="#154D71"/>
<stop offset="0.91" stop-color="#1B394E"/>
<stop offset="0.95" stop-color="#1F2A34"/>
<stop offset="0.98" stop-color="#222225"/>
<stop offset="1" stop-color="#231F20"/>
</linearGradient>
<radialGradient id="paint3_radial_110520_18917" cx="0" cy="0" r="1" gradientUnits="userSpaceOnUse" gradientTransform="translate(124.364 23.9996) scale(1.53868 1.53868)">
<stop stop-color="#231F20"/>
<stop offset="0.2" stop-color="#165068"/>
<stop offset="0.38" stop-color="#0C78A1"/>
<stop offset="0.54" stop-color="#0594CB"/>
<stop offset="0.66" stop-color="#01A6E4"/>
<stop offset="0.73" stop-color="#00ADEE"/>
<stop offset="0.76" stop-color="#01A5E3"/>
<stop offset="0.81" stop-color="#0693C8"/>
<stop offset="0.87" stop-color="#0D749B"/>
<stop offset="0.94" stop-color="#184A5E"/>
<stop offset="1" stop-color="#231F20"/>
</radialGradient>
<radialGradient id="paint4_radial_110520_18917" cx="0" cy="0" r="1" gradientUnits="userSpaceOnUse" gradientTransform="translate(125.211 24.8051) scale(0.547315)">
<stop stop-color="#CCCCCC"/>
<stop offset="0.02" stop-color="#C4C4C4"/>
<stop offset="0.22" stop-color="#898989"/>
<stop offset="0.41" stop-color="#585858"/>
<stop offset="0.59" stop-color="#313131"/>
<stop offset="0.75" stop-color="#161616"/>
<stop offset="0.89" stop-color="#050505"/>
<stop offset="1"/>
</radialGradient>
<clipPath id="clip0_110520_18917">
<rect width="220" height="444" fill="white"/>
</clipPath>

<image id="image7_110520_18917" width="256" height="197" xlink:href="https://vscode.dev/github/seifmoustafa/in_poket/blob/feature/OnBoarding/assets/images/a.svg"/>
</defs>
</svg>
