<svg width="17" height="18" viewBox="0 0 17 18" fill="none" xmlns="http://www.w3.org/2000/svg">
<path d="M11.848 18.0006H5.1526C4.48273 17.9909 3.8412 17.7268 3.3563 17.2612C2.87141 16.7956 2.57888 16.1628 2.53721 15.4894L1.74388 3.33721C1.73981 3.2491 1.75313 3.16105 1.78305 3.07816C1.81298 2.99527 1.85893 2.91918 1.91824 2.85428C1.97934 2.78702 2.05331 2.7329 2.13571 2.69518C2.21811 2.65746 2.30724 2.63691 2.39773 2.63477H14.6029C14.6925 2.63457 14.7813 2.65294 14.8636 2.68875C14.9459 2.72455 15.02 2.77702 15.0813 2.8429C15.1426 2.90878 15.1898 2.98666 15.22 3.07169C15.2502 3.15673 15.2627 3.24711 15.2567 3.33721L14.4982 15.4894C14.4561 16.1688 14.1587 16.8066 13.6664 17.2731C13.1741 17.7396 12.5239 17.9997 11.848 18.0006ZM3.13003 3.95184L3.80132 15.4104C3.82349 15.7559 3.97559 16.0799 4.22664 16.3165C4.4777 16.553 4.80882 16.6843 5.1526 16.6835H11.848C12.1912 16.6822 12.5211 16.5502 12.7717 16.3141C13.0224 16.078 13.1751 15.7552 13.1993 15.4104L13.9054 3.99574L3.13003 3.95184Z" fill="#D12826"/>
<path d="M16.3462 3.95184H0.653846C0.480435 3.95184 0.314127 3.88246 0.191507 3.75896C0.0688871 3.63546 0 3.46796 0 3.2933C0 3.11865 0.0688871 2.95115 0.191507 2.82765C0.314127 2.70415 0.480435 2.63477 0.653846 2.63477H16.3462C16.5196 2.63477 16.6859 2.70415 16.8085 2.82765C16.9311 2.95115 17 3.11865 17 3.2933C17 3.46796 16.9311 3.63546 16.8085 3.75896C16.6859 3.88246 16.5196 3.95184 16.3462 3.95184Z" fill="#D12826"/>
<path d="M11.1153 3.95122H5.88456C5.71185 3.94894 5.54685 3.87883 5.42472 3.75582C5.30258 3.63281 5.23297 3.46663 5.23071 3.29268V1.71219C5.24176 1.2616 5.42442 0.832531 5.74087 0.513813C6.05731 0.195096 6.48332 0.0111309 6.93071 0H10.0692C10.524 0.0114559 10.9564 0.201518 11.274 0.529617C11.5916 0.857715 11.7693 1.29786 11.7692 1.7561V3.29268C11.7669 3.46663 11.6973 3.63281 11.5752 3.75582C11.453 3.87883 11.288 3.94894 11.1153 3.95122ZM6.53841 2.63415H10.4615V1.7561C10.4615 1.6513 10.4202 1.5508 10.3466 1.4767C10.273 1.4026 10.1732 1.36098 10.0692 1.36098H6.93071C6.82667 1.36098 6.72688 1.4026 6.65331 1.4767C6.57974 1.5508 6.53841 1.6513 6.53841 1.7561V2.63415ZM11.1153 14.4878C10.9426 14.4855 10.7776 14.4154 10.6555 14.2924C10.5334 14.1694 10.4637 14.0032 10.4615 13.8293V6.80488C10.4615 6.63022 10.5304 6.46272 10.653 6.33922C10.7756 6.21572 10.9419 6.14634 11.1153 6.14634C11.2887 6.14634 11.455 6.21572 11.5777 6.33922C11.7003 6.46272 11.7692 6.63022 11.7692 6.80488V13.8293C11.7669 14.0032 11.6973 14.1694 11.5752 14.2924C11.453 14.4154 11.288 14.4855 11.1153 14.4878ZM5.88456 14.4878C5.71185 14.4855 5.54685 14.4154 5.42472 14.2924C5.30258 14.1694 5.23297 14.0032 5.23071 13.8293V6.80488C5.23071 6.63022 5.2996 6.46272 5.42222 6.33922C5.54484 6.21572 5.71115 6.14634 5.88456 6.14634C6.05797 6.14634 6.22428 6.21572 6.3469 6.33922C6.46952 6.46272 6.53841 6.63022 6.53841 6.80488V13.8293C6.53615 14.0032 6.46653 14.1694 6.3444 14.2924C6.22227 14.4154 6.05727 14.4855 5.88456 14.4878ZM8.49994 14.4878C8.32723 14.4855 8.16224 14.4154 8.0401 14.2924C7.91797 14.1694 7.84836 14.0032 7.8461 13.8293V6.80488C7.8461 6.63022 7.91498 6.46272 8.03761 6.33922C8.16022 6.21572 8.32653 6.14634 8.49994 6.14634C8.67335 6.14634 8.83966 6.21572 8.96228 6.33922C9.0849 6.46272 9.15379 6.63022 9.15379 6.80488V13.8293C9.15153 14.0032 9.08192 14.1694 8.95979 14.2924C8.83765 14.4154 8.67265 14.4855 8.49994 14.4878Z" fill="#D12826"/>
</svg>
