<svg width="251" height="251" viewBox="0 0 251 251" fill="none" xmlns="http://www.w3.org/2000/svg">
<path d="M166.835 207.854C172.109 206.79 175.113 205.555 175.119 204.232C175.131 200.017 133.773 194.597 107.087 196.371C90.4204 197.48 70.0018 202 65.0017 204C60.0017 206 48.581 213.681 67.081 213.681H78.3177C78.3177 213.681 68.6811 233.136 134.203 230.197C171.75 228.509 184.081 221.719 186.581 219.719C189.081 217.72 193.222 209.054 166.835 207.854Z" fill="#F0F0F0"/>
<path d="M166.296 57.2031C167.725 57.2031 168.889 58.2203 168.889 59.4785V75.5945C168.889 76.8468 167.725 77.8699 166.296 77.8699C164.861 77.8699 163.697 76.8527 163.697 75.5945V59.4785C163.697 58.2203 164.861 57.2031 166.296 57.2031Z" fill="#BBBCBC"/>
<path d="M166.296 82.9375C167.725 82.9375 168.889 83.9547 168.889 85.2129V101.329C168.889 102.587 167.725 103.604 166.296 103.604C164.861 103.604 163.697 102.587 163.697 101.329V85.2129C163.697 83.9547 164.861 82.9375 166.296 82.9375Z" fill="#BBBCBC"/>
<path d="M166.296 115.17C167.725 115.17 168.889 115.793 168.889 116.563V126.459C168.889 127.229 167.725 127.858 166.296 127.858C164.861 127.858 163.697 127.235 163.697 126.459V116.563C163.697 115.793 164.861 115.17 166.296 115.17Z" fill="#BBBCBC"/>
<path d="M166.296 202.211C166.296 206.668 162.68 210.284 158.217 210.284H87.7858C83.3291 210.284 79.7131 206.668 79.7131 202.211V48.7895C79.7131 44.3269 83.3291 40.7168 87.7858 40.7168H158.217C162.68 40.7168 166.296 44.3327 166.296 48.7895V202.211Z" fill="#DADADA"/>
<path d="M163.773 199.772C163.773 204.093 160.369 207.592 156.171 207.592H89.8377C85.6397 207.592 82.2295 204.093 82.2295 199.772V51.2241C82.2295 46.9085 85.6338 43.4043 89.8377 43.4043H156.165C160.363 43.4043 163.768 46.9026 163.768 51.2241V199.772H163.773Z" fill="#2B2C2B"/>
<path d="M160.575 58.8848H84.8752V183.367H160.575V58.8848Z" fill="#1A1A19"/>
<path d="M158.829 60.3125H86.6099V181.932H158.829V60.3125Z" fill="#68C7ED"/>
<path d="M158.835 181.938H86.6099V60.3125L158.835 181.938Z" fill="#5BC6F1"/>
<path d="M129.284 49.9712C129.284 50.9943 128.455 51.8233 127.432 51.8233H114.309C113.286 51.8233 112.462 50.9943 112.462 49.9712C112.462 48.954 113.291 48.1191 114.309 48.1191H127.432C128.455 48.1191 129.284 48.9482 129.284 49.9712Z" fill="#1A1A19"/>
<path d="M138.033 50.3063C138.033 51.5117 137.057 52.4936 135.845 52.4936C134.64 52.4936 133.658 51.5117 133.658 50.3063C133.658 49.101 134.64 48.1191 135.845 48.1191C137.051 48.1191 138.033 49.0952 138.033 50.3063Z" fill="#1A1A19"/>
<path d="M123.005 203.635C128.044 203.635 132.13 199.55 132.13 194.51C132.13 189.47 128.044 185.385 123.005 185.385C117.965 185.385 113.879 189.47 113.879 194.51C113.879 199.55 117.965 203.635 123.005 203.635Z" fill="#1A1A19"/>
<path d="M85.969 92.5996C85.969 98.6791 82.3942 103.606 77.9845 103.606C73.5748 103.606 70 98.6791 70 92.5996H85.969Z" fill="#EF635B"/>
<path d="M101.938 92.5996C101.938 98.6791 98.3632 103.606 93.9535 103.606C89.5438 103.606 85.969 98.6791 85.969 92.5996H101.938Z" fill="white"/>
<path d="M117.907 92.5996C117.907 98.6791 114.332 103.606 109.922 103.606C105.513 103.606 101.938 98.6791 101.938 92.5996H117.907Z" fill="#EF635B"/>
<path d="M133.882 92.5996C133.882 98.6791 130.307 103.606 125.897 103.606C121.488 103.606 117.913 98.6791 117.913 92.5996H133.882Z" fill="white"/>
<path d="M149.821 92.5996C149.821 98.6791 146.246 103.606 141.837 103.606C137.427 103.606 133.852 98.6791 133.852 92.5996H149.821Z" fill="#EF635B"/>
<path d="M165.79 92.5996C165.79 98.6791 162.215 103.606 157.806 103.606C153.396 103.606 149.821 98.6791 149.821 92.5996H165.79Z" fill="white"/>
<path d="M181.765 92.5996C181.765 98.6791 178.19 103.606 173.781 103.606C169.371 103.606 165.796 98.6791 165.796 92.5996H181.765Z" fill="#EF635B"/>
<path d="M91.7192 60.3848L70 92.599H85.969L101.215 60.3848H91.7192Z" fill="#EF635B"/>
<path d="M101.215 60.3848L85.969 92.599H101.938L110.593 60.3848H101.215Z" fill="white"/>
<path d="M110.593 60.3848L101.938 92.599H117.907L119.853 60.3848H110.593Z" fill="#EF635B"/>
<path d="M119.853 60.3848L117.907 92.599H133.882L129.002 60.3848H119.853Z" fill="white"/>
<path d="M128.984 60.3848L133.852 92.599H149.821L138.009 60.3848H128.984Z" fill="#EF635B"/>
<path d="M138.009 60.3848L149.821 92.599H165.79L146.905 60.3848H138.009Z" fill="white"/>
<path d="M155.671 60.3848H146.905L165.79 92.599H181.765L155.671 60.3848Z" fill="#EF635B"/>
<path d="M142.795 150.012C142.795 151.952 141.225 153.522 139.285 153.522C137.345 153.522 135.775 151.952 135.775 150.012C135.775 148.078 137.345 146.502 139.285 146.502C141.225 146.502 142.795 148.072 142.795 150.012Z" fill="#342E35"/>
<path d="M141.431 150.011C141.431 151.199 140.473 152.157 139.285 152.157C138.097 152.157 137.139 151.199 137.139 150.011C137.139 148.829 138.097 147.865 139.285 147.865C140.473 147.865 141.431 148.824 141.431 150.011Z" fill="white"/>
<path d="M140.831 149.313C141.519 151.442 138.585 152.465 137.721 150.301C137.204 149.019 135.393 144.027 135.393 144.027H142.207C142.201 144.027 139.938 146.532 140.831 149.313Z" fill="white"/>
<path d="M140.214 149.747C140.214 150.194 139.85 150.558 139.403 150.558C138.956 150.558 138.591 150.194 138.591 149.747C138.591 149.3 138.956 148.936 139.403 148.936C139.85 148.936 140.214 149.3 140.214 149.747Z" fill="white"/>
<path d="M121.199 150.012C121.199 151.952 119.63 153.522 117.689 153.522C115.749 153.522 114.179 151.952 114.179 150.012C114.179 148.078 115.749 146.502 117.689 146.502C119.624 146.502 121.199 148.072 121.199 150.012Z" fill="#342E35"/>
<path d="M119.835 150.011C119.835 151.199 118.877 152.157 117.689 152.157C116.502 152.157 115.543 151.199 115.543 150.011C115.543 148.829 116.502 147.865 117.689 147.865C118.877 147.865 119.835 148.824 119.835 150.011Z" fill="white"/>
<path d="M104.625 112.117C106.048 117.873 108.829 129.127 109.146 130.403C109.576 132.131 110.481 133.39 112.133 133.39H143.236C144.883 133.39 145.629 132.378 146.223 130.403C146.911 128.121 149.051 117.603 150.157 112.117H104.625ZM145.376 129.815C144.806 131.637 144.095 132.572 142.519 132.572H112.745C111.163 132.572 110.293 131.414 109.887 129.815C109.587 128.633 106.924 118.238 105.56 112.923H149.145C148.087 117.991 146.035 127.704 145.376 129.815Z" fill="white"/>
<path d="M150.756 112.359C150.756 112.671 150.256 112.918 149.633 112.918H105.742C105.125 112.918 104.619 112.665 104.619 112.359C104.619 112.048 105.119 111.801 105.742 111.801H149.633C150.251 111.801 150.756 112.048 150.756 112.359Z" fill="white"/>
<path d="M144.941 133.955C144.941 134.267 144.565 134.514 144.095 134.514C144.095 134.514 117.537 134.514 115.99 134.514C113.092 134.514 112.204 139.111 112.204 139.111L111.522 136.342C111.522 136.342 113.168 133.391 115.014 133.391C116.86 133.391 144.095 133.391 144.095 133.391C144.565 133.391 144.941 133.643 144.941 133.955Z" fill="white"/>
<path d="M149.586 117.51C149.586 117.821 149.104 118.068 148.51 118.068H106.471C105.877 118.068 105.395 117.815 105.395 117.51C105.395 117.198 105.877 116.951 106.471 116.951H148.51C149.104 116.951 149.586 117.204 149.586 117.51Z" fill="white"/>
<path d="M114.702 133.331C114.403 133.402 114.103 133.225 114.032 132.943L109.282 112.658C109.217 112.37 109.405 112.082 109.705 112.012C110.005 111.941 110.305 112.117 110.375 112.4L115.126 132.684C115.196 132.972 115.002 133.26 114.702 133.331Z" fill="white"/>
<path d="M120.3 133.313C120 133.384 119.7 133.208 119.63 132.92L114.879 112.635C114.814 112.347 115.002 112.059 115.302 111.988C115.602 111.918 115.902 112.094 115.973 112.376L120.723 132.661C120.794 132.949 120.6 133.243 120.3 133.313Z" fill="white"/>
<path d="M126.585 133.313C126.285 133.384 125.985 133.208 125.915 132.92L121.164 112.635C121.099 112.347 121.288 112.059 121.587 111.988C121.887 111.918 122.187 112.094 122.252 112.376L127.003 132.661C127.079 132.949 126.891 133.243 126.585 133.313Z" fill="white"/>
<path d="M132.876 133.313C132.576 133.384 132.277 133.208 132.212 132.92L127.461 112.635C127.397 112.347 127.585 112.059 127.885 111.988C128.184 111.918 128.484 112.094 128.555 112.376L133.306 132.661C133.37 132.949 133.176 133.243 132.876 133.313Z" fill="white"/>
<path d="M139.162 133.313C138.862 133.384 138.562 133.208 138.491 132.92L133.741 112.635C133.676 112.347 133.864 112.059 134.164 111.988C134.464 111.918 134.764 112.094 134.834 112.376L139.585 132.661C139.656 132.949 139.467 133.243 139.162 133.313Z" fill="white"/>
<path d="M145.194 132.221C144.894 132.291 144.594 132.127 144.535 131.856L140.032 112.606C139.967 112.336 140.161 112.06 140.461 111.989C140.761 111.918 141.061 112.083 141.119 112.354L145.623 131.597C145.688 131.868 145.5 132.15 145.194 132.221Z" fill="white"/>
<path d="M148.498 119.15C148.199 119.22 147.899 119.044 147.828 118.761L146.323 112.635C146.258 112.347 146.446 112.059 146.746 111.988C147.046 111.918 147.346 112.094 147.411 112.376L148.916 118.503C148.986 118.785 148.798 119.079 148.498 119.15Z" fill="white"/>
<path d="M148.634 123.312C148.634 123.624 148.175 123.871 147.611 123.871H107.612C107.047 123.871 106.589 123.618 106.589 123.312C106.589 123.001 107.047 122.754 107.612 122.754H147.611C148.181 122.754 148.634 123.007 148.634 123.312Z" fill="white"/>
<path d="M147.44 128.141C147.44 128.452 147.011 128.699 146.476 128.699H108.776C108.241 128.699 107.812 128.446 107.812 128.141C107.812 127.829 108.241 127.582 108.776 127.582H146.476C147.011 127.582 147.44 127.835 147.44 128.141Z" fill="white"/>
<path d="M119.236 149.313C119.924 151.442 116.99 152.465 116.125 150.301C115.608 149.019 113.797 144.027 113.797 144.027H120.612C120.606 144.027 118.342 146.532 119.236 149.313Z" fill="white"/>
<path d="M141.69 145.373H114.279C113.044 145.373 112.068 144.85 111.204 141.363C110.951 140.346 104.819 114.864 103.561 109.772L95.7879 109.108C95.0471 109.031 94.6179 109.372 94.6943 108.631C94.7707 107.891 95.4293 107.356 96.1701 107.426L103.672 108.185C104.237 108.243 104.707 108.649 104.842 109.202C104.842 109.202 112.315 139.576 112.598 140.711C113.086 142.674 113.95 143.562 114.279 143.562H141.69C143.295 143.568 143.024 145.373 141.69 145.373Z" fill="white"/>
<path d="M101.515 107.973L96.1758 107.432C95.435 107.361 94.7765 107.897 94.7001 108.637C94.6236 109.378 95.1646 109.308 95.8995 109.378L101.42 109.802C101.714 109.378 101.714 108.361 101.515 107.973Z" fill="#342E35"/>
<path d="M118.618 149.747C118.618 150.194 118.254 150.558 117.807 150.558C117.36 150.558 116.996 150.194 116.996 149.747C116.996 149.3 117.36 148.936 117.807 148.936C118.254 148.936 118.618 149.3 118.618 149.747Z" fill="white"/>
</svg>
