<svg width="180" height="150" viewBox="0 0 180 150" fill="none" xmlns="http://www.w3.org/2000/svg">
<path d="M180 131.817H0V131.917H180V131.817Z" fill="#EBEBEB"/>
<path d="M113.641 134.56H104.476V134.66H113.641V134.56Z" fill="#EBEBEB"/>
<path d="M163.958 136.737H142.24V136.837H163.958V136.737Z" fill="#EBEBEB"/>
<path d="M102.524 134.608H80.0854V134.708H102.524V134.608Z" fill="#EBEBEB"/>
<path d="M65.5345 137.619H60.8401V137.719H65.5345V137.619Z" fill="#EBEBEB"/>
<path d="M91.4725 137.619H70.0957V137.719H91.4725V137.619Z" fill="#EBEBEB"/>
<path d="M32.7275 135.921H18.8855V136.021H32.7275V135.921Z" fill="#EBEBEB"/>
<path d="M85.32 113.861H15.8076C15.2631 113.86 14.7411 113.617 14.3564 113.186C13.9717 112.755 13.7556 112.171 13.7556 111.562V2.27883C13.7604 1.6733 13.9785 1.09431 14.3627 0.667632C14.7469 0.240951 15.2662 0.00103731 15.8076 0H85.32C85.8652 0 86.3881 0.242211 86.7736 0.67335C87.159 1.10449 87.3756 1.68924 87.3756 2.29896V111.562C87.3756 112.172 87.159 112.757 86.7736 113.188C86.3881 113.619 85.8652 113.861 85.32 113.861ZM15.8076 0.0805244C15.2869 0.0815909 14.7879 0.313667 14.4201 0.725814C14.0522 1.13796 13.8456 1.6965 13.8456 2.27883V111.562C13.8456 112.144 14.0522 112.703 14.4201 113.115C14.7879 113.527 15.2869 113.759 15.8076 113.76H85.32C85.841 113.759 86.3404 113.527 86.7089 113.115C87.0773 112.703 87.2847 112.145 87.2856 111.562V2.27883C87.2847 1.69613 87.0773 1.1376 86.7089 0.725569C86.3404 0.313537 85.841 0.0815887 85.32 0.0805244H15.8076Z" fill="#EBEBEB"/>
<path d="M163.192 113.861H93.6757C93.1308 113.86 92.6085 113.617 92.2232 113.187C91.838 112.756 91.6211 112.171 91.6201 111.562V2.27883C91.6258 1.67293 91.8448 1.09395 92.2296 0.667381C92.6143 0.240811 93.1339 0.00102599 93.6757 0H163.192C163.733 0.00209544 164.251 0.242478 164.634 0.669045C165.018 1.09561 165.235 1.674 165.24 2.27883V111.562C165.24 112.17 165.025 112.754 164.641 113.185C164.257 113.616 163.736 113.859 163.192 113.861ZM93.6757 0.0805244C93.1547 0.0815887 92.6553 0.313537 92.2869 0.725569C91.9185 1.1376 91.7111 1.69613 91.7101 2.27883V111.562C91.7111 112.145 91.9185 112.703 92.2869 113.115C92.6553 113.527 93.1547 113.759 93.6757 113.76H163.192C163.713 113.759 164.212 113.527 164.581 113.115C164.949 112.703 165.156 112.145 165.157 111.562V2.27883C165.156 1.69613 164.949 1.1376 164.581 0.725569C164.212 0.313537 163.713 0.0815887 163.192 0.0805244H93.6757Z" fill="#EBEBEB"/>
<path d="M70.5455 96.8986H46.6415L45.1907 78.1768H69.0947L70.5455 96.8986Z" fill="#E6E6E6"/>
<path d="M71.784 96.8986H47.88L46.4292 78.1768H70.3332L71.784 96.8986Z" fill="#F0F0F0"/>
<path d="M51.1488 92.8768L50.3496 82.1953H67.0644L67.8636 92.8768H51.1488Z" fill="white"/>
<path d="M75.9204 96.8984H73.116V131.818H75.9204V96.8984Z" fill="#E6E6E6"/>
<path d="M76.806 96.8984H74.8584V131.818H76.806V96.8984Z" fill="#F0F0F0"/>
<path d="M49.6586 100.751H76.8062V96.8979H49.6586V100.751Z" fill="#F0F0F0"/>
<path d="M50.6159 100.751H47.8115V131.817H50.6159V100.751Z" fill="#E6E6E6"/>
<path d="M51.5016 100.751H49.554V131.817H51.5016V100.751Z" fill="#F0F0F0"/>
<path d="M30.654 100.751H27.8496V131.817H30.654V100.751Z" fill="#E6E6E6"/>
<path d="M31.5394 100.751H29.5918V131.817H31.5394V100.751Z" fill="#F0F0F0"/>
<path d="M58.1723 100.751H55.3679V131.817H58.1723V100.751Z" fill="#E6E6E6"/>
<path d="M59.0543 100.751H57.1067V131.817H59.0543V100.751Z" fill="#F0F0F0"/>
<path d="M49.6584 96.8984H27.8496V100.752H49.6584V96.8984Z" fill="#E6E6E6"/>
<path d="M130.982 9.82715H46.6235V62.353H130.982V9.82715Z" fill="#E0E0E0"/>
<path d="M135.616 9.82715H47.0483V62.353H135.616V9.82715Z" fill="#F5F5F5"/>
<path d="M134.168 60.7351V11.4463L48.4957 11.4463V60.7351L134.168 60.7351Z" fill="white"/>
<path d="M83.1852 60.7351L99.36 11.4463H72.666L56.4912 60.7351H83.1852Z" fill="#F5F5F5"/>
<path d="M108.878 60.7351L125.053 11.4463H104.915L88.74 60.7351H108.878Z" fill="#F5F5F5"/>
<path d="M157.72 81.6514H150.548V131.818H157.72V81.6514Z" fill="#E6E6E6"/>
<path d="M155.833 131.818H157.719V127.957H153.857L155.833 131.818Z" fill="#FAFAFA"/>
<path d="M91.6021 81.6514H84.4309V131.818H91.6021V81.6514Z" fill="#E6E6E6"/>
<path d="M157.72 81.6514H89.9568V130.775H157.72V81.6514Z" fill="#FAFAFA"/>
<path d="M156.438 97.5022H91.2419V83.6279H156.438V97.5022ZM91.6019 97.0996H156.078V84.0306H91.6019V97.0996Z" fill="#E6E6E6"/>
<path d="M144.961 90.3637H103.982C102.082 90.3637 100.249 88.6485 98.9425 85.653L98.8201 85.3672H150.12L149.998 85.653C148.68 88.6485 146.88 90.3637 144.961 90.3637ZM99.4105 85.7577C100.627 88.4271 102.29 89.949 103.982 89.949H144.961C146.66 89.949 148.316 88.4271 149.533 85.7577H99.4105Z" fill="#E6E6E6"/>
<path d="M91.8432 131.818H89.9568V127.957H93.8196L91.8432 131.818Z" fill="#FAFAFA"/>
<path d="M156.438 113.137H91.2419V99.2783H156.438V113.137ZM91.6019 112.734H156.078V99.6809H91.6019V112.734Z" fill="#E6E6E6"/>
<path d="M144.961 106.014H103.982C102.082 106.014 100.249 104.295 98.9425 101.304L98.8201 101.014H150.12L149.998 101.304C148.68 104.279 146.88 106.014 144.961 106.014ZM99.4105 101.416C100.627 104.086 102.29 105.612 103.982 105.612H144.961C146.66 105.612 148.316 104.086 149.533 101.416H99.4105Z" fill="#E6E6E6"/>
<path d="M156.438 128.798H91.2419V114.924H156.438V128.798ZM91.6019 128.396H156.078V115.326H91.6019V128.396Z" fill="#E6E6E6"/>
<path d="M144.961 121.66H103.982C102.082 121.66 100.249 119.944 98.9425 116.953L98.8201 116.663H150.12L149.998 116.953C148.68 119.944 146.88 121.66 144.961 121.66ZM99.4105 117.066C100.627 119.735 102.29 121.257 103.982 121.257H144.961C146.66 121.257 148.316 119.735 149.533 117.066H99.4105Z" fill="#E6E6E6"/>
<path d="M43.5528 88.2861V89.2605H42.9984L42.5376 96.8982H35.7552L35.298 89.2605H34.74V88.2861H43.5528Z" fill="#E6E6E6"/>
<path d="M41.3208 69.3352C40.7664 64.7856 35.2764 63.4892 28.3104 63.3201C21.6828 63.1631 19.5588 60.542 19.5588 60.542C19.5588 60.542 19.5804 71.1591 29.1312 75.0081C38.1996 78.6559 41.8788 73.8929 41.3208 69.3352Z" fill="#E6E6E6"/>
<path d="M37.937 79.6464C38.0522 77.7782 40.7234 74.3398 47.1494 75.902C51.7934 77.0334 53.5214 74.3398 53.5214 74.3398C53.5214 74.3398 53.0894 81.9413 46.1054 84.2242C39.4706 86.3943 37.7318 82.9398 37.937 79.6464Z" fill="#E6E6E6"/>
<path d="M39.402 91.1536C39.4382 91.154 39.474 91.1456 39.507 91.1289C39.5399 91.1122 39.5692 91.0877 39.5928 91.057C40.0572 90.441 39.6756 88.9674 39.15 86.9261C38.4732 84.3091 37.6308 81.0479 38.3436 78.6845C38.7387 77.4361 39.2003 76.2153 39.726 75.0287C40.734 72.6452 41.6052 70.5999 40.878 68.4338C40.8667 68.3993 40.8493 68.3677 40.827 68.3408C40.8047 68.3139 40.7778 68.2922 40.7479 68.277C40.718 68.2617 40.6857 68.2533 40.6529 68.2521C40.6201 68.2509 40.5874 68.257 40.5567 68.2701C40.526 68.2831 40.4979 68.3028 40.4741 68.3281C40.4503 68.3533 40.4311 68.3836 40.4178 68.4172C40.4045 68.4507 40.3973 68.4869 40.3966 68.5236C40.3959 68.5604 40.4016 68.5969 40.4136 68.6311C41.0652 70.5596 40.2768 72.4278 39.276 74.7952C38.7437 76.0009 38.2749 77.2404 37.872 78.5073C37.1124 81.0358 37.9764 84.3896 38.6712 87.0791C39.0816 88.6896 39.5064 90.3001 39.2148 90.7027C39.1917 90.7305 39.174 90.7634 39.1628 90.7993C39.1516 90.8352 39.1473 90.8732 39.15 90.9111C39.1527 90.949 39.1624 90.9858 39.1785 91.0192C39.1946 91.0527 39.2168 91.082 39.2436 91.1053C39.2896 91.142 39.3458 91.1591 39.402 91.1536Z" fill="#E6E6E6"/>
<path d="M90.0001 150C128.55 150 159.801 147.96 159.801 145.442C159.801 142.925 128.55 140.885 90.0001 140.885C51.4504 140.885 20.1997 142.925 20.1997 145.442C20.1997 147.96 51.4504 150 90.0001 150Z" fill="#F5F5F5"/>
<path d="M89.9856 123.223H38.8656L36.0684 31.2764H87.1884L89.9856 123.223Z" fill="#00AD37"/>
<path d="M92.538 120.368H41.418L38.6172 28.4219H89.7372L92.538 120.368Z" fill="#00AD37"/>
<path opacity="0.3" d="M92.538 120.368H41.418L38.6172 28.4219H89.7372L92.538 120.368Z" fill="white"/>
<path d="M75.4102 66.2571C80.8837 60.03 80.6508 49.8476 74.89 43.5141C69.1293 37.1806 60.0221 37.0944 54.5486 43.3215C49.0751 49.5486 49.308 59.731 55.0687 66.0645C60.8295 72.398 69.9367 72.4843 75.4102 66.2571Z" fill="#00AD37"/>
<path d="M76.8491 54.7936C76.9228 56.9846 76.4953 59.1602 75.6071 61.1148C74.6485 63.2211 73.1842 64.9871 71.3782 66.2146C69.5723 67.442 67.4963 68.0825 65.3831 68.064C63.2202 68.0509 61.0985 67.402 59.2307 66.1823C57.3629 64.9626 55.8147 63.215 54.7415 61.1148C53.7408 59.1903 53.1818 57.0186 53.1143 54.7936C53.0479 53.0684 53.2958 51.3462 53.843 49.7314C54.3901 48.1167 55.2251 46.6432 56.2972 45.4005C57.3692 44.1579 58.656 43.1719 60.0793 42.5026C61.5026 41.8333 63.0327 41.4947 64.5767 41.5072C67.7574 41.5323 70.8072 42.9269 73.0926 45.4011C75.378 47.8753 76.7233 51.2391 76.8491 54.7936Z" fill="white"/>
<path opacity="0.6" d="M75.6 61.1144C74.6414 63.2207 73.177 64.9867 71.3711 66.2142C69.5652 67.4416 67.4892 68.0821 65.376 68.0636C63.2131 68.0506 61.0914 67.4016 59.2236 66.1819C57.3558 64.9622 55.8076 63.2146 54.7344 61.1144C57.779 58.7929 61.3816 57.5589 65.0664 57.5754C68.8106 57.5844 72.4712 58.8143 75.6 61.1144Z" fill="#00AD37"/>
<path opacity="0.6" d="M68.6778 54.4624C70.6904 52.1727 70.6048 48.4285 68.4865 46.0996C66.3683 43.7707 63.0195 43.739 61.0068 46.0288C58.9941 48.3186 59.0798 52.0627 61.198 54.3916C63.3163 56.7205 66.6651 56.7522 68.6778 54.4624Z" fill="#00AD37"/>
<path d="M82.2671 87.0724H49.6583L49.4387 79.8252H82.0475L82.2671 87.0724Z" fill="white"/>
<path d="M82.6631 100.024H50.0507L49.8311 92.7764H82.4435L82.6631 100.024Z" fill="white"/>
<path d="M70.1639 94.2095L62.2165 94.4506C62.1409 94.451 62.0658 94.4687 61.9958 94.5028C61.9259 94.5369 61.8626 94.5866 61.81 94.6487C61.7574 94.7108 61.7166 94.784 61.6902 94.8638C61.6638 94.9435 61.6523 95.028 61.6565 95.112L61.9642 101.084C61.9766 101.26 62.0478 101.422 62.1636 101.539C62.2795 101.657 62.4316 101.72 62.5901 101.717L70.5375 101.476C70.6131 101.474 70.688 101.456 70.7576 101.421C70.8273 101.386 70.8901 101.336 70.9423 101.274C70.9945 101.211 71.035 101.138 71.0611 101.058C71.0873 100.978 71.0986 100.894 71.0944 100.81L70.7904 94.8381C70.7778 94.6627 70.7065 94.5007 70.5904 94.3843C70.4744 94.2679 70.3222 94.2055 70.1639 94.2095ZM67.1964 99.8568L65.7411 99.8931L65.8333 97.9898C65.6948 97.9005 65.5785 97.7747 65.4942 97.6232C65.4099 97.4716 65.3601 97.2987 65.349 97.119C65.3395 96.9797 65.3564 96.8389 65.3985 96.7057C65.4407 96.5725 65.5072 96.45 65.5939 96.3459C65.6805 96.2418 65.7852 96.1586 65.9014 96.1016C66.0175 96.0446 66.1424 96.0151 66.268 96.0149C66.5263 96.0096 66.7744 96.1124 66.9632 96.3031C67.152 96.4937 67.2678 96.7584 67.2877 97.0447C67.298 97.2174 67.267 97.3913 67.198 97.5488C67.129 97.7063 67.0244 97.8418 66.8947 97.9416L67.1964 99.8568Z" fill="#00AD37"/>
<path d="M69.0386 93.8598C68.8983 93.8625 68.7636 93.8067 68.6609 93.7033C68.5581 93.5999 68.4948 93.4563 68.4834 93.3009L68.4535 92.7171C68.4065 91.9197 68.101 91.1763 67.5938 90.6247C67.0866 90.0731 66.4121 89.7507 65.6953 89.7174C65.3342 89.6963 64.9711 89.7622 64.6306 89.9106C64.2902 90.0591 63.9805 90.2866 63.7225 90.5778C63.4644 90.869 63.2642 91.2169 63.1353 91.5981C63.0063 91.9793 62.9518 92.3847 62.9754 92.7868L63.0088 93.4602C63.0131 93.5349 63.0034 93.6102 62.9802 93.6813C62.957 93.7524 62.9209 93.8178 62.8742 93.8731C62.8274 93.9285 62.7711 93.9727 62.7088 94.0028C62.6464 94.033 62.5795 94.0485 62.5122 94.0483C62.3714 94.0529 62.2357 93.9977 62.1327 93.8939C62.0296 93.7901 61.9668 93.6455 61.957 93.4893L61.9287 92.922C61.8943 92.3908 61.9569 91.8544 62.1126 91.3451C62.2683 90.8358 62.514 90.3641 62.8349 89.9582C63.1558 89.5524 63.5452 89.2209 63.9798 88.9836C64.4143 88.7463 64.8851 88.6082 65.3638 88.5774C66.4016 88.5115 67.4115 88.8929 68.1839 89.6426C68.9563 90.3923 69.4319 91.4527 69.512 92.6037L69.5459 93.2731C69.5502 93.3487 69.54 93.4249 69.5161 93.4967C69.4922 93.5685 69.455 93.6342 69.4071 93.6896C69.3592 93.745 69.3017 93.7888 69.2381 93.8182C69.1746 93.8475 69.1066 93.8617 69.0386 93.8598Z" fill="#00AD37"/>
<path d="M77.2812 110.174H56.052L55.9116 105.455H77.1372L77.2812 110.174Z" fill="#00AD37"/>
<path d="M67.0391 83.4477C67.0455 83.6198 67.0205 83.7916 66.9657 83.9526C66.9109 84.1136 66.8275 84.2604 66.7205 84.3843C66.6134 84.5081 66.485 84.6064 66.343 84.6731C66.201 84.7398 66.0483 84.7736 65.8943 84.7723C65.5769 84.7696 65.2725 84.6306 65.0441 84.3841C64.8157 84.1376 64.6806 83.8024 64.6667 83.4477C64.6604 83.2756 64.6854 83.1038 64.7401 82.9428C64.7949 82.7818 64.8784 82.635 64.9854 82.5111C65.0924 82.3873 65.2209 82.289 65.3629 82.2223C65.5049 82.1556 65.6575 82.1218 65.8115 82.1231C66.1292 82.1249 66.4341 82.2635 66.6627 82.5102C66.8914 82.7569 67.0262 83.0927 67.0391 83.4477Z" fill="#263238"/>
<path d="M61.9198 83.4477C61.9267 83.62 61.9021 83.792 61.8475 83.9532C61.7929 84.1145 61.7095 84.2616 61.6023 84.3856C61.4952 84.5095 61.3665 84.6078 61.2243 84.6743C61.0821 84.7408 60.9292 84.7741 60.775 84.7723C60.4579 84.7695 60.154 84.6304 59.9261 84.3838C59.6983 84.1372 59.5639 83.802 59.551 83.4477C59.5447 83.2756 59.5697 83.1038 59.6244 82.9428C59.6792 82.7818 59.7626 82.635 59.8697 82.5111C59.9767 82.3873 60.1051 82.289 60.2472 82.2223C60.3892 82.1556 60.5418 82.1218 60.6958 82.1231C61.0132 82.1249 61.3176 82.2637 61.5457 82.5105C61.7737 82.7573 61.9078 83.093 61.9198 83.4477Z" fill="#263238"/>
<path d="M56.8331 83.4477C56.8395 83.6198 56.8145 83.7916 56.7597 83.9526C56.705 84.1136 56.6215 84.2604 56.5145 84.3843C56.4074 84.5081 56.279 84.6064 56.137 84.6731C55.995 84.7398 55.8424 84.7736 55.6883 84.7723C55.371 84.7705 55.0666 84.6317 54.8385 84.3849C54.6104 84.1381 54.4764 83.8024 54.4643 83.4477C54.458 83.2756 54.483 83.1038 54.5378 82.9428C54.5925 82.7818 54.676 82.635 54.783 82.5111C54.8901 82.3873 55.0185 82.289 55.1605 82.2223C55.3025 82.1556 55.4551 82.1218 55.6091 82.1231C55.9265 82.1249 56.2309 82.2637 56.459 82.5105C56.687 82.7573 56.8211 83.093 56.8331 83.4477Z" fill="#263238"/>
<path d="M72.1405 83.4484C72.1468 83.6205 72.1219 83.7923 72.0671 83.9533C72.0123 84.1143 71.9289 84.2611 71.8218 84.385C71.7148 84.5088 71.5864 84.6071 71.4444 84.6738C71.3023 84.7405 71.1497 84.7742 70.9957 84.773C70.6784 84.7712 70.3739 84.6324 70.1458 84.3856C69.9178 84.1388 69.7837 83.8031 69.7717 83.4484C69.7663 83.2768 69.7922 83.1058 69.8476 82.9457C69.9031 82.7856 69.9871 82.6397 70.0945 82.517C70.2019 82.3943 70.3304 82.2972 70.4723 82.2317C70.6142 82.1662 70.7666 82.1336 70.9201 82.1359C71.235 82.1386 71.537 82.2761 71.764 82.5203C71.991 82.7644 72.1258 83.0966 72.1405 83.4484Z" fill="#263238"/>
<path d="M77.2416 83.4477C77.2485 83.62 77.2238 83.792 77.1692 83.9532C77.1147 84.1145 77.0312 84.2616 76.9241 84.3856C76.8169 84.5095 76.6883 84.6078 76.5461 84.6743C76.4038 84.7408 76.251 84.7741 76.0968 84.7723C75.7797 84.7695 75.4758 84.6304 75.2479 84.3838C75.02 84.1372 74.8857 83.802 74.8728 83.4477C74.8665 83.2756 74.8914 83.1038 74.9462 82.9428C75.001 82.7818 75.0844 82.635 75.1915 82.5111C75.2985 82.3873 75.4269 82.289 75.5689 82.2223C75.7109 82.1556 75.8636 82.1218 76.0176 82.1231C76.3349 82.1249 76.6394 82.2637 76.8674 82.5105C77.0955 82.7573 77.2295 83.093 77.2416 83.4477Z" fill="#263238"/>
<path d="M120.208 48.0234C120.687 48.885 121.086 49.7064 121.496 50.564C121.907 51.4216 122.278 52.2832 122.641 53.1649C123.383 54.9503 123.997 56.7988 124.477 58.6929C124.542 58.9304 124.589 59.1841 124.643 59.4297L124.722 59.8041L124.762 59.9893L124.808 60.2953C124.89 60.9894 124.852 61.6945 124.697 62.3728C124.448 63.426 124.07 64.4354 123.574 65.3723C122.685 67.075 121.611 68.6478 120.377 70.0548L118.861 68.7745C119.622 67.2104 120.299 65.5971 120.888 63.943C121.151 63.2143 121.335 62.4534 121.439 61.6763C121.472 61.439 121.462 61.1967 121.41 60.9637L121.266 60.4725C121.209 60.2711 121.155 60.0698 121.086 59.8645C120.539 58.2035 119.905 56.5796 119.189 55.0008C118.469 53.3904 117.695 51.7799 116.921 50.2419L120.208 48.0234Z" fill="#FF8B7B"/>
<path d="M119.246 68.2148L117.59 69.1932L119.491 71.6814C119.491 71.6814 120.679 70.7836 120.733 69.4147L119.246 68.2148Z" fill="#FF8B7B"/>
<path d="M115.369 70.7264L117.403 72.5341L119.491 71.6806L117.59 69.1924L115.369 70.7264Z" fill="#FF8B7B"/>
<path d="M108.414 34.8497C108.375 35.0751 108.234 35.2322 108.105 35.204C107.975 35.1758 107.899 34.9664 107.939 34.745C107.979 34.5235 108.119 34.3424 108.252 34.3907C108.385 34.439 108.454 34.6242 108.414 34.8497Z" fill="#263238"/>
<path d="M108.252 35.2363C107.889 35.867 107.451 36.4387 106.949 36.9354C107.067 37.0728 107.211 37.18 107.37 37.2495C107.529 37.319 107.7 37.3492 107.87 37.338L108.252 35.2363Z" fill="#FF5652"/>
<path d="M107.604 43.1353V40.4941L110.729 40.8968C110.729 40.8968 110.678 43.1675 108.929 43.8359L107.604 43.1353Z" fill="#FF8B7B"/>
<path d="M108.504 38.5947L110.704 39.3033L110.743 40.9178L107.618 40.4951L108.504 38.5947Z" fill="#FF8B7B"/>
<path opacity="0.2" d="M110.704 39.3033L108.504 38.5947L108.076 39.5127C108.099 40.236 108.301 40.938 108.66 41.5406C109.018 42.1433 109.519 42.6231 110.106 42.9269C110.484 42.3365 110.705 41.6386 110.743 40.9138L110.704 39.3033Z" fill="#121212"/>
<path d="M109.372 33.7746C109.395 33.7739 109.417 33.766 109.436 33.7516C109.455 33.7373 109.471 33.7172 109.48 33.6936C109.489 33.67 109.493 33.6439 109.489 33.6184C109.486 33.5928 109.477 33.5688 109.462 33.5492C109.335 33.3895 109.176 33.2659 108.998 33.1889C108.821 33.1118 108.629 33.0835 108.439 33.1063C108.408 33.1122 108.381 33.1316 108.362 33.1603C108.344 33.189 108.337 33.2246 108.342 33.2593C108.347 33.2942 108.365 33.3255 108.39 33.3465C108.416 33.3675 108.447 33.3767 108.479 33.372C108.629 33.3555 108.781 33.3794 108.921 33.4418C109.061 33.5041 109.186 33.603 109.285 33.7303C109.296 33.7438 109.31 33.7546 109.324 33.7622C109.339 33.7699 109.355 33.7741 109.372 33.7746Z" fill="#263238"/>
<path d="M113.972 38.9248C113.612 40.9983 113.389 43.869 114.692 45.25C114.692 45.25 114.188 47.3517 110.732 47.3517C106.949 47.3517 108.914 45.5077 108.914 45.5077C110.488 44.9601 110.473 42.9591 110.113 41.3486L113.972 38.9248Z" fill="#FF8B7B"/>
<path d="M115.394 46.6341C115.733 46.1026 115.718 44.4156 115.358 44.1177C114.779 43.6386 112.291 43.5258 108.947 44.3874C109.307 46.0221 108.533 46.8756 108.533 46.8756L115.394 46.6341Z" fill="#00AD37"/>
<path d="M126.648 142.221C126.545 142.261 126.436 142.278 126.328 142.271C126.219 142.265 126.112 142.234 126.014 142.18C125.977 142.142 125.952 142.091 125.941 142.036C125.931 141.98 125.936 141.922 125.957 141.87C125.968 141.827 125.988 141.787 126.015 141.753C126.041 141.718 126.074 141.691 126.112 141.673C126.454 141.488 127.238 141.846 127.274 141.862C127.285 141.867 127.294 141.876 127.301 141.886C127.307 141.897 127.31 141.91 127.31 141.923C127.31 141.936 127.307 141.948 127.302 141.96C127.296 141.971 127.288 141.98 127.278 141.987C127.075 142.087 126.864 142.165 126.648 142.221ZM126.234 141.766C126.21 141.772 126.187 141.781 126.166 141.794C126.143 141.803 126.123 141.818 126.107 141.838C126.09 141.857 126.078 141.881 126.072 141.907C126.04 142.027 126.072 142.068 126.094 142.08C126.23 142.209 126.734 142.08 127.091 141.931C126.82 141.805 126.527 141.749 126.234 141.766Z" fill="#00AD37"/>
<path d="M127.264 141.991H127.235C126.947 141.898 126.335 141.411 126.328 141.093C126.327 141.042 126.343 140.993 126.371 140.954C126.399 140.914 126.438 140.886 126.482 140.875C126.525 140.858 126.571 140.851 126.616 140.855C126.662 140.859 126.706 140.874 126.745 140.9C127.084 141.093 127.3 141.874 127.307 141.91C127.312 141.92 127.315 141.931 127.315 141.942C127.315 141.954 127.312 141.965 127.307 141.975C127.301 141.981 127.294 141.986 127.287 141.988C127.279 141.991 127.271 141.992 127.264 141.991ZM126.544 140.988H126.515C126.443 141.016 126.443 141.057 126.443 141.077C126.443 141.266 126.853 141.648 127.163 141.801C127.087 141.576 126.922 141.129 126.702 140.996C126.653 140.971 126.598 140.969 126.547 140.988H126.544Z" fill="#00AD37"/>
<path d="M107.95 142.696C107.626 142.696 107.312 142.644 107.208 142.483C107.181 142.44 107.166 142.388 107.166 142.336C107.166 142.283 107.181 142.232 107.208 142.189C107.229 142.15 107.256 142.115 107.289 142.088C107.322 142.061 107.359 142.042 107.399 142.032C107.82 141.903 108.706 142.467 108.742 142.491C108.753 142.497 108.761 142.507 108.767 142.519C108.772 142.532 108.773 142.546 108.77 142.559C108.769 142.573 108.764 142.586 108.755 142.596C108.747 142.606 108.736 142.613 108.724 142.616C108.468 142.668 108.209 142.695 107.95 142.696ZM107.55 142.145C107.512 142.138 107.473 142.138 107.435 142.145C107.41 142.15 107.387 142.161 107.367 142.177C107.346 142.193 107.329 142.214 107.316 142.237C107.273 142.322 107.291 142.362 107.316 142.386C107.435 142.571 108.072 142.575 108.544 142.499C108.236 142.311 107.898 142.19 107.55 142.145Z" fill="#00AD37"/>
<path d="M108.72 142.614H108.695C108.389 142.461 107.784 141.849 107.831 141.527C107.831 141.451 107.888 141.358 108.054 141.342C108.113 141.334 108.173 141.34 108.23 141.36C108.287 141.379 108.34 141.412 108.385 141.455C108.616 141.763 108.754 142.145 108.781 142.546C108.781 142.557 108.779 142.569 108.774 142.579C108.77 142.59 108.764 142.599 108.756 142.606C108.745 142.613 108.732 142.615 108.72 142.614ZM108.101 141.467H108.065C107.957 141.467 107.949 141.523 107.949 141.539C107.921 141.733 108.331 142.216 108.644 142.425C108.617 142.102 108.5 141.797 108.309 141.552C108.25 141.495 108.175 141.465 108.097 141.467H108.101Z" fill="#00AD37"/>
<path d="M111.499 142.551H108.969L108.717 135.992H111.247L111.499 142.551Z" fill="#FF8B7B"/>
<path d="M130.086 141.239L127.613 141.839L125.125 135.731L127.602 135.131L130.086 141.239Z" fill="#FF8B7B"/>
<path d="M127.372 141.56L130.154 140.887C130.203 140.876 130.254 140.883 130.298 140.908C130.343 140.933 130.378 140.974 130.399 141.024L131.364 143.367C131.39 143.424 131.403 143.487 131.403 143.55C131.403 143.614 131.389 143.677 131.363 143.733C131.337 143.79 131.299 143.839 131.253 143.876C131.207 143.913 131.154 143.937 131.098 143.947C130.126 144.16 129.64 144.213 128.419 144.507C127.667 144.692 125.968 145.155 124.927 145.405C123.887 145.654 123.53 144.539 123.937 144.334C125.755 143.404 126.511 142.586 127.004 141.825C127.094 141.689 127.224 141.595 127.372 141.56Z" fill="#263238"/>
<path d="M108.986 142.221H111.751C111.801 142.221 111.85 142.24 111.889 142.275C111.928 142.31 111.956 142.359 111.967 142.414L112.468 144.93C112.482 144.991 112.484 145.055 112.473 145.117C112.461 145.178 112.437 145.236 112.402 145.286C112.367 145.335 112.322 145.374 112.271 145.401C112.22 145.427 112.164 145.44 112.108 145.438C111.11 145.418 109.67 145.353 108.418 145.353C106.949 145.353 105.685 145.442 103.964 145.442C102.924 145.442 102.636 144.266 103.072 144.157C105.052 143.674 106.672 143.622 108.382 142.442C108.561 142.308 108.77 142.231 108.986 142.221Z" fill="#263238"/>
<path d="M119.221 45.898C121.594 46.506 123.541 53.2821 123.541 53.2821L118.8 57.3364C117.569 55.8649 116.701 54.0615 116.28 52.1024C115.441 48.5513 116.795 45.2699 119.221 45.898Z" fill="#00AD37"/>
<path opacity="0.4" d="M119.221 45.898C121.594 46.506 123.541 53.2821 123.541 53.2821L118.8 57.3364C117.569 55.8649 116.701 54.0615 116.28 52.1024C115.441 48.5513 116.795 45.2699 119.221 45.898Z" fill="#121212"/>
<path d="M106.74 53.978C106.15 54.6907 105.559 55.3268 104.94 55.9911C104.634 56.3132 104.325 56.6353 104.008 56.9454L103.529 57.4164L103.41 57.5332L103.205 57.7184C102.994 57.9071 102.76 58.0616 102.51 58.1774C102.232 58.3093 101.934 58.3777 101.632 58.3787C101.374 58.3799 101.118 58.3295 100.876 58.2297C100.607 58.1154 100.362 57.9414 100.156 57.7184C99.892 57.4301 99.6987 57.0711 99.5941 56.6756C99.5395 56.4806 99.5044 56.2794 99.4897 56.0757C99.4709 55.8373 99.4709 55.5975 99.4897 55.359C99.5077 55.1658 99.5293 54.9967 99.5581 54.8397C99.6566 54.2907 99.7963 53.7519 99.9757 53.2292C100.138 52.7323 100.324 52.2457 100.534 51.7717C100.764 51.2604 100.984 50.8859 101.203 50.4591C102.095 48.825 103.113 47.2811 104.245 45.8451C105.366 44.4176 106.601 43.1076 107.935 41.9316L109.26 43.4576C108.331 44.8506 107.417 46.3444 106.571 47.8139C105.729 49.2752 104.96 50.7873 104.267 52.3434C104.112 52.7219 103.907 53.1486 103.81 53.4546C103.681 53.8101 103.569 54.173 103.475 54.5417C103.384 54.8738 103.316 55.2129 103.27 55.5563C103.267 55.61 103.267 55.6637 103.27 55.7174C103.27 55.7496 103.27 55.7657 103.27 55.6811C103.264 55.5908 103.248 55.5015 103.223 55.4154C103.145 55.13 103.002 54.872 102.809 54.6665C102.637 54.4896 102.435 54.3528 102.215 54.2639C102.022 54.182 101.817 54.1397 101.61 54.1391C101.411 54.1364 101.214 54.1789 101.031 54.2639C100.968 54.2923 100.908 54.326 100.851 54.3646L100.987 54.2236L101.423 53.7808L102.283 52.8789C102.852 52.279 103.425 51.6388 103.965 51.0429L106.74 53.978Z" fill="#FF8B7B"/>
<path opacity="0.2" d="M117.187 50.874C118.476 52.2993 118.897 54.9002 118.987 57.1549L118.778 57.3361C117.548 55.8645 116.679 54.0611 116.258 52.102C116.212 51.8927 116.168 51.6994 116.136 51.4699L117.187 50.874Z" fill="#121212"/>
<path d="M104.224 48.7155C103.705 51.7754 103.381 58.0603 104.882 70.5012H118.44C118.534 68.1781 117.227 56.8323 119.232 45.877C117.734 45.5552 116.219 45.3414 114.696 45.2368C112.778 45.1138 110.854 45.1138 108.936 45.2368C108.302 45.3012 107.676 45.4059 107.136 45.5146C106.418 45.6555 105.755 46.037 105.235 46.6086C104.715 47.1801 104.362 47.9148 104.224 48.7155Z" fill="#00AD37"/>
<path opacity="0.4" d="M104.224 48.7155C103.705 51.7754 103.381 58.0603 104.882 70.5012H118.44C118.534 68.1781 117.227 56.8323 119.232 45.877C117.734 45.5552 116.219 45.3414 114.696 45.2368C112.778 45.1138 110.854 45.1138 108.936 45.2368C108.302 45.3012 107.676 45.4059 107.136 45.5146C106.418 45.6555 105.755 46.037 105.235 46.6086C104.715 47.1801 104.362 47.9148 104.224 48.7155Z" fill="#121212"/>
<path opacity="0.2" d="M106.297 53.2539L103.849 52.5977C103.774 54.2565 103.767 56.3098 103.875 58.8503C105.001 57.417 106.441 55.1785 106.297 53.2539Z" fill="#121212"/>
<path opacity="0.2" d="M108.717 135.992L108.846 139.374H111.381L111.251 135.992H108.717Z" fill="#121212"/>
<path opacity="0.2" d="M127.602 135.131L125.125 135.731L126.407 138.879L128.884 138.279L127.602 135.131Z" fill="#121212"/>
<path d="M115.175 35.896C114.527 38.6097 114.268 40.2363 112.77 41.3636C110.52 43.0788 107.712 41.114 107.64 38.2473C107.561 35.6585 108.637 31.6524 111.24 31.1048C111.812 30.9848 112.402 31.0296 112.954 31.2351C113.506 31.4405 114.003 31.7999 114.396 32.2792C114.79 32.7585 115.068 33.3421 115.204 33.9749C115.34 34.6077 115.33 35.2688 115.175 35.896Z" fill="#FF8B7B"/>
<path d="M109.494 35.9974C109.371 35.635 108.813 32.8288 109.339 32.1C109.865 31.3713 115.859 31.8987 116.744 32.8731C118.217 34.4835 117.194 35.933 115.585 37.7971C114.375 39.1982 114.329 40.7765 113.717 41.0181C112.637 41.4207 110.988 41.0422 110.657 39.7659C110.325 38.4896 109.494 35.9974 109.494 35.9974Z" fill="#263238"/>
<path d="M116.017 29.68C113.9 28.6735 109.93 29.7888 107.784 29.209C107.757 30.1013 108.019 30.9744 108.523 31.6672C109.026 32.3599 109.737 32.8253 110.524 32.9775C112.303 33.3569 114.112 33.5443 115.924 33.5372C118.278 33.4164 117.817 30.5376 116.017 29.68Z" fill="#263238"/>
<path d="M116.349 32.9576C117.122 33.0427 117.901 32.8764 118.591 32.4785C118.987 33.5495 116.809 33.8434 116.349 32.9576Z" fill="#263238"/>
<path d="M110.646 36.1096C110.597 36.8078 110.344 37.4687 109.926 37.9898C109.372 38.6703 108.796 38.2435 108.698 37.4181C108.612 36.6692 108.792 35.405 109.469 35.0427C110.146 34.6803 110.693 35.2681 110.646 36.1096Z" fill="#FF8B7B"/>
<path d="M109.688 70.5139C109.688 70.5139 112.568 92.1548 114.142 100.264C115.866 109.141 125.132 138.512 125.132 138.512L129.665 137.413C129.665 137.413 123.185 113.474 121.745 101.061C120.629 91.5267 118.436 70.5059 118.436 70.5059L109.688 70.5139Z" fill="#00AD37"/>
<path d="M124.045 136.825C124.027 136.825 124.891 138.661 124.891 138.661L129.989 137.425L129.56 135.71L124.045 136.825Z" fill="#263238"/>
<path opacity="0.3" d="M111.506 78.2238C114.829 78.9525 114.476 92.8107 114.077 99.9411C113.119 94.9003 111.715 85.2052 110.758 78.3244C110.99 78.1963 111.254 78.1608 111.506 78.2238Z" fill="#121212"/>
<path d="M104.882 70.5132C104.882 70.5132 104.522 91.687 104.81 100.307C105.098 109.29 107.903 138.701 107.903 138.701H112.194C112.194 138.701 112.349 109.813 112.554 100.992C112.763 91.377 113.8 70.4971 113.8 70.4971L104.882 70.5132Z" fill="#00AD37"/>
<path d="M107.078 136.81C107.057 136.81 107.32 138.799 107.32 138.799H112.536L112.68 137.023L107.078 136.81Z" fill="#263238"/>
<path d="M109.53 49.6586C110.743 53.3184 103.612 57.6305 103.612 57.6305L100.523 53.2016C100.523 53.2016 102.6 48.6037 105.12 46.5343C108.234 43.9816 108.605 46.8725 109.53 49.6586Z" fill="#00AD37"/>
<path opacity="0.4" d="M109.53 49.6586C110.743 53.3184 103.612 57.6305 103.612 57.6305L100.523 53.2016C100.523 53.2016 102.6 48.6037 105.12 46.5343C108.234 43.9816 108.605 46.8725 109.53 49.6586Z" fill="#121212"/>
<path d="M137.473 21.875C144.649 21.875 150.466 17.7291 150.466 12.6148C150.466 7.50046 144.649 3.35449 137.473 3.35449C130.298 3.35449 124.481 7.50046 124.481 12.6148C124.481 17.7291 130.298 21.875 137.473 21.875Z" fill="#00AD37"/>
<path d="M132.786 17.2767C131.93 17.2736 131.102 16.9332 130.449 16.3155C129.795 15.6977 129.357 14.842 129.211 13.8987C129.068 12.8769 129.274 11.8324 129.788 10.9729C130.303 10.1134 131.088 9.50203 131.987 9.2605C132.725 9.07034 133.497 9.14364 134.196 9.47007C134.895 9.79651 135.484 10.3597 135.882 11.0803L144.223 9.15582C144.544 9.0773 144.879 9.13692 145.162 9.32277C145.445 9.50862 145.655 9.80701 145.75 10.1583C145.793 10.3431 145.803 10.5358 145.777 10.7248C145.752 10.9137 145.693 11.095 145.603 11.2574C145.513 11.4198 145.394 11.56 145.254 11.6694C145.114 11.7788 144.956 11.8551 144.788 11.8936L144.572 11.942C144.54 11.9484 144.51 11.963 144.484 11.9846C144.458 12.0063 144.436 12.0344 144.421 12.0668C144.408 12.0997 144.401 12.1353 144.401 12.1714C144.401 12.2076 144.408 12.2432 144.421 12.2761L144.569 12.7029C144.618 12.8412 144.623 12.9945 144.582 13.1364C144.541 13.2782 144.458 13.3997 144.346 13.48C144.257 13.5411 144.182 13.624 144.127 13.7224C144.071 13.8208 144.036 13.932 144.025 14.0477C144.015 14.1804 143.967 14.306 143.888 14.4065C143.81 14.507 143.706 14.5773 143.59 14.6073L143.42 14.6476C143.303 14.6718 143.182 14.6537 143.074 14.5957C142.967 14.5378 142.879 14.4432 142.823 14.3255C142.748 14.185 142.636 14.0742 142.502 14.0084C142.369 13.9425 142.22 13.925 142.077 13.9583C141.934 13.9915 141.803 14.0738 141.704 14.1938C141.605 14.3137 141.542 14.4653 141.523 14.6274C141.513 14.7593 141.466 14.8842 141.388 14.9841C141.311 15.084 141.207 15.1536 141.091 15.183L140.922 15.2233C140.805 15.2469 140.684 15.2285 140.576 15.1706C140.469 15.1128 140.381 15.0185 140.324 14.9012C140.27 14.8014 140.198 14.7158 140.111 14.6505C140.025 14.5851 139.927 14.5415 139.824 14.5227C139.686 14.5041 139.558 14.4296 139.465 14.3132C139.372 14.1968 139.321 14.0466 139.32 13.8906V13.4316C139.318 13.3957 139.31 13.3606 139.295 13.3287C139.281 13.2967 139.26 13.2687 139.235 13.2465C139.209 13.2243 139.18 13.2085 139.149 13.2002C139.118 13.1918 139.085 13.1911 139.054 13.1981L136.393 13.8101C136.285 14.6344 135.952 15.4013 135.44 16.0065C134.927 16.6116 134.261 17.0256 133.531 17.1921C133.286 17.2482 133.036 17.2765 132.786 17.2767ZM132.066 9.62689C131.249 9.8402 130.535 10.3916 130.068 11.17C129.6 11.9485 129.414 12.8961 129.546 13.8222C129.688 14.6837 130.1 15.4602 130.709 16.0111C131.318 16.5619 132.083 16.8508 132.866 16.8255C133.649 16.8002 134.398 16.4624 134.978 15.8731C135.557 15.2839 135.929 14.4821 136.026 13.6128V13.4679L138.96 12.8036C139.044 12.7808 139.132 12.7793 139.217 12.7991C139.301 12.8189 139.381 12.8596 139.45 12.9182C139.519 12.9768 139.575 13.0519 139.615 13.1379C139.655 13.2239 139.677 13.3188 139.68 13.4155V13.8745C139.681 13.9292 139.698 13.9818 139.73 14.0236C139.761 14.0655 139.805 14.0938 139.853 14.104C140.01 14.1292 140.16 14.1942 140.292 14.2939C140.424 14.3937 140.533 14.5256 140.612 14.6798C140.631 14.7232 140.662 14.759 140.7 14.782C140.738 14.8051 140.782 14.8144 140.825 14.8086L140.99 14.7683C141.032 14.7563 141.07 14.7294 141.097 14.6917C141.124 14.6539 141.14 14.6074 141.142 14.559C141.164 14.3083 141.258 14.0723 141.408 13.8849C141.559 13.6975 141.759 13.5684 141.979 13.5165C142.199 13.4645 142.429 13.4922 142.634 13.5957C142.84 13.6991 143.01 13.8729 143.122 14.0919C143.14 14.1351 143.17 14.1707 143.207 14.1938C143.245 14.2169 143.288 14.2263 143.33 14.2208L143.503 14.1805C143.544 14.1677 143.581 14.1405 143.608 14.1029C143.634 14.0652 143.649 14.0191 143.651 13.9712C143.669 13.7944 143.722 13.6245 143.808 13.4745C143.893 13.3245 144.008 13.1983 144.144 13.1055C144.184 13.0735 144.213 13.0276 144.226 12.9751C144.24 12.9226 144.238 12.8665 144.22 12.8156L144.072 12.3889C144.041 12.3009 144.028 12.2065 144.034 12.1123C144.039 12.0182 144.063 11.9265 144.104 11.8436C144.144 11.7608 144.2 11.6889 144.268 11.6328C144.336 11.5768 144.414 11.538 144.497 11.5192L144.716 11.4669C144.835 11.4385 144.948 11.3837 145.047 11.3056C145.147 11.2275 145.231 11.1277 145.295 11.0123C145.359 10.897 145.402 10.7683 145.421 10.634C145.439 10.4997 145.434 10.3626 145.404 10.2308C145.334 9.97744 145.18 9.76316 144.975 9.63098C144.769 9.4988 144.526 9.4585 144.295 9.51818L135.72 11.5111L135.655 11.3863C135.311 10.7004 134.776 10.1585 134.131 9.84252C133.487 9.52655 132.769 9.45369 132.084 9.63494L132.066 9.62689ZM132.786 15.7789C132.339 15.7845 131.9 15.6446 131.522 15.3763C131.076 15.0485 130.745 14.5577 130.586 13.9876C130.427 13.4175 130.45 12.8033 130.65 12.2497C130.851 11.6962 131.217 11.2376 131.686 10.9521C132.155 10.6666 132.698 10.5719 133.222 10.6841C133.747 10.7963 134.22 11.1084 134.562 11.5674C134.904 12.0263 135.093 12.6036 135.096 13.2009C135.1 13.7981 134.918 14.3783 134.582 14.8425C134.247 15.3068 133.777 15.6263 133.254 15.7467C133.101 15.7777 132.945 15.7912 132.79 15.787L132.786 15.7789ZM132.786 11.024C132.652 11.0248 132.518 11.0397 132.386 11.0683C132.136 11.128 131.898 11.2424 131.686 11.405C131.475 11.5675 131.295 11.775 131.155 12.0156C131.015 12.2561 130.92 12.5251 130.873 12.8071C130.826 13.0891 130.83 13.3786 130.883 13.6591C130.937 13.9396 131.039 14.2056 131.184 14.4419C131.33 14.6781 131.515 14.8801 131.73 15.0362C131.945 15.1923 132.186 15.2995 132.438 15.3516C132.69 15.4037 132.949 15.3998 133.2 15.3401C133.576 15.2524 133.921 15.0421 134.191 14.7355C134.461 14.429 134.643 14.04 134.716 13.6176C134.788 13.1952 134.747 12.7582 134.598 12.3619C134.448 11.9655 134.198 11.6275 133.877 11.3904C133.558 11.1533 133.183 11.0285 132.8 11.032L132.786 11.024Z" fill="white"/>
<path opacity="0.6" d="M126.9 27.3064C129.258 27.3064 131.17 25.9436 131.17 24.2626C131.17 22.5815 129.258 21.2188 126.9 21.2188C124.542 21.2188 122.63 22.5815 122.63 24.2626C122.63 25.9436 124.542 27.3064 126.9 27.3064Z" fill="#00AD37"/>
<path opacity="0.3" d="M120.107 28.5539C121.075 28.5539 121.86 27.9951 121.86 27.3057C121.86 26.6164 121.075 26.0576 120.107 26.0576C119.138 26.0576 118.354 26.6164 118.354 27.3057C118.354 27.9951 119.138 28.5539 120.107 28.5539Z" fill="#00AD37"/>
</svg>
