<svg width="17" height="18" viewBox="0 0 17 18" fill="none" xmlns="http://www.w3.org/2000/svg">
<path d="M8.27957 11.2531H8.27369C8.18781 11.2523 8.10292 11.2346 8.02387 11.201C7.94483 11.1674 7.87317 11.1186 7.81299 11.0573C7.75281 10.996 7.70529 10.9234 7.67314 10.8437C7.64099 10.764 7.62484 10.6788 7.62562 10.5928L7.62856 10.2657C7.62856 10.247 7.62954 10.2281 7.6315 10.2094C7.72208 9.25767 8.35347 8.67433 8.86127 8.2055C9.03326 8.0465 9.1961 7.89633 9.33473 7.73961C9.50378 7.54887 9.74902 7.15823 9.49103 6.68678C9.19381 6.14238 8.46791 5.98828 7.90388 6.11751C7.31466 6.25231 7.09755 6.75582 7.02038 7.04373C6.97046 7.20566 6.85977 7.34193 6.71155 7.42391C6.56332 7.5059 6.38911 7.52721 6.22552 7.48338C6.06192 7.43954 5.92167 7.33397 5.83423 7.18884C5.74679 7.04372 5.71897 6.87033 5.75661 6.70511C6.01721 5.73113 6.6934 5.05225 7.61156 4.84188C8.84721 4.55954 10.0917 5.05912 10.6381 6.05862C11.0929 6.89094 10.9683 7.86754 10.3127 8.60759C10.1306 8.81305 9.93605 8.99299 9.74771 9.16672C9.27849 9.60022 8.98519 9.89009 8.93549 10.3085L8.93288 10.604C8.93167 10.7765 8.86231 10.9416 8.73992 11.0632C8.61753 11.1848 8.45205 11.2531 8.27957 11.2531ZM8.27925 13.2148C8.10922 13.2148 7.93919 13.1461 7.81821 13.025C7.75697 12.9645 7.70836 12.8924 7.67517 12.8129C7.64199 12.7335 7.6249 12.6482 7.6249 12.5621C7.6249 12.4759 7.64199 12.3907 7.67517 12.3112C7.70836 12.2317 7.75697 12.1597 7.81821 12.0991C8.06017 11.857 8.49832 11.857 8.74029 12.0991C8.86454 12.2202 8.9332 12.3903 8.9332 12.5604C8.9332 12.7338 8.86454 12.9007 8.74356 13.025C8.61931 13.1461 8.45255 13.2148 8.27925 13.2148Z" fill="#121212"/>
<path d="M8.47665 17.5C7.7366 17.5006 6.99969 17.4037 6.28491 17.2118C3.22309 16.3876 0.825679 13.8498 0.177281 10.7459C-0.483543 7.58385 0.736087 4.25982 3.28489 2.27751C4.75825 1.13144 6.61647 0.5 8.51752 0.5C9.83361 0.5 11.1405 0.80623 12.2974 1.38499C15.1542 2.81504 17 5.80275 17 8.99689C17 11.6031 15.7709 14.1151 13.7122 15.7163C12.2336 16.8666 10.3741 17.5 8.47665 17.5ZM8.51785 1.80867C6.90617 1.80867 5.33275 2.34196 4.08794 3.3107C1.93087 4.98842 0.898269 7.80174 1.45773 10.478C2.0064 13.1035 4.03465 15.2507 6.62497 15.9479C7.22465 16.1092 7.84787 16.1913 8.47665 16.1913C10.0847 16.1913 11.6591 15.6557 12.9098 14.6831C14.6523 13.3279 15.6924 11.2023 15.6924 8.99689C15.6924 6.29415 14.1304 3.7658 11.7128 2.5556C10.7364 2.06714 9.63187 1.80867 8.51785 1.80867Z" fill="#121212"/>
</svg>
