<svg width="21" height="20" viewBox="0 0 21 20" fill="none" xmlns="http://www.w3.org/2000/svg">
<path d="M19.7333 20H13.2365C12.7694 20 12.3872 19.6168 12.3872 19.1485V15.1038C12.3872 14.082 11.5804 13.273 10.5613 13.273C9.5422 13.273 8.7354 14.082 8.7354 15.1038V19.1485C8.7354 19.6168 8.35324 20 7.88615 20H1.47426C1.00717 20 0.625 19.6168 0.625 19.1485V8.24907C0.625 7.4827 1.00717 6.75891 1.60165 6.33316L10.1367 0.159659C10.4339 -0.0532198 10.8161 -0.0532198 11.1133 0.159659L19.6484 6.33316C20.2428 6.75891 20.625 7.4827 20.625 8.24907V19.1911C20.5825 19.6168 20.2004 20 19.7333 20ZM14.0857 18.3395H18.9265V8.24907C18.9265 8.03619 18.7991 7.82331 18.6292 7.69558L10.6038 1.86269L2.57829 7.65301C2.40844 7.78074 2.28105 7.99361 2.28105 8.20649V18.297H7.12182V15.1038C7.12182 13.1879 8.69294 11.6126 10.6038 11.6126C12.5146 11.6126 14.0857 13.1879 14.0857 15.1038V18.3395Z" fill="#00AD37"/>
<path d="M14.0857 18.3395H18.9265V8.24907C18.9265 8.03619 18.7991 7.82331 18.6292 7.69558L10.6038 1.86269L2.57829 7.65301C2.40844 7.78074 2.28105 7.99361 2.28105 8.20649V18.297H7.12182V15.1038C7.12182 13.1879 8.69294 11.6126 10.6038 11.6126C12.5146 11.6126 14.0857 13.1879 14.0857 15.1038V18.3395Z" fill="#00AD37"/>
</svg>
