<svg width="17" height="18" viewBox="0 0 17 18" fill="none" xmlns="http://www.w3.org/2000/svg">
<path d="M10.8288 0.5C9.7479 0.5 8.87578 0.5 8.19026 0.592512C7.47865 0.687395 6.87932 0.892977 6.40333 1.36819C5.98902 1.7833 5.7787 2.2933 5.66879 2.89265C5.56205 3.4754 5.5415 4.18781 5.53675 5.04335C5.53591 5.20063 5.59759 5.3518 5.7082 5.46361C5.81882 5.57541 5.96932 5.6387 6.1266 5.63953C6.28387 5.64037 6.43504 5.5787 6.54684 5.46808C6.65865 5.35746 6.72193 5.20695 6.72277 5.04967C6.72751 4.18544 6.74965 3.57265 6.83504 3.10693C6.91806 2.6594 7.05011 2.39926 7.24224 2.20712C7.46126 1.98809 7.76883 1.84577 8.34919 1.76749C8.94615 1.68763 9.73762 1.68605 10.8722 1.68605H11.6629C12.7983 1.68605 13.5898 1.68763 14.1868 1.76749C14.7671 1.84577 15.0739 1.98888 15.2937 2.20712C15.5135 2.42535 15.6543 2.73293 15.7325 3.31409C15.8132 3.91028 15.814 4.70256 15.814 5.83721V12.1628C15.814 13.2974 15.8132 14.0897 15.7325 14.6867C15.6543 15.2671 15.5119 15.5739 15.2929 15.7929C15.0739 16.0119 14.7671 16.1542 14.1868 16.2325C13.5898 16.3124 12.7983 16.314 11.6629 16.314H10.8722C9.73762 16.314 8.94615 16.3124 8.3484 16.2325C7.76883 16.1542 7.46126 16.0111 7.24224 15.7929C7.05011 15.6007 6.91806 15.3406 6.83504 14.8931C6.74965 14.4273 6.72751 13.8146 6.72277 12.9503C6.72235 12.8724 6.7066 12.7954 6.67642 12.7236C6.64623 12.6518 6.6022 12.5867 6.54684 12.5319C6.49148 12.4771 6.42588 12.4338 6.35377 12.4044C6.28167 12.375 6.20447 12.3601 6.1266 12.3605C6.04872 12.3609 5.97169 12.3766 5.8999 12.4068C5.82812 12.437 5.76298 12.481 5.7082 12.5364C5.65343 12.5918 5.6101 12.6574 5.58068 12.7295C5.55126 12.8016 5.53634 12.8788 5.53675 12.9567C5.5415 13.8122 5.56205 14.5246 5.66879 15.1074C5.77949 15.7067 5.98902 16.2167 6.40412 16.6318C6.87932 17.1078 7.47945 17.3118 8.19106 17.4083C8.87578 17.5 9.7479 17.5 10.8288 17.5H11.7064C12.7881 17.5 13.6594 17.5 14.3449 17.4075C15.0565 17.3126 15.6558 17.107 16.1318 16.6318C16.6078 16.1558 16.8118 15.5565 16.9083 14.8448C17 14.1593 17 13.2872 17 12.2063V5.79372C17 4.71284 17 3.8407 16.9083 3.15516C16.8126 2.44353 16.6078 1.84419 16.1318 1.36819C15.6558 0.892186 15.0565 0.688186 14.3449 0.592512C13.6594 0.5 12.7873 0.5 11.7064 0.5H10.8288Z" fill="#E60300"/>
<path d="M10.8723 8.40656C11.0295 8.40656 11.1804 8.46904 11.2916 8.58025C11.4028 8.69147 11.4653 8.8423 11.4653 8.99958C11.4653 9.15686 11.4028 9.3077 11.2916 9.41891C11.1804 9.53013 11.0295 9.59261 10.8723 9.59261H2.19615L3.74667 10.921C3.8662 11.0233 3.94018 11.1689 3.95234 11.3258C3.9645 11.4827 3.91384 11.638 3.81151 11.7575C3.70917 11.8771 3.56355 11.9511 3.40666 11.9632C3.24978 11.9754 3.0945 11.9247 2.97497 11.8224L0.207598 9.45028C0.142498 9.39461 0.0902315 9.32549 0.0543942 9.24769C0.018557 9.16989 0 9.08524 0 8.99958C0 8.91392 0.018557 8.82928 0.0543942 8.75148C0.0902315 8.67367 0.142498 8.60456 0.207598 8.54889L2.97497 6.17679C3.03415 6.12612 3.10274 6.0876 3.17681 6.06344C3.25088 6.03927 3.32899 6.02993 3.40666 6.03595C3.48434 6.04197 3.56008 6.06324 3.62954 6.09853C3.699 6.13382 3.76083 6.18244 3.81151 6.24163C3.86218 6.30082 3.90069 6.3694 3.92486 6.44348C3.94902 6.51755 3.95836 6.59565 3.95234 6.67334C3.94632 6.75102 3.92506 6.82675 3.88977 6.89622C3.85448 6.96568 3.80585 7.02752 3.74667 7.07819L2.19694 8.40656H10.8723Z" fill="#E60300"/>
</svg>
