<svg width="180" height="150" viewBox="0 0 180 150" fill="none" xmlns="http://www.w3.org/2000/svg">
<path d="M90 149.999C139.706 149.999 180 130.807 180 107.133C180 83.4584 139.706 64.2666 90 64.2666C40.2944 64.2666 0 83.4584 0 107.133C0 130.807 40.2944 149.999 90 149.999Z" fill="#F5F5F5"/>
<path d="M104.124 137.153C114.873 137.153 123.587 133.003 123.587 127.884C123.587 122.764 114.873 118.614 104.124 118.614C93.3741 118.614 84.6599 122.764 84.6599 127.884C84.6599 133.003 93.3741 137.153 104.124 137.153Z" fill="#E0E0E0"/>
<path d="M94.008 96.4949L41.9484 121.295C40.483 122.006 37.9272 121.907 36.2334 121.1L17.7524 112.296C16.0629 111.492 15.8776 110.273 17.3214 109.576L69.3811 84.7758C70.8465 84.0646 73.4023 84.1642 75.0961 84.9713L93.577 93.7749C95.2881 94.5785 95.4734 95.7981 94.008 96.4949Z" fill="#E0E0E0"/>
<path d="M24.3209 28.7434C24.3213 27.7081 24.6516 26.6911 25.2787 25.7944C25.9058 24.8976 26.8076 24.1526 27.8938 23.634L73.3722 1.97343C73.6756 1.82912 74.0144 1.74271 74.3636 1.72057C74.7128 1.69842 75.0635 1.7411 75.3901 1.84546C75.7167 1.94982 76.0108 2.11321 76.2508 2.32363C76.4908 2.53406 76.6706 2.78617 76.777 3.06144C76.655 2.62042 76.4264 2.20422 76.105 1.83768C75.7836 1.47115 75.376 1.16179 74.9065 0.928093L74.7428 0.84987C73.611 0.294398 72.3186 0.000842573 71.0017 8.61399e-05C70.5808 -0.00320248 70.1668 0.0877295 69.8036 0.2632L24.3252 21.9345C23.2373 22.4518 22.3339 23.1964 21.7059 24.0934C21.0779 24.9903 20.7475 26.008 20.7479 27.0438V108.179C20.7484 108.518 20.8569 108.851 21.0625 109.144C21.2681 109.437 21.5636 109.681 21.9194 109.851C22.2751 110.02 22.6787 110.11 23.0895 110.11C23.5004 110.111 23.9042 110.022 24.2605 109.853L24.3209 109.825V28.7434Z" fill="#37474F"/>
<path d="M73.312 89.8918L27.8336 111.552C27.4779 111.722 27.0742 111.812 26.6632 111.812C26.2521 111.812 25.8483 111.723 25.4922 111.554C25.1361 111.384 24.8404 111.141 24.6348 110.847C24.4292 110.553 24.321 110.22 24.321 109.881V28.7429C24.3215 27.7076 24.6518 26.6906 25.2789 25.7939C25.906 24.8971 26.8078 24.1521 27.894 23.6335L73.3724 1.97291C73.7287 1.80405 74.1325 1.71539 74.5434 1.71582C74.9542 1.71625 75.3578 1.80576 75.7135 1.97537C76.0693 2.14498 76.3648 2.38874 76.5704 2.68223C76.776 2.97571 76.8845 3.30862 76.885 3.64759V84.7824C76.8854 85.8178 76.5554 86.8351 75.9282 87.732C75.3011 88.6289 74.3988 89.3737 73.312 89.8918Z" fill="#455A64"/>
<path d="M24.3209 109.881V28.7428C24.3213 27.8589 24.5629 26.9864 25.0277 26.1899L21.5108 24.4121C21.0099 25.234 20.7487 26.1411 20.7479 27.061V108.875C20.748 109.197 20.8493 109.513 21.042 109.793C21.2346 110.073 21.512 110.306 21.847 110.471L23.6614 111.36C24.2895 111.67 25.0073 111.833 25.7388 111.833H26.6439C26.336 111.831 26.0317 111.779 25.7483 111.679C25.4649 111.58 25.208 111.435 24.9923 111.254C24.7766 111.073 24.6063 110.858 24.4911 110.623C24.3758 110.387 24.318 110.135 24.3209 109.881Z" fill="#263238"/>
<path d="M71.7474 9.77539V77.9892C71.7466 78.9038 71.4542 79.8021 70.8997 80.594C70.3452 81.3859 69.5481 82.0437 68.5883 82.5013L28.4283 101.627C28.1256 101.772 27.7828 101.85 27.4327 101.854C27.5486 102.075 27.7199 102.274 27.9353 102.436C28.1507 102.599 28.4054 102.722 28.6827 102.798C28.9599 102.873 29.2534 102.899 29.5438 102.875C29.8343 102.85 30.1151 102.775 30.3678 102.654L70.5277 83.5253C71.4874 83.0678 72.2841 82.41 72.8379 81.6179C73.3917 80.8259 73.683 79.9276 73.6826 79.0132V11.475C73.6836 11.0415 73.4838 10.6241 73.124 10.3082C72.7643 9.99229 72.2719 9.80169 71.7474 9.77539Z" fill="#37474F"/>
<path d="M27.4326 101.837C27.7826 101.832 28.1255 101.754 28.4282 101.609L68.5882 82.4835C69.5448 82.0274 70.34 81.3725 70.8942 80.5839C71.4485 79.7954 71.7427 78.9008 71.7473 77.9892V9.77539C71.3441 9.7782 70.9467 9.8547 70.5837 9.99939L30.4237 29.1249C29.4633 29.5819 28.6657 30.2395 28.1111 31.0316C27.5565 31.8236 27.2645 32.7222 27.2645 33.6369V101.157C27.2641 101.395 27.3228 101.629 27.4369 101.847L27.4326 101.837Z" fill="#00AD37"/>
<g opacity="0.5">
<path d="M27.4326 101.835C27.7826 101.83 28.1255 101.752 28.4282 101.607L68.5882 82.4815C69.5448 82.0255 70.34 81.3705 70.8942 80.582C71.4485 79.7934 71.7427 78.8988 71.7473 77.9873V9.77344C71.3441 9.77625 70.9467 9.85275 70.5837 9.99744L30.4237 29.1229C29.4633 29.5799 28.6657 30.2376 28.1111 31.0296C27.5565 31.8217 27.2645 32.7202 27.2645 33.6349V101.155C27.2641 101.393 27.3228 101.627 27.4369 101.845L27.4326 101.835Z" fill="white"/>
</g>
<path d="M44.237 19.1283C44.2234 19.3351 44.1511 19.5365 44.0261 19.7161C43.9011 19.8958 43.7269 20.0488 43.5173 20.1629C43.1165 20.3514 42.7932 20.1985 42.7932 19.8074C42.807 19.6002 42.8798 19.3985 43.0056 19.2188C43.1314 19.039 43.3066 18.8862 43.5173 18.7727C43.9138 18.6092 44.237 18.7478 44.237 19.1283Z" fill="#263238"/>
<path d="M46.9309 17.8483C46.9164 18.0554 46.8434 18.2569 46.7177 18.4365C46.5919 18.6162 46.417 18.7691 46.2069 18.883C45.806 19.0714 45.4828 18.9186 45.4828 18.5274C45.4966 18.3202 45.5694 18.1186 45.6951 17.9388C45.8209 17.7591 45.9962 17.6063 46.2069 17.4928C46.6034 17.315 46.9309 17.4679 46.9309 17.8483Z" fill="#263238"/>
<path d="M57.7874 13.3655L49.0555 17.5433C48.7064 17.7068 48.4263 17.5433 48.4263 17.1522C48.4299 16.9582 48.4888 16.7677 48.5981 16.596C48.7074 16.4243 48.8641 16.2763 49.0555 16.1637L57.8004 12.0001C58.1452 11.833 58.4253 12.0001 58.4253 12.3877C58.4183 12.5803 58.3571 12.769 58.2463 12.9387C58.1356 13.1084 57.9785 13.2545 57.7874 13.3655Z" fill="#263238"/>
<path d="M56.3092 92.4514C56.8307 92.4514 57.1712 92.91 57.1712 93.6176C57.1712 94.7269 56.3307 96.0674 55.3308 96.5438L51.1459 98.5385C50.9589 98.6346 50.7453 98.6897 50.5253 98.6985C50.0038 98.6985 49.6633 98.2398 49.6633 97.5323C49.6633 96.4194 50.5252 95.0789 51.5036 94.606L55.6885 92.6114C55.8768 92.5147 56.092 92.4596 56.3135 92.4514M56.3135 92.1562C56.0291 92.1633 55.7522 92.2333 55.5118 92.3589L51.3269 94.35C50.2106 94.8798 49.3055 96.3056 49.3055 97.5501C49.3055 98.4638 49.8098 99.0114 50.5253 99.0114C50.8097 99.0044 51.0866 98.9344 51.3269 98.8087L55.5118 96.8176C56.6238 96.2878 57.5289 94.862 57.5289 93.6176C57.5289 92.7038 57.0289 92.1562 56.3135 92.1562Z" fill="#263238"/>
<path d="M33.1908 38.4185V114.863C33.1908 116.25 33.8071 117.178 34.7467 117.484H34.7725L38.7808 119.294L38.7549 116.357L38.3239 37.0922L34.0959 35.3145C33.5285 36.2838 33.2199 37.3423 33.1908 38.4185Z" fill="#E6E6E6"/>
<path d="M39.0006 119.588L34.6648 117.629C33.5917 117.274 32.9753 116.232 32.9753 114.845V38.4003C32.9982 37.2916 33.3114 36.2 33.8934 35.2003L33.9882 35.0332L38.5308 36.9497V37.0563L38.9618 116.321L39.0006 119.588ZM34.8846 117.324L38.5653 118.988V116.349L38.1343 37.1914L34.2252 35.5416C33.7307 36.4431 33.4638 37.4182 33.4408 38.4074V114.852C33.4408 116.104 33.9709 117.021 34.8631 117.309L34.9148 117.331L34.8846 117.324Z" fill="#E6E6E6"/>
<path d="M34.0872 35.3221L38.3152 37.0998L83.5695 15.3788L86.5864 13.9281L82.4101 11.9868L82.2937 11.9299C81.6257 11.5992 80.7551 11.6206 79.794 12.0792L36.9619 32.4776C35.6825 33.1692 34.6818 34.1594 34.0872 35.3221Z" fill="#E0E0E0"/>
<path d="M38.3153 37.2742C38.2806 37.2739 38.2466 37.2666 38.2161 37.2529L33.9881 35.4751C33.9633 35.4653 33.9411 35.4514 33.9228 35.4344C33.9046 35.4174 33.8906 35.3975 33.8818 35.376C33.8729 35.3545 33.8694 35.3317 33.8714 35.309C33.8734 35.2864 33.8808 35.2643 33.8933 35.244C34.5094 34.0521 35.5397 33.0376 36.8542 32.3284L79.6949 11.9229C80.6862 11.4536 81.6516 11.4003 82.4102 11.7772H82.4447L82.5309 11.8198L86.7029 13.7576C86.7355 13.774 86.7625 13.7969 86.7814 13.8243C86.8002 13.8517 86.8103 13.8826 86.8106 13.9141C86.8113 13.9452 86.8016 13.976 86.7826 14.0029C86.7636 14.0299 86.7361 14.052 86.7029 14.067L38.4316 37.2387C38.3977 37.2593 38.3573 37.2717 38.3153 37.2742ZM34.3717 35.2298L38.311 36.8938L86.1512 13.9283L82.1818 12.0794L82.1516 12.058C81.5353 11.7665 80.7379 11.8269 79.9018 12.2252L37.0611 32.6306C35.8836 33.2687 34.9508 34.1703 34.3717 35.2298Z" fill="#E0E0E0"/>
<path d="M37.3369 40.3403V116.43C37.3369 117.628 37.8024 118.488 38.5394 118.894L38.7851 119.004C39.4272 119.253 40.2332 119.2 41.1081 118.78L61.8173 108.924L83.9661 97.9371C85.1003 97.3517 86.0396 96.5421 86.6989 95.5817C87.3581 94.6212 87.7165 93.5402 87.7416 92.4367V16.3472C87.7416 15.1881 87.3106 14.349 86.6124 13.9259C86.4945 13.853 86.3655 13.7932 86.2288 13.7481C85.8551 13.6391 85.4555 13.6042 85.0624 13.6462C84.6694 13.6882 84.2938 13.8059 83.9661 13.9899L41.1253 34.7402C39.9167 35.2621 38.9391 36.086 38.3325 37.094C37.7106 38.1011 37.3704 39.2104 37.3369 40.3403Z" fill="#FAFAFA"/>
<path d="M83.9662 97.936C75.1524 102.274 52.2193 113.563 40.8669 119.206C40.5282 119.373 40.1419 119.463 39.7472 119.467C39.3526 119.471 38.9637 119.388 38.6203 119.228C38.2769 119.067 37.9911 118.835 37.7922 118.553C37.5933 118.272 37.4883 117.952 37.4879 117.627V39.3827C37.4879 38.492 37.7703 37.6168 38.3071 36.844C38.8439 36.0712 39.6164 35.4277 40.548 34.9774L84.1559 13.8857C84.4946 13.7226 84.8795 13.6361 85.2717 13.6348C85.6639 13.6335 86.0496 13.7174 86.39 13.8782C86.7304 14.039 87.0134 14.2709 87.2106 14.5506C87.4078 14.8303 87.5122 15.1479 87.5133 15.4714V92.7556C87.5138 93.7981 87.1874 94.823 86.5659 95.7308C85.9444 96.6385 85.0488 97.3982 83.9662 97.936Z" fill="#FAFAFA"/>
<path d="M83.8411 97.7793C76.9194 101.178 70.0005 104.587 63.0845 108.005L50.8012 114.067L45.1983 116.841L42.7459 118.057C41.9917 118.43 41.19 118.963 40.3539 119.202C38.9704 119.6 37.7249 118.686 37.6904 117.559C37.6904 117.378 37.6904 117.203 37.6904 117.015V45.2776C37.6904 43.3683 37.6904 41.4554 37.6904 39.546C37.6745 38.642 37.9514 37.7509 38.4923 36.9646C39.0333 36.1783 39.8187 35.5254 40.7677 35.0731C41.7676 34.586 42.7718 34.106 43.7846 33.6224L57.8609 26.7886L74.5618 18.7139C77.7296 17.185 80.8888 15.6418 84.0437 14.12C85.0264 13.6507 86.2633 13.6969 86.9486 14.5467C87.191 14.886 87.305 15.2772 87.2761 15.6703V92.4566C87.3194 93.5171 87.0235 94.5682 86.4183 95.5044C85.8131 96.4406 84.9198 97.2289 83.8282 97.79C83.5911 97.9109 83.8066 98.2202 84.0437 98.0993C85.1917 97.5129 86.1343 96.6895 86.7783 95.7105C87.4223 94.7315 87.7455 93.6307 87.7158 92.5171V21.1388C87.7158 19.2827 87.7373 17.4232 87.7158 15.5636C87.7268 15.1913 87.6148 14.8236 87.3918 14.4999C87.1687 14.1761 86.8431 13.9085 86.4498 13.7258C86.0565 13.5431 85.6103 13.4522 85.1591 13.4627C84.7079 13.4733 84.2687 13.585 83.8885 13.7858C82.8369 14.2872 81.7939 14.7992 80.7509 15.3041L66.2954 22.3192L49.4436 30.4686C46.4697 31.9086 43.4528 33.338 40.4918 34.7886C39.495 35.2725 38.6708 35.965 38.1024 36.796C37.5341 37.627 37.2418 38.567 37.2551 39.5211C37.2551 40.1611 37.2551 40.8011 37.2551 41.4411V117.257C37.2551 117.378 37.2551 117.502 37.2551 117.612C37.2597 117.93 37.3544 118.243 37.5315 118.525C37.7086 118.808 37.9633 119.052 38.2752 119.239C38.5871 119.426 38.9476 119.55 39.3279 119.602C39.7083 119.653 40.098 119.631 40.466 119.536C41.2806 119.312 42.0477 118.807 42.7804 118.444L45.2802 117.203L50.8831 114.437C59.0317 110.408 67.1875 106.385 75.3506 102.37L84.0696 98.078C84.2937 97.9713 84.0782 97.662 83.8411 97.7793Z" fill="#EBEBEB"/>
<path d="M40.5305 34.9667L84.1557 13.8857C84.4944 13.7226 84.8793 13.6361 85.2715 13.6348C85.6637 13.6335 86.0494 13.7174 86.3898 13.8782C86.7302 14.039 87.0132 14.2709 87.2104 14.5506C87.4076 14.8303 87.512 15.1479 87.5131 15.4714V18.867L37.4834 42.6894V39.3756C37.4813 38.4853 37.7614 37.6101 38.2959 36.8367C38.8304 36.0633 39.6008 35.4186 40.5305 34.9667Z" fill="#EBEBEB"/>
<path d="M70.5022 53.4758C74.926 47.1547 74.9261 40.3223 70.5023 38.2152C66.0785 36.1082 58.9061 39.5244 54.4823 45.8455C50.0585 52.1667 50.0585 58.9991 54.4823 61.1062C58.906 63.2132 66.0784 59.797 70.5022 53.4758Z" fill="#00AD37"/>
<path opacity="0.5" d="M70.5022 53.4758C74.926 47.1547 74.9261 40.3223 70.5023 38.2152C66.0785 36.1082 58.9061 39.5244 54.4823 45.8455C50.0585 52.1667 50.0585 58.9991 54.4823 61.1062C58.906 63.2132 66.0784 59.797 70.5022 53.4758Z" fill="white"/>
<path d="M60.4597 49.7022C60.393 49.7022 60.3268 49.6913 60.2651 49.6702C60.2034 49.6491 60.1474 49.6182 60.1001 49.5793C60.0529 49.5403 60.0154 49.4941 59.9899 49.4432C59.9643 49.3923 59.9512 49.3377 59.9512 49.2826V46.5199C59.9884 45.8645 60.2152 45.2259 60.6126 44.6574C61.01 44.089 61.5664 43.6072 62.2354 43.2523C62.5063 43.0682 62.8387 42.9567 63.1885 42.9327C63.5382 42.9086 63.8885 42.9732 64.1925 43.1177C64.4966 43.2623 64.7399 43.4799 64.89 43.7416C65.0401 44.0033 65.0899 44.2965 65.0326 44.5821V47.3484C65.0326 47.4597 64.979 47.5664 64.8836 47.645C64.7882 47.7237 64.6589 47.7679 64.524 47.7679C64.3891 47.7679 64.2598 47.7237 64.1644 47.645C64.069 47.5664 64.0154 47.4597 64.0154 47.3484V44.5679C64.0828 44.429 64.0868 44.2746 64.0267 44.1334C63.9666 43.9923 63.8466 43.8738 63.6888 43.8C63.531 43.7263 63.3461 43.7022 63.1685 43.7322C62.9908 43.7623 62.8323 43.8444 62.7225 43.9635C62.2095 44.2461 61.7825 44.6225 61.4745 45.0634C61.1666 45.5043 60.986 45.9979 60.9468 46.5057V49.2684C60.9514 49.3791 60.9028 49.4868 60.8116 49.5681C60.7204 49.6493 60.5939 49.6975 60.4597 49.7022Z" fill="#37474F"/>
<path d="M66.597 45.5665C66.4779 45.5258 66.3482 45.5106 66.2201 45.5224C66.0919 45.5343 65.9695 45.5727 65.8643 45.6341L59.0891 48.8626C58.7919 49.0164 58.5459 49.2291 58.3736 49.4812C58.1025 49.8442 57.9537 50.2603 57.9426 50.6866V55.5257C57.9274 55.6614 57.9498 55.7981 58.008 55.9256C58.0663 56.0531 58.1588 56.1681 58.2788 56.2617C58.3155 56.2854 58.3561 56.3046 58.3995 56.3186C58.5142 56.3539 58.6376 56.3658 58.7591 56.3534C58.8806 56.341 58.9968 56.3047 59.0977 56.2475L65.8643 53.0155C66.2173 52.8077 66.5061 52.5343 66.7075 52.2175C66.9089 51.9006 67.0172 51.5492 67.0236 51.1915V46.3452C67.0475 46.1955 67.0201 46.0433 66.9448 45.9057C66.8694 45.7681 66.7489 45.6507 66.597 45.5665Z" fill="#00AD37"/>
<path d="M63.2783 50.6104L63.9334 52.1606L61.6362 53.2522L62.2095 51.3393L62.2913 51.0691C61.9034 51.0691 61.6362 50.8308 61.6362 50.3971C61.6392 50.2204 61.6755 50.0453 61.744 49.8779C61.9229 49.4159 62.2899 49.019 62.7827 48.7544C63.4162 48.4522 63.9334 48.6975 63.9334 49.3019C63.9019 49.7869 63.6708 50.2485 63.2783 50.6104Z" fill="#455A64"/>
<path d="M62.1922 51.3227L62.2741 51.0525C61.8862 51.0525 61.619 50.8142 61.619 50.3804C61.6219 50.2038 61.6583 50.0287 61.7268 49.8613L63.2783 50.6116L63.9335 52.1618L62.1922 51.3227Z" fill="#37474F"/>
<path d="M79.2251 67.5572L45.7801 83.4755C44.3966 84.1333 43.276 83.4328 43.276 81.9146V77.7368C43.276 76.215 44.3966 74.4479 45.7801 73.7901L79.2251 57.8717C80.6086 57.214 81.7292 57.9109 81.7292 59.4326V63.6105C81.7077 65.1322 80.5871 66.8958 79.2251 67.5572Z" fill="#00AD37"/>
<path d="M51.7925 73.4131H51.146V77.8327H51.7925V73.4131Z" fill="#FAFAFA"/>
<path d="M53.9102 74.675L49.2494 76.8848L49.5726 77.3488L54.2334 75.139L53.9102 74.675Z" fill="#FAFAFA"/>
<path d="M49.9877 74.6162L49.6644 75.0781L52.9453 76.6408L53.2685 76.1789L49.9877 74.6162Z" fill="#FAFAFA"/>
<path d="M53.2888 72.9011L50.0068 77.6123L50.5693 77.879L53.8513 73.1678L53.2888 72.9011Z" fill="#FAFAFA"/>
<path d="M62.8131 68.4639H62.1666V72.8835H62.8131V68.4639Z" fill="#FAFAFA"/>
<path d="M64.6445 69.3459L60.005 71.5557L60.3282 72.0175L64.9678 69.8078L64.6445 69.3459Z" fill="#FAFAFA"/>
<path d="M61.0123 69.666L60.6891 70.1279L63.97 71.6906L64.2932 71.2287L61.0123 69.666Z" fill="#FAFAFA"/>
<path d="M64.2862 67.9109L61.0042 72.6221L61.5666 72.8887L64.8486 68.1776L64.2862 67.9109Z" fill="#FAFAFA"/>
<path d="M73.8334 63.5098H73.1869V67.9294H73.8334V63.5098Z" fill="#FAFAFA"/>
<path d="M76.0403 64.7316L71.3795 66.9414L71.7028 67.4054L76.3636 65.1956L76.0403 64.7316Z" fill="#FAFAFA"/>
<path d="M72.0336 64.7119L71.7103 65.1738L74.9912 66.7365L75.3144 66.2746L72.0336 64.7119Z" fill="#FAFAFA"/>
<path d="M74.8721 63.2381L71.5901 67.9277L72.15 68.1944L75.432 63.5047L74.8721 63.2381Z" fill="#FAFAFA"/>
<path d="M80.1949 73.3097C80.6259 73.3097 80.8457 73.8609 80.8457 74.4084V78.5862C80.8457 79.8556 79.8932 81.3809 78.7726 81.9178L45.3491 97.8362C45.1794 97.9254 44.9853 97.978 44.7845 97.989C44.3535 97.989 44.138 97.4379 44.138 96.8904V92.7126C44.138 91.4432 45.0862 89.9179 46.2111 89.381L79.6561 73.4626C79.8243 73.3735 80.017 73.3209 80.2164 73.3097M80.2164 72.5986C79.8654 72.6093 79.5238 72.6951 79.2251 72.8475L45.7801 88.7659C44.3966 89.4236 43.276 91.1908 43.276 92.7126V96.8904C43.276 98.021 43.8966 98.7002 44.7845 98.7002C45.1369 98.6901 45.4801 98.6043 45.7801 98.4513L79.2251 82.5329C80.6086 81.8751 81.7292 80.108 81.7292 78.5862V74.4084C81.7292 73.2777 81.1043 72.5986 80.2164 72.5986Z" fill="#00AD37"/>
<path d="M56.3322 92.5895C55.7539 92.8637 55.2479 92.9836 54.8142 92.9493C54.3865 92.9054 54.0522 92.7305 53.8112 92.4248C53.5763 92.1095 53.4588 91.6819 53.4588 91.1419C53.4588 90.6019 53.5733 90.0676 53.8022 89.5391C54.0371 89.001 54.3594 88.5182 54.769 88.0907C55.1786 87.6565 55.6395 87.318 56.1515 87.0752C56.6334 86.8467 57.0731 86.7482 57.4707 86.7797C57.8683 86.8046 58.1846 86.9713 58.4195 87.2799C58.6544 87.5885 58.7719 88.0428 58.7719 88.6428C58.7719 88.7095 58.7689 88.7876 58.7629 88.8771C58.7568 88.9666 58.7508 89.0495 58.7448 89.1257L54.8684 90.9635V89.9635L57.8322 88.5584L57.1816 89.1468C57.1876 88.8973 57.1454 88.704 57.0551 88.5668C56.9707 88.4268 56.8503 88.3439 56.6936 88.3182C56.543 88.2896 56.3653 88.3238 56.1605 88.4209C55.9557 88.518 55.775 88.6537 55.6184 88.828C55.4678 88.9994 55.3503 89.1984 55.266 89.425C55.1816 89.645 55.1395 89.8784 55.1395 90.125V90.415C55.1395 90.6817 55.1877 90.8888 55.2841 91.0365C55.3865 91.1813 55.531 91.2627 55.7178 91.2808C55.9045 91.2923 56.1274 91.2366 56.3864 91.1138C56.6274 90.9996 56.8322 90.8658 57.0009 90.7125C57.1756 90.5497 57.3472 90.3483 57.5159 90.1083L58.4195 90.7199C58.1846 91.118 57.8954 91.475 57.552 91.7912C57.2087 92.1006 56.8021 92.3668 56.3322 92.5895ZM62.7531 83.9452C63.1326 83.7653 63.476 83.6892 63.7832 83.7168C64.0904 83.7379 64.3314 83.8836 64.506 84.1541C64.6868 84.4218 64.7771 84.8356 64.7771 85.3956V88.4956L63.0603 89.3096V86.5196C63.0603 86.1329 62.988 85.8872 62.8435 85.7824C62.7049 85.6681 62.5091 85.6709 62.2561 85.7909C62.0754 85.8765 61.9097 86.0018 61.7592 86.1665C61.6086 86.3246 61.4911 86.5169 61.4068 86.7436C61.3224 86.9702 61.2803 87.2335 61.2803 87.5335V90.1535L59.5634 90.9675V85.5475L61.1989 84.7721V86.3121L60.8827 86.012C61.0694 85.5302 61.3254 85.1155 61.6507 84.7679C61.976 84.4137 62.3435 84.1394 62.7531 83.9452ZM68.0417 87.0378C67.4152 87.3348 66.9273 87.3962 66.5779 87.2218C66.2285 87.0408 66.0538 86.6036 66.0538 85.9103V81.2603L67.7706 80.4463V85.0763C67.7706 85.2697 67.8188 85.4001 67.9152 85.4678C68.0116 85.5287 68.135 85.5235 68.2856 85.4521C68.4905 85.355 68.6651 85.2155 68.8097 85.0336L69.2344 86.1623C69.0898 86.3375 68.9121 86.4984 68.7013 86.6451C68.4905 86.7984 68.2706 86.9293 68.0417 87.0378ZM65.34 84.4287V83.0087L68.891 81.3251V82.7451L65.34 84.4287ZM72.3214 85.0087C71.7431 85.2829 71.2371 85.4028 70.8034 85.3684C70.3757 85.3245 70.0414 85.1497 69.8004 84.8439C69.5655 84.5287 69.448 84.101 69.448 83.561C69.448 83.021 69.5625 82.4868 69.7914 81.9582C70.0263 81.4202 70.3486 80.9374 70.7582 80.5098C71.1678 80.0756 71.6287 79.7371 72.1407 79.4944C72.6226 79.2659 73.0624 79.1674 73.4599 79.1989C73.8575 79.2237 74.1738 79.3904 74.4087 79.699C74.6436 80.0077 74.7611 80.462 74.7611 81.062C74.7611 81.1286 74.7581 81.2067 74.7521 81.2962C74.746 81.3858 74.74 81.4686 74.734 81.5448L70.8576 83.3827V82.3827L73.8214 80.9775L73.1708 81.566C73.1768 81.3164 73.1346 81.1231 73.0443 80.9859C72.96 80.8459 72.8395 80.7631 72.6829 80.7373C72.5323 80.7087 72.3545 80.743 72.1497 80.8401C71.9449 80.9372 71.7642 81.0729 71.6076 81.2471C71.457 81.4185 71.3395 81.6175 71.2552 81.8442C71.1709 82.0642 71.1287 82.2975 71.1287 82.5442V82.8342C71.1287 83.1008 71.1769 83.308 71.2733 83.4556C71.3757 83.6004 71.5202 83.6819 71.707 83.7C71.8937 83.7115 72.1166 83.6558 72.3756 83.533C72.6166 83.4187 72.8214 83.285 72.9901 83.1316C73.1648 82.9688 73.3364 82.7674 73.5051 82.5275L74.4087 83.139C74.1738 83.5371 73.8846 83.8942 73.5413 84.2103C73.1979 84.5198 72.7913 84.7859 72.3214 85.0087ZM75.5526 83.3867V77.9667L77.1881 77.1912V78.7712L76.9442 78.4369C77.0887 77.9617 77.3237 77.547 77.649 77.1928C77.9743 76.8319 78.3688 76.5415 78.8327 76.3215V78.0315C78.7543 78.0553 78.6851 78.0815 78.6248 78.1101C78.5706 78.1291 78.5104 78.1543 78.4441 78.1858C78.0947 78.3514 77.8116 78.5923 77.5947 78.9085C77.3779 79.218 77.2695 79.6094 77.2695 80.0827V82.5727L75.5526 83.3867Z" fill="#00AD37"/>
<path d="M115.161 70.2377C115.161 70.2377 118.303 70.0635 120.083 73.6653C121.191 75.9053 122.54 79.3542 123.402 81.6653C123.664 82.3632 123.67 83.1092 123.42 83.81C123.17 84.5108 122.675 85.1352 121.997 85.6049L116.519 89.3987L114.567 86.4583C115.705 85.205 116.957 84.0247 118.312 82.9276L114.567 73.6653L115.161 70.2377Z" fill="#FFA8A7"/>
<path d="M116.609 81.24C116.609 81.24 121.6 81.784 122.846 78.6089C122.846 78.6089 120.691 73.9617 119.726 72.4186C118.76 70.8755 116.743 69.7519 115.161 70.239C113.58 70.7261 116.609 81.24 116.609 81.24Z" fill="#00AD37"/>
<path opacity="0.4" d="M116.609 81.24C116.609 81.24 121.6 81.784 122.846 78.6089C122.846 78.6089 120.691 73.9617 119.726 72.4186C118.76 70.8755 116.743 69.7519 115.161 70.239C113.58 70.7261 116.609 81.24 116.609 81.24Z" fill="white"/>
<path d="M113.274 122.932C113.274 122.932 110.903 121.257 109.981 121.179C109.058 121.101 107.464 122.402 108.813 124.66C109.188 125.289 110.713 125.968 111.666 127.174C112.618 128.379 113.472 129.286 114.933 129.119C116.394 128.952 116.584 128.276 116.489 127.49C116.365 126.771 116.191 126.059 115.967 125.357L113.274 122.932Z" fill="#37474F"/>
<path d="M114.998 128.759C113.493 128.93 112.61 127.995 111.627 126.754C110.645 125.513 109.076 124.809 108.688 124.162C108.533 123.902 108.406 123.632 108.309 123.354C108.38 123.81 108.547 124.251 108.8 124.659C109.175 125.289 110.701 125.968 111.653 127.173C112.606 128.379 113.459 129.285 114.92 129.118C116.041 128.994 116.411 128.563 116.48 128.016C116.291 128.386 115.881 128.663 114.998 128.759Z" fill="#263238"/>
<path d="M112.015 125.087C111.977 125.088 111.939 125.079 111.907 125.062C111.881 125.051 111.857 125.035 111.838 125.016C111.819 124.996 111.804 124.974 111.795 124.95C111.786 124.927 111.783 124.902 111.786 124.877C111.789 124.852 111.798 124.828 111.813 124.806C112.295 124.101 113.096 123.582 114.041 123.363C114.099 123.355 114.158 123.366 114.207 123.394C114.255 123.421 114.29 123.462 114.303 123.51C114.316 123.557 114.307 123.606 114.277 123.648C114.248 123.69 114.2 123.722 114.144 123.736C113.331 123.932 112.641 124.379 112.218 124.984C112.198 125.015 112.169 125.04 112.134 125.058C112.098 125.077 112.057 125.086 112.015 125.087Z" fill="#EBEBEB"/>
<path d="M111.119 124.412C111.081 124.412 111.044 124.405 111.011 124.391C110.984 124.379 110.961 124.363 110.941 124.344C110.922 124.325 110.908 124.303 110.899 124.279C110.89 124.255 110.887 124.23 110.89 124.205C110.893 124.181 110.902 124.157 110.916 124.135C111.155 123.785 111.475 123.477 111.858 123.229C112.241 122.982 112.68 122.799 113.149 122.691C113.18 122.678 113.214 122.671 113.249 122.67C113.284 122.669 113.318 122.675 113.35 122.687C113.382 122.699 113.409 122.717 113.431 122.74C113.453 122.762 113.469 122.788 113.477 122.816C113.485 122.844 113.484 122.873 113.477 122.901C113.469 122.929 113.453 122.955 113.431 122.978C113.409 123 113.381 123.018 113.349 123.03C113.317 123.042 113.283 123.048 113.248 123.047C112.435 123.245 111.745 123.693 111.321 124.298C111.305 124.331 111.277 124.36 111.241 124.38C111.205 124.4 111.162 124.411 111.119 124.412Z" fill="#EBEBEB"/>
<path d="M110.114 123.739C110.077 123.738 110.04 123.731 110.007 123.717C109.953 123.693 109.912 123.652 109.894 123.604C109.877 123.555 109.883 123.503 109.912 123.458C110.396 122.753 111.199 122.235 112.144 122.018C112.174 122.012 112.204 122.011 112.234 122.015C112.264 122.019 112.293 122.028 112.318 122.041C112.344 122.055 112.366 122.072 112.384 122.092C112.401 122.113 112.414 122.136 112.42 122.16C112.433 122.21 112.422 122.261 112.389 122.304C112.356 122.346 112.303 122.377 112.244 122.388C111.431 122.586 110.741 123.034 110.317 123.639C110.298 123.67 110.269 123.695 110.233 123.713C110.197 123.73 110.156 123.739 110.114 123.739Z" fill="#EBEBEB"/>
<path d="M100.658 128.426C100.658 128.426 97.482 127.576 96.5338 127.811C95.5856 128.045 94.659 129.873 97.1156 131.647C97.7966 132.138 99.6413 132.294 101.184 133.162C102.727 134.029 104.02 134.63 105.382 133.972C106.744 133.315 106.632 132.55 106.386 131.739C106.08 130.694 105.83 129.933 105.83 129.933L100.658 128.426Z" fill="#37474F"/>
<path d="M105.279 133.593C103.878 134.272 102.537 133.649 100.969 132.753C99.3998 131.857 97.4776 131.687 96.7751 131.193C96.4908 130.989 96.2297 130.764 95.995 130.521C96.2926 130.948 96.6775 131.329 97.1328 131.648C97.8138 132.138 99.6584 132.295 101.201 133.162C102.744 134.03 104.037 134.631 105.399 133.973C106.438 133.472 106.593 132.906 106.391 132.355C106.378 132.785 106.085 133.201 105.279 133.593Z" fill="#263238"/>
<path d="M99.9128 130.846H99.8912C99.8302 130.841 99.7742 130.815 99.7354 130.776C99.6967 130.737 99.6783 130.687 99.6844 130.636C99.8093 129.78 100.341 129 101.163 128.467C101.187 128.453 101.215 128.442 101.244 128.437C101.273 128.431 101.303 128.43 101.333 128.434C101.362 128.438 101.391 128.447 101.416 128.46C101.442 128.473 101.464 128.49 101.482 128.51C101.517 128.551 101.532 128.602 101.522 128.652C101.512 128.702 101.479 128.747 101.43 128.777C100.72 129.249 100.257 129.929 100.137 130.675C100.132 130.721 100.106 130.764 100.064 130.796C100.023 130.827 99.9691 130.845 99.9128 130.846Z" fill="#EBEBEB"/>
<path d="M101.206 131.199C101.145 131.193 101.09 131.169 101.051 131.13C101.013 131.092 100.994 131.042 100.999 130.992C101.125 130.136 101.657 129.355 102.477 128.82C102.527 128.791 102.59 128.779 102.65 128.788C102.711 128.797 102.765 128.825 102.8 128.866C102.818 128.886 102.83 128.909 102.837 128.933C102.843 128.958 102.844 128.983 102.839 129.007C102.833 129.032 102.822 129.055 102.806 129.076C102.79 129.097 102.769 129.115 102.744 129.129C102.032 129.601 101.569 130.281 101.451 131.028C101.446 131.077 101.417 131.123 101.371 131.155C101.325 131.187 101.266 131.202 101.206 131.199Z" fill="#EBEBEB"/>
<path d="M98.6888 130.48H98.6672C98.607 130.475 98.5517 130.45 98.513 130.412C98.4744 130.373 98.4555 130.324 98.4603 130.274C98.5846 129.417 99.1163 128.636 99.9386 128.102C99.9884 128.072 100.05 128.061 100.11 128.069C100.171 128.077 100.224 128.105 100.26 128.146C100.295 128.187 100.309 128.238 100.299 128.288C100.289 128.337 100.256 128.382 100.206 128.411C99.4938 128.882 99.0304 129.563 98.9129 130.31C98.9076 130.356 98.8818 130.399 98.8404 130.43C98.799 130.462 98.745 130.48 98.6888 130.48Z" fill="#EBEBEB"/>
<path d="M116.118 123.43C116.402 120.834 117.019 116.766 117.277 114.864C117.626 112.46 117.541 110.027 117.027 107.643C116.895 107.081 116.862 106.506 116.928 105.936C117.553 100.766 117.958 92.3857 117.614 90.5439L108.817 92.08C108.817 92.08 109.895 103.838 110.369 107.749C110.843 111.661 112.61 123.465 112.61 123.465C113.135 123.742 113.747 123.887 114.37 123.88C114.994 123.874 115.601 123.717 116.118 123.43Z" fill="#455A64"/>
<path d="M114.851 126.1C115.094 126.053 115.321 125.962 115.515 125.832C115.709 125.703 115.865 125.539 115.972 125.353C115.972 124.944 116.028 124.262 116.118 123.43C115.601 123.717 114.994 123.874 114.37 123.881C113.747 123.887 113.135 123.742 112.61 123.465L112.92 125.648C113.179 125.84 113.487 125.981 113.822 126.059C114.157 126.138 114.509 126.151 114.851 126.1Z" fill="#FFA8A7"/>
<path d="M106.223 127.995C106.58 124.063 107.274 116.45 107.365 115.252C107.432 113.93 107.331 112.606 107.063 111.302C106.907 110.597 106.907 109.874 107.063 109.169L110.942 91.4688L100.309 91.3408L99.6155 109.883C99.6078 110.121 99.6193 110.358 99.65 110.594L101.904 127.878C101.904 127.878 104.102 129.403 106.223 127.995Z" fill="#455A64"/>
<path d="M104.447 131.239C104.777 131.207 105.093 131.108 105.366 130.95C105.638 130.793 105.859 130.581 106.007 130.336L106.223 127.996C104.102 129.418 101.913 127.886 101.913 127.886L102.249 130.474C102.249 130.474 102.74 131.37 104.447 131.239Z" fill="#FFA8A7"/>
<path d="M105.223 71.4191L102.714 72.1302L100.016 82.6583L100.15 91.9917C100.15 91.9917 102.076 93.261 109.602 93.261C113.825 93.261 116.579 91.9455 117.614 90.5481L116.937 84.909C116.937 84.909 117.614 79.3516 117.614 76.6031C117.614 73.8547 117.765 71.604 115.161 70.2422L112.843 70.4022L105.223 71.4191Z" fill="#00AD37"/>
<path opacity="0.2" d="M105.223 71.4191L102.714 72.1302L100.016 82.6583L100.15 91.9917C100.15 91.9917 102.076 93.261 109.602 93.261C113.825 93.261 116.579 91.9455 117.614 90.5481L116.937 84.909C116.937 84.909 117.614 79.3516 117.614 76.6031C117.614 73.8547 117.765 71.604 115.161 70.2422L112.843 70.4022L105.223 71.4191Z" fill="white"/>
<path d="M102.499 62.3691L101.245 64.4207C101.226 64.4505 101.216 64.4831 101.215 64.5164C101.213 64.5497 101.221 64.5828 101.236 64.6135C101.252 64.6442 101.275 64.6718 101.305 64.6944C101.335 64.717 101.37 64.734 101.408 64.7443L102.895 65.1567L102.499 62.3691Z" fill="#F28F8F"/>
<path d="M104.223 58.9316C104.223 58.9316 102.318 59.7779 102.318 64.6206C102.318 67.2908 102.542 68.9939 104.223 68.8873C105.904 68.7806 110.748 68.2579 110.748 68.2579V58.9316H104.223Z" fill="#FFA8A7"/>
<path d="M104.223 68.9054C104.813 68.8663 105.796 68.7774 106.809 68.6778V68.1836C105.884 68.5089 104.919 68.7475 103.93 68.8947C104.027 68.9042 104.125 68.9078 104.223 68.9054Z" fill="#F28F8F"/>
<path d="M106.55 67.9779V71.0251H111.606V66.7441L106.55 67.9779Z" fill="#FFA8A7"/>
<path d="M106.55 69.8648C106.55 69.8648 108.369 70.3982 109.826 70.1884C111.283 69.9786 111.606 69.2462 111.606 69.2462C111.606 69.2462 112.08 69.2142 112.843 70.3982C112.546 70.8406 112.121 71.2155 111.606 71.4897C111.091 71.7639 110.501 71.9288 109.89 71.9698C108.305 72.0535 106.716 71.8659 105.223 71.4186C105.223 71.4186 105.947 69.712 106.55 69.8648Z" fill="#00AD37"/>
<path opacity="0.4" d="M106.55 69.8648C106.55 69.8648 108.369 70.3982 109.826 70.1884C111.283 69.9786 111.606 69.2462 111.606 69.2462C111.606 69.2462 112.08 69.2142 112.843 70.3982C112.546 70.8406 112.121 71.2155 111.606 71.4897C111.091 71.7639 110.501 71.9288 109.89 71.9698C108.305 72.0535 106.716 71.8659 105.223 71.4186C105.223 71.4186 105.947 69.712 106.55 69.8648Z" fill="white"/>
<path d="M95.2709 78.9101L93.9133 80.631C93.9133 80.631 90.6162 79.4185 88.3104 78.6825C86.9677 78.2711 85.7179 77.6774 84.6124 76.9261C84.6948 76.1852 84.8388 75.4498 85.0434 74.7252C85.3107 73.9785 85.4012 73.3563 84.6124 73.6869C83.8237 74.0176 83.2764 75.3012 83.229 75.4647C83.229 75.4647 78.5958 71.6211 78.0183 71.7065C77.4407 71.7918 77.5873 72.3678 78.8199 73.5518L80.0655 74.7394C80.0655 74.7394 77.2252 76.087 77.6864 77.559C78.1475 79.031 81.8929 79.6923 81.8929 79.6923C81.8929 79.6923 92.853 86.6399 95.2795 85.3813C97.706 84.1226 101.141 80.5279 101.141 80.5279L95.2709 78.9101Z" fill="#FFA8A7"/>
<path d="M103.71 71.8564C103.71 71.8564 105.736 73.2289 104.417 76.0663C103.098 78.9036 99.7318 82.3312 99.7318 82.3312C99.7318 82.3312 96.2063 81.4245 94.8444 79.0743L99.2922 73.332C99.6077 72.9231 100.035 72.5813 100.541 72.3342C101.046 72.0871 101.615 71.9417 102.201 71.9098C102.624 71.8884 103.124 71.8707 103.71 71.8564Z" fill="#00AD37"/>
<path opacity="0.4" d="M103.71 71.8564C103.71 71.8564 105.736 73.2289 104.417 76.0663C103.098 78.9036 99.7318 82.3312 99.7318 82.3312C99.7318 82.3312 96.2063 81.4245 94.8444 79.0743L99.2922 73.332C99.6077 72.9231 100.035 72.5813 100.541 72.3342C101.046 72.0871 101.615 71.9417 102.201 71.9098C102.624 71.8884 103.124 71.8707 103.71 71.8564Z" fill="white"/>
<path d="M103.512 56.0731C103.512 56.0731 101.512 55.8526 101.003 56.9869C100.684 57.698 101.701 58.2455 101.701 58.2455C101.701 58.2455 100.408 59.2447 102.335 59.554C102.302 59.7246 102.32 59.8992 102.389 60.0625C102.458 60.2257 102.574 60.3723 102.728 60.4892C102.882 60.6062 103.069 60.6898 103.272 60.7326C103.475 60.7754 103.688 60.776 103.891 60.7344C103.891 60.7344 103.667 61.8011 105.352 62.1887C105.352 62.1887 104.49 64.0589 106.102 64.0838H107.597L106.994 65.5274C106.994 65.5274 108.115 67.7532 111.606 67.7532C111.989 67.077 112.42 66.4204 112.899 65.7869C113.33 65.3425 115.485 63.0634 115.485 61.2571C115.485 59.4509 114.644 58.3806 113.476 58.1424C113.106 57.4788 112.529 56.9082 111.804 56.4891C110.627 55.8349 108.153 55.2517 106.757 56.0553C106.757 56.0553 105.52 54.7148 104.662 54.7148C103.805 54.7148 103.512 55.4437 103.512 56.0731Z" fill="#263238"/>
<path d="M106.102 64.0846C106.102 64.0846 105.955 62.1895 107.89 62.1895C109.826 62.1895 109.369 65.5281 106.994 65.5281L106.102 64.0846Z" fill="#FFA8A7"/>
</svg>
