<svg width="180" height="180" viewBox="0 0 180 180" fill="none" xmlns="http://www.w3.org/2000/svg">
<path d="M180 174.25C180 174.308 139.702 174.354 90.0044 174.354C40.2891 174.354 0 174.307 0 174.25C0 174.193 40.2891 174.146 90.0044 174.146C139.702 174.146 180 174.193 180 174.25Z" fill="#263238"/>
<path d="M18.535 57.6115L6.19137 63.7549C5.26867 64.145 4.66949 65.0442 4.66949 66.0396V71.7689C4.66949 76.8874 6.10928 81.9599 9.07095 86.4378C11.2942 89.7994 14.243 94.0961 19.1495 96.5521H21.3643C26.826 94.8994 30.9028 90.4934 33.3952 86.7253C36.3573 82.2473 37.7967 77.1753 37.7967 72.0564V66.0396C37.7967 65.0442 37.1979 64.145 36.2748 63.7549L22.2141 57.81C21.5876 57.5453 19.1615 57.3464 18.535 57.6115Z" fill="#00AD37"/>
<path opacity="0.3" d="M18.535 57.6115L6.19137 63.7549C5.26867 64.145 4.66949 65.0442 4.66949 66.0396V71.7689C4.66949 76.8874 6.10928 81.9599 9.07095 86.4378C11.2942 89.7994 14.243 94.0961 19.1495 96.5521H21.3643C26.826 94.8994 30.9028 90.4934 33.3952 86.7253C36.3573 82.2473 37.7967 77.1753 37.7967 72.0564V66.0396C37.7967 65.0442 37.1979 64.145 36.2748 63.7549L22.2141 57.81C21.5876 57.5453 19.1615 57.3464 18.535 57.6115Z" fill="#121212"/>
<path d="M18.0376 57.8102L3.97653 63.7548C3.05382 64.1449 2.45465 65.044 2.45465 66.0395V71.7688C2.45465 76.8872 3.89444 81.9597 6.8561 86.4377C9.34857 90.2061 13.208 94.0859 19.1494 96.5519C24.6112 94.8993 28.6879 90.4932 31.1804 86.7252C34.1425 82.2472 35.5818 77.1751 35.5818 72.0563V66.0395C35.5818 65.044 34.9831 64.1449 34.06 63.7548L19.9993 57.8098C19.3728 57.5451 18.6641 57.5451 18.0376 57.8102Z" fill="#00AD37"/>
<path opacity="0.3" d="M22.3531 83.7938C27.0991 81.9672 29.4542 76.6688 27.6135 71.9594C25.7727 67.25 20.4331 64.913 15.6871 66.7396C10.9411 68.5661 8.58599 73.8646 10.4268 78.574C12.2675 83.2834 17.6071 85.6204 22.3531 83.7938Z" fill="#121212"/>
<path d="M19.0187 75.7774C21.132 75.7774 22.8452 74.0775 22.8452 71.9805C22.8452 69.8835 21.132 68.1836 19.0187 68.1836C16.9055 68.1836 15.1923 69.8835 15.1923 71.9805C15.1923 74.0775 16.9055 75.7774 19.0187 75.7774Z" fill="white"/>
<path d="M12.0303 81.233C12.0303 81.233 13.8117 77.0156 18.8779 77.0156C23.9441 77.0156 26.0076 81.233 26.0076 81.233C26.0076 81.233 23.7478 84.546 18.7483 84.4178C14.2217 84.3016 12.0303 81.233 12.0303 81.233Z" fill="white"/>
<path d="M28.2356 75.2729C28.232 75.2729 28.2259 75.2226 28.2175 75.1248C28.2094 75.0166 28.1986 74.8732 28.1849 74.6911C28.1785 74.5949 28.1712 74.4883 28.1636 74.3721C28.1503 74.2551 28.1245 74.1285 28.1032 73.9908C28.0581 73.7157 28.0151 73.3962 27.9076 73.0496C27.7431 72.3453 27.4083 71.5131 26.8823 70.6319C26.352 69.7546 25.5886 68.8382 24.55 68.0612C23.515 67.2914 22.2097 66.6369 20.7035 66.3734C19.2073 66.119 17.5193 66.1661 15.9117 66.7727C15.5024 66.9028 15.1182 67.1037 14.7226 67.2922C14.348 67.517 13.9536 67.7242 13.6051 68.0057C13.2345 68.2581 12.9106 68.5743 12.5714 68.8782C12.2647 69.2152 11.9428 69.5446 11.6784 69.9267C11.136 70.6742 10.6624 71.5047 10.3763 72.4183C10.0793 73.3259 9.91915 74.2902 9.90627 75.2713C9.91955 76.2528 10.0789 77.2171 10.3759 78.1255C10.6624 79.0391 11.136 79.87 11.678 80.6179C11.9424 81.0005 12.2643 81.3303 12.571 81.6669C12.9102 81.9711 13.2341 82.287 13.6047 82.5397C13.9532 82.8213 14.348 83.0285 14.7226 83.2533C15.1182 83.4418 15.5024 83.6426 15.9117 83.7728C17.5197 84.3797 19.2082 84.4264 20.7043 84.1721C22.2105 83.9081 23.5158 83.2537 24.5512 82.4838C25.5894 81.7068 26.3532 80.7904 26.8831 79.9132C27.4091 79.0319 27.7439 78.2002 27.9084 77.4958C28.0159 77.1488 28.0585 76.8298 28.1036 76.5547C28.1249 76.4169 28.1511 76.2903 28.164 76.1733C28.1716 76.0567 28.1789 75.9505 28.1853 75.8543C28.199 75.6722 28.2098 75.5289 28.2179 75.4207C28.2259 75.3232 28.232 75.2729 28.2356 75.2729C28.2392 75.2729 28.2404 75.3232 28.2388 75.4211C28.236 75.5297 28.232 75.6738 28.2271 75.8571C28.2239 75.9541 28.2199 76.0611 28.2159 76.1785C28.2058 76.2963 28.1833 76.4241 28.1652 76.5635C28.1261 76.8414 28.0891 77.1644 27.9873 77.5158C27.8336 78.2293 27.5068 79.0746 26.9837 79.9731C26.4562 80.8675 25.6904 81.8038 24.641 82.6012C23.5951 83.3911 22.27 84.0655 20.7365 84.3418C19.2134 84.6089 17.4907 84.5674 15.8461 83.9533C15.428 83.8211 15.0341 83.6178 14.63 83.4258C14.2466 83.1974 13.8429 82.9862 13.486 82.6995C13.107 82.4419 12.7746 82.1201 12.4277 81.8094C12.1134 81.466 11.7839 81.129 11.5131 80.7385C10.9573 79.9747 10.4724 79.125 10.1783 78.1906C9.87368 77.2618 9.7103 76.2748 9.69702 75.2713C9.7103 74.2679 9.87408 73.2816 10.1787 72.3529C10.4728 71.4189 10.9577 70.5692 11.5135 69.8057C11.7843 69.4156 12.1138 69.0786 12.4281 68.7352C12.7754 68.4246 13.1074 68.1027 13.4864 67.8452C13.8434 67.5589 14.247 67.3473 14.63 67.1193C15.0345 66.9276 15.428 66.7239 15.8461 66.5918C17.4903 65.9777 19.2126 65.9361 20.7357 66.2033C22.2692 66.4796 23.5943 67.154 24.6401 67.9434C25.6896 68.7408 26.4558 69.6772 26.9833 70.5716C27.5064 71.4696 27.8332 72.3153 27.9873 73.0289C28.0895 73.3802 28.1261 73.7033 28.1652 73.9812C28.1833 74.1201 28.2062 74.2479 28.2159 74.3661C28.2199 74.4835 28.2239 74.5905 28.2271 74.6876C28.232 74.8708 28.236 75.015 28.2388 75.1236C28.2404 75.223 28.2392 75.2729 28.2356 75.2729Z" fill="#263238"/>
<path d="M35.5367 70.5C35.5439 70.4996 35.5524 70.5906 35.5625 70.7635C35.5709 70.9584 35.5818 71.2104 35.5954 71.5222C35.6083 71.852 35.6272 72.2557 35.6043 72.7241C35.5975 72.9597 35.5898 73.21 35.5822 73.4748C35.5794 73.7411 35.5625 74.0214 35.5303 74.3153C35.4731 74.9031 35.4337 75.5499 35.3114 76.2343C35.2554 76.5773 35.2116 76.9343 35.1399 77.2973C35.0615 77.6594 34.981 78.032 34.8981 78.4137C34.5303 79.9318 34.0209 81.5821 33.2768 83.23C32.53 84.8771 31.6483 86.3637 30.7554 87.6507C30.287 88.2791 29.8552 88.8861 29.3916 89.4084C29.1643 89.6723 28.9571 89.9382 28.7349 90.1734C28.5124 90.4074 28.2983 90.6322 28.0935 90.8474C27.6951 91.2867 27.2859 91.636 26.9446 91.9599C26.6054 92.2865 26.2924 92.5445 26.0324 92.7509C25.7873 92.9469 25.5898 93.1055 25.4369 93.228C25.2992 93.3351 25.2248 93.389 25.2204 93.383C25.2159 93.3774 25.2815 93.3131 25.4099 93.1953C25.556 93.0651 25.7447 92.8974 25.9789 92.6894C26.23 92.4746 26.5338 92.2086 26.8642 91.8752C27.1966 91.5446 27.5965 91.19 27.9861 90.7464C28.1865 90.5296 28.3961 90.3028 28.6142 90.0668C28.8323 89.8304 29.0347 89.5633 29.258 89.2986C29.7132 88.7755 30.1365 88.1681 30.5976 87.5412C31.4757 86.2571 32.3453 84.7797 33.0861 83.1454C33.8245 81.5098 34.3351 79.8747 34.711 78.3694C34.7959 77.9908 34.8788 77.6215 34.9597 77.2625C35.0341 76.9023 35.0808 76.5482 35.1403 76.208C35.2691 75.5288 35.317 74.8863 35.3834 74.3025C35.4204 74.0106 35.4417 73.7319 35.4498 73.4672C35.4635 73.2036 35.4759 72.9545 35.488 72.7201C35.5222 72.2537 35.515 71.8512 35.515 71.5226C35.5178 71.2107 35.5198 70.9592 35.5214 70.7643C35.5242 70.5914 35.5295 70.5004 35.5367 70.5Z" fill="#263238"/>
<path d="M133.38 174.242H38.2313C35.6564 174.242 33.5687 172.1 33.5687 169.456V25.1413C33.5687 22.4984 35.6564 20.3555 38.2313 20.3555H133.381C135.956 20.3555 138.043 22.498 138.043 25.1413V169.456C138.043 172.1 135.956 174.242 133.38 174.242Z" fill="#263238"/>
<path d="M87.6284 167.243C87.6284 169.627 85.6445 171.56 83.1975 171.56C80.7501 171.56 78.7667 169.627 78.7667 167.243C78.7667 164.859 80.7501 162.926 83.1975 162.926C85.6445 162.926 87.6284 164.859 87.6284 167.243Z" fill="#455A64"/>
<path d="M96.5107 28.4941H75.1739C74.3522 28.4941 73.6858 27.8105 73.6858 26.9668C73.6858 26.1235 74.3522 25.4395 75.1739 25.4395H96.5107C97.3324 25.4395 97.9988 26.1235 97.9988 26.9668C97.9988 27.8101 97.3324 28.4941 96.5107 28.4941Z" fill="#455A64"/>
<path d="M134.659 31.3496H36.7724V159.863H134.659V31.3496Z" fill="white"/>
<path d="M134.659 31.3418H130.483V159.856H134.659V31.3418Z" fill="#F5F5F5"/>
<path d="M132.571 77.5151C131.852 77.5151 131.269 76.9369 131.269 76.2234V47.7956C131.269 47.0825 131.852 46.5039 132.571 46.5039C133.29 46.5039 133.873 47.0821 133.873 47.7956V76.2234C133.873 76.9369 133.29 77.5151 132.571 77.5151Z" fill="#00AD37"/>
<path d="M121.894 60.5907H49.7186C48.5721 60.5907 47.6426 59.6683 47.6426 58.5307C47.6426 57.3931 48.5721 56.4707 49.7186 56.4707H121.894C123.041 56.4707 123.97 57.3931 123.97 58.5307C123.97 59.6683 123.041 60.5907 121.894 60.5907Z" fill="#00AD37"/>
<path d="M110.794 45.5594H65.3908C64.2444 45.5594 63.3148 44.637 63.3148 43.4994C63.3148 42.3618 64.2444 41.4395 65.3908 41.4395H110.794C111.94 41.4395 112.87 42.3618 112.87 43.4994C112.87 44.6374 111.94 45.5594 110.794 45.5594Z" fill="#00AD37"/>
<path d="M111.646 68.8836H59.9672C58.8208 68.8836 57.8912 67.9612 57.8912 66.8236C57.8912 65.686 58.8208 64.7637 59.9672 64.7637H111.646C112.792 64.7637 113.722 65.686 113.722 66.8236C113.721 67.9616 112.792 68.8836 111.646 68.8836Z" fill="#00AD37"/>
<path d="M88.3139 105.03H48.5532C47.4067 105.03 46.4772 104.108 46.4772 102.97C46.4772 101.833 47.4067 100.91 48.5532 100.91H88.3139C89.4604 100.91 90.3899 101.833 90.3899 102.97C90.3899 104.108 89.4604 105.03 88.3139 105.03Z" fill="#00AD37"/>
<path d="M120.729 96.4032H48.5532C47.4067 96.4032 46.4772 95.4808 46.4772 94.3432C46.4772 93.2056 47.4067 92.2832 48.5532 92.2832H120.729C121.875 92.2832 122.805 93.2056 122.805 94.3432C122.805 95.4808 121.876 96.4032 120.729 96.4032Z" fill="#00AD37"/>
<path d="M120.729 124.19H57.5537C56.4073 124.19 55.4777 123.268 55.4777 122.13C55.4777 120.993 56.4073 120.07 57.5537 120.07H120.729C121.875 120.07 122.805 120.993 122.805 122.13C122.805 123.268 121.876 124.19 120.729 124.19Z" fill="#00AD37"/>
<path d="M120.729 132.993H48.5532C47.4067 132.993 46.4772 132.071 46.4772 130.933C46.4772 129.795 47.4067 128.873 48.5532 128.873H120.729C121.875 128.873 122.805 129.795 122.805 130.933C122.805 132.071 121.876 132.993 120.729 132.993Z" fill="#00AD37"/>
<path d="M120.729 141.938H48.5532C47.4067 141.938 46.4772 141.016 46.4772 139.878C46.4772 138.741 47.4067 137.818 48.5532 137.818H120.729C121.875 137.818 122.805 138.741 122.805 139.878C122.805 141.016 121.876 141.938 120.729 141.938Z" fill="#00AD37"/>
<path d="M51.8018 122.13C51.8018 123.312 50.8364 124.27 49.6453 124.27C48.4542 124.27 47.4888 123.312 47.4888 122.13C47.4888 120.948 48.4542 119.99 49.6453 119.99C50.8364 119.99 51.8018 120.948 51.8018 122.13Z" fill="#00AD37"/>
<path d="M120.729 88.3543H57.5537C56.4073 88.3543 55.4777 87.432 55.4777 86.2944C55.4777 85.1568 56.4073 84.2344 57.5537 84.2344H120.729C121.875 84.2344 122.805 85.1568 122.805 86.2944C122.805 87.432 121.876 88.3543 120.729 88.3543Z" fill="#00AD37"/>
<path d="M49.6453 88.4359C50.8363 88.4359 51.8018 87.4779 51.8018 86.2961C51.8018 85.1143 50.8363 84.1562 49.6453 84.1562C48.4543 84.1562 47.4888 85.1143 47.4888 86.2961C47.4888 87.4779 48.4543 88.4359 49.6453 88.4359Z" fill="#00AD37"/>
<path d="M118.712 155.041H102.516C100.689 155.041 99.2077 153.571 99.2077 151.758C99.2077 149.944 100.689 148.475 102.516 148.475H118.712C120.539 148.475 122.02 149.944 122.02 151.758C122.02 153.571 120.539 155.041 118.712 155.041Z" fill="#00AD37"/>
<path d="M35.2732 0.170021L18.4843 8.52623C17.2292 9.05688 16.4143 10.2799 16.4143 11.6339V19.4267C16.4143 26.3886 18.3724 33.2878 22.4012 39.3785C25.4253 43.9507 29.436 49.7946 36.1094 53.1358H39.1217C46.5505 50.8878 52.0955 44.895 55.4858 39.7698C59.5146 33.6791 61.4727 26.7803 61.4727 19.818V11.6339C61.4727 10.2799 60.6582 9.05688 59.4027 8.52623L40.2778 0.440336C39.4256 0.0801816 36.1259 -0.190133 35.2732 0.170021Z" fill="#00AD37"/>
<path opacity="0.3" d="M35.2732 0.170021L18.4843 8.52623C17.2292 9.05688 16.4143 10.2799 16.4143 11.6339V19.4267C16.4143 26.3886 18.3724 33.2878 22.4012 39.3785C25.4253 43.9507 29.436 49.7946 36.1094 53.1358H39.1217C46.5505 50.8878 52.0955 44.895 55.4858 39.7698C59.5146 33.6791 61.4727 26.7803 61.4727 19.818V11.6339C61.4727 10.2799 60.6582 9.05688 59.4027 8.52623L40.2778 0.440336C39.4256 0.0801816 36.1259 -0.190133 35.2732 0.170021Z" fill="#121212"/>
<path d="M34.5968 0.440037L15.4719 8.52593C14.2168 9.05658 13.402 10.2796 13.402 11.6336V19.4264C13.402 26.3883 15.3601 33.2875 19.3889 39.3782C22.7791 44.5038 28.0284 49.7811 36.1098 53.1355C43.5385 50.8875 49.0836 44.8947 52.4738 39.7695C56.5027 33.6788 58.4607 26.78 58.4607 19.8177V11.6336C58.4607 10.2796 57.6463 9.05658 56.3908 8.52593L37.2655 0.440037C36.4132 0.0798834 35.4495 0.0798834 34.5968 0.440037Z" fill="#00AD37"/>
<path d="M58.3987 17.707C58.4023 17.707 58.4063 17.7378 58.4111 17.7981C58.4152 17.8707 58.4204 17.959 58.4264 18.066C58.4357 18.3199 58.4486 18.6641 58.4643 19.0981C58.4796 19.5465 58.5033 20.0951 58.4699 20.7324C58.4594 21.0518 58.4486 21.3924 58.4369 21.753C58.4309 21.9338 58.4244 22.1195 58.418 22.3104C58.4003 22.5004 58.3822 22.6957 58.3637 22.8953C58.2844 23.6939 58.2289 24.5727 58.0615 25.503C57.9846 25.9686 57.9242 26.4541 57.8265 26.9477C57.7194 27.4396 57.6096 27.9455 57.4965 28.4645C56.9947 30.5268 56.3014 32.7688 55.2905 35.008C54.2761 37.2456 53.0789 39.266 51.8669 41.016C51.2311 41.8705 50.6452 42.6962 50.0163 43.4065C49.7076 43.7655 49.4268 44.1276 49.125 44.4475C48.8228 44.7665 48.5322 45.0727 48.255 45.3654C47.7145 45.9635 47.1596 46.4395 46.6969 46.8815C46.4611 47.0979 46.2486 47.3067 46.0402 47.4844C45.8297 47.6577 45.6366 47.817 45.4611 47.9612C45.1223 48.2363 44.8539 48.4543 44.6559 48.6152C44.571 48.6815 44.501 48.7362 44.4434 48.7813C44.3947 48.8176 44.369 48.8352 44.3666 48.8324C44.3642 48.8296 44.3859 48.8068 44.4302 48.7649C44.4845 48.7154 44.5497 48.6559 44.6293 48.5832C44.8209 48.4151 45.0804 48.1876 45.408 47.9005C45.5794 47.7523 45.7681 47.589 45.9738 47.4109C46.1778 47.2293 46.3858 47.0165 46.6168 46.7968C47.0703 46.3484 47.6164 45.8669 48.1475 45.2644C48.4208 44.9701 48.7065 44.6619 49.0042 44.3413C49.3016 44.0198 49.5777 43.6569 49.8823 43.2971C50.5028 42.5856 51.0802 41.7599 51.7084 40.907C52.9055 39.1597 54.0902 37.1486 55.099 34.9237C56.1042 32.6973 56.7987 30.4701 57.3086 28.4206C57.4237 27.9051 57.5363 27.402 57.6454 26.9133C57.746 26.423 57.8092 25.9403 57.8896 25.4775C58.0639 24.5528 58.1275 23.6783 58.2156 22.8833C58.2365 22.6845 58.257 22.4904 58.2771 22.3012C58.286 22.1115 58.2949 21.9263 58.3033 21.7462C58.3206 21.3872 58.3371 21.0478 58.3524 20.7296C58.3971 20.0947 58.385 19.5473 58.3826 19.0997C58.3834 18.6661 58.3838 18.3219 58.3842 18.0684C58.3866 17.961 58.3882 17.8727 58.3898 17.7997C58.3922 17.7386 58.395 17.7074 58.3987 17.707Z" fill="#263238"/>
<path d="M43.507 28.1807H41.4677V17.1652C41.4677 14.5726 39.3418 12.4631 36.729 12.4631C34.1162 12.4631 31.9904 14.5726 31.9904 17.1652V28.1807H29.951V17.1652C29.951 13.4566 32.9919 10.4395 36.729 10.4395C40.4661 10.4395 43.507 13.4569 43.507 17.1652V28.1807Z" fill="#F5F5F5"/>
<path d="M43.5252 34.9094H29.9325C28.6412 34.9094 27.5942 33.8704 27.5942 32.5891V23.0215C27.5942 21.7401 28.6412 20.7012 29.9325 20.7012H43.5252C44.8165 20.7012 45.8635 21.7401 45.8635 23.0215V32.5891C45.8635 33.8704 44.8165 34.9094 43.5252 34.9094Z" fill="white"/>
<path d="M43.5253 34.9097C43.5236 34.8945 43.743 34.9117 44.1333 34.8059C44.5119 34.7013 45.0962 34.4237 45.4906 33.7657C45.689 33.4439 45.8141 33.0294 45.8137 32.5706C45.8109 32.1026 45.8081 31.5955 45.8053 31.0509C45.8008 29.9584 45.7956 28.717 45.7896 27.3458C45.7831 25.9738 45.7763 24.4728 45.7686 22.8617C45.7207 22.0862 45.2125 21.3188 44.4415 20.9886C44.0556 20.8121 43.6419 20.7797 43.1897 20.7957C42.7442 20.7965 42.2923 20.7969 41.8352 20.7977C38.1757 20.8001 34.155 20.8029 29.9338 20.8057C29.4296 20.8105 28.9298 20.977 28.5415 21.2892C28.1556 21.5995 27.8675 22.0319 27.7608 22.5087C27.7033 22.7483 27.6936 22.9839 27.6976 23.2418C27.6976 23.495 27.6972 23.7473 27.6972 23.9985C27.6968 24.5008 27.6964 24.9991 27.6964 25.4931C27.6944 27.4684 27.6924 29.3738 27.6904 31.1894C27.7286 32.0903 27.5387 33.0214 28.0075 33.7342C28.4332 34.4537 29.2513 34.863 30.0436 34.8238C31.6697 34.8282 33.1848 34.8326 34.569 34.8366C37.3271 34.8506 39.5632 34.8618 41.1221 34.8698C41.8867 34.8782 42.4846 34.8845 42.904 34.8893C43.0991 34.8937 43.2528 34.8969 43.3671 34.8997C43.4717 34.9025 43.5253 34.9061 43.5253 34.9097C43.5253 34.9133 43.4717 34.9169 43.3675 34.9205C43.2528 34.9229 43.0995 34.9265 42.9043 34.9309C42.4855 34.9353 41.8871 34.942 41.1225 34.9504C39.5636 34.9584 37.3279 34.9696 34.5694 34.9836C33.1852 34.9876 31.6697 34.9916 30.044 34.9963C29.2087 35.0423 28.3093 34.605 27.8502 33.8284C27.6115 33.4495 27.4964 32.9879 27.5001 32.5339C27.4993 32.0918 27.4989 31.6434 27.4981 31.1898C27.496 29.3742 27.494 27.4688 27.492 25.4935C27.4916 24.9995 27.4916 24.5012 27.4912 23.9989C27.4912 23.7477 27.4908 23.4958 27.4908 23.2422C27.486 22.9946 27.4956 22.7183 27.5588 22.4612C27.6759 21.9393 27.9898 21.4661 28.4119 21.1271C28.8356 20.7857 29.3841 20.6024 29.9346 20.5977C34.1554 20.6005 38.1766 20.6032 41.836 20.606C42.2931 20.6068 42.7446 20.6072 43.1905 20.608C43.625 20.5921 44.1124 20.6288 44.5176 20.8217C45.3505 21.1826 45.895 22.0136 45.9425 22.8493C45.9562 24.4752 45.9393 25.9702 45.9384 27.3458C45.9328 28.717 45.9276 29.9584 45.9228 31.0509C45.9195 31.5955 45.9167 32.103 45.9143 32.5706C45.9091 33.0474 45.7719 33.4782 45.561 33.8076C45.1413 34.482 44.5337 34.7528 44.145 34.8466C43.7434 34.9408 43.5253 34.9097 43.5253 34.9097Z" fill="#263238"/>
<path d="M38.131 28.1767C38.4884 27.8193 38.7093 27.329 38.7093 26.7847C38.7093 25.6838 37.8095 24.791 36.7001 24.791C35.5907 24.791 34.6909 25.6838 34.6909 26.7847C34.6909 27.6959 35.3106 28.4558 36.152 28.6938L35.7203 30.588H37.6329L37.2486 28.6938C37.5874 28.5979 37.89 28.4174 38.131 28.1767Z" fill="#00AD37"/>
<path d="M162.764 42.4736V58.6546C162.799 61.4528 163.213 65.8441 158.752 65.6972C154.891 65.2803 153.866 61.6532 153.837 59.0419C153.823 57.8033 153.808 56.77 153.798 56.643C153.798 56.643 149.571 56.3008 149.214 52.1587C149.042 50.157 149.025 46.0049 149.054 42.2488C149.085 38.2145 152.237 34.882 156.292 34.5886L156.695 34.5594C161.061 34.4955 162.821 38.1414 162.764 42.4736Z" fill="#FFBF9D"/>
<path d="M153.797 56.6194C153.797 56.6194 156.442 56.5819 159.12 54.6289C159.12 54.6289 158.016 57.7538 153.819 57.6823L153.797 56.6194Z" fill="#FF9A6C"/>
<path d="M156.191 43.9165C156.274 44.0004 156.756 43.6154 157.456 43.5967C158.155 43.5675 158.678 43.9185 158.751 43.8291C158.788 43.7891 158.701 43.6362 158.473 43.4773C158.249 43.3192 157.869 43.1698 157.434 43.1846C156.998 43.1998 156.636 43.3735 156.43 43.5468C156.219 43.7213 156.15 43.8794 156.191 43.9165Z" fill="#263238"/>
<path d="M156.18 45.8917C156.192 46.1884 156.454 46.4232 156.766 46.4172C157.078 46.4112 157.322 46.1664 157.311 45.8701C157.299 45.5738 157.037 45.3383 156.725 45.3438C156.413 45.3498 156.169 45.595 156.18 45.8917Z" fill="#263238"/>
<path d="M154.438 48.7582C154.439 48.7219 154.034 48.6823 153.381 48.6472C153.216 48.6424 153.059 48.6212 153.023 48.5122C152.976 48.3976 153.031 48.2171 153.097 48.0219C153.222 47.617 153.353 47.1925 153.49 46.7477C154.034 44.9349 154.415 43.4491 154.341 43.428C154.267 43.4068 153.767 44.859 153.223 46.6719C153.093 47.1187 152.969 47.5443 152.85 47.9516C152.802 48.1409 152.711 48.3585 152.812 48.5965C152.866 48.7147 152.992 48.7941 153.099 48.8145C153.207 48.8388 153.299 48.8337 153.381 48.8329C154.035 48.8213 154.439 48.7949 154.438 48.7582Z" fill="#263238"/>
<path d="M156.489 40.9623C156.556 41.1164 157.116 41.0002 157.787 41.0346C158.458 41.0545 159.009 41.2155 159.086 41.0673C159.12 40.9967 159.016 40.8549 158.788 40.7175C158.562 40.5802 158.209 40.46 157.807 40.4432C157.405 40.4273 157.044 40.5187 156.81 40.6373C156.573 40.7559 156.459 40.8892 156.489 40.9623Z" fill="#263238"/>
<path d="M149.846 42.021C149.919 42.1464 150.465 42.007 151.126 41.9871C151.788 41.9551 152.337 42.051 152.407 41.9196C152.437 41.8569 152.328 41.7447 152.097 41.6449C151.869 41.5451 151.516 41.4692 151.119 41.4844C150.723 41.5003 150.372 41.6046 150.147 41.7223C149.919 41.8401 149.813 41.9611 149.846 42.021Z" fill="#263238"/>
<path d="M143.51 38.4922C143.555 38.3252 143.677 38.1883 143.827 38.1004C144.154 37.9092 144.53 37.9343 144.894 37.9287C146.002 37.9112 147.102 37.5754 148.034 36.9816C148.47 36.3571 148.962 35.7701 149.495 35.2247C150.76 33.9298 151.801 33.0485 152.879 32.6185C154.272 32.0619 156.602 31.8362 158.054 32.2144C159.507 32.5925 160.812 33.7621 161.014 35.2387C161.828 34.5551 163.051 34.5611 164.043 34.9568L164.068 34.946C165.173 35.3369 165.801 36.4953 166.127 37.6133C166.453 38.7313 166.592 39.9272 167.189 40.9291C167.314 41.1387 167.462 41.3899 167.353 41.6079C167.268 41.7764 167.053 41.8459 166.865 41.8187C166.678 41.7912 166.511 41.6885 166.351 41.5875C166.474 41.8802 166.597 42.1733 166.721 42.466C166.321 42.535 165.907 42.5031 165.519 42.3865C165.284 43.4323 165.004 44.6262 164.733 45.3349C164.271 45.3337 163.848 45.3665 163.564 45.6204C163.176 45.9658 163.003 46.6151 162.36 46.3687C162.033 46.2433 161.735 45.5617 161.625 45.2311C160.898 43.0354 160.657 40.6835 160.919 38.3875C160.462 37.9036 159.909 37.5079 159.302 37.2292L159.352 37.2735C158.185 36.8714 156.865 36.4757 155.758 37.0195C154.9 37.4412 154.395 38.3252 153.753 39.0308C152.536 40.3681 150.895 41.0948 149.081 41.1722C149.019 42.3386 149.118 43.9873 149.056 45.154L148.068 43.2853L148.067 43.2945C147.986 43.1575 147.919 43.0198 147.854 42.8816L147.832 42.8397V42.8345C147.729 42.6125 147.631 42.3905 147.501 42.1709C147.497 42.1741 147.493 42.1777 147.49 42.1809C146.853 42.7383 145.914 41.8858 146.417 41.2062C146.516 41.0712 146.635 40.951 146.771 40.852C146.481 41.1231 146.046 41.2533 145.664 41.1367C145.283 41.0201 144.986 40.6372 145.02 40.2423C145.042 39.9727 145.237 39.732 145.482 39.6254C144.967 39.6645 144.441 39.5535 143.992 39.2995C143.698 39.133 143.41 38.8587 143.51 38.4922Z" fill="#263238"/>
<path d="M159.7 35.707C159.691 35.7178 159.875 35.8164 160.118 36.0872C160.36 36.3563 160.632 36.8251 160.759 37.4631C160.825 37.7802 160.867 38.1348 160.866 38.5165C160.868 38.8982 160.837 39.3067 160.807 39.7375C160.779 40.168 160.748 40.6232 160.776 41.0964C160.79 41.3327 160.819 41.5731 160.87 41.8131C160.923 42.0491 160.985 42.3054 161.165 42.5087C161.308 42.674 161.547 42.7475 161.754 42.7051C161.963 42.6684 162.149 42.5582 162.285 42.4081C162.553 42.0966 162.62 41.7021 162.687 41.3543L162.599 41.3647C162.743 41.6773 162.889 41.9864 163.107 42.2328C163.322 42.4807 163.619 42.6452 163.92 42.672C164.07 42.6856 164.221 42.6616 164.351 42.5969C164.482 42.5334 164.577 42.4252 164.643 42.311C164.705 42.1944 164.738 42.067 164.732 41.9437C164.724 41.8207 164.676 41.7041 164.598 41.6214L164.553 41.6606C164.875 42.0243 165.215 42.22 165.45 42.3286C165.569 42.3829 165.664 42.4152 165.728 42.436C165.793 42.4552 165.827 42.4632 165.828 42.4604C165.829 42.4576 165.797 42.4444 165.734 42.4204C165.672 42.3953 165.579 42.3581 165.464 42.3002C165.236 42.1844 164.907 41.9836 164.598 41.6226L164.554 41.6618C164.695 41.8095 164.703 42.069 164.582 42.2775C164.521 42.3801 164.433 42.4767 164.318 42.5306C164.202 42.5865 164.064 42.6077 163.927 42.5937C163.65 42.5662 163.373 42.4124 163.173 42.1765C162.967 41.9409 162.825 41.6402 162.684 41.3268L162.624 41.1938L162.596 41.3371C162.529 41.6845 162.458 42.0635 162.213 42.3438C162.091 42.4783 161.921 42.5782 161.739 42.6097C161.555 42.6448 161.362 42.5849 161.238 42.4432C161.081 42.2675 161.017 42.0247 160.966 41.7927C160.915 41.5583 160.886 41.3232 160.872 41.0904C160.843 40.6252 160.872 40.1732 160.898 39.7427C160.924 39.3123 160.953 38.9018 160.947 38.5153C160.944 38.1288 160.898 37.7694 160.827 37.4484C160.688 36.8023 160.402 36.3279 160.147 36.0616C159.889 35.7945 159.7 35.707 159.7 35.707Z" fill="#00AD37"/>
<path d="M146.78 39.7398C146.779 39.741 146.79 39.7506 146.813 39.7682C146.842 39.7885 146.876 39.8133 146.918 39.8436C146.963 39.8776 147.021 39.9171 147.095 39.9562C147.167 39.9974 147.249 40.0473 147.349 40.0888C147.737 40.2717 148.359 40.4534 149.136 40.4078C149.907 40.3647 150.831 40.094 151.657 39.4843C152.491 38.8889 153.224 38.0121 153.822 37.0078C154.126 36.5059 154.374 35.9916 154.646 35.5164C154.918 35.0413 155.217 34.6017 155.58 34.2551C155.938 33.9065 156.354 33.6485 156.783 33.5303C156.996 33.4672 157.212 33.4529 157.417 33.4577C157.623 33.4684 157.819 33.51 157.998 33.5683C158.359 33.6881 158.649 33.8853 158.869 34.0886C159.091 34.2934 159.239 34.5098 159.34 34.6951C159.53 35.076 159.541 35.3204 159.556 35.3164C159.558 35.3164 159.557 35.3016 159.553 35.2729C159.548 35.2385 159.541 35.197 159.533 35.1459C159.513 35.0349 159.465 34.874 159.375 34.6779C159.276 34.4863 159.13 34.2622 158.907 34.049C158.685 33.8378 158.39 33.631 158.021 33.5032C157.836 33.4405 157.635 33.3958 157.421 33.3826C157.209 33.3754 156.983 33.389 156.761 33.4525C156.316 33.5719 155.885 33.8354 155.517 34.1904C155.144 34.5438 154.837 34.991 154.563 35.4693C154.287 35.9477 154.039 36.4608 153.738 36.9579C153.144 37.9546 152.422 38.8218 151.604 39.4116C150.793 40.0161 149.891 40.2873 149.132 40.3392C148.367 40.3927 147.753 40.2242 147.365 40.0541C146.973 39.8816 146.788 39.7282 146.78 39.7398Z" fill="#00AD37"/>
<path d="M146.4 37.9212C146.397 37.9272 146.45 37.9636 146.55 38.0247C146.649 38.0877 146.8 38.1656 146.993 38.2483C147.186 38.3325 147.425 38.4112 147.696 38.4771C147.967 38.5381 148.272 38.5833 148.593 38.5953C148.916 38.6036 149.222 38.5781 149.497 38.5342C149.771 38.4858 150.015 38.4224 150.213 38.3505C150.411 38.2802 150.567 38.2123 150.67 38.1556C150.773 38.1009 150.829 38.0678 150.826 38.0618C150.818 38.0454 150.587 38.1632 150.191 38.2854C149.994 38.3481 149.753 38.4032 149.483 38.4459C149.212 38.4838 148.912 38.5062 148.596 38.4982C148.281 38.4862 147.983 38.4447 147.715 38.39C147.448 38.3301 147.212 38.2598 147.019 38.1848C146.632 38.0374 146.409 37.9053 146.4 37.9212Z" fill="#00AD37"/>
<path d="M149.815 43.8775C149.898 43.9613 150.38 43.5764 151.079 43.5576C151.778 43.5289 152.301 43.8795 152.375 43.79C152.411 43.7501 152.325 43.5972 152.097 43.4382C151.872 43.2801 151.492 43.1308 151.057 43.1455C150.622 43.1607 150.259 43.3344 150.054 43.5077C149.843 43.6822 149.774 43.8403 149.815 43.8775Z" fill="#263238"/>
<path d="M150.528 45.8718C150.539 46.1684 150.802 46.4032 151.114 46.3972C151.425 46.3913 151.67 46.1465 151.658 45.8502C151.647 45.5539 151.385 45.3183 151.073 45.3243C150.761 45.3299 150.517 45.5751 150.528 45.8718Z" fill="#263238"/>
<path d="M162.654 45.5291C162.723 45.4931 165.46 44.4797 165.577 47.3175C165.695 50.1553 162.799 49.6869 162.791 49.6055C162.782 49.5244 162.654 45.5291 162.654 45.5291Z" fill="#FFBF9D"/>
<path d="M163.62 48.4729C163.633 48.4633 163.672 48.5056 163.758 48.5404C163.841 48.5743 163.984 48.5943 164.13 48.5328C164.428 48.4102 164.663 47.9242 164.655 47.4119C164.652 47.1532 164.587 46.9096 164.487 46.71C164.391 46.5059 164.25 46.3662 164.097 46.3458C163.944 46.3175 163.84 46.4121 163.808 46.4932C163.773 46.5742 163.794 46.6301 163.779 46.6353C163.771 46.6429 163.715 46.5902 163.734 46.472C163.743 46.4153 163.774 46.347 163.839 46.2895C163.905 46.2316 164.005 46.1989 164.111 46.2061C164.332 46.2124 164.539 46.4057 164.65 46.6249C164.773 46.8449 164.851 47.1185 164.855 47.4087C164.861 47.9813 164.588 48.5284 164.179 48.6641C163.98 48.7244 163.81 48.6709 163.72 48.6074C163.628 48.5412 163.611 48.4781 163.62 48.4729Z" fill="#FF9A6C"/>
<path d="M156.478 49.3167C156.502 49.3211 156.502 49.4832 156.403 49.7236C156.304 49.96 156.086 50.2674 155.745 50.4811C155.406 50.6983 155.031 50.767 154.77 50.741C154.507 50.7179 154.365 50.6316 154.374 50.6097C154.383 50.5777 154.535 50.6096 154.771 50.5937C155.007 50.5809 155.329 50.499 155.632 50.3058C155.937 50.1149 156.147 49.8578 156.271 49.6569C156.395 49.4537 156.445 49.3087 156.478 49.3167Z" fill="#263238"/>
<path d="M170.886 161.574L171.741 171.172L174.764 178.581C174.982 179.115 174.669 179.71 174.083 179.876C173.755 179.969 173.401 179.91 173.13 179.714C171.404 178.468 165.181 173.886 165.112 173.289C165.021 172.517 163.436 163.079 163.436 163.079L170.886 161.574Z" fill="#00AD37"/>
<path d="M174.083 179.881L164.94 172.201L165.03 172.912C165.091 173.301 165.098 173.512 165.372 173.755C166.105 174.405 168.248 176.396 173.033 179.882C173.311 180.085 173.748 179.985 174.083 179.881Z" fill="#263238"/>
<path d="M166.739 169.201C167.016 169.341 167.141 169.696 167.002 169.959C166.863 170.222 166.477 170.344 166.199 170.208C165.92 170.072 165.756 169.651 165.925 169.404C166.095 169.157 166.556 169.037 166.791 169.231" fill="white"/>
<path d="M171.26 175.923C171.322 175.943 171.496 175.419 172.076 175.089C172.645 174.742 173.228 174.821 173.234 174.761C173.241 174.736 173.102 174.675 172.858 174.667C172.616 174.658 172.272 174.724 171.955 174.91C171.638 175.097 171.427 175.358 171.332 175.565C171.234 175.775 171.234 175.917 171.26 175.923Z" fill="#263238"/>
<path d="M172.138 177.133C172.191 177.169 172.485 176.826 173 176.631C173.511 176.426 173.979 176.473 173.989 176.411C174.013 176.359 173.496 176.205 172.913 176.436C172.327 176.661 172.081 177.112 172.138 177.133Z" fill="#263238"/>
<path d="M169.712 174.419C169.765 174.459 170.214 173.928 170.987 173.56C171.753 173.181 172.477 173.142 172.472 173.078C172.483 173.025 171.705 172.968 170.882 173.372C170.055 173.769 169.659 174.397 169.712 174.419Z" fill="#263238"/>
<path d="M169.191 171.521C169.225 171.576 169.767 171.298 170.502 171.2C171.236 171.093 171.841 171.21 171.857 171.148C171.88 171.099 171.258 170.878 170.469 170.991C169.678 171.098 169.153 171.48 169.191 171.521Z" fill="#263238"/>
<path d="M168.864 168.714C168.902 168.767 169.436 168.391 170.219 168.347C171.001 168.287 171.587 168.588 171.617 168.531C171.631 168.509 171.505 168.4 171.254 168.296C171.005 168.192 170.624 168.109 170.202 168.136C169.781 168.165 169.417 168.297 169.186 168.434C168.954 168.57 168.846 168.695 168.864 168.714Z" fill="#263238"/>
<path d="M170.14 167.805C170.153 167.804 170.161 167.673 170.112 167.441C170.063 167.212 169.952 166.877 169.696 166.523C169.565 166.356 169.423 166.139 169.122 166.041C168.972 165.991 168.763 166.037 168.655 166.176C168.548 166.311 168.528 166.472 168.542 166.624C168.622 167.231 169.248 167.764 169.991 167.779C170.735 167.781 171.358 167.323 171.589 166.769C171.638 166.627 171.663 166.456 171.565 166.302C171.468 166.147 171.252 166.102 171.107 166.14C170.807 166.213 170.634 166.396 170.468 166.535C170.145 166.835 169.957 167.136 169.852 167.349C169.747 167.563 169.72 167.691 169.732 167.695C169.771 167.717 169.938 167.199 170.579 166.644C170.741 166.514 170.927 166.353 171.145 166.312C171.251 166.292 171.347 166.322 171.395 166.399C171.443 166.473 171.435 166.595 171.391 166.707C171.194 167.161 170.624 167.578 169.995 167.567C169.369 167.561 168.818 167.091 168.749 166.604C168.734 166.486 168.754 166.364 168.814 166.288C168.873 166.212 168.971 166.183 169.07 166.21C169.279 166.265 169.436 166.453 169.564 166.609C170.078 167.27 170.095 167.819 170.14 167.805Z" fill="#263238"/>
<path d="M146.52 162.065L146.901 170.193C146.901 170.193 138.172 173.284 138.086 174.792L155.007 174.669L154.97 161.982L146.52 162.065Z" fill="#00AD37"/>
<path d="M152.127 169.468C152.455 169.549 152.684 169.89 152.611 170.2C152.538 170.509 152.167 170.729 151.837 170.653C151.508 170.578 151.219 170.175 151.329 169.875C151.439 169.576 151.89 169.339 152.19 169.486" fill="#E0E0E0"/>
<path d="M155.007 174.683L154.95 173.404L138.748 174C138.748 174 137.997 174.311 138.086 174.806L155.007 174.683Z" fill="#263238"/>
<path d="M146.626 170.118C146.629 170.195 147.043 170.227 147.451 170.472C147.867 170.707 148.079 171.039 148.155 171.008C148.231 170.992 148.104 170.533 147.604 170.244C147.106 169.952 146.607 170.048 146.626 170.118Z" fill="#263238"/>
<path d="M144.857 170.823C144.839 170.898 145.198 171.026 145.481 171.35C145.774 171.666 145.848 172.018 145.931 172.014C146.008 172.026 146.062 171.574 145.701 171.177C145.345 170.778 144.858 170.749 144.857 170.823Z" fill="#263238"/>
<path d="M143.865 172.818C143.941 172.834 144.053 172.447 143.837 172.027C143.624 171.605 143.233 171.441 143.199 171.506C143.153 171.569 143.405 171.794 143.577 172.142C143.757 172.486 143.783 172.81 143.865 172.818Z" fill="#263238"/>
<path d="M146.76 168.252C146.795 168.321 147.173 168.212 147.64 168.239C148.108 168.256 148.473 168.4 148.515 168.333C148.562 168.278 148.205 167.995 147.654 167.971C147.104 167.943 146.719 168.191 146.76 168.252Z" fill="#263238"/>
<path d="M143.574 103.713C143.584 104.183 145.54 169.135 145.54 169.135H155.999L158.118 113.573C158.118 113.573 160.592 142.624 160.592 143.252C160.592 143.879 162.775 169.448 162.775 169.448L172.472 168.71L171.836 110.211L170.651 101.635L143.574 103.713Z" fill="#263238"/>
<path d="M159.206 111.519C159.211 111.532 159.059 111.591 158.781 111.685C158.504 111.78 158.1 111.911 157.6 112.068L157.505 112.098L157.498 112.006C157.44 111.225 157.374 110.18 157.313 109.035C157.247 107.793 157.198 106.669 157.173 105.855C157.16 105.448 157.154 105.118 157.154 104.89C157.154 104.662 157.161 104.536 157.176 104.535C157.19 104.534 157.21 104.66 157.235 104.887C157.259 105.113 157.288 105.442 157.319 105.848C157.382 106.661 157.453 107.785 157.52 109.026C157.582 110.171 157.628 111.217 157.653 112L157.552 111.938C158.057 111.797 158.468 111.685 158.754 111.613C159.04 111.54 159.201 111.506 159.206 111.519Z" fill="#00AD37"/>
<path d="M158.412 104.765C158.405 104.757 158.446 104.713 158.551 104.68C158.654 104.647 158.828 104.638 159.013 104.718C159.193 104.787 159.393 104.993 159.363 105.252C159.341 105.495 159.141 105.761 158.806 105.826C158.471 105.88 158.171 105.71 158.035 105.5C157.887 105.281 157.941 105.031 158.044 104.884C158.147 104.729 158.288 104.647 158.389 104.614C158.492 104.58 158.554 104.585 158.556 104.596C158.572 104.623 158.32 104.67 158.173 104.944C158.104 105.075 158.083 105.259 158.198 105.413C158.306 105.566 158.541 105.686 158.766 105.646C158.988 105.606 159.152 105.411 159.173 105.235C159.203 105.053 159.081 104.905 158.942 104.831C158.648 104.675 158.419 104.793 158.412 104.765Z" fill="#00AD37"/>
<path d="M163.213 105.425C163.156 105.43 163.077 105.149 163.036 104.796C162.995 104.444 163.008 104.154 163.065 104.149C163.122 104.143 163.201 104.425 163.242 104.777C163.283 105.13 163.27 105.42 163.213 105.425Z" fill="#00AD37"/>
<path d="M163.938 105.366C163.881 105.367 163.833 105.066 163.831 104.696C163.829 104.326 163.874 104.026 163.931 104.025C163.988 104.025 164.036 104.325 164.038 104.695C164.04 105.066 163.996 105.366 163.938 105.366Z" fill="#00AD37"/>
<path d="M151.331 105.813C151.274 105.819 151.186 105.481 151.133 105.059C151.081 104.637 151.085 104.291 151.142 104.285C151.199 104.28 151.287 104.617 151.339 105.039C151.391 105.461 151.388 105.807 151.331 105.813Z" fill="#00AD37"/>
<path d="M152.21 105.88C152.159 105.898 151.974 105.553 151.954 105.09C151.931 104.627 152.084 104.27 152.136 104.284C152.195 104.296 152.139 104.65 152.161 105.082C152.179 105.515 152.266 105.863 152.21 105.88Z" fill="#00AD37"/>
<path d="M148.902 105.01C148.914 105.012 148.901 105.114 148.867 105.296C148.835 105.479 148.765 105.741 148.656 106.058C148.441 106.692 148.024 107.543 147.361 108.372C146.694 109.2 145.923 109.828 145.318 110.216C145.016 110.411 144.76 110.556 144.575 110.642C144.392 110.731 144.288 110.775 144.281 110.765C144.264 110.74 144.661 110.532 145.237 110.124C145.814 109.718 146.555 109.088 147.209 108.277C147.859 107.464 148.287 106.637 148.531 106.021C148.777 105.404 148.869 105.004 148.902 105.01Z" fill="#00AD37"/>
<path d="M171.516 109.384C171.518 109.394 171.405 109.415 171.199 109.43C170.993 109.446 170.693 109.449 170.324 109.415C169.59 109.351 168.566 109.093 167.645 108.491C166.723 107.888 166.144 107.096 165.859 106.493C165.714 106.19 165.629 105.934 165.585 105.755C165.541 105.576 165.53 105.475 165.542 105.473C165.575 105.465 165.664 105.864 165.979 106.444C166.288 107.021 166.866 107.775 167.755 108.358C168.644 108.939 169.627 109.207 170.34 109.299C171.059 109.395 171.515 109.354 171.516 109.384Z" fill="#00AD37"/>
<path d="M154.477 142.281C154.464 142.325 152.73 141.953 150.605 141.45C148.48 140.948 146.768 140.504 146.781 140.461C146.795 140.417 148.528 140.788 150.653 141.291C152.778 141.794 154.49 142.237 154.477 142.281Z" fill="#00AD37"/>
<path d="M171.329 139.914C171.354 139.954 169.846 140.735 167.96 141.66C166.074 142.585 164.525 143.302 164.5 143.262C164.475 143.222 165.984 142.44 167.87 141.515C169.755 140.591 171.305 139.874 171.329 139.914Z" fill="#00AD37"/>
<path d="M138.496 81.7237L139.926 83.4977V80.4451H144.431C144.431 80.4451 144.932 87.436 144.824 88.9262C144.787 89.4477 144.557 90.3082 144.273 91.2066C143.686 93.0689 141.317 93.6511 139.906 92.2915C139.433 91.8347 138.951 91.3152 138.496 90.7354C136.494 88.1811 133.167 81.9584 133.167 81.9584L136.637 79.8789L138.496 81.7237Z" fill="#FFBF9D"/>
<path d="M138.212 81.3882C138.189 81.4081 138.422 81.6996 138.8 82.168C139.18 82.6356 139.707 83.2796 140.308 83.9764C140.911 84.6724 141.479 85.2865 141.92 85.7022C142.359 86.121 142.669 86.3387 142.685 86.3175C142.706 86.2931 142.434 86.0396 142.027 85.598C141.617 85.1595 141.071 84.5338 140.469 83.8394C139.278 82.4423 138.263 81.3414 138.212 81.3882Z" fill="#FF9A6C"/>
<path d="M148.774 60.2411L153.525 58.3919L162.277 57.9004L166.39 59.4525L160.753 62.5586L155.893 62.3817L148.774 60.2411Z" fill="#FFBF9D"/>
<path d="M143.17 104.603C143.6 104.676 172.275 105.885 172.275 105.885L171.268 80.3014L171.185 75.278L169.556 60.0609C169.556 60.0609 165.27 58.5987 163.083 57.9004C163.083 57.9004 160.782 60.2805 156.405 60.2162C152.126 60.1532 151.233 59.1961 151.233 59.1961L145.251 61.4716C145.251 61.4716 140.998 62.9849 140.266 64.8523C139.553 66.6699 138.248 77.0516 138.248 77.0516H144.448L144.331 95.3907L143.17 104.603Z" fill="#00AD37"/>
<g opacity="0.2">
<path d="M161.2 70.4589L162.089 76.9088L166.39 78.815L169.57 76.1262V70.1387L161.2 70.4589Z" fill="#121212"/>
</g>
<path d="M169.457 72.2865C169.457 72.34 167.669 72.3835 165.465 72.3835C163.259 72.3835 161.472 72.34 161.472 72.2865C161.472 72.233 163.259 72.1895 165.465 72.1895C167.669 72.1895 169.457 72.233 169.457 72.2865Z" fill="#263238"/>
<path d="M141.239 67.5195C141.243 67.5187 141.259 67.577 141.284 67.6892C141.314 67.8162 141.352 67.9799 141.399 68.1836C141.507 68.6128 141.681 69.2365 141.97 69.9988C142.255 70.763 142.659 71.6591 143.152 72.6665C143.619 73.6927 144.042 74.8734 144.483 76.1532L144.488 76.1663V76.1811C144.477 77.7136 144.466 79.3915 144.454 81.1436C144.412 85.0563 144.375 88.5969 144.347 91.1819C144.325 92.4521 144.306 93.4863 144.294 94.223C144.284 94.5684 144.275 94.8435 144.269 95.0495C144.262 95.2384 144.255 95.3374 144.248 95.3374C144.242 95.3374 144.236 95.2376 144.232 95.0483C144.229 94.8419 144.226 94.5664 144.221 94.2206C144.22 93.4835 144.218 92.4489 144.215 91.1779C144.229 88.5933 144.247 85.0527 144.268 81.1408C144.284 79.3887 144.299 77.7116 144.313 76.1795L144.317 76.2071C143.884 74.9305 143.469 73.745 143.018 72.7272C142.537 71.7178 142.141 70.8074 141.869 70.0347C141.592 69.2629 141.434 68.6308 141.343 68.1956C141.3 67.9771 141.27 67.809 141.255 67.694C141.239 67.5802 141.233 67.5207 141.239 67.5195Z" fill="#263238"/>
<path d="M171.639 64.5254C171.653 64.5266 171.648 64.7211 171.634 65.0716C171.62 65.4558 171.601 65.9553 171.578 66.557C171.527 67.844 171.459 69.5601 171.383 71.4576C171.296 73.3551 171.218 75.0717 171.16 76.3582C171.125 76.9595 171.096 77.4587 171.073 77.8428C171.049 78.1934 171.03 78.3866 171.017 78.3862C171.004 78.3858 170.999 78.1914 171.001 77.84C171.008 77.4555 171.018 76.9555 171.028 76.3534C171.06 75.0984 171.117 73.3647 171.197 71.45C171.277 69.5362 171.366 67.8036 171.447 66.5506C171.488 65.9241 171.528 65.417 171.562 65.0672C171.598 64.7167 171.627 64.5242 171.639 64.5254Z" fill="#263238"/>
<g opacity="0.3">
<path d="M141.254 68.4512C141.115 71.2586 142.181 73.9783 144.07 76.0734C143.486 73.434 142.029 70.9771 141.254 68.4512Z" fill="#121212"/>
</g>
<g opacity="0.3">
<path d="M153.849 93.7795C155.189 93.6665 156.398 92.8783 157.29 91.8793C158.182 90.8806 158.99 89.7474 159.602 88.5587C160.433 86.9416 160.845 85.1811 160.957 83.3379C159.286 87.7805 156.837 91.2971 153.849 93.7795Z" fill="#121212"/>
</g>
<path d="M161.485 81.3985C161.491 81.4001 161.483 81.4564 161.461 81.5622C161.432 81.6892 161.399 81.8413 161.358 82.0242C161.314 82.2254 161.251 82.469 161.164 82.7481C161.081 83.028 160.992 83.349 160.863 83.694C160.631 84.3928 160.291 85.203 159.874 86.0834C159.441 86.9571 158.919 87.8946 158.296 88.8334C157.665 89.7674 156.997 90.6099 156.351 91.3422C155.691 92.0629 155.067 92.6854 154.502 93.1622C154.229 93.4113 153.962 93.6134 153.732 93.7955C153.504 93.9803 153.3 94.1289 153.127 94.2435C152.972 94.3489 152.842 94.4367 152.733 94.5098C152.642 94.5689 152.593 94.5977 152.589 94.5925C152.585 94.5873 152.628 94.5486 152.712 94.4795C152.814 94.3988 152.937 94.3018 153.084 94.1856C153.249 94.0626 153.446 93.9069 153.667 93.7152C153.889 93.5267 154.149 93.3191 154.415 93.0652C154.965 92.5788 155.575 91.9511 156.222 91.23C156.856 90.4969 157.515 89.6584 158.141 88.7316C158.759 87.8 159.282 86.872 159.719 86.0092C160.142 85.1391 160.492 84.3397 160.739 83.6505C160.875 83.3103 160.972 82.9937 161.065 82.7181C161.161 82.4434 161.233 82.2035 161.288 82.0058C161.342 81.8269 161.387 81.6776 161.424 81.5538C161.458 81.4504 161.478 81.3969 161.485 81.3985Z" fill="#263238"/>
<path d="M160.656 73.3906C160.663 73.3918 160.651 73.4817 160.623 73.6518C160.589 73.8394 160.545 74.0862 160.491 74.3949C160.435 74.7179 160.359 75.112 160.242 75.5628C160.129 76.0148 160.02 76.5347 159.842 77.0937C159.758 77.3752 159.67 77.6699 159.579 77.9766C159.486 78.2828 159.366 78.5943 159.255 78.9209C159.039 79.577 158.75 80.2562 158.457 80.9753C157.836 82.398 157.067 83.9273 156.132 85.4586C155.183 86.9827 154.16 88.3579 153.166 89.5546C152.654 90.1404 152.176 90.705 151.685 91.1937C151.443 91.4409 151.218 91.6885 150.985 91.9101C150.751 92.1301 150.527 92.3417 150.312 92.5438C149.891 92.9558 149.475 93.2889 149.121 93.5939C148.769 93.9022 148.45 94.1489 148.186 94.345C147.934 94.5335 147.732 94.6848 147.579 94.7994C147.439 94.9016 147.364 94.9527 147.36 94.9475C147.356 94.9424 147.424 94.8813 147.556 94.7699C147.704 94.6485 147.898 94.4884 148.141 94.2887C148.398 94.0843 148.709 93.8303 149.053 93.5153C149.399 93.2034 149.809 92.8648 150.222 92.4483C150.433 92.2443 150.654 92.0307 150.883 91.8087C151.112 91.5855 151.334 91.3363 151.572 91.0879C152.056 90.5964 152.527 90.031 153.034 89.4452C154.016 88.2481 155.029 86.8777 155.973 85.3616C156.904 83.8383 157.673 82.3197 158.3 80.9074C158.595 80.1935 158.888 79.5199 159.109 78.8686C159.223 78.5448 159.346 78.2357 159.442 77.9319C159.537 77.628 159.628 77.3357 159.715 77.0562C159.901 76.5016 160.019 75.9857 160.141 75.5377C160.267 75.09 160.353 74.6999 160.42 74.3797C160.489 74.0746 160.544 73.8303 160.586 73.6446C160.626 73.4773 160.65 73.3894 160.656 73.3906Z" fill="#263238"/>
<path d="M137.999 65.4263C139.767 68.092 146.923 78.8902 149.04 82.0834C149.273 82.4356 148.982 82.896 148.561 82.8433L135.847 81.2561C135.711 81.2393 135.588 81.1674 135.507 81.0576L123.364 64.6001C123.113 64.2603 123.378 63.7848 123.802 63.8159L136.883 64.7762C137.337 64.8094 137.749 65.0489 137.999 65.4263Z" fill="#E0E0E0"/>
<path d="M137.999 65.4294C137.999 65.4294 137.973 65.3727 137.898 65.2781C137.822 65.1854 137.695 65.0513 137.487 64.9343C137.283 64.8097 136.98 64.7422 136.639 64.7302C136.295 64.7023 135.9 64.6699 135.456 64.6336C133.665 64.4942 131.092 64.2938 127.915 64.0466C127.119 63.9859 126.285 63.9224 125.416 63.8566C124.982 63.8234 124.538 63.7899 124.087 63.7559C123.969 63.7491 123.871 63.7344 123.736 63.7344C123.602 63.7372 123.469 63.7943 123.37 63.8849C123.166 64.0622 123.114 64.396 123.274 64.626C124.381 66.1334 125.564 67.7429 126.809 69.4367C129.302 72.8196 132.042 76.5375 134.918 80.4398C135.102 80.687 135.267 80.9198 135.467 81.1765C135.529 81.2432 135.607 81.2959 135.693 81.3282C135.782 81.3634 135.871 81.367 135.939 81.3766L136.388 81.4325C136.985 81.5067 137.578 81.5806 138.167 81.6541C139.344 81.8006 140.504 81.9448 141.645 82.0865C143.925 82.3688 146.124 82.6415 148.22 82.9011C148.356 82.9155 148.469 82.937 148.623 82.9458C148.779 82.9478 148.938 82.8827 149.045 82.7717C149.155 82.6627 149.217 82.511 149.219 82.3568C149.225 82.2055 149.136 82.0438 149.066 81.9527C148.782 81.5267 148.503 81.1066 148.227 80.6922C147.677 79.864 147.141 79.0598 146.624 78.2824C145.588 76.7287 144.624 75.2813 143.743 73.9588C141.98 71.325 140.552 69.1912 139.558 67.7062C139.065 66.9771 138.68 66.4081 138.412 66.012C138.283 65.8259 138.183 65.6806 138.109 65.5743C138.039 65.4765 138.002 65.4274 137.999 65.4294C137.996 65.4314 138.027 65.4845 138.09 65.5863C138.159 65.6953 138.254 65.8443 138.375 66.0355C138.635 66.4364 139.009 67.013 139.488 67.7513C140.469 69.2451 141.878 71.3913 143.617 74.0407C144.491 75.3675 145.449 76.8198 146.476 78.3786C146.991 79.1581 147.523 79.9642 148.071 80.7944C148.345 81.2097 148.623 81.6305 148.905 82.0574C148.987 82.1704 149.023 82.247 149.026 82.3572C149.024 82.4599 148.982 82.5641 148.907 82.6375C148.833 82.713 148.73 82.7549 148.624 82.7537C148.516 82.7477 148.369 82.7238 148.244 82.7098C146.149 82.4463 143.95 82.1696 141.67 81.8829C140.53 81.7399 139.37 81.5946 138.192 81.4472C137.604 81.3738 137.011 81.2995 136.414 81.2248L135.965 81.1689C135.885 81.1581 135.819 81.1546 135.768 81.133C135.712 81.1122 135.662 81.0775 135.621 81.0344C135.444 80.796 135.267 80.5564 135.088 80.3164C132.207 76.4173 129.463 72.703 126.966 69.323C125.718 67.6359 124.532 66.0327 123.421 64.5318C123.308 64.3717 123.343 64.1393 123.487 64.0111C123.557 63.9472 123.648 63.9065 123.743 63.9045C123.838 63.9033 123.966 63.918 124.074 63.924C124.526 63.956 124.969 63.9875 125.404 64.0187C126.273 64.0802 127.107 64.1389 127.904 64.1956C131.082 64.4148 133.658 64.5925 135.45 64.7158C135.894 64.745 136.29 64.7706 136.634 64.7933C136.981 64.8001 137.26 64.8568 137.466 64.9722C137.876 65.1974 137.986 65.445 137.999 65.4294Z" fill="#263238"/>
<path d="M123.363 64.6C123.363 64.6064 123.454 64.6196 123.629 64.6392C123.823 64.6587 124.079 64.6843 124.401 64.7166C125.095 64.7777 126.068 64.8636 127.274 64.9698C129.739 65.1694 133.153 65.4461 137.045 65.7612L136.967 65.7165C137.579 66.6181 138.21 67.554 138.843 68.5211C141.421 72.4538 143.673 76.0687 145.374 78.6405C146.22 79.9295 146.923 80.9609 147.413 81.6704C147.653 82.0102 147.844 82.2806 147.986 82.481C148.12 82.6651 148.192 82.7597 148.198 82.7553C148.204 82.7513 148.143 82.6487 148.022 82.457C147.888 82.251 147.708 81.9735 147.481 81.6245C147.002 80.8834 146.328 79.8408 145.5 78.5595C143.832 75.9685 141.601 72.3424 139.02 68.4057C138.387 67.4378 137.753 66.5015 137.139 65.6003L137.111 65.5592L137.061 65.5556C133.167 65.2689 129.751 65.0173 127.285 64.8356C126.076 64.755 125.101 64.6903 124.407 64.644C124.084 64.6264 123.827 64.6124 123.633 64.6016C123.456 64.5944 123.364 64.5936 123.363 64.6Z" fill="#263238"/>
<path d="M131.245 66.9544H131.244C131.243 66.9541 131.242 66.9534 131.241 66.9531L131.245 66.9544Z" fill="white"/>
<path d="M130.931 67.1444C130.963 66.9946 131.105 66.9319 131.245 66.9563C131.396 67.0006 131.473 67.0357 131.586 67.1463C131.701 67.2586 131.75 67.4542 131.648 67.5784C131.521 67.7341 131.26 67.677 131.107 67.546C130.99 67.4458 130.899 67.2945 130.931 67.1444Z" fill="white"/>
<path d="M136.87 76.4803C136.87 76.4803 137.372 75.2932 136.098 75.1402C134.825 74.9873 131.482 75.1402 131.482 75.1402C131.482 75.1402 129.654 75.3315 130.04 76.6336C130.04 76.6336 128.959 77.5907 129.538 78.6245C130.117 79.6583 130.349 79.352 130.349 79.352C130.349 79.352 130.194 80.6154 131.159 80.8071C131.159 80.8071 132.205 82.0321 133.168 81.9559C134.13 81.8792 138.221 79.9266 138.491 79.5437C138.761 79.1608 139.147 78.9431 138.915 78.5159C138.915 78.5159 139.417 77.3955 138.337 77.225C138.337 77.225 138.259 76.2886 136.87 76.4803Z" fill="#FFBF9D"/>
<path d="M131.068 76.9054C131.068 76.9345 131.397 76.9557 131.928 76.9669C132.46 76.9777 133.193 76.9785 134.003 76.9665C134.811 76.9397 135.546 76.9709 136.086 76.8435C136.636 76.7173 136.851 76.3975 136.825 76.3907C136.803 76.3635 136.571 76.6187 136.055 76.6981C135.55 76.7824 134.808 76.7305 134 76.7564C133.189 76.7688 132.457 76.7916 131.926 76.8187C131.396 76.8451 131.068 76.8766 131.068 76.9054Z" fill="#FF9A6C"/>
<path d="M131.98 78.8135C131.977 78.8247 132.072 78.8694 132.257 78.9082C132.441 78.9477 132.715 78.978 133.052 78.9569C133.389 78.9373 133.787 78.8666 134.213 78.748C134.64 78.6311 135.094 78.4681 135.574 78.322C136.053 78.1751 136.516 78.0692 136.943 78.0417C137.36 78.0229 137.811 78.0341 138.11 77.8077C138.257 77.7035 138.359 77.5601 138.388 77.4132C138.416 77.269 138.387 77.1429 138.34 77.0546C138.239 76.8721 138.102 76.8618 138.106 76.8717C138.095 76.8881 138.205 76.9265 138.264 77.0878C138.331 77.2427 138.296 77.5262 138.025 77.6843C137.766 77.8604 137.38 77.8404 136.932 77.848C136.482 77.866 135.998 77.9714 135.511 78.1208C135.036 78.2757 134.582 78.4234 134.158 78.5616C133.743 78.6882 133.362 78.7708 133.039 78.8083C132.389 78.8886 131.987 78.7772 131.98 78.8135Z" fill="#FF9A6C"/>
<path d="M133.347 80.4326C133.355 80.4602 133.683 80.3987 134.206 80.2677C134.729 80.1368 135.446 79.9339 136.227 79.68C137.01 79.4256 137.709 79.1689 138.208 78.9676C138.708 78.7664 139.009 78.623 138.999 78.5967C138.977 78.5408 137.721 78.9748 136.161 79.4799C134.604 79.987 133.331 80.3747 133.347 80.4326Z" fill="#FF9A6C"/>
<path d="M133.019 81.9466C133.023 81.9722 133.299 81.9614 133.732 81.8652C134.166 81.7713 134.749 81.5741 135.361 81.2962C135.974 81.0194 136.509 80.7367 136.897 80.5327C137.284 80.3275 137.52 80.1933 137.507 80.1661C137.48 80.1035 136.48 80.5407 135.274 81.1045C134.07 81.6775 133.012 81.8919 133.019 81.9466Z" fill="#FF9A6C"/>
<path d="M173.671 70.5248C173.671 70.5248 171.072 80.8594 167.824 84.6739C164.678 88.3682 159.748 86.67 158.041 81.8904C156.334 77.1108 153.292 66.1936 153.292 66.1936L157.028 63.3594L163.482 75.7708L166.39 67.31L173.671 70.5248Z" fill="#FFBF9D"/>
<path d="M153.466 66.4829L150.726 62.5434C150.726 62.5434 149.817 62.3338 149.559 62.184C149.249 62.0039 148.943 60.4391 148.95 60.1336C148.956 59.8282 148.419 59.1142 148.636 58.913C148.854 58.7121 149.588 58.6969 149.549 58.4035C149.54 58.3408 149.004 57.6879 149.429 57.2088C149.583 57.0359 150.201 56.8833 150.201 56.8833L150.157 55.38C150.157 55.38 150.975 53.6051 151.811 54.2476C151.811 54.2476 154.964 56.6505 155.282 57.0347C155.599 57.4188 156.812 62.4232 157.027 63.3619" fill="#FFBF9D"/>
<path d="M157.028 63.3653C157.034 63.3637 157.02 63.2727 156.985 63.0998C156.944 62.9097 156.89 62.6598 156.823 62.3471C156.676 61.6947 156.455 60.7515 156.156 59.5892C156.005 59.0082 155.839 58.3721 155.629 57.6941C155.573 57.5248 155.519 57.3531 155.447 57.1786C155.379 56.9805 155.211 56.8484 155.075 56.725C154.788 56.4742 154.486 56.2283 154.174 55.9775C153.55 55.4764 152.888 54.9593 152.197 54.4266C152.019 54.3017 151.872 54.1399 151.62 54.0485C151.365 53.9658 151.094 54.0721 150.909 54.2162C150.529 54.5165 150.283 54.9194 150.069 55.3422L150.059 55.361L150.06 55.3853C150.064 55.5307 150.069 55.6876 150.073 55.8453C150.084 56.1971 150.094 56.5457 150.104 56.8887L150.178 56.7929C149.987 56.8428 149.805 56.8987 149.623 56.9785C149.533 57.0217 149.44 57.0608 149.353 57.1526C149.288 57.2353 149.227 57.3263 149.201 57.4306C149.137 57.6374 149.181 57.8498 149.249 58.0287C149.283 58.1201 149.327 58.2052 149.373 58.287L149.442 58.4052L149.456 58.43C149.453 58.4252 149.455 58.4144 149.454 58.4244C149.454 58.4336 149.455 58.4428 149.449 58.45C149.441 58.4843 149.368 58.5302 149.294 58.5598C149.217 58.5913 149.133 58.6161 149.049 58.642C148.964 58.668 148.877 58.6927 148.79 58.7271C148.703 58.7682 148.611 58.7882 148.527 58.9103C148.464 59.0389 148.5 59.1419 148.52 59.2302C148.545 59.32 148.578 59.4031 148.612 59.4825C148.681 59.6419 148.757 59.7928 148.813 59.9413C148.84 60.0176 148.861 60.0835 148.861 60.1526C148.862 60.2464 148.875 60.3259 148.885 60.4093C148.909 60.5734 148.939 60.7331 148.972 60.8909C149.042 61.2047 149.118 61.5094 149.23 61.7993C149.291 61.9434 149.337 62.0872 149.47 62.2181C149.622 62.3315 149.757 62.3519 149.898 62.4042C150.175 62.4901 150.445 62.5571 150.709 62.6178L150.665 62.5883C151.51 63.7806 152.201 64.7545 152.693 65.4493C152.928 65.7731 153.116 66.031 153.256 66.2239C153.387 66.4 153.458 66.4902 153.464 66.4862C153.47 66.4822 153.41 66.3836 153.291 66.1999C153.159 66.0015 152.983 65.736 152.761 65.4029C152.282 64.6994 151.609 63.7131 150.786 62.5056L150.771 62.4829L150.742 62.4761C150.484 62.413 150.215 62.3431 149.946 62.2565C149.819 62.2117 149.658 62.1666 149.576 62.0979C149.496 62.0213 149.436 61.8743 149.384 61.7414C149.281 61.4651 149.208 61.164 149.142 60.8561C149.111 60.7016 149.082 60.5443 149.06 60.3858C149.05 60.3079 149.039 60.2244 149.039 60.1534C149.04 60.0563 149.011 59.9617 148.982 59.881C148.921 59.7173 148.845 59.5664 148.78 59.4127C148.747 59.336 148.718 59.2589 148.697 59.1839C148.675 59.1108 148.668 59.0281 148.689 58.999C148.702 58.973 148.786 58.9251 148.858 58.8996C148.934 58.87 149.018 58.8461 149.103 58.8205C149.188 58.7946 149.276 58.7698 149.366 58.7331C149.451 58.6923 149.56 58.658 149.625 58.5218C149.641 58.4883 149.644 58.4528 149.643 58.4164C149.645 58.4032 149.638 58.3713 149.625 58.3461L149.606 58.3122L149.539 58.1964C149.496 58.1205 149.457 58.0431 149.428 57.9636C149.368 57.8059 149.338 57.635 149.386 57.4857C149.404 57.409 149.45 57.3431 149.5 57.2796C149.541 57.2341 149.623 57.1906 149.702 57.155C149.866 57.0836 150.047 57.0277 150.225 56.9813L150.301 56.9618L150.298 56.8855C150.288 56.5425 150.278 56.1939 150.268 55.8421C150.263 55.6844 150.259 55.5279 150.254 55.3821L150.246 55.4249C150.444 55.028 150.693 54.6311 151.025 54.3715C151.19 54.245 151.387 54.1747 151.564 54.2326C151.733 54.2869 151.907 54.4514 152.081 54.5776C152.773 55.1074 153.437 55.6205 154.062 56.1169C154.375 56.3648 154.678 56.6088 154.963 56.8532C155.106 56.9805 155.244 57.0876 155.296 57.2453C155.365 57.4078 155.421 57.5787 155.477 57.744C155.692 58.4136 155.866 59.0477 156.025 59.6251C156.328 60.7691 156.574 61.6994 156.751 62.3659C156.832 62.6749 156.898 62.9221 156.948 63.1098C156.995 63.2783 157.021 63.3665 157.028 63.3653Z" fill="#FF9A6C"/>
<path d="M150.202 56.8788C150.203 56.9119 150.522 56.8868 151.019 56.9343C151.27 56.953 151.541 57.0461 151.881 57.1299C152.23 57.2062 152.614 57.1671 152.996 57.1395C153.762 57.0361 154.409 57.3575 154.752 57.7045C155.104 58.0523 155.14 58.3857 155.175 58.3737C155.192 58.3821 155.208 58.018 154.852 57.6119C154.678 57.4146 154.422 57.219 154.098 57.0864C153.777 56.9419 153.369 56.9135 152.982 56.9471C152.592 56.9758 152.231 57.0157 151.916 56.9558C151.602 56.8884 151.29 56.7993 151.029 56.7985C150.51 56.7849 150.2 56.8592 150.202 56.8788Z" fill="#FF9A6C"/>
<path d="M151.317 56.8019C151.364 56.8254 151.491 56.6426 151.474 56.383C151.46 56.1231 151.311 55.9566 151.268 55.9857C151.22 56.0129 151.27 56.185 151.28 56.3946C151.295 56.6034 151.266 56.7803 151.317 56.8019Z" fill="#FF9A6C"/>
<path d="M149.451 58.4605C149.448 58.5096 150.53 58.5559 151.826 58.276C152.15 58.2065 152.446 58.1167 152.699 58.1662C152.951 58.2113 153.143 58.3786 153.264 58.5364C153.503 58.8678 153.542 59.1453 153.576 59.1341C153.592 59.1345 153.61 58.8494 153.378 58.4585C153.257 58.2724 153.048 58.0616 152.735 57.9921C152.421 57.923 152.097 58.0229 151.785 58.0876C150.512 58.3627 149.449 58.403 149.451 58.4605Z" fill="#FF9A6C"/>
<path d="M149.032 59.8833C149.032 59.9081 149.257 59.9304 149.616 59.8861C149.975 59.8466 150.456 59.724 150.981 59.6218C151.245 59.5738 151.496 59.5335 151.716 59.5491C151.937 59.5615 152.122 59.6329 152.245 59.7387C152.505 59.9556 152.474 60.2019 152.503 60.1983C152.514 60.2003 152.541 60.146 152.536 60.039C152.529 59.9336 152.475 59.7775 152.339 59.6393C152.206 59.498 151.98 59.3946 151.731 59.3722C151.481 59.345 151.215 59.3842 150.945 59.4325C150.405 59.5379 149.937 59.6797 149.593 59.7519C149.249 59.829 149.032 59.8549 149.032 59.8833Z" fill="#FF9A6C"/>
<path d="M149.971 61.0043C149.938 61.0287 150.206 61.307 150.697 61.3058L150.6 61.2228C150.61 61.3086 150.62 61.3905 150.629 61.4747C150.701 62.0309 150.801 62.4758 150.854 62.4678C150.907 62.4598 150.893 62.0054 150.822 61.4528C150.811 61.3689 150.8 61.2878 150.787 61.2028L150.775 61.1145L150.69 61.1197C150.278 61.1445 149.996 60.9624 149.971 61.0043Z" fill="#FF9A6C"/>
<path d="M169.557 60.0605C169.557 60.0605 174.881 61.3407 174.87 68.3468C174.859 75.3257 173.262 78.814 173.262 78.814L163.447 73.5133L165.638 68.0569L169.557 60.0605Z" fill="#00AD37"/>
<path d="M173.262 78.8131C173.258 78.8187 173.188 78.7883 173.058 78.7248C172.909 78.6502 172.721 78.5551 172.488 78.4377C171.974 78.1686 171.267 77.7989 170.396 77.3437C168.609 76.3882 166.158 75.078 163.398 73.6022L163.318 73.5599L163.35 73.4769C163.518 73.0404 163.696 72.5788 163.876 72.1113C164.504 70.4945 165.101 68.9552 165.646 67.5513C165.919 66.8525 166.179 66.1873 166.423 65.5636C166.659 64.9367 166.917 64.3609 167.2 63.8634C167.752 62.8603 168.405 62.152 168.972 61.8293C169.25 61.6624 169.495 61.5874 169.662 61.555C169.746 61.5399 169.81 61.5311 169.854 61.5307C169.897 61.5283 169.92 61.5291 169.92 61.5327C169.928 61.5582 169.549 61.5526 169.014 61.8976C168.478 62.2318 167.858 62.9342 167.329 63.9332C167.058 64.43 166.812 64.9962 166.585 65.6235C166.346 66.2496 166.092 66.9164 165.825 67.618C165.285 69.0239 164.693 70.5648 164.071 72.1835C163.89 72.6511 163.712 73.1123 163.543 73.5487L163.496 73.4234C166.244 74.9227 168.683 76.2532 170.462 77.2239C171.32 77.7018 172.017 78.0904 172.524 78.3731C172.749 78.5032 172.932 78.6086 173.076 78.6917C173.201 78.7656 173.265 78.8071 173.262 78.8131Z" fill="#263238"/>
</svg>
