<svg width="17" height="18" viewBox="0 0 17 18" fill="none" xmlns="http://www.w3.org/2000/svg">
<path d="M8.5 18C8.24053 17.9997 7.98544 17.9348 7.75897 17.8112L4.82103 16.2195C3.36037 15.4275 2.14326 14.2691 1.29565 12.8644C0.44804 11.4596 0.000726635 9.8594 9.44823e-09 8.22942V3.81137C-4.1954e-05 3.44372 0.1397 3.08913 0.3922 2.81616C0.644699 2.54319 0.992015 2.37125 1.36697 2.33358C2.5359 2.21274 3.68634 1.95905 4.79487 1.57768C5.81124 1.22727 6.78623 0.771756 7.70318 0.218929C7.94304 0.0757627 8.21879 0 8.5 0C8.78121 0 9.05696 0.0757627 9.29682 0.218929C10.2139 0.771602 11.1888 1.2271 12.2051 1.57768C13.3137 1.95905 14.4641 2.21274 15.633 2.33358C16.008 2.37125 16.3553 2.54319 16.6078 2.81616C16.8603 3.08913 17 3.44372 17 3.81137V8.22942C16.9993 9.8594 16.552 11.4596 15.7043 12.8644C14.8567 14.2691 13.6396 15.4275 12.179 16.2195L9.24103 17.8121C9.01451 17.9354 8.75941 18.0001 8.5 18ZM8.5 1.27498C8.46164 1.27465 8.42393 1.28465 8.39103 1.30389C7.39455 1.90458 6.33512 2.3997 5.23077 2.78083C4.02617 3.19549 2.77593 3.47116 1.50559 3.6022C1.45163 3.60667 1.40135 3.63073 1.36471 3.66962C1.32806 3.70851 1.30772 3.7594 1.30769 3.81222V8.23027C1.30816 9.63283 1.69295 11.0098 2.42225 12.2186C3.15154 13.4274 4.19882 14.4241 5.45569 15.1056L8.39364 16.6974C8.42585 16.715 8.46218 16.7243 8.49913 16.7243C8.53608 16.7243 8.5724 16.715 8.60462 16.6974L11.5443 15.1056C12.8012 14.4241 13.8485 13.4274 14.5778 12.2186C15.307 11.0098 15.6918 9.63283 15.6923 8.23027V3.81137C15.6923 3.75855 15.6719 3.70766 15.6353 3.66877C15.5986 3.62988 15.5484 3.60582 15.4944 3.60135C14.2241 3.47031 12.9738 3.19464 11.7692 2.77997C10.665 2.39939 9.60553 1.90484 8.60897 1.30474C8.57623 1.28504 8.53847 1.27472 8.5 1.27498Z" fill="#121212"/>
<path d="M8.06366 10.8943C7.90348 10.8945 7.74889 10.8369 7.6295 10.7328L5.66797 9.03222C5.54634 8.91793 5.47477 8.76217 5.46826 8.59757C5.46175 8.43296 5.52079 8.27229 5.63303 8.1492C5.74526 8.0261 5.90198 7.95014 6.07035 7.93723C6.23872 7.92431 6.40569 7.97544 6.53627 8.0799L8.02181 9.36723L10.856 6.41931C10.9144 6.3568 10.9849 6.30623 11.0635 6.27055C11.142 6.23486 11.2271 6.21477 11.3137 6.21143C11.4003 6.2081 11.4867 6.2216 11.5679 6.25114C11.6492 6.28067 11.7235 6.32567 11.7868 6.38349C11.85 6.44132 11.9008 6.51083 11.9362 6.58799C11.9716 6.66514 11.991 6.74839 11.9931 6.8329C11.9953 6.91741 11.9802 7.00149 11.9487 7.08025C11.9172 7.15902 11.87 7.23089 11.8098 7.29169L8.54053 10.6928C8.47948 10.7565 8.40564 10.8073 8.3236 10.842C8.24155 10.8766 8.15307 10.8945 8.06366 10.8943Z" fill="#121212"/>
</svg>
