<svg width="128" height="36" viewBox="0 0 128 36" fill="none" xmlns="http://www.w3.org/2000/svg">
<rect x="0.553467" width="127.447" height="36" rx="8" fill="#E0FFEA"/>
<path d="M13.4207 13.4688H16.4382C17.0867 13.4688 17.6394 13.5664 18.0964 13.7617C18.5535 13.957 18.9031 14.2461 19.1453 14.6289C19.3914 15.0078 19.5144 15.4766 19.5144 16.0352C19.5144 16.4609 19.4363 16.8359 19.28 17.1602C19.1238 17.4844 18.9031 17.7578 18.6179 17.9805C18.3328 18.1992 17.9929 18.3691 17.5984 18.4902L17.1531 18.707H14.4402L14.4285 17.541H16.4617C16.8132 17.541 17.1062 17.4785 17.3406 17.3535C17.575 17.2285 17.7507 17.0586 17.8679 16.8438C17.989 16.625 18.0496 16.3789 18.0496 16.1055C18.0496 15.8086 17.991 15.5508 17.8738 15.332C17.7605 15.1094 17.5847 14.9395 17.3464 14.8223C17.1082 14.7012 16.8054 14.6406 16.4382 14.6406H14.8914V22H13.4207V13.4688ZM18.2898 22L16.2859 18.168L17.8269 18.1621L19.8601 21.9238V22H18.2898ZM23.6335 22.1172C23.1648 22.1172 22.741 22.041 22.3621 21.8887C21.9871 21.7324 21.6667 21.5156 21.4011 21.2383C21.1394 20.9609 20.9382 20.6348 20.7976 20.2598C20.657 19.8848 20.5867 19.4805 20.5867 19.0469V18.8125C20.5867 18.3164 20.6589 17.8672 20.8035 17.4648C20.948 17.0625 21.1492 16.7188 21.407 16.4336C21.6648 16.1445 21.9695 15.9238 22.321 15.7715C22.6726 15.6191 23.0535 15.543 23.4636 15.543C23.9167 15.543 24.3132 15.6191 24.6531 15.7715C24.9929 15.9238 25.2742 16.1387 25.4968 16.416C25.7234 16.6895 25.8914 17.0156 26.0007 17.3945C26.114 17.7734 26.1707 18.1914 26.1707 18.6484V19.252H21.2722V18.2383H24.7761V18.127C24.7683 17.873 24.7175 17.6348 24.6238 17.4121C24.5339 17.1895 24.3953 17.0098 24.2078 16.873C24.0203 16.7363 23.7703 16.668 23.4578 16.668C23.2234 16.668 23.0144 16.7188 22.8308 16.8203C22.6511 16.918 22.5007 17.0605 22.3796 17.248C22.2585 17.4355 22.1648 17.6621 22.0984 17.9277C22.0359 18.1895 22.0046 18.4844 22.0046 18.8125V19.0469C22.0046 19.3242 22.0417 19.582 22.116 19.8203C22.1941 20.0547 22.3074 20.2598 22.4558 20.4355C22.6042 20.6113 22.7839 20.75 22.9949 20.8516C23.2058 20.9492 23.446 20.998 23.7156 20.998C24.0554 20.998 24.3582 20.9297 24.6238 20.793C24.8894 20.6562 25.1199 20.4629 25.3152 20.2129L26.0593 20.9336C25.9226 21.1328 25.7449 21.3242 25.5261 21.5078C25.3074 21.6875 25.0398 21.834 24.7234 21.9473C24.4109 22.0605 24.0476 22.1172 23.6335 22.1172ZM29.1824 22H27.7703V15.0508C27.7703 14.5781 27.8582 14.1816 28.0339 13.8613C28.2136 13.5371 28.4695 13.293 28.8015 13.1289C29.1335 12.9609 29.5261 12.877 29.9792 12.877C30.1199 12.877 30.2585 12.8867 30.3953 12.9062C30.532 12.9219 30.6648 12.9473 30.7937 12.9824L30.7585 14.0723C30.6804 14.0527 30.5945 14.0391 30.5007 14.0312C30.4109 14.0234 30.3132 14.0195 30.2078 14.0195C29.9929 14.0195 29.8074 14.0605 29.6511 14.1426C29.4988 14.2207 29.3816 14.3359 29.2996 14.4883C29.2214 14.6406 29.1824 14.8281 29.1824 15.0508V22ZM30.489 15.6602V16.6914H26.7976V15.6602H30.489ZM34.1687 22.1172C33.7 22.1172 33.2761 22.041 32.8972 21.8887C32.5222 21.7324 32.2019 21.5156 31.9363 21.2383C31.6746 20.9609 31.4734 20.6348 31.3328 20.2598C31.1921 19.8848 31.1218 19.4805 31.1218 19.0469V18.8125C31.1218 18.3164 31.1941 17.8672 31.3386 17.4648C31.4832 17.0625 31.6843 16.7188 31.9421 16.4336C32.2 16.1445 32.5046 15.9238 32.8562 15.7715C33.2078 15.6191 33.5886 15.543 33.9988 15.543C34.4519 15.543 34.8484 15.6191 35.1882 15.7715C35.5281 15.9238 35.8093 16.1387 36.032 16.416C36.2585 16.6895 36.4265 17.0156 36.5359 17.3945C36.6492 17.7734 36.7058 18.1914 36.7058 18.6484V19.252H31.8074V18.2383H35.3113V18.127C35.3035 17.873 35.2527 17.6348 35.1589 17.4121C35.0691 17.1895 34.9304 17.0098 34.7429 16.873C34.5554 16.7363 34.3054 16.668 33.9929 16.668C33.7585 16.668 33.5496 16.7188 33.366 16.8203C33.1863 16.918 33.0359 17.0605 32.9148 17.248C32.7937 17.4355 32.7 17.6621 32.6335 17.9277C32.571 18.1895 32.5398 18.4844 32.5398 18.8125V19.0469C32.5398 19.3242 32.5769 19.582 32.6511 19.8203C32.7292 20.0547 32.8425 20.2598 32.991 20.4355C33.1394 20.6113 33.3191 20.75 33.53 20.8516C33.741 20.9492 33.9812 20.998 34.2507 20.998C34.5906 20.998 34.8933 20.9297 35.1589 20.793C35.4246 20.6562 35.655 20.4629 35.8503 20.2129L36.5945 20.9336C36.4578 21.1328 36.28 21.3242 36.0613 21.5078C35.8425 21.6875 35.575 21.834 35.2585 21.9473C34.946 22.0605 34.5828 22.1172 34.1687 22.1172ZM39.2253 16.8672V22H37.8132V15.6602H39.1609L39.2253 16.8672ZM41.1648 15.6191L41.1531 16.9316C41.0671 16.916 40.9734 16.9043 40.8718 16.8965C40.7742 16.8887 40.6765 16.8848 40.5789 16.8848C40.3367 16.8848 40.1238 16.9199 39.9402 16.9902C39.7566 17.0566 39.6023 17.1543 39.4773 17.2832C39.3562 17.4082 39.2625 17.5605 39.196 17.7402C39.1296 17.9199 39.0906 18.1211 39.0789 18.3438L38.7566 18.3672C38.7566 17.9688 38.7957 17.5996 38.8738 17.2598C38.9519 16.9199 39.0691 16.6211 39.2253 16.3633C39.3855 16.1055 39.5847 15.9043 39.823 15.7598C40.0652 15.6152 40.3445 15.543 40.6609 15.543C40.7468 15.543 40.8386 15.5508 40.9363 15.5664C41.0378 15.582 41.114 15.5996 41.1648 15.6191ZM48.6121 20.7285V17.7051C48.6121 17.4785 48.571 17.2832 48.489 17.1191C48.407 16.9551 48.282 16.8281 48.114 16.7383C47.95 16.6484 47.7429 16.6035 47.4929 16.6035C47.2625 16.6035 47.0632 16.6426 46.8953 16.7207C46.7273 16.7988 46.5964 16.9043 46.5027 17.0371C46.4089 17.1699 46.3621 17.3203 46.3621 17.4883H44.9558C44.9558 17.2383 45.0164 16.9961 45.1375 16.7617C45.2585 16.5273 45.4343 16.3184 45.6648 16.1348C45.8953 15.9512 46.1707 15.8066 46.491 15.7012C46.8113 15.5957 47.1707 15.543 47.5691 15.543C48.0457 15.543 48.4675 15.623 48.8347 15.7832C49.2058 15.9434 49.4968 16.1855 49.7078 16.5098C49.9226 16.8301 50.03 17.2324 50.03 17.7168V20.5352C50.03 20.8242 50.0496 21.084 50.0886 21.3145C50.1316 21.541 50.1921 21.7383 50.2703 21.9062V22H48.823C48.7566 21.8477 48.7039 21.6543 48.6648 21.4199C48.6296 21.1816 48.6121 20.9512 48.6121 20.7285ZM48.8171 18.1445L48.8289 19.0176H47.8152C47.5535 19.0176 47.323 19.043 47.1238 19.0938C46.9246 19.1406 46.7585 19.2109 46.6257 19.3047C46.4929 19.3984 46.3933 19.5117 46.3269 19.6445C46.2605 19.7773 46.2273 19.9277 46.2273 20.0957C46.2273 20.2637 46.2664 20.418 46.3445 20.5586C46.4226 20.6953 46.5359 20.8027 46.6843 20.8809C46.8367 20.959 47.0203 20.998 47.2351 20.998C47.5242 20.998 47.7761 20.9395 47.991 20.8223C48.2097 20.7012 48.3816 20.5547 48.5066 20.3828C48.6316 20.207 48.698 20.041 48.7058 19.8848L49.1628 20.5117C49.116 20.6719 49.0359 20.8438 48.9226 21.0273C48.8093 21.2109 48.6609 21.3867 48.4773 21.5547C48.2976 21.7188 48.0808 21.8535 47.8269 21.959C47.5769 22.0645 47.2878 22.1172 46.9597 22.1172C46.5457 22.1172 46.1765 22.0352 45.8523 21.8711C45.5281 21.7031 45.2742 21.4785 45.0906 21.1973C44.907 20.9121 44.8152 20.5898 44.8152 20.2305C44.8152 19.8945 44.8777 19.5977 45.0027 19.3398C45.1316 19.0781 45.3191 18.8594 45.5652 18.6836C45.8152 18.5078 46.1199 18.375 46.4792 18.2852C46.8386 18.1914 47.2488 18.1445 47.7097 18.1445H48.8171ZM52.907 17.0137V22H51.4949V15.6602H52.825L52.907 17.0137ZM52.655 18.5957L52.198 18.5898C52.2019 18.1406 52.2644 17.7285 52.3855 17.3535C52.5105 16.9785 52.6824 16.6562 52.9011 16.3867C53.1238 16.1172 53.3894 15.9102 53.698 15.7656C54.0066 15.6172 54.3503 15.543 54.7292 15.543C55.0339 15.543 55.3093 15.5859 55.5554 15.6719C55.8054 15.7539 56.0183 15.8887 56.1941 16.0762C56.3738 16.2637 56.5105 16.5078 56.6042 16.8086C56.698 17.1055 56.7449 17.4707 56.7449 17.9043V22H55.3269V17.8984C55.3269 17.5938 55.282 17.3535 55.1921 17.1777C55.1062 16.998 54.9792 16.8711 54.8113 16.7969C54.6472 16.7188 54.4421 16.6797 54.196 16.6797C53.9539 16.6797 53.7371 16.7305 53.5457 16.832C53.3542 16.9336 53.1921 17.0723 53.0593 17.248C52.9304 17.4238 52.8308 17.627 52.7605 17.8574C52.6902 18.0879 52.655 18.334 52.655 18.5957ZM62.0535 20.6875V13H63.4714V22H62.1882L62.0535 20.6875ZM57.9285 18.9004V18.7773C57.9285 18.2969 57.9851 17.8594 58.0984 17.4648C58.2117 17.0664 58.3757 16.7246 58.5906 16.4395C58.8054 16.1504 59.0671 15.9297 59.3757 15.7773C59.6843 15.6211 60.032 15.543 60.4187 15.543C60.8015 15.543 61.1375 15.6172 61.4265 15.7656C61.7156 15.9141 61.9617 16.127 62.1648 16.4043C62.3679 16.6777 62.53 17.0059 62.6511 17.3887C62.7722 17.7676 62.8582 18.1895 62.9089 18.6543V19.0469C62.8582 19.5 62.7722 19.9141 62.6511 20.2891C62.53 20.6641 62.3679 20.9883 62.1648 21.2617C61.9617 21.5352 61.7136 21.7461 61.4207 21.8945C61.1316 22.043 60.7937 22.1172 60.407 22.1172C60.0242 22.1172 59.6785 22.0371 59.3699 21.877C59.0652 21.7168 58.8054 21.4922 58.5906 21.2031C58.3757 20.9141 58.2117 20.5742 58.0984 20.1836C57.9851 19.7891 57.9285 19.3613 57.9285 18.9004ZM59.3406 18.7773V18.9004C59.3406 19.1895 59.366 19.459 59.4167 19.709C59.4714 19.959 59.5554 20.1797 59.6687 20.3711C59.782 20.5586 59.9285 20.707 60.1082 20.8164C60.2917 20.9219 60.5105 20.9746 60.7644 20.9746C61.0847 20.9746 61.3484 20.9043 61.5554 20.7637C61.7625 20.623 61.9246 20.4336 62.0417 20.1953C62.1628 19.9531 62.2449 19.6836 62.2878 19.3867V18.3262C62.2644 18.0957 62.2156 17.8809 62.1414 17.6816C62.071 17.4824 61.9753 17.3086 61.8542 17.1602C61.7332 17.0078 61.5828 16.8906 61.4031 16.8086C61.2273 16.7227 61.0183 16.6797 60.7761 16.6797C60.5183 16.6797 60.2996 16.7344 60.1199 16.8438C59.9402 16.9531 59.7917 17.1035 59.6746 17.2949C59.5613 17.4863 59.4773 17.709 59.4226 17.9629C59.3679 18.2168 59.3406 18.4883 59.3406 18.7773ZM70.7312 22.1172C70.2625 22.1172 69.8386 22.041 69.4597 21.8887C69.0847 21.7324 68.7644 21.5156 68.4988 21.2383C68.2371 20.9609 68.0359 20.6348 67.8953 20.2598C67.7546 19.8848 67.6843 19.4805 67.6843 19.0469V18.8125C67.6843 18.3164 67.7566 17.8672 67.9011 17.4648C68.0457 17.0625 68.2468 16.7188 68.5046 16.4336C68.7625 16.1445 69.0671 15.9238 69.4187 15.7715C69.7703 15.6191 70.1511 15.543 70.5613 15.543C71.0144 15.543 71.4109 15.6191 71.7507 15.7715C72.0906 15.9238 72.3718 16.1387 72.5945 16.416C72.821 16.6895 72.989 17.0156 73.0984 17.3945C73.2117 17.7734 73.2683 18.1914 73.2683 18.6484V19.252H68.3699V18.2383H71.8738V18.127C71.866 17.873 71.8152 17.6348 71.7214 17.4121C71.6316 17.1895 71.4929 17.0098 71.3054 16.873C71.1179 16.7363 70.8679 16.668 70.5554 16.668C70.321 16.668 70.1121 16.7188 69.9285 16.8203C69.7488 16.918 69.5984 17.0605 69.4773 17.248C69.3562 17.4355 69.2625 17.6621 69.196 17.9277C69.1335 18.1895 69.1023 18.4844 69.1023 18.8125V19.0469C69.1023 19.3242 69.1394 19.582 69.2136 19.8203C69.2917 20.0547 69.405 20.2598 69.5535 20.4355C69.7019 20.6113 69.8816 20.75 70.0925 20.8516C70.3035 20.9492 70.5437 20.998 70.8132 20.998C71.1531 20.998 71.4558 20.9297 71.7214 20.793C71.9871 20.6562 72.2175 20.4629 72.4128 20.2129L73.157 20.9336C73.0203 21.1328 72.8425 21.3242 72.6238 21.5078C72.405 21.6875 72.1375 21.834 71.821 21.9473C71.5085 22.0605 71.1453 22.1172 70.7312 22.1172ZM77.9441 20.7285V17.7051C77.9441 17.4785 77.9031 17.2832 77.821 17.1191C77.739 16.9551 77.614 16.8281 77.446 16.7383C77.282 16.6484 77.075 16.6035 76.825 16.6035C76.5945 16.6035 76.3953 16.6426 76.2273 16.7207C76.0593 16.7988 75.9285 16.9043 75.8347 17.0371C75.741 17.1699 75.6941 17.3203 75.6941 17.4883H74.2878C74.2878 17.2383 74.3484 16.9961 74.4695 16.7617C74.5906 16.5273 74.7664 16.3184 74.9968 16.1348C75.2273 15.9512 75.5027 15.8066 75.823 15.7012C76.1433 15.5957 76.5027 15.543 76.9011 15.543C77.3777 15.543 77.7996 15.623 78.1667 15.7832C78.5378 15.9434 78.8289 16.1855 79.0398 16.5098C79.2546 16.8301 79.3621 17.2324 79.3621 17.7168V20.5352C79.3621 20.8242 79.3816 21.084 79.4207 21.3145C79.4636 21.541 79.5242 21.7383 79.6023 21.9062V22H78.155C78.0886 21.8477 78.0359 21.6543 77.9968 21.4199C77.9617 21.1816 77.9441 20.9512 77.9441 20.7285ZM78.1492 18.1445L78.1609 19.0176H77.1472C76.8855 19.0176 76.655 19.043 76.4558 19.0938C76.2566 19.1406 76.0906 19.2109 75.9578 19.3047C75.825 19.3984 75.7253 19.5117 75.6589 19.6445C75.5925 19.7773 75.5593 19.9277 75.5593 20.0957C75.5593 20.2637 75.5984 20.418 75.6765 20.5586C75.7546 20.6953 75.8679 20.8027 76.0164 20.8809C76.1687 20.959 76.3523 20.998 76.5671 20.998C76.8562 20.998 77.1082 20.9395 77.323 20.8223C77.5417 20.7012 77.7136 20.5547 77.8386 20.3828C77.9636 20.207 78.03 20.041 78.0378 19.8848L78.4949 20.5117C78.448 20.6719 78.3679 20.8438 78.2546 21.0273C78.1414 21.2109 77.9929 21.3867 77.8093 21.5547C77.6296 21.7188 77.4128 21.8535 77.1589 21.959C76.9089 22.0645 76.6199 22.1172 76.2917 22.1172C75.8777 22.1172 75.5085 22.0352 75.1843 21.8711C74.8601 21.7031 74.6062 21.4785 74.4226 21.1973C74.239 20.9121 74.1472 20.5898 74.1472 20.2305C74.1472 19.8945 74.2097 19.5977 74.3347 19.3398C74.4636 19.0781 74.6511 18.8594 74.8972 18.6836C75.1472 18.5078 75.4519 18.375 75.8113 18.2852C76.1707 18.1914 76.5808 18.1445 77.0417 18.1445H78.1492ZM82.2566 16.8672V22H80.8445V15.6602H82.1921L82.2566 16.8672ZM84.196 15.6191L84.1843 16.9316C84.0984 16.916 84.0046 16.9043 83.9031 16.8965C83.8054 16.8887 83.7078 16.8848 83.6101 16.8848C83.3679 16.8848 83.155 16.9199 82.9714 16.9902C82.7878 17.0566 82.6335 17.1543 82.5085 17.2832C82.3875 17.4082 82.2937 17.5605 82.2273 17.7402C82.1609 17.9199 82.1218 18.1211 82.1101 18.3438L81.7878 18.3672C81.7878 17.9688 81.8269 17.5996 81.905 17.2598C81.9832 16.9199 82.1003 16.6211 82.2566 16.3633C82.4167 16.1055 82.616 15.9043 82.8542 15.7598C83.0964 15.6152 83.3757 15.543 83.6921 15.543C83.7781 15.543 83.8699 15.5508 83.9675 15.5664C84.0691 15.582 84.1453 15.5996 84.196 15.6191ZM86.4812 17.0137V22H85.0691V15.6602H86.3992L86.4812 17.0137ZM86.2292 18.5957L85.7722 18.5898C85.7761 18.1406 85.8386 17.7285 85.9597 17.3535C86.0847 16.9785 86.2566 16.6562 86.4753 16.3867C86.698 16.1172 86.9636 15.9102 87.2722 15.7656C87.5808 15.6172 87.9246 15.543 88.3035 15.543C88.6082 15.543 88.8835 15.5859 89.1296 15.6719C89.3796 15.7539 89.5925 15.8887 89.7683 16.0762C89.948 16.2637 90.0847 16.5078 90.1785 16.8086C90.2722 17.1055 90.3191 17.4707 90.3191 17.9043V22H88.9011V17.8984C88.9011 17.5938 88.8562 17.3535 88.7664 17.1777C88.6804 16.998 88.5535 16.8711 88.3855 16.7969C88.2214 16.7188 88.0164 16.6797 87.7703 16.6797C87.5281 16.6797 87.3113 16.7305 87.1199 16.832C86.9285 16.9336 86.7664 17.0723 86.6335 17.248C86.5046 17.4238 86.405 17.627 86.3347 17.8574C86.2644 18.0879 86.2292 18.334 86.2292 18.5957Z" fill="#00AD37"/>
<g clip-path="url(#clip0_110605_25456)">
<path d="M112.228 7.32816C111.845 6.84066 111.208 6.63816 110.608 6.81066L106.858 7.87566L105.118 7.16316C104.51 6.91566 103.828 7.07316 103.393 7.56816C102.958 8.06316 102.883 8.75316 103.205 9.33066L104.915 12.3757C105.05 12.6157 105.298 12.7582 105.568 12.7582H109.828C110.098 12.7582 110.345 12.6082 110.48 12.3757L112.355 9.03066C112.663 8.49066 112.61 7.82316 112.22 7.33566L112.228 7.32816Z" fill="#E2A042"/>
<path d="M106.318 12.7508H105.568C105.435 12.7506 105.305 12.7151 105.19 12.6479C105.075 12.5807 104.981 12.4842 104.915 12.3683L103.205 9.32335C102.883 8.74585 102.95 8.05585 103.393 7.56085C103.775 7.12585 104.345 6.95335 104.9 7.09585C104.615 7.16335 104.353 7.32085 104.143 7.56085C103.7 8.05585 103.633 8.74585 103.955 9.32335L105.665 12.3683C105.731 12.4842 105.825 12.5807 105.94 12.6479C106.055 12.7151 106.185 12.7506 106.318 12.7508Z" fill="#D18A34"/>
<path d="M111.275 14.0935L110.525 11.7685C110.476 11.6181 110.381 11.4871 110.253 11.3941C110.125 11.3012 109.971 11.2511 109.813 11.251H105.568C105.41 11.2511 105.256 11.3012 105.128 11.3941C105 11.4871 104.904 11.6181 104.855 11.7685L104.105 14.0935C104.03 14.3185 104.075 14.5735 104.21 14.7685C104.28 14.864 104.372 14.9417 104.477 14.9951C104.583 15.0486 104.7 15.0763 104.818 15.076H110.563C110.682 15.0767 110.799 15.0491 110.905 14.9956C111.01 14.942 111.102 14.8639 111.172 14.7678C111.241 14.6718 111.287 14.5605 111.305 14.4432C111.323 14.3259 111.313 14.206 111.275 14.0935Z" fill="#D18A34"/>
<path d="M115.798 23.9707L113.353 16.5832C113.055 15.6843 112.482 14.9021 111.715 14.3474C110.947 13.7927 110.025 13.4939 109.078 13.4932H106.483C104.54 13.4932 102.823 14.7307 102.208 16.5832L99.763 23.9707C99.3505 25.2082 99.553 26.5282 100.318 27.5857C101.083 28.6432 102.268 29.2507 103.573 29.2507H111.98C113.285 29.2507 114.47 28.6432 115.235 27.5857C116 26.5282 116.203 25.2082 115.79 23.9707H115.798Z" fill="#E2A042"/>
<path d="M104.33 29.251H103.58C102.275 29.251 101.083 28.6435 100.325 27.586C99.9502 27.0719 99.7034 26.4756 99.6056 25.8467C99.5077 25.2179 99.5617 24.5747 99.763 23.971L102.208 16.591C102.504 15.6913 103.077 14.9082 103.845 14.3534C104.612 13.7985 105.536 13.5002 106.483 13.501H107.233C105.29 13.501 103.573 14.7385 102.958 16.591L100.513 23.971C100.108 25.2085 100.31 26.5285 101.075 27.586C101.445 28.1043 101.933 28.5262 102.5 28.816C103.066 29.1058 103.694 29.255 104.33 29.251ZM109.588 21.751H107.78V21.001H110.03C110.443 21.001 110.78 20.6635 110.78 20.251C110.78 19.8385 110.443 19.501 110.03 19.501H109.28C109.28 19.0885 108.943 18.751 108.53 18.751C108.118 18.751 107.78 19.0885 107.78 19.501H107.518C106.835 19.501 106.28 20.056 106.28 20.7385V22.021C106.28 22.1035 106.295 22.1935 106.325 22.276C106.498 22.7485 106.888 23.2585 107.473 23.2585H109.28V24.0085H107.03C106.618 24.0085 106.28 24.346 106.28 24.7585C106.28 25.171 106.618 25.5085 107.03 25.5085H107.78C107.78 25.921 108.118 26.2585 108.53 26.2585C108.943 26.2585 109.28 25.921 109.28 25.5085H109.52C109.595 25.5235 109.685 25.531 109.783 25.531C110.015 25.531 110.293 25.471 110.51 25.2685C110.705 25.081 110.803 24.826 110.78 24.556V23.0335C110.81 22.726 110.713 22.411 110.51 22.1785C110.285 21.9085 109.948 21.7585 109.588 21.7585V21.751Z" fill="#D18A34"/>
<path d="M108.838 21.001H107.031V20.251H109.281C109.693 20.251 110.031 19.9135 110.031 19.501C110.031 19.0885 109.693 18.751 109.281 18.751H108.531C108.531 18.3385 108.193 18.001 107.781 18.001C107.368 18.001 107.031 18.3385 107.031 18.751H106.768C106.086 18.751 105.531 19.306 105.531 19.9885V21.271C105.531 21.3535 105.546 21.4435 105.576 21.526C105.748 21.9985 106.138 22.5085 106.723 22.5085H108.531V23.2585H106.281C105.868 23.2585 105.531 23.596 105.531 24.0085C105.531 24.421 105.868 24.7585 106.281 24.7585H107.031C107.031 25.171 107.368 25.5085 107.781 25.5085C108.193 25.5085 108.531 25.171 108.531 24.7585H108.771C108.846 24.7735 108.936 24.781 109.033 24.781C109.266 24.781 109.543 24.721 109.761 24.5185C109.956 24.331 110.053 24.076 110.031 23.806V22.2835C110.061 21.976 109.963 21.661 109.761 21.4285C109.536 21.1585 109.198 21.0085 108.838 21.0085V21.001Z" fill="#00AD37"/>
</g>
<defs>
<clipPath id="clip0_110605_25456">
<rect width="16.4466" height="22.5007" fill="white" transform="translate(99.5535 6.75)"/>
</clipPath>
</defs>
</svg>
