<svg width="120" height="120" viewBox="0 0 120 120" fill="none" xmlns="http://www.w3.org/2000/svg">
<path d="M107.742 18.0319C100.386 0.747647 82.7283 -5.76023 68.7964 5.84487C63.3561 10.3724 59.9618 17.5779 53.3003 20.4693C47.0499 23.1809 39.1318 22.3827 32.3728 23.8512C17.9796 26.9589 -1.39857 38.7499 0.079781 56.9177C0.727298 64.8758 5.937 73.7145 8.51228 81.1607C11.469 89.7282 13.243 100.447 21.0694 105.568C34.4869 114.361 50.6718 107.174 62.7588 100.084C69.2635 96.2727 72.8441 93.9297 79.8485 95.2368C86.3326 96.4555 92.172 100.721 98.5082 95.6603C103.266 91.861 103.659 84.1618 107.653 79.6404C112.153 74.5462 116.716 74.1776 119.054 66.5211C121.89 57.2315 117.712 51.4274 114.888 43.1281C112.065 34.8287 111.207 26.1637 107.742 18.0319Z" fill="#00AD37"/>
<g opacity="0.7">
<path d="M107.742 18.0319C100.386 0.747648 82.7283 -5.76023 68.7964 5.84487C63.3561 10.3724 59.9618 17.5779 53.3003 20.4693C47.0499 23.1809 39.1318 22.3827 32.3728 23.8512C17.9796 26.9589 -1.39857 38.7499 0.079781 56.9177C0.727298 64.8758 5.937 73.7145 8.51228 81.1607C11.469 89.7282 13.243 100.447 21.0694 105.568C34.4869 114.361 50.6718 107.174 62.7588 100.084C69.2635 96.2727 72.8441 93.9297 79.8485 95.2368C86.3326 96.4555 92.172 100.721 98.5082 95.6603C103.266 91.8609 103.659 84.1618 107.653 79.6404C112.153 74.5462 116.716 74.1776 119.054 66.5211C121.89 57.2315 117.712 51.4274 114.888 43.1281C112.065 34.8287 111.207 26.1637 107.742 18.0319Z" fill="white"/>
</g>
<path d="M51.7657 119.999C77.0076 119.999 97.4703 118.685 97.4703 117.065C97.4703 115.444 77.0076 114.131 51.7657 114.131C26.5237 114.131 6.06104 115.444 6.06104 117.065C6.06104 118.685 26.5237 119.999 51.7657 119.999Z" fill="#00AD37"/>
<path opacity="0.8" d="M51.7657 119.999C77.0076 119.999 97.4703 118.685 97.4703 117.065C97.4703 115.444 77.0076 114.131 51.7657 114.131C26.5237 114.131 6.06104 115.444 6.06104 117.065C6.06104 118.685 26.5237 119.999 51.7657 119.999Z" fill="white"/>
<path d="M86.1105 5.49805H40.1545C36.9817 5.49805 34.4097 8.14845 34.4097 11.4179V111.394C34.4097 114.664 36.9817 117.314 40.1545 117.314H86.1105C89.2833 117.314 91.8553 114.664 91.8553 111.394V11.4179C91.8553 8.14845 89.2833 5.49805 86.1105 5.49805Z" fill="#263238"/>
<path d="M89.3009 17.7754H36.9614V105.035H89.3009V17.7754Z" fill="white" stroke="#263238" stroke-width="1.33739" stroke-miterlimit="10"/>
<path d="M71.1544 53.1101C75.5849 48.5447 75.5849 41.1428 71.1544 36.5774C66.724 32.012 59.5408 32.012 55.1104 36.5774C50.68 41.1428 50.68 48.5447 55.1104 53.1101C59.5408 57.6755 66.724 57.6755 71.1544 53.1101Z" fill="#00AD37"/>
<path d="M78.0268 99.5492H48.241C48.174 99.5496 48.1075 99.5363 48.0455 99.5102C47.9834 99.484 47.927 99.4455 47.8795 99.3968C47.832 99.3481 47.7942 99.2902 47.7685 99.2264C47.7427 99.1626 47.7295 99.0942 47.7295 99.0251C47.7291 98.9558 47.7421 98.8871 47.7676 98.823C47.7932 98.7588 47.8309 98.7006 47.8784 98.6515C47.926 98.6025 47.9826 98.5637 48.0448 98.5373C48.107 98.511 48.1737 98.4977 48.241 98.4981H78.0268C78.0938 98.4981 78.1602 98.5117 78.2221 98.5382C78.284 98.5648 78.3402 98.6036 78.3874 98.6526C78.4347 98.7016 78.4721 98.7597 78.4975 98.8237C78.5229 98.8876 78.5357 98.9561 78.5353 99.0251C78.5353 99.1641 78.4818 99.2974 78.3864 99.3957C78.291 99.494 78.1617 99.5492 78.0268 99.5492Z" fill="#00AD37"/>
<path d="M78.9967 63.1055H47.2684C46.6136 63.1055 46.0828 63.6525 46.0828 64.3272V68.1814C46.0828 68.8561 46.6136 69.4031 47.2684 69.4031H78.9967C79.6515 69.4031 80.1824 68.8561 80.1824 68.1814V64.3272C80.1824 63.6525 79.6515 63.1055 78.9967 63.1055Z" fill="#00AD37"/>
<path d="M78.9967 74.8848H47.2684C46.6136 74.8848 46.0828 75.4318 46.0828 76.1065V79.9607C46.0828 80.6354 46.6136 81.1824 47.2684 81.1824H78.9967C79.6515 81.1824 80.1824 80.6354 80.1824 79.9607V76.1065C80.1824 75.4318 79.6515 74.8848 78.9967 74.8848Z" fill="#00AD37"/>
<path d="M68.7814 50.6753L65.4433 48.6949V47.0588C65.9267 46.4562 66.2768 45.7524 66.4693 44.9962C66.5842 45.0382 66.7051 45.0599 66.8271 45.0602C67.241 45.0602 67.5041 43.7379 67.5485 42.7934C68.0304 41.7422 67.374 41.1268 67.374 41.1268C67.374 41.1268 67.6461 40.8465 67.8264 39.7222C68.0068 38.598 67.1907 39.0672 66.555 38.0374C65.9193 37.0076 65.464 35.8864 63.3766 35.8864C62.8014 35.8669 62.2338 36.0261 61.7477 36.3435C61.2615 36.6608 60.8792 37.1215 60.6505 37.6657C60.1309 37.6676 59.6132 37.7299 59.1071 37.8515C58.4685 38.0374 58.2881 40.1914 58.8321 41.0354C59.0757 41.4966 59.2056 42.0124 59.2106 42.5374C59.0657 42.3546 58.9149 42.3059 58.8321 42.7202C58.6518 43.6556 59.3791 44.9657 59.3791 44.9657L59.7546 44.856C59.9438 45.6642 60.3088 46.4174 60.822 47.0588V48.6949L57.4839 50.6753C57.0941 50.9073 56.7703 51.2408 56.545 51.6424C56.3198 52.044 56.2011 52.4996 56.2007 52.9634V54.0968C58.186 55.6772 60.6239 56.5346 63.1327 56.5346C65.6414 56.5346 68.0793 55.6772 70.0646 54.0968V52.9634C70.0649 52.4995 69.9464 52.0436 69.7211 51.6419C69.4958 51.2402 69.1717 50.9068 68.7814 50.6753Z" fill="#263238"/>
<path d="M50.4026 79.6181C50.326 79.617 50.2529 79.5853 50.1985 79.5297C50.1695 79.5029 50.1462 79.47 50.1304 79.4333C50.1146 79.3965 50.1066 79.3567 50.1069 79.3165C50.1078 79.2615 50.1231 79.2078 50.1512 79.1611L50.6834 78.2836L49.6456 78.3171C49.6065 78.3196 49.5674 78.3136 49.5307 78.2994C49.494 78.2853 49.4606 78.2633 49.4328 78.2349C49.3845 78.1791 49.3579 78.107 49.3579 78.0322C49.3579 77.9575 49.3845 77.8854 49.4328 77.8296C49.46 77.8002 49.4932 77.7773 49.53 77.7625C49.5668 77.7478 49.6063 77.7416 49.6456 77.7443L50.6687 77.7839L50.1424 76.9095C50.1137 76.8619 50.0984 76.8071 50.098 76.7511C50.0977 76.7109 50.1058 76.671 50.1216 76.6343C50.1374 76.5975 50.1606 76.5646 50.1897 76.5378C50.244 76.4823 50.3171 76.4506 50.3937 76.4495C50.4441 76.4498 50.4933 76.4649 50.5357 76.4929C50.5781 76.521 50.6119 76.5608 50.6332 76.6079L51.1388 77.5493L51.6385 76.614C51.6622 76.5641 51.6987 76.5218 51.744 76.4917C51.7893 76.4617 51.8418 76.4449 51.8957 76.4434C51.9331 76.4436 51.97 76.4518 52.0041 76.4676C52.0382 76.4833 52.0687 76.5062 52.0938 76.5348C52.1481 76.5928 52.1778 76.6705 52.1766 76.7511C52.1764 76.8034 52.1632 76.8548 52.1381 76.9004L51.603 77.7839L52.6408 77.7443C52.6802 77.7416 52.7197 77.7478 52.7564 77.7625C52.7932 77.7773 52.8264 77.8002 52.8537 77.8296C52.9041 77.8836 52.9317 77.9559 52.9305 78.0307C52.9303 78.1062 52.903 78.179 52.8537 78.2349C52.8258 78.2633 52.7924 78.2853 52.7558 78.2994C52.7191 78.3136 52.6799 78.3196 52.6408 78.3171L51.5971 78.2836L52.1174 79.1519C52.1466 79.2004 52.162 79.2564 52.1618 79.3134C52.1618 79.3942 52.1306 79.4717 52.0752 79.5288C52.0197 79.586 51.9445 79.6181 51.8661 79.6181C51.8154 79.6174 51.766 79.6014 51.724 79.5722C51.682 79.543 51.6492 79.5017 51.6296 79.4536L51.1358 78.5395L50.645 79.4536C50.6232 79.5013 50.5891 79.542 50.5463 79.571C50.5035 79.6001 50.4538 79.6164 50.4026 79.6181Z" fill="#263238"/>
<path d="M55.1984 79.6181C55.1219 79.617 55.0487 79.5853 54.9944 79.5297C54.9653 79.5029 54.9421 79.47 54.9263 79.4333C54.9105 79.3965 54.9025 79.3567 54.9027 79.3165C54.9036 79.2615 54.919 79.2078 54.9471 79.1611L55.4793 78.2836L54.4445 78.3171C54.405 78.319 54.3655 78.3126 54.3284 78.2985C54.2914 78.2844 54.2574 78.2627 54.2286 78.2349C54.1894 78.1931 54.1632 78.1402 54.1536 78.083C54.1439 78.0257 54.1512 77.9668 54.1745 77.9139C54.1978 77.861 54.236 77.8165 54.2841 77.7862C54.3323 77.756 54.3881 77.7414 54.4445 77.7443L55.4645 77.7839L54.9382 76.9095C54.9096 76.8619 54.8942 76.8071 54.8939 76.7511C54.8936 76.7109 54.9016 76.671 54.9174 76.6343C54.9332 76.5975 54.9564 76.5646 54.9855 76.5378C55.0399 76.4823 55.113 76.4506 55.1895 76.4495C55.2399 76.4498 55.2892 76.4649 55.3316 76.4929C55.374 76.521 55.4078 76.5608 55.429 76.6079L55.9346 77.5493L56.4343 76.614C56.458 76.5641 56.4945 76.5218 56.5398 76.4917C56.5852 76.4617 56.6376 76.4449 56.6915 76.4434C56.729 76.4432 56.766 76.4513 56.8002 76.467C56.8343 76.4828 56.8648 76.5059 56.8896 76.5348C56.917 76.5632 56.9387 76.597 56.9534 76.6341C56.9682 76.6712 56.9756 76.711 56.9754 76.7511C56.9743 76.8037 56.9601 76.8551 56.934 76.9004L56.3988 77.7839L57.4396 77.7504C57.4785 77.7477 57.5176 77.754 57.5539 77.7687C57.5902 77.7835 57.6229 77.8064 57.6495 77.8357C57.6999 77.8897 57.7276 77.962 57.7264 78.0368C57.7262 78.1123 57.6988 78.1851 57.6495 78.2409C57.6222 78.2693 57.5894 78.2913 57.5532 78.3054C57.517 78.3196 57.4782 78.3257 57.4396 78.3232L56.3929 78.2897L56.9133 79.158C56.9425 79.2065 56.9578 79.2625 56.9576 79.3195C56.9576 79.4003 56.9265 79.4778 56.871 79.5349C56.8156 79.5921 56.7404 79.6242 56.662 79.6242C56.6113 79.6235 56.5619 79.6075 56.5199 79.5783C56.4778 79.5491 56.445 79.5078 56.4254 79.4597L55.9317 78.5456L55.4409 79.4597C55.4183 79.5063 55.3838 79.5457 55.341 79.5736C55.2983 79.6015 55.249 79.6169 55.1984 79.6181Z" fill="#263238"/>
<path d="M59.997 79.6181C59.9194 79.6178 59.8451 79.586 59.79 79.5297C59.7609 79.5029 59.7377 79.47 59.7219 79.4333C59.7061 79.3965 59.6981 79.3567 59.6984 79.3165C59.6993 79.2615 59.7146 79.2078 59.7427 79.1611L60.2749 78.2836L59.2401 78.3171C59.1844 78.3194 59.1292 78.3046 59.0817 78.2744C59.0342 78.2443 58.9965 78.2003 58.9733 78.1481C58.9502 78.0958 58.9427 78.0376 58.9517 77.9809C58.9608 77.9241 58.986 77.8715 59.0242 77.8296C59.0522 77.8003 59.0859 77.7775 59.1232 77.7628C59.1604 77.748 59.2003 77.7418 59.2401 77.7443L60.2601 77.7839L59.7339 76.9095C59.7052 76.8619 59.6899 76.8071 59.6895 76.7511C59.6904 76.7111 59.699 76.6717 59.7147 76.6351C59.7305 76.5985 59.753 76.5654 59.7812 76.5378C59.8362 76.4815 59.9106 76.4498 59.9881 76.4495C60.038 76.4504 60.0866 76.4657 60.1284 76.4937C60.1703 76.5217 60.2036 76.5613 60.2247 76.6079L60.7303 77.5493L61.2299 76.614C61.2537 76.5641 61.2901 76.5218 61.3355 76.4917C61.3808 76.4617 61.4333 76.4449 61.4872 76.4434C61.5246 76.4432 61.5616 76.4513 61.5958 76.467C61.63 76.4828 61.6605 76.5059 61.6853 76.5348C61.7127 76.5632 61.7344 76.597 61.7491 76.6341C61.7638 76.6712 61.7712 76.711 61.771 76.7511C61.77 76.8037 61.7557 76.8551 61.7296 76.9004L61.1945 77.7839L62.2352 77.7443C62.2735 77.7404 62.3121 77.7449 62.3485 77.7577C62.385 77.7704 62.4183 77.791 62.4463 77.8182C62.4743 77.8453 62.4964 77.8783 62.511 77.915C62.5256 77.9517 62.5324 77.9911 62.5309 78.0307C62.5315 78.1058 62.5052 78.1785 62.457 78.2349C62.4291 78.2633 62.3958 78.2853 62.3591 78.2995C62.3224 78.3136 62.2832 78.3196 62.2441 78.3171L61.2004 78.2836L61.7178 79.1519C61.747 79.2004 61.7623 79.2564 61.7621 79.3134C61.7612 79.3534 61.7526 79.3928 61.7369 79.4294C61.7212 79.466 61.6986 79.4991 61.6705 79.5267C61.6448 79.5552 61.6137 79.578 61.5791 79.5937C61.5445 79.6094 61.5072 79.6177 61.4694 79.6181C61.4192 79.6172 61.3702 79.6011 61.3287 79.5719C61.2872 79.5426 61.2549 79.5015 61.2359 79.4536L60.7391 78.5395L60.2483 79.4536C60.2262 79.503 60.1907 79.5447 60.1461 79.5739C60.1016 79.6031 60.0498 79.6184 59.997 79.6181Z" fill="#263238"/>
<path d="M64.7927 79.6181C64.7152 79.6178 64.6408 79.586 64.5858 79.5297C64.53 79.4735 64.4982 79.3968 64.4971 79.3165C64.4961 79.2617 64.5105 79.2077 64.5384 79.1611L65.0707 78.2836L64.0358 78.3171C63.9963 78.319 63.9569 78.3126 63.9198 78.2985C63.8827 78.2844 63.8488 78.2627 63.82 78.2349C63.7718 78.1791 63.7451 78.107 63.7451 78.0322C63.7451 77.9575 63.7718 77.8854 63.82 77.8296C63.8485 77.8012 63.8824 77.779 63.9195 77.7643C63.9565 77.7497 63.9961 77.7429 64.0358 77.7443L65.0588 77.7839L64.5355 76.9095C64.5069 76.8619 64.4915 76.8071 64.4911 76.7511C64.4921 76.7111 64.5007 76.6717 64.5164 76.6351C64.5321 76.5985 64.5547 76.5654 64.5828 76.5378C64.6379 76.4815 64.7122 76.4498 64.7898 76.4495C64.8401 76.4498 64.8894 76.4649 64.9318 76.4929C64.9742 76.521 65.008 76.5608 65.0293 76.6079L65.5319 77.5493L66.0316 76.614C66.0553 76.5641 66.0918 76.5218 66.1371 76.4917C66.1825 76.4617 66.2349 76.4449 66.2888 76.4434C66.3262 76.4432 66.3633 76.4513 66.3974 76.467C66.4316 76.4828 66.4621 76.5059 66.4869 76.5348C66.5143 76.5632 66.536 76.597 66.5507 76.6341C66.5654 76.6712 66.5729 76.711 66.5727 76.7511C66.5716 76.8037 66.5573 76.8551 66.5313 76.9004L65.9961 77.7839L67.0369 77.7443C67.0751 77.7404 67.1138 77.7449 67.1502 77.7577C67.1866 77.7704 67.2199 77.791 67.2479 77.8182C67.276 77.8453 67.298 77.8783 67.3126 77.915C67.3272 77.9517 67.334 77.9911 67.3325 78.0307C67.3331 78.1058 67.3068 78.1785 67.2586 78.2349C67.2308 78.2633 67.1974 78.2853 67.1607 78.2995C67.124 78.3136 67.0848 78.3196 67.0457 78.3171L66.002 78.2836L66.5194 79.1519C66.5486 79.2004 66.564 79.2564 66.5638 79.3134C66.5641 79.3536 66.556 79.3934 66.5402 79.4302C66.5244 79.467 66.5012 79.4999 66.4721 79.5267C66.4464 79.5552 66.4153 79.578 66.3807 79.5937C66.3462 79.6094 66.3089 79.6177 66.2711 79.6181C66.2208 79.6172 66.1719 79.6011 66.1304 79.5719C66.0888 79.5426 66.0566 79.5015 66.0375 79.4536L65.5408 78.5395L65.05 79.4536C65.0274 79.5039 64.991 79.5463 64.9453 79.5756C64.8996 79.6048 64.8465 79.6196 64.7927 79.6181Z" fill="#263238"/>
<path d="M69.5886 79.6181C69.5111 79.6178 69.4367 79.586 69.3817 79.5297C69.3359 79.4819 69.3067 79.4198 69.2986 79.3532C69.2906 79.2865 69.3042 79.219 69.3373 79.1611L69.8665 78.2836L68.8317 78.3171C68.7922 78.319 68.7528 78.3127 68.7157 78.2985C68.6786 78.2844 68.6447 78.2627 68.6159 78.2349C68.5676 78.1791 68.541 78.107 68.541 78.0322C68.541 77.9575 68.5676 77.8854 68.6159 77.8296C68.6444 77.8012 68.6783 77.779 68.7154 77.7643C68.7524 77.7497 68.792 77.7429 68.8317 77.7443L69.8547 77.7839L69.3284 76.9095C69.2998 76.8619 69.2844 76.8071 69.2841 76.7511C69.2852 76.6707 69.3171 76.5941 69.3728 76.5378C69.4278 76.4815 69.5022 76.4498 69.5797 76.4495C69.6301 76.4498 69.6794 76.4649 69.7218 76.4929C69.7642 76.521 69.798 76.5608 69.8192 76.6079L70.3219 77.5493L70.8216 76.614C70.8453 76.5641 70.8818 76.5218 70.9271 76.4917C70.9724 76.4617 71.0249 76.4449 71.0788 76.4434C71.1167 76.4432 71.1541 76.4512 71.1888 76.467C71.2234 76.4827 71.2545 76.5058 71.2798 76.5348C71.3341 76.5928 71.3639 76.6705 71.3626 76.7511C71.3616 76.8037 71.3473 76.8551 71.3212 76.9004L70.7861 77.7839L71.8268 77.7443C71.8651 77.7404 71.9037 77.7449 71.9402 77.7577C71.9766 77.7704 72.0099 77.791 72.0379 77.8182C72.0659 77.8453 72.088 77.8783 72.1026 77.915C72.1172 77.9517 72.124 77.9911 72.1225 78.0307C72.1231 78.1058 72.0968 78.1785 72.0486 78.2349C72.0207 78.2633 71.9874 78.2853 71.9507 78.2995C71.914 78.3136 71.8748 78.3196 71.8357 78.3171L70.792 78.2836L71.3094 79.1519C71.3386 79.2004 71.3539 79.2564 71.3538 79.3134C71.3541 79.3536 71.346 79.3934 71.3302 79.4302C71.3144 79.467 71.2912 79.4999 71.2621 79.5267C71.2364 79.5552 71.2053 79.578 71.1707 79.5937C71.1362 79.6094 71.0988 79.6177 71.0611 79.6181C71.0108 79.6172 70.9619 79.6011 70.9203 79.5719C70.8788 79.5426 70.8465 79.5015 70.8275 79.4536L70.3308 78.5395L69.8399 79.4536C69.8178 79.503 69.7823 79.5447 69.7378 79.5739C69.6932 79.6031 69.6414 79.6184 69.5886 79.6181Z" fill="#263238"/>
<path d="M74.3842 79.6181C74.3076 79.617 74.2345 79.5853 74.1801 79.5297C74.151 79.5029 74.1278 79.47 74.112 79.4333C74.0962 79.3965 74.0882 79.3567 74.0885 79.3165C74.0894 79.2615 74.1047 79.2078 74.1328 79.1611L74.6621 78.2836L73.6272 78.3171C73.5892 78.3201 73.5509 78.3148 73.5149 78.3017C73.4789 78.2886 73.446 78.268 73.4182 78.241C73.3904 78.2141 73.3683 78.1815 73.3534 78.1453C73.3385 78.1091 73.331 78.0701 73.3316 78.0307C73.3314 77.9934 73.3383 77.9565 73.352 77.922C73.3657 77.8875 73.3859 77.8561 73.4114 77.8296C73.4386 77.8002 73.4718 77.7773 73.5086 77.7625C73.5454 77.7478 73.5849 77.7416 73.6243 77.7443L74.6473 77.7839L74.121 76.9095C74.0924 76.8619 74.077 76.8071 74.0767 76.7511C74.0778 76.6707 74.1097 76.5941 74.1654 76.5378C74.2204 76.4815 74.2948 76.4498 74.3723 76.4495C74.4227 76.4498 74.472 76.4649 74.5144 76.4929C74.5568 76.521 74.5905 76.5608 74.6118 76.6079L75.1145 77.5493L75.6171 76.614C75.6406 76.5645 75.6766 76.5225 75.7214 76.4925C75.7661 76.4625 75.818 76.4455 75.8714 76.4434C75.9092 76.4432 75.9467 76.4512 75.9814 76.467C76.016 76.4827 76.047 76.5058 76.0724 76.5348C76.1267 76.5928 76.1565 76.6705 76.1552 76.7511C76.1551 76.8034 76.1418 76.8548 76.1168 76.9004L75.5816 77.7839L76.6194 77.7443C76.6588 77.7416 76.6983 77.7478 76.7351 77.7625C76.7719 77.7773 76.8051 77.8002 76.8323 77.8296C76.8827 77.8836 76.9103 77.9559 76.9092 78.0307C76.909 78.1062 76.8816 78.179 76.8323 78.2349C76.8044 78.2633 76.7711 78.2853 76.7344 78.2995C76.6977 78.3136 76.6585 78.3196 76.6194 78.3171L75.5757 78.2836L76.0931 79.1519C76.1223 79.2004 76.1376 79.2564 76.1375 79.3134C76.1364 79.3938 76.1045 79.4704 76.0488 79.5267C75.9949 79.5834 75.9217 79.6162 75.8448 79.6181C75.7945 79.6172 75.7456 79.6011 75.704 79.5719C75.6625 79.5426 75.6302 79.5015 75.6112 79.4536L75.1145 78.5395L74.6236 79.4536C74.6024 79.5011 74.5687 79.5417 74.5265 79.5707C74.4842 79.5997 74.4349 79.6161 74.3842 79.6181Z" fill="#263238"/>
<g style="mix-blend-mode:multiply">
<path d="M89.3009 17.8926H36.9614V21.2714H89.3009V17.8926Z" fill="#00AD37"/>
</g>
<path d="M68.8227 11.6668H57.4394C57.234 11.6668 57.037 11.5827 56.8917 11.433C56.7464 11.2833 56.6648 11.0803 56.6648 10.8686C56.6648 10.6569 56.7464 10.4538 56.8917 10.3041C57.037 10.1544 57.234 10.0703 57.4394 10.0703H68.8227C69.0282 10.0703 69.2252 10.1544 69.3705 10.3041C69.5158 10.4538 69.5974 10.6569 69.5974 10.8686C69.5974 11.0803 69.5158 11.2833 69.3705 11.433C69.2252 11.5827 69.0282 11.6668 68.8227 11.6668Z" fill="#00AD37" stroke="#263238" stroke-width="1.33739" stroke-linecap="round" stroke-linejoin="round"/>
<path d="M66.2354 109.966C66.236 109.333 66.0544 108.714 65.7135 108.187C65.3725 107.661 64.8877 107.25 64.3203 107.008C63.7529 106.765 63.1285 106.702 62.526 106.825C61.9235 106.948 61.37 107.253 60.9357 107.701C60.5013 108.148 60.2056 108.719 60.0859 109.339C59.9662 109.96 60.0279 110.604 60.2633 111.188C60.4986 111.773 60.897 112.273 61.408 112.624C61.9189 112.975 62.5196 113.162 63.1339 113.162C63.9562 113.161 64.7446 112.824 65.3261 112.225C65.9076 111.626 66.2346 110.813 66.2354 109.966Z" fill="#00AD37"/>
<path d="M64.707 108.344H61.561V111.585H64.707V108.344Z" fill="#00AD37" stroke="#263238" stroke-width="1.33739" stroke-linecap="round" stroke-linejoin="round"/>
<path d="M23.0474 51.7986L13.311 48.5233L12.4447 46.1651L10.4666 46.1011L6.8772 45.4004L7.30887 46.1651L11.8267 49.544L12.9414 50.1168L23.1243 55.5979L23.0474 51.7986Z" fill="white" stroke="#263238" stroke-width="1.00396" stroke-miterlimit="10"/>
<path d="M12.4446 46.1646L11.5162 45.5918L9.66235 46.2925L9.96985 46.6734L12.4446 46.1646Z" fill="white" stroke="#263238" stroke-width="1.00396" stroke-linejoin="round"/>
<path d="M23.0474 51.7986L13.311 48.5233L12.4447 46.1651L10.4666 46.1011L6.8772 45.4004L7.30887 46.1651L11.8267 49.544L12.9414 50.1168L23.1243 55.5979L23.0474 51.7986Z" fill="white"/>
<mask id="mask0_110626_17643" style="mask-type:luminance" maskUnits="userSpaceOnUse" x="6" y="45" width="18" height="11">
<path d="M23.0474 51.8005L13.311 48.5253L12.4447 46.1671L10.4666 46.1031L6.8772 45.4023L7.30887 46.1671L11.8267 49.5459L12.9414 50.1187L23.1243 55.5998L23.0474 51.8005Z" fill="white"/>
</mask>
<g mask="url(#mask0_110626_17643)">
<path opacity="0.5" d="M23.0474 51.8005L13.311 48.5253L12.4447 46.1671L10.4666 46.1031L6.8772 45.4023L7.30887 46.1671L11.8267 49.5459L12.9414 50.1187L23.1243 55.5998L23.0474 51.8005Z" fill="#00AD37" stroke="#263238" stroke-width="1.00396" stroke-miterlimit="10"/>
</g>
<path d="M23.0474 51.7986L13.311 48.5233L12.4447 46.1651L10.4666 46.1011L6.8772 45.4004L7.30887 46.1651L11.8267 49.544L12.9414 50.1168L23.1243 55.5979L23.0474 51.7986Z" stroke="#263238" stroke-width="1.00396" stroke-miterlimit="10"/>
<path d="M12.4446 46.1646L11.5162 45.5918L9.66235 46.2925L9.96985 46.6734L12.4446 46.1646Z" fill="white"/>
<mask id="mask1_110626_17643" style="mask-type:luminance" maskUnits="userSpaceOnUse" x="9" y="45" width="4" height="2">
<path d="M12.4446 46.1665L11.5162 45.5938L9.66235 46.2945L9.96985 46.6753L12.4446 46.1665Z" fill="white"/>
</mask>
<g mask="url(#mask1_110626_17643)">
<path opacity="0.5" d="M12.4446 46.1665L11.5162 45.5938L9.66235 46.2945L9.96985 46.6753L12.4446 46.1665Z" fill="#00AD37" stroke="#263238" stroke-width="1.00396" stroke-linejoin="round"/>
</g>
<path d="M12.4446 46.1646L11.5162 45.5918L9.66235 46.2925L9.96985 46.6734L12.4446 46.1646Z" stroke="#263238" stroke-width="1.00396" stroke-linejoin="round"/>
<path d="M25.1139 30.5427C25.1139 30.5427 24.9631 31.9137 25.3386 32.7942C25.7141 33.6747 27.7986 36.6575 27.7986 36.6575L23.9075 39.8718C23.9075 39.8718 22.2932 36.5204 21.9857 35.9781C21.6782 35.4358 21.3086 33.1019 22.3109 31.4293C23.3132 29.7566 24.7561 29.3057 25.1139 30.5427Z" fill="white"/>
<mask id="mask2_110626_17643" style="mask-type:luminance" maskUnits="userSpaceOnUse" x="21" y="29" width="7" height="11">
<path d="M25.1139 30.5427C25.1139 30.5427 24.9631 31.9137 25.3386 32.7942C25.7141 33.6747 27.7986 36.6575 27.7986 36.6575L23.9075 39.8718C23.9075 39.8718 22.2932 36.5204 21.9857 35.9781C21.6782 35.4358 21.3086 33.1019 22.3109 31.4293C23.3132 29.7566 24.7561 29.3057 25.1139 30.5427Z" fill="white"/>
</mask>
<g mask="url(#mask2_110626_17643)">
<g style="mix-blend-mode:multiply" opacity="0.5">
<path d="M23.1152 34.9492L24.8035 38.5566L23.9047 39.8758L22.2075 36.7529L23.1152 34.9492Z" fill="#00AD37"/>
</g>
</g>
<path d="M25.1139 30.5427C25.1139 30.5427 24.9631 31.9137 25.3386 32.7942C25.7141 33.6747 27.7986 36.6575 27.7986 36.6575L23.9075 39.8718C23.9075 39.8718 22.2932 36.5204 21.9857 35.9781C21.6782 35.4358 21.3086 33.1019 22.3109 31.4293C23.3132 29.7566 24.7561 29.3057 25.1139 30.5427Z" stroke="#263238" stroke-width="1.00396" stroke-miterlimit="10"/>
<path d="M26.3202 28.0318C26.0807 26.5084 24.3865 23.4099 21.6989 23.5287C19.9545 23.6079 19.1384 23.9705 18.3815 24.4123C17.7645 24.7869 17.1894 25.2303 16.6666 25.7346C15.3538 27.3585 14.8926 27.8033 15.1469 29.0464C15.126 29.5422 15.2014 30.0373 15.3686 30.5027C15.7707 31.6087 16.0457 32.3308 16.3946 32.8579C16.2881 33.3728 16.0102 34.7316 15.9954 35.0424C15.9807 35.3532 16.8824 35.1369 17.3378 35.018C18.1834 36.968 19.7327 38.3207 20.2146 38.4761C21.0543 38.7473 22.3819 37.3244 23.0856 36.2215C23.7893 35.1186 23.2571 33.8786 23.26 33.385C23.263 32.8914 24.8419 31.8068 25.4273 31.4625C26.0127 31.1182 26.5568 29.5522 26.3202 28.0318Z" fill="white"/>
<mask id="mask3_110626_17643" style="mask-type:luminance" maskUnits="userSpaceOnUse" x="15" y="23" width="12" height="16">
<path d="M26.3202 28.0318C26.0807 26.5084 24.3865 23.4099 21.6989 23.5287C19.9545 23.6079 19.1384 23.9705 18.3815 24.4123C17.7645 24.7869 17.1894 25.2303 16.6666 25.7346C15.3538 27.3585 14.8926 27.8033 15.1469 29.0464C15.126 29.5422 15.2014 30.0373 15.3686 30.5027C15.7707 31.6087 16.0457 32.3308 16.3946 32.8579C16.2881 33.3728 16.0102 34.7316 15.9954 35.0424C15.9807 35.3532 16.8824 35.1369 17.3378 35.018C18.1834 36.968 19.7327 38.3207 20.2146 38.4761C21.0543 38.7473 22.3819 37.3244 23.0856 36.2215C23.7893 35.1186 23.2571 33.8786 23.26 33.385C23.263 32.8914 24.8419 31.8068 25.4273 31.4625C26.0127 31.1182 26.5568 29.5522 26.3202 28.0318Z" fill="white"/>
</mask>
<g mask="url(#mask3_110626_17643)">
<g style="mix-blend-mode:multiply" opacity="0.5">
<path d="M15.1586 29.0466C15.1377 29.5425 15.2131 30.0376 15.3803 30.503C15.7825 31.609 16.0574 32.331 16.4063 32.8581C16.2999 33.373 16.022 34.7319 16.0072 35.0427C15.9924 35.3534 16.8942 35.1371 17.3495 35.0183C18.1951 36.9682 19.7444 38.321 20.2264 38.4764C21.0661 38.7475 22.3936 37.3247 23.0973 36.2218C23.2731 35.9464 23.3873 35.6342 23.4314 35.3077C23.393 35.1645 23.3664 35.0762 23.3664 35.0762C23.3664 35.0762 22.9702 36.6453 22.1837 36.4411C21.3972 36.237 20.1939 34.6131 19.5227 34.0525C18.8515 33.4919 19.1265 32.7545 18.9934 31.9197C18.8604 31.0849 16.8735 30.3507 16.7404 29.8723C16.6074 29.394 17.0716 27.4136 17.0716 27.4136C17.0716 27.4136 17.8255 26.3777 17.6629 26.8042C17.548 27.1741 17.5063 27.5639 17.5403 27.9507C17.5743 28.3375 17.6834 28.7133 17.861 29.0558C17.9857 29.326 18.1834 29.5535 18.4304 29.7108C18.6774 29.868 18.9633 29.9485 19.2536 29.9424L19.9751 26.2589L18.4524 24.9609L16.6783 25.7226C15.3537 27.3587 14.9014 27.8036 15.1586 29.0466Z" fill="#00AD37"/>
</g>
</g>
<path d="M26.3202 28.0318C26.0807 26.5084 24.3865 23.4099 21.6989 23.5287C19.9545 23.6079 19.1384 23.9705 18.3815 24.4123C17.7645 24.7869 17.1894 25.2303 16.6666 25.7346C15.3538 27.3585 14.8926 27.8033 15.1469 29.0464C15.126 29.5422 15.2014 30.0373 15.3686 30.5027C15.7707 31.6087 16.0457 32.3308 16.3946 32.8579C16.2881 33.3728 16.0102 34.7316 15.9954 35.0424C15.9807 35.3532 16.8824 35.1369 17.3378 35.018C18.1834 36.968 19.7327 38.3207 20.2146 38.4761C21.0543 38.7473 22.3819 37.3244 23.0856 36.2215C23.7893 35.1186 23.2571 33.8786 23.26 33.385C23.263 32.8914 24.8419 31.8068 25.4273 31.4625C26.0127 31.1182 26.5568 29.5522 26.3202 28.0318Z" stroke="#263238" stroke-miterlimit="10"/>
<path d="M16.7615 31.9375L17.0571 32.8089C17.0571 32.8089 17.6928 33.0252 18.4675 32.1538" stroke="#263238" stroke-miterlimit="10" stroke-linecap="round"/>
<path d="M18.946 36.0087C18.946 36.0087 19.6497 35.9356 19.9336 34.918" stroke="#263238" stroke-miterlimit="10" stroke-linecap="round"/>
<path d="M16.2676 31.2097C16.2676 31.2097 16.4775 30.5547 17.7459 30.5547" stroke="#263238" stroke-miterlimit="10" stroke-linecap="round"/>
<path d="M22.7692 22.3158C21.8475 22.1792 20.918 22.1059 19.9869 22.0964C19.9869 22.0964 17.2017 20.442 14.5259 22.2061C11.8501 23.9702 13.1363 27.0596 13.1363 27.8304C13.1363 28.6012 12.2788 28.6043 12.814 29.5975C13.3491 30.5908 15.1586 30.0424 15.1586 30.0424C15.1778 29.6677 15.2738 29.3016 15.4405 28.9681C15.6072 28.6345 15.8406 28.3413 16.1255 28.1077C17.0894 27.3368 17.8581 27.1693 18.1774 27.3917C18.1774 27.3917 17.9645 29.0461 18.2839 29.7072C18.2839 29.7072 19.3542 30.2587 19.6765 30.2587C19.9987 30.2587 19.4665 30.7248 20.5339 31.1392C20.7284 31.2112 20.9364 31.2357 21.1416 31.2108C21.3468 31.186 21.5436 31.1124 21.7166 30.996C21.8733 30.3257 22.2163 29.3172 22.8549 29.5518C23.7922 29.8961 24.6467 32.2726 23.3783 33.083C24.9039 33.3694 26.7518 30.5877 26.8612 28.0528C26.9706 25.5179 24.354 22.6022 22.7692 22.3158Z" fill="#263238"/>
<path d="M18.2249 26.3048C18.2249 26.3048 19.0113 25.8691 19.9752 26.8014C20.9391 27.7337 22.8136 28.9799 25.2973 28.2943" stroke="white" stroke-width="0.5" stroke-linecap="round" stroke-linejoin="round"/>
<path d="M18.1155 25.5569C18.1155 25.5569 18.6566 24.6855 19.5613 24.6855C20.4661 24.6855 22.5801 25.9926 24.2684 25.9926" stroke="white" stroke-width="0.5" stroke-linecap="round" stroke-linejoin="round"/>
<path d="M17.5006 27.2384C17.5006 27.2384 16.4746 25.9343 15.5107 26.9916C14.5468 28.0488 15.1588 29.0481 15.1588 29.0481" stroke="white" stroke-width="0.5" stroke-linecap="round" stroke-linejoin="round"/>
<path d="M13.3994 28.1071C13.9874 27.5608 14.3528 26.8053 14.4224 25.9927C14.5437 24.6247 16.3561 23.4425 17.5004 24.5637" stroke="white" stroke-width="0.5" stroke-linecap="round" stroke-linejoin="round"/>
<path d="M15.2681 23.1315C15.2681 23.1315 17.0805 21.3278 18.5884 23.6281" stroke="white" stroke-width="0.5" stroke-linecap="round" stroke-linejoin="round"/>
<path d="M30.0192 111.814C30.0192 111.814 31.1338 113.6 31.0096 114.748L30.8884 115.897C30.8884 115.897 26.7993 117.052 25.933 117.052C25.0667 117.052 20.4808 116.604 20.4808 116.604L20.2827 115.794C20.2689 115.734 20.2754 115.671 20.3013 115.615C20.3271 115.56 20.3707 115.515 20.4247 115.489L24.5138 113.524L25.8029 112.07L30.0192 111.814Z" fill="white" stroke="#263238" stroke-width="1.00396" stroke-miterlimit="10"/>
<path d="M26.5536 116.154C27.6624 116.242 29.7675 115.544 30.9886 115.1L30.9029 115.898C30.9029 115.898 26.799 117.053 25.9327 117.053C25.0664 117.053 20.4805 116.605 20.4805 116.605L20.3386 116.026C21.0719 116.029 25.0871 116.038 26.5536 116.154Z" fill="#00AD37" stroke="#263238" stroke-width="1.00396" stroke-miterlimit="10"/>
<path d="M24.5194 113.524L18.5676 116.193C18.5676 116.193 18.059 117.506 18.5676 117.768C19.0761 118.03 30.1637 117.768 30.1637 117.768C30.1637 117.768 30.9295 115.693 29.7202 114.301C28.511 112.909 24.5194 113.524 24.5194 113.524Z" fill="white" stroke="#263238" stroke-width="1.00396" stroke-miterlimit="10"/>
<path d="M30.164 117.769C30.164 117.769 19.0763 118.031 18.5678 117.769C18.3224 117.641 18.3135 117.272 18.3697 116.922H30.3591C30.3199 117.21 30.2546 117.493 30.164 117.769Z" fill="#00AD37" stroke="#263238" stroke-width="1.00396" stroke-miterlimit="10"/>
<path d="M21.705 67.1507C21.705 67.1507 20.1497 74.2527 19.5614 78.6948C18.973 83.137 18.627 92.0366 18.7512 93.0572C18.8754 94.0779 25.0667 111.179 25.0667 111.179L25.6847 112.703L30.0192 111.81C30.0192 111.81 28.0382 105.302 27.2961 101.728C26.554 98.1545 24.9307 92.2834 24.9307 91.2627C24.9307 90.242 28.7744 70.7489 29.0494 69.4692C29.3244 68.1896 30.5721 66.2244 30.5721 66.2244L22.2727 66.0508L21.705 67.1507Z" fill="#00AD37" stroke="#263238" stroke-width="1.00396" stroke-miterlimit="10"/>
<path d="M21.7048 67.1486C21.7048 67.1486 20.7941 73.6351 21.1696 78.1443C21.5451 82.6535 22.3523 92.2539 22.3523 93.6828C22.3523 95.1117 24.5905 103.646 24.7177 106.327C24.9158 110.199 24.6379 112.116 24.6379 112.116L24.5048 113.52C24.5048 113.52 27.1156 113.904 27.6862 114.072C28.3453 114.247 29.0255 114.323 29.7056 114.297C29.7056 114.297 30.6547 109.992 30.6547 106.324C30.6547 102.655 29.8653 95.1056 29.4721 92.0467C29.0788 88.9877 30.3177 77.1876 31.0214 74.9848C31.7251 72.782 33.2625 68.1174 32.2277 65.7349C31.1929 63.3523 21.7048 67.1486 21.7048 67.1486Z" fill="#00AD37" stroke="#263238" stroke-width="1.00396" stroke-miterlimit="10"/>
<path d="M33.3779 64.541L33.2833 67.4415C33.2833 67.4415 31.598 67.7858 29.3272 68.191C27.4527 68.5262 22.7456 68.1027 21.1608 67.9442C21.0164 67.9311 20.8829 67.8596 20.7893 67.7455C20.6957 67.6314 20.6497 67.4838 20.6612 67.3349L20.8149 64.7147L33.3779 64.541Z" fill="#263238"/>
<path d="M26.7903 35.627C26.7903 35.627 24.1292 38.5914 23.1269 40.4347C22.1246 42.278 21.7284 45.1024 21.3529 47.3265C20.9774 49.5506 21.9945 54.7728 21.7077 57.1706L20.8 64.7235C20.8 64.7235 20.6048 65.2353 21.2583 65.796C21.9117 66.3566 25.102 66.5607 27.9848 66.71C29.0374 66.7648 32.1803 66.0671 32.6948 66.0336C33.3157 65.994 33.3364 65.1805 33.363 64.5407C33.4872 61.5335 34.0135 53.5175 34.3594 50.0259C35.072 42.9057 31.1721 36.0322 26.7903 35.627Z" fill="white" stroke="#263238" stroke-width="1.00396" stroke-miterlimit="10"/>
<g style="mix-blend-mode:multiply">
<path d="M34.0344 54.0745C34.1526 52.4932 34.2709 51.0582 34.3744 50.0253C34.4039 49.7206 34.4217 49.416 34.4365 49.1113L27.367 50.33L21.2939 48.1973C21.2946 49.4922 21.3657 50.786 21.5068 52.0727L27.4646 53.7911L34.0344 54.0745Z" fill="#00AD37"/>
</g>
<g style="mix-blend-mode:multiply">
<path d="M26.5274 35.9258C26.1253 36.3858 25.327 37.3212 24.5671 38.3144L29.0554 43.0156L30.5338 42.4062L26.5274 35.9258Z" fill="#00AD37"/>
</g>
<path d="M26.7905 35.627C26.7905 35.627 24.1295 38.5914 23.1272 40.4347C22.83 40.9949 22.5892 41.585 22.4087 42.1958L27.7603 35.825C27.4441 35.7263 27.1193 35.66 26.7905 35.627Z" fill="#263238"/>
<g style="mix-blend-mode:multiply">
<path d="M21.5598 46.1278L27.3668 48.096L34.4185 47.2612C34.308 45.451 33.9177 43.6706 33.2624 41.9873L27.5767 44.3363L22.4941 41.9629C22.0785 43.3242 21.7662 44.7167 21.5598 46.1278Z" fill="#00AD37"/>
</g>
<g style="mix-blend-mode:multiply">
<path d="M31.5565 61.533C28.6113 62.0426 25.5892 61.7881 22.7633 60.7926L21.347 60.293L20.9065 63.9491L22.5209 64.4152C25.5898 65.2994 28.7974 65.5541 31.9616 65.1647L33.2655 65.0033C33.3333 64.8552 33.3716 64.6946 33.3778 64.531C33.4133 63.7175 33.4754 62.5354 33.5552 61.1796L31.5565 61.533Z" fill="#00AD37"/>
</g>
<g style="mix-blend-mode:multiply">
<path d="M32.346 56.556C29.4007 57.0675 26.3779 56.812 23.5528 55.8126L21.7492 55.1758C21.794 55.8396 21.7851 56.5061 21.7226 57.1684L21.5127 58.9263L23.3104 59.4443C26.3781 60.3294 29.5847 60.5851 32.7481 60.1968L33.6352 60.0872C33.7091 58.8685 33.7948 57.5705 33.8865 56.2878L32.346 56.556Z" fill="#00AD37"/>
</g>
<path d="M4.60636 43.6717L10.3232 48.4082L10.5696 48.0924L4.85276 43.3559L4.60636 43.6717Z" fill="#263238"/>
<path d="M29.5431 38.916C29.5431 38.916 31.6394 40.3876 31.6867 43.864C31.7074 45.3873 31.5536 46.8102 31.2136 49.3055C30.8736 51.8008 28.7625 59.9265 27.1186 60.9136C25.4747 61.9008 22.923 60.0361 22.923 60.0361L10.5818 51.5936L7.59847 49.1105L6.12012 46.2343L6.58432 45.3203L10.224 48.1964L8.26372 46.3288L8.64809 45.8261L9.3577 46.3349L11.4274 47.1331L11.8798 50.1799L12.5184 50.6308L24.3245 55.076C24.3245 55.076 24.1767 48.5285 24.2861 47.2763C24.3955 46.0241 24.5463 42.8768 25.8472 40.5948" fill="white"/>
<mask id="mask4_110626_17643" style="mask-type:luminance" maskUnits="userSpaceOnUse" x="6" y="38" width="26" height="24">
<path d="M29.5431 38.9141C29.5431 38.9141 31.6394 40.3856 31.6867 43.862C31.7074 45.3854 31.5536 46.8082 31.2136 49.3035C30.8736 51.7988 28.7625 59.9245 27.1186 60.9117C25.4747 61.8988 22.923 60.0342 22.923 60.0342L10.5818 51.5916L7.59847 49.1085L6.12012 46.2324L6.58432 45.3184L10.224 48.1945L8.26372 46.3268L8.64809 45.8241L9.3577 46.3329L11.4274 47.1312L11.8798 50.1779L12.5184 50.6289L24.3245 55.0741C24.3245 55.0741 24.1767 48.5266 24.2861 47.2744C24.3955 46.0222 24.5463 42.8749 25.8472 40.5928" fill="white"/>
</mask>
<g mask="url(#mask4_110626_17643)">
<g style="mix-blend-mode:multiply" opacity="0.5">
<path d="M24.2417 50.1261C24.2417 52.3868 24.3157 55.0741 24.3157 55.0741L12.5214 50.6471L11.8827 50.1962L11.4304 47.1495L9.36068 46.3512L8.65403 45.8333L8.26966 46.336L10.224 48.1945L6.58435 45.3184L6.1438 46.2172L7.62215 49.0933L10.6055 51.5916L11.3565 52.1065L27.6626 57.5206L24.2417 50.1261Z" fill="#00AD37"/>
</g>
</g>
<path d="M29.5431 38.916C29.5431 38.916 31.6394 40.3876 31.6867 43.864C31.7074 45.3873 31.5536 46.8102 31.2136 49.3055C30.8736 51.8008 28.7625 59.9265 27.1186 60.9136C25.4747 61.9008 22.923 60.0361 22.923 60.0361L10.5818 51.5936L7.59847 49.1105L6.12012 46.2343L6.58432 45.3203L10.224 48.1964L8.26372 46.3288L8.64809 45.8261L9.3577 46.3349L11.4274 47.1331L11.8798 50.1799L12.5184 50.6308L24.3245 55.076C24.3245 55.076 24.1767 48.5285 24.2861 47.2763C24.3955 46.0241 24.5463 42.8768 25.8472 40.5948" stroke="#263238" stroke-width="1.00396" stroke-miterlimit="10"/>
<path d="M24.3246 55.0758L28.8306 58.4272L29.9985 56.2945C29.9985 56.2945 30.8056 55.6395 30.9239 55.1459C31.0422 54.6523 30.8914 53.851 31.0126 53.3574C31.1338 52.8639 31.737 52.4008 31.7932 51.2064C31.8494 50.0121 31.7932 49.0158 31.7932 49.0158C31.7932 49.0158 32.7689 44.8814 32.6624 43.0838C32.556 41.2862 30.8736 38.1084 29.5254 38.0383C28.1771 37.9683 26.4238 38.1785 25.0637 40.299C23.7037 42.4196 23.9816 48.6106 23.7687 48.9975C23.5558 49.3845 23.8515 51.2948 23.8515 51.2948C23.7333 51.3856 23.6353 51.5013 23.5639 51.6342C23.4925 51.7671 23.4495 51.9142 23.4376 52.0656C23.4139 52.5622 23.9343 53.784 23.9343 53.784L24.3246 55.0758Z" fill="white" stroke="#263238" stroke-width="1.00396" stroke-miterlimit="10"/>
<g style="mix-blend-mode:multiply">
<path d="M23.8868 47.4082C23.8961 47.9399 23.8575 48.4713 23.7715 48.9956C23.5823 49.3429 23.7981 50.912 23.8454 51.2319C26.3799 52.043 29.0598 52.2514 31.6836 51.8412C31.74 51.6293 31.7737 51.4117 31.7842 51.1923C31.8433 50.001 31.7842 49.0017 31.7842 49.0017C31.7842 49.0017 31.8699 48.633 31.9882 48.0724C29.2708 48.2504 26.5427 48.0267 23.8868 47.4082Z" fill="#00AD37"/>
</g>
<g style="mix-blend-mode:multiply">
<path d="M24.8801 40.6367C24.4573 41.5111 24.2207 42.8243 24.0847 44.1557C26.7688 45.2113 29.6628 45.5742 32.5143 45.213C32.628 44.5083 32.6785 43.7944 32.6651 43.0802C32.6139 42.5157 32.4844 41.9617 32.2807 41.435C29.7909 41.4949 27.3039 41.2266 24.8801 40.6367Z" fill="#00AD37"/>
</g>
<path d="M23.9341 53.8164L24.3155 55.0747L28.8215 58.4262L29.9894 56.2934C29.9894 56.2934 30.7966 55.6384 30.9148 55.1448C30.9359 55.059 30.9488 54.9712 30.9533 54.8828C28.5787 54.8405 26.2194 54.4821 23.9341 53.8164Z" fill="#263238"/>
<path d="M27.1953 114.032C27.1953 114.032 27.2958 111.394 27.7866 107.537C28.2774 103.679 27.0977 98.2014 26.8996 97.2873C26.7015 96.3733 27.0001 94.3442 26.802 93.6312C26.6039 92.9183 25.646 89.8776 26.2107 86.3495C26.7754 82.8213 27.2337 73.4952 27.2337 73.4952C27.2337 73.4952 25.8115 72.3039 25.3946 70.7531C24.9777 69.2023 25.2971 68.7148 25.2971 68.7148" stroke="#263238" stroke-width="1.00396" stroke-miterlimit="10"/>
<path d="M27.8549 68.8574L27.3079 71.9773" stroke="#263238" stroke-width="1.00396" stroke-miterlimit="10"/>
</svg>
