<svg width="120" height="120" viewBox="0 0 120 120" fill="none" xmlns="http://www.w3.org/2000/svg">
<path d="M103.776 109.406H104.67L106.613 106.501V104.584C106.613 104.584 107.992 104.495 107.83 106.991C107.668 109.487 107.843 108.852 107.843 108.852C107.843 108.852 110.768 108.852 111.011 109.132C111.188 109.328 111.272 112.442 111.298 114.13C111.317 114.537 111.208 114.94 110.989 115.274C110.77 115.607 110.453 115.853 110.089 115.971C109.987 116.001 109.881 116.016 109.775 116.016C109.044 116.016 105.317 115.381 105.317 115.381H103.776V109.406Z" fill="#E0E0E0"/>
<path d="M101.225 108.883L101.773 115.414H103.301V109.014L101.225 108.883Z" fill="#E0E0E0"/>
<path d="M58.2012 11.1855L62.0402 17.0622C62.1387 17.2088 62.2689 17.3278 62.4196 17.4088C62.5703 17.4899 62.7371 17.5306 62.9057 17.5276C63.0743 17.5246 63.2397 17.4779 63.3878 17.3914C63.5359 17.305 63.6622 17.1815 63.7561 17.0314L67.4724 10.9141L58.2012 11.1855Z" fill="#E0E0E0"/>
<path d="M67.9371 1.33789H57.1589C55.4916 1.33789 54.1399 2.78623 54.1399 4.57285V11.2079C54.1399 12.9945 55.4916 14.4428 57.1589 14.4428H67.9371C69.6044 14.4428 70.9561 12.9945 70.9561 11.2079V4.57285C70.9561 2.78623 69.6044 1.33789 67.9371 1.33789Z" fill="#E0E0E0"/>
<path d="M65.8426 6.68575C65.302 5.63075 64.4088 5.46564 63.8082 5.70631C63.3845 5.90475 63.0351 6.24959 62.8158 6.68575C62.5964 6.24959 62.247 5.90475 61.8234 5.70631C61.2227 5.46564 60.3295 5.63075 59.7915 6.68575C58.6685 8.8797 62.8158 11.7565 62.8158 11.7565C62.8158 11.7565 66.9656 8.8797 65.8426 6.68575Z" fill="white"/>
<path d="M16.047 102.881H24.903C25.8485 102.881 26.7552 103.283 27.4238 104C28.0923 104.716 28.4679 105.688 28.4679 106.701V111.52C28.4679 112.533 28.0923 113.504 27.4238 114.221C26.7552 114.937 25.8485 115.339 24.903 115.339H22.5891L20.9595 117.836C20.8672 117.977 20.7439 118.092 20.6004 118.171C20.4569 118.25 20.2976 118.289 20.1364 118.287C19.9752 118.284 19.8172 118.239 19.6761 118.155C19.535 118.072 19.4152 117.952 19.3272 117.808L17.8282 115.339H16.047C15.1016 115.339 14.1948 114.937 13.5263 114.221C12.8578 113.504 12.4822 112.533 12.4822 111.52V106.701C12.4822 105.688 12.8578 104.716 13.5263 104C14.1948 103.283 15.1016 102.881 16.047 102.881Z" fill="#E0E0E0"/>
<path d="M20.1602 106.709V111.623L16.8774 109.166L20.1602 106.709Z" fill="white"/>
<path d="M24.5528 112.01C24.5528 112.01 24.3361 108.52 21.7297 108.467H20.0635V109.967L21.7062 109.992C21.7062 109.992 23.4116 109.95 24.5528 112.01Z" fill="white"/>
<path d="M21.3861 51.4347C21.6851 50.0827 20.9046 48.7271 19.6429 48.4067C18.3811 48.0864 17.1159 48.9227 16.817 50.2747C16.518 51.6267 17.2985 52.9823 18.5602 53.3027C19.822 53.623 21.0872 52.7867 21.3861 51.4347Z" fill="#E0E0E0"/>
<path d="M19.1027 53.0723C18.0381 53.0723 17.0171 53.5254 16.2643 54.332C15.5115 55.1387 15.0886 56.2327 15.0886 57.3734H23.1167C23.1167 56.2327 22.6938 55.1387 21.941 54.332C21.1883 53.5254 20.1673 53.0723 19.1027 53.0723Z" fill="#E0E0E0"/>
<path d="M84.85 3.59666C84.85 3.94259 84.7542 4.28074 84.5749 4.56836C84.3955 4.85598 84.1406 5.08016 83.8424 5.21254C83.5441 5.34491 83.2159 5.37955 82.8993 5.31206C82.5827 5.24458 82.2918 5.078 82.0635 4.8334C81.8353 4.5888 81.6798 4.27715 81.6168 3.93788C81.5538 3.59861 81.5862 3.24694 81.7097 2.92735C81.8332 2.60776 82.0425 2.3346 82.3109 2.14242C82.5793 1.95024 82.8949 1.84766 83.2177 1.84766C83.4322 1.84729 83.6446 1.89228 83.8428 1.98004C84.041 2.06781 84.221 2.19663 84.3727 2.35911C84.5243 2.52159 84.6445 2.71455 84.7264 2.92691C84.8083 3.13928 84.8503 3.36688 84.85 3.59666Z" fill="#E0E0E0"/>
<path d="M89.3785 7.68846C89.3785 8.03438 89.2828 8.37253 89.1034 8.66016C88.9241 8.94778 88.6692 9.17195 88.3709 9.30433C88.0727 9.43671 87.7445 9.47134 87.4278 9.40386C87.1112 9.33637 86.8204 9.1698 86.5921 8.92519C86.3638 8.68059 86.2084 8.36895 86.1454 8.02967C86.0824 7.6904 86.1147 7.33873 86.2383 7.01914C86.3618 6.69955 86.571 6.4264 86.8394 6.23421C87.1079 6.04203 87.4234 5.93945 87.7463 5.93945C88.1792 5.93945 88.5944 6.12372 88.9005 6.45173C89.2066 6.77973 89.3785 7.22459 89.3785 7.68846Z" fill="#E0E0E0"/>
<path d="M84.8761 11.8662C84.8761 12.2121 84.7804 12.5503 84.601 12.8379C84.4217 13.1255 84.1667 13.3497 83.8685 13.4821C83.5702 13.6144 83.242 13.6491 82.9254 13.5816C82.6088 13.5141 82.3179 13.3475 82.0896 13.1029C81.8614 12.8583 81.7059 12.5467 81.6429 12.2074C81.58 11.8681 81.6123 11.5165 81.7358 11.1969C81.8594 10.8773 82.0686 10.6041 82.337 10.4119C82.6054 10.2198 82.921 10.1172 83.2438 10.1172C83.6767 10.1172 84.0919 10.3015 84.398 10.6295C84.7041 10.9575 84.8761 11.4023 84.8761 11.8662Z" fill="#E0E0E0"/>
<path d="M83.3301 11.9722L83.1578 11.7595L87.5453 7.69345L83.1343 3.70571L83.3014 3.49023L87.9475 7.69065L83.3301 11.9722Z" fill="#E0E0E0"/>
<path d="M113.016 44.6289C112.311 43.2464 111.141 43.0338 110.358 43.3472C109.801 43.6057 109.341 44.057 109.052 44.6289C108.763 44.057 108.303 43.6057 107.746 43.3472C106.962 43.0338 105.792 43.2464 105.087 44.6289C103.63 47.4972 109.073 51.2611 109.073 51.2611C109.073 51.2611 114.486 47.4972 113.016 44.6289Z" fill="#E0E0E0"/>
<path d="M106.597 58.0614C106.093 57.0763 105.262 56.9252 104.701 57.1491C104.306 57.3342 103.981 57.6553 103.776 58.0614C103.572 57.6553 103.246 57.3342 102.852 57.1491C102.293 56.9252 101.46 57.0763 100.959 58.0614C99.9139 60.1126 103.776 62.7851 103.776 62.7851C103.776 62.7851 107.644 60.1126 106.597 58.0614Z" fill="#E0E0E0"/>
<path d="M110.835 10.375H93.421C92.3957 10.375 91.4123 10.8113 90.687 11.5879C89.9617 12.3645 89.5539 13.418 89.5532 14.5166V25.8278C89.5532 26.3719 89.6533 26.9107 89.8477 27.4134C90.0421 27.9161 90.327 28.3728 90.6862 28.7574C91.0454 29.142 91.4718 29.447 91.9411 29.655C92.4103 29.863 92.9132 29.9698 93.421 29.9695H98.8036L101.82 34.5952C101.916 34.7407 102.043 34.8589 102.191 34.9395C102.339 35.0201 102.504 35.0607 102.67 35.0577C102.836 35.0546 102.999 35.0081 103.144 34.9221C103.29 34.8362 103.413 34.7134 103.504 34.5645L106.294 29.9695H110.835C111.343 29.9698 111.846 29.863 112.315 29.655C112.784 29.4469 113.21 29.1419 113.569 28.7572C113.928 28.3726 114.213 27.9159 114.407 27.4132C114.601 26.9105 114.701 26.3718 114.7 25.8278V14.5166C114.7 13.9728 114.6 13.4342 114.406 12.9317C114.212 12.4292 113.927 11.9726 113.568 11.5881C113.209 11.2035 112.783 10.8984 112.314 10.6903C111.845 10.4821 111.343 10.375 110.835 10.375Z" fill="white"/>
<path d="M110.835 10.3762H110.966C111.094 10.3771 111.223 10.3864 111.35 10.4042C111.848 10.4656 112.329 10.6361 112.763 10.9051C113.336 11.2534 113.818 11.7523 114.162 12.355C114.506 12.9576 114.701 13.6441 114.729 14.3499C114.745 14.9292 114.729 15.5393 114.729 16.1829C114.729 18.763 114.729 21.8749 114.745 25.4177C114.761 25.8708 114.728 26.3244 114.646 26.7693C114.55 27.2277 114.381 27.665 114.147 28.0621C113.658 28.8957 112.914 29.5209 112.042 29.8307C111.592 29.9804 111.121 30.0512 110.65 30.0406H106.294L106.346 30.0098L104.75 32.6403L103.928 33.9976C103.784 34.227 103.667 34.4537 103.502 34.686C103.331 34.9207 103.082 35.0759 102.807 35.1197C102.531 35.1599 102.251 35.0859 102.024 34.9127C101.912 34.825 101.816 34.717 101.739 34.5936L101.515 34.2466L100.606 32.8474L98.7488 30.007L98.8063 30.0378H93.664C93.2979 30.0486 92.9318 30.0157 92.5724 29.9399C92.2155 29.8522 91.8705 29.7158 91.546 29.5341C90.9132 29.1653 90.3864 28.6182 90.0228 27.9518C89.6592 27.2855 89.4724 26.5253 89.4828 25.7535C89.4828 22.7843 89.4828 19.9216 89.4828 17.1931C89.4828 16.5103 89.4828 15.8387 89.4828 15.1727C89.4828 14.8397 89.4828 14.5122 89.4985 14.1792C89.5113 14.014 89.5323 13.8496 89.5612 13.6867C89.5977 13.5244 89.6317 13.3649 89.6787 13.2082C89.8713 12.5938 90.1899 12.0335 90.6111 11.5683C91.0285 11.1152 91.5366 10.7697 92.0971 10.5581C92.2309 10.5045 92.3678 10.4606 92.5071 10.4266C92.6444 10.3887 92.784 10.3616 92.9249 10.3454C93.2016 10.313 93.4798 10.2999 93.758 10.3062H98.3649L107.485 10.3314H109.963H110.608H110.828C110.828 10.3314 110.754 10.3314 110.608 10.3314H109.963H107.485L98.3649 10.4266H95.3433H93.7372C93.4642 10.42 93.1911 10.4331 92.9197 10.4657C92.7822 10.4817 92.646 10.5088 92.5123 10.5469C92.3775 10.5804 92.2449 10.6234 92.1153 10.6756C91.5805 10.8836 91.096 11.2174 90.6972 11.6523C90.2885 12.1033 89.9805 12.6477 89.7962 13.2446C89.7492 13.3957 89.7179 13.5524 89.6813 13.7091C89.6448 13.8658 89.6265 14.0253 89.6212 14.1848C89.6004 14.5066 89.6082 14.8397 89.6082 15.1699V17.1903C89.6082 19.9188 89.6082 22.7871 89.6082 25.7507C89.5988 26.4964 89.7797 27.2307 90.1313 27.8743C90.483 28.5179 90.992 29.0463 91.6035 29.4026C91.9159 29.5792 92.2487 29.7109 92.5933 29.7944C92.943 29.8699 93.2997 29.9018 93.6562 29.8895H98.8246L98.8455 29.9203L100.7 32.7607L101.609 34.1599L101.833 34.5041C101.904 34.6135 101.992 34.7083 102.094 34.7839C102.293 34.9399 102.54 35.0067 102.784 34.9702C103.028 34.9336 103.249 34.7965 103.4 34.588C103.541 34.3754 103.68 34.1347 103.818 33.9108C104.098 33.4556 104.373 33.0032 104.643 32.5536L106.244 29.9231L106.262 29.8923H110.663C111.122 29.9063 111.58 29.8392 112.018 29.6936C112.866 29.3965 113.59 28.7905 114.063 27.981C114.293 27.5968 114.458 27.1725 114.552 26.7273C114.634 26.291 114.668 25.8457 114.651 25.4009C114.651 21.8609 114.651 18.749 114.667 16.1661C114.667 15.5225 114.667 14.9096 114.667 14.3359C114.645 13.8033 114.526 13.2804 114.317 12.7968C113.987 12.0185 113.439 11.3692 112.75 10.9387C112.321 10.6672 111.846 10.4911 111.353 10.421C111.226 10.4008 111.099 10.3877 110.971 10.3818L110.835 10.3762Z" fill="#263238"/>
<path d="M102.625 16.3965V24.1257L107.788 20.2611L102.625 16.3965Z" fill="#00AD37"/>
<path d="M95.7144 24.7365C95.7144 24.7365 96.0565 19.2461 100.154 19.1621H102.766V21.524L100.183 21.5631C100.183 21.5631 97.4903 21.496 95.7144 24.7365Z" fill="#00AD37"/>
<path d="M87.2944 98.3828H116.96C118.613 98.3828 119.953 96.947 119.953 95.1758V70.5722C119.953 68.801 118.613 67.3652 116.96 67.3652H87.2944C85.6414 67.3652 84.3015 68.801 84.3015 70.5722V95.1758C84.3015 96.947 85.6414 98.3828 87.2944 98.3828Z" fill="white"/>
<path d="M100.695 97.4336C100.329 98.3823 93.2593 105.504 93.2593 105.504V97.4336H100.695Z" fill="#455A64"/>
<path d="M97.9577 90.9391C97.9577 89.9597 97.9577 89.1425 97.9577 89.0418C97.9577 89.0418 94.8682 88.7284 94.6462 85.4514C94.5391 83.8675 94.5652 80.5822 94.6227 77.6159C94.6524 76.0776 95.2216 74.6078 96.2172 73.499C97.2127 72.3903 98.5614 71.724 99.9948 71.6329L100.29 71.6133C103.489 71.6133 105.278 74.5152 105.195 77.9405L105.082 90.7936L99.9112 95.2459L99.5352 95.2095L97.9577 90.9391Z" fill="#FFBF9D"/>
<path d="M97.9524 89.041C99.3669 88.9461 100.726 88.4188 101.87 87.5215C101.87 87.5215 101.031 89.9813 97.9524 89.8833V89.041Z" fill="#FF9A6C"/>
<path d="M99.8276 79.0294C99.8876 79.0965 100.243 78.7971 100.755 78.7887C101.267 78.7803 101.648 79.0546 101.703 78.9846C101.758 78.9146 101.666 78.8335 101.502 78.7047C101.279 78.54 101.014 78.4547 100.744 78.4613C100.476 78.4665 100.217 78.5647 100.005 78.7411C99.8484 78.8755 99.7988 78.9986 99.8276 79.0294Z" fill="#263238"/>
<path d="M100.206 80.5161C100.211 80.6317 100.258 80.7406 100.337 80.8192C100.416 80.8978 100.521 80.9397 100.629 80.9359C100.682 80.9374 100.735 80.9275 100.784 80.9068C100.833 80.886 100.878 80.8549 100.916 80.8152C100.953 80.7755 100.983 80.7281 101.004 80.6757C101.024 80.6234 101.034 80.5672 101.034 80.5105C101.029 80.395 100.981 80.2862 100.902 80.2074C100.823 80.1285 100.719 80.0857 100.611 80.088C100.558 80.0869 100.505 80.0971 100.456 80.1182C100.407 80.1392 100.362 80.1706 100.324 80.2105C100.286 80.2504 100.257 80.298 100.236 80.3505C100.216 80.403 100.206 80.4593 100.206 80.5161Z" fill="#263238"/>
<path d="M98.4983 82.8259C98.242 82.7582 97.9787 82.7253 97.7148 82.728C97.5946 82.728 97.4797 82.7056 97.4536 82.6188C97.4364 82.4857 97.4573 82.35 97.5137 82.2299C97.6077 81.9136 97.7069 81.5778 97.814 81.228C98.2293 79.8008 98.5218 78.6283 98.4669 78.6115C98.4121 78.5947 98.0334 79.7309 97.6181 81.1665C97.5189 81.5163 97.4223 81.8521 97.3335 82.1739C97.2665 82.3341 97.2545 82.5144 97.2995 82.6832C97.3191 82.7275 97.3479 82.7664 97.3836 82.7969C97.4194 82.8275 97.4612 82.8489 97.5058 82.8595C97.5737 82.874 97.643 82.8797 97.7122 82.8763C97.9751 82.898 98.2396 82.8811 98.4983 82.8259Z" fill="#263238"/>
<path d="M100.081 77.2632C100.13 77.3864 100.54 77.2996 101.031 77.336C101.522 77.3724 101.925 77.4899 101.982 77.3724C102.008 77.3192 101.932 77.2045 101.768 77.0925C101.55 76.958 101.305 76.8804 101.054 76.8658C100.802 76.8512 100.551 76.9001 100.321 77.0086C100.146 77.1009 100.06 77.2073 100.081 77.2632Z" fill="#263238"/>
<path d="M95.278 77.5768C95.3302 77.6776 95.7324 77.5768 96.2156 77.5628C96.6987 77.5488 97.1009 77.6244 97.1532 77.5209C97.1767 77.4733 97.0983 77.3837 96.9312 77.3026C96.7047 77.202 96.4606 77.1552 96.2156 77.1655C95.9678 77.1695 95.7238 77.2306 95.5 77.3446C95.3329 77.4369 95.2545 77.5292 95.278 77.5768Z" fill="#263238"/>
<path d="M105.077 80.3819C105.126 80.354 107.142 79.5788 107.203 81.8259C107.263 84.073 105.142 83.6729 105.137 83.6085C105.131 83.5441 105.077 80.3819 105.077 80.3819Z" fill="#FFBF9D"/>
<path d="M105.756 82.7379C105.756 82.7379 105.793 82.7659 105.855 82.7939C105.943 82.832 106.041 82.832 106.129 82.7939C106.349 82.6988 106.524 82.3182 106.524 81.9124C106.525 81.719 106.485 81.5279 106.409 81.3527C106.387 81.2829 106.35 81.2197 106.3 81.1685C106.25 81.1174 106.19 81.0798 106.124 81.0589C106.082 81.048 106.037 81.0535 105.999 81.0745C105.96 81.0956 105.929 81.1307 105.913 81.1736C105.887 81.238 105.913 81.28 105.889 81.2856C105.866 81.2912 105.842 81.2492 105.858 81.1568C105.868 81.1005 105.896 81.0494 105.936 81.0113C105.964 80.9868 105.996 80.9686 106.031 80.958C106.065 80.9474 106.102 80.9446 106.137 80.9498C106.224 80.966 106.305 81.0053 106.373 81.064C106.442 81.1227 106.495 81.1989 106.529 81.2856C106.622 81.4785 106.67 81.6925 106.67 81.9096C106.67 82.363 106.464 82.7911 106.163 82.8947C106.107 82.9143 106.048 82.9203 105.99 82.9121C105.932 82.9038 105.876 82.8816 105.826 82.8471C105.761 82.7911 105.748 82.7547 105.756 82.7379Z" fill="#FF9A6C"/>
<path d="M99.1484 84.7371C99.1249 84.6811 99.5376 84.5552 99.8327 84.1438C99.9556 83.9649 100.056 83.7691 100.13 83.5618C100.193 83.3995 100.24 83.2987 100.264 83.3071C100.287 83.3155 100.277 83.4247 100.243 83.587C100.195 83.8243 100.099 84.0477 99.9632 84.2418C99.8228 84.4352 99.6359 84.5842 99.4226 84.6728C99.2607 84.7539 99.1484 84.7567 99.1484 84.7371Z" fill="#263238"/>
<path d="M107.908 76.7848C107.48 75.9844 107.386 75.0386 107.161 74.1515C106.936 73.2644 106.485 72.3409 105.68 72.0219H105.662C104.938 71.6973 104.043 71.6805 103.439 72.215C103.306 71.0452 102.363 70.105 101.303 69.7915C100.243 69.4781 98.5348 69.6348 97.5084 70.0714C96.7249 70.3988 95.9415 71.0872 95.0065 72.0974C94.6104 72.5233 94.247 72.9828 93.9201 73.4714L92.959 76.5161L93.7425 78.1308C93.7895 78.2427 93.8365 78.3519 93.8939 78.461L94.5677 81.8527C94.6252 80.932 94.6017 77.7222 94.6565 76.8016C95.3041 76.7895 95.9427 76.6376 96.5342 76.3549C97.1256 76.0721 97.6577 75.6644 98.0986 75.1561C98.574 74.5964 98.9526 73.9108 99.5847 73.5862C100.402 73.1664 101.363 73.4938 102.215 73.8212L102.178 73.7877C102.621 74.0142 103.02 74.3307 103.351 74.7195C103.136 76.5393 103.291 78.3871 103.802 80.1373C103.881 80.4003 104.092 80.9432 104.325 81.0439C104.795 81.2454 104.928 80.7333 105.213 80.4647C105.465 80.2839 105.771 80.2083 106.072 80.252C106.317 79.4908 106.519 78.7142 106.675 77.9265C106.959 78.0254 107.26 78.0512 107.555 78.0021L107.294 77.3053C107.405 77.3949 107.532 77.4587 107.668 77.4928C107.736 77.5078 107.806 77.5003 107.87 77.4713C107.934 77.4423 107.988 77.3932 108.025 77.3304C108.104 77.1597 107.997 76.9499 107.908 76.7848Z" fill="#263238"/>
<path d="M102.473 72.582C102.582 72.6747 102.683 72.7767 102.776 72.8871C103.014 73.2036 103.171 73.5805 103.233 73.9812C103.283 74.2578 103.306 74.5392 103.301 74.8208C103.301 75.123 103.272 75.4448 103.246 75.7862C103.214 76.1433 103.202 76.5021 103.21 76.8608C103.219 77.0486 103.24 77.2355 103.272 77.4205C103.296 77.6231 103.368 77.8158 103.481 77.9802C103.534 78.0445 103.601 78.0931 103.677 78.1216C103.752 78.15 103.833 78.1572 103.912 78.1425C104.063 78.1137 104.2 78.0331 104.304 77.913C104.473 77.6672 104.578 77.3773 104.607 77.0735H104.544C104.633 77.3216 104.755 77.5545 104.907 77.7647C105.053 77.9606 105.265 78.0881 105.497 78.1201C105.605 78.134 105.715 78.1156 105.813 78.0669C105.905 78.0167 105.98 77.9389 106.03 77.843C106.075 77.7578 106.099 77.6613 106.098 77.5632C106.096 77.4681 106.063 77.3767 106.004 77.3057L105.97 77.3365C106.15 77.5617 106.371 77.7446 106.62 77.8738C106.687 77.9072 106.755 77.9362 106.824 77.9606C106.847 77.9714 106.872 77.978 106.897 77.9802L106.829 77.9494C106.782 77.927 106.717 77.899 106.631 77.8514C106.391 77.7153 106.178 77.5299 106.004 77.3057L105.973 77.3365C106.022 77.4063 106.049 77.4906 106.051 77.5778C106.054 77.665 106.031 77.7508 105.986 77.8235C105.941 77.9096 105.873 77.979 105.79 78.0221C105.7 78.0659 105.6 78.0814 105.503 78.0669C105.287 78.0335 105.092 77.9134 104.957 77.7311C104.81 77.5242 104.692 77.2962 104.604 77.0539L104.562 76.9476L104.542 77.0595C104.51 77.3467 104.411 77.6205 104.252 77.8542C104.159 77.9611 104.036 78.0328 103.902 78.0585C103.835 78.0722 103.766 78.0667 103.702 78.0426C103.637 78.0185 103.58 77.9767 103.536 77.9214C103.431 77.7698 103.364 77.5913 103.343 77.4037C103.309 77.2191 103.288 77.032 103.28 76.844C103.272 76.4883 103.282 76.1323 103.311 75.7778C103.335 75.4364 103.361 75.1118 103.361 74.8068C103.362 74.5248 103.335 74.2435 103.283 73.9672C103.216 73.5598 103.048 73.179 102.797 72.8647C102.704 72.7521 102.595 72.6566 102.473 72.582Z" fill="#455A64"/>
<path d="M92.9773 75.6407C92.9773 75.6407 92.9773 75.6407 93.0008 75.6631L93.0765 75.7246C93.1172 75.7576 93.16 75.7876 93.2045 75.8142C93.2639 75.8543 93.3259 75.8898 93.3899 75.9205C93.7968 76.1285 94.2455 76.2246 94.6957 76.2004C95.3644 76.162 96.0084 75.9171 96.55 75.4952C97.2033 74.9733 97.7506 74.3144 98.1587 73.5587C98.3859 73.1669 98.5714 72.7611 98.7751 72.3889C98.963 72.0261 99.1977 71.6936 99.4724 71.4011C99.7201 71.138 100.025 70.9456 100.36 70.8414C100.512 70.7987 100.669 70.7817 100.825 70.791C100.97 70.8019 101.112 70.8339 101.248 70.8862C101.485 70.976 101.7 71.1192 101.88 71.3059C102.018 71.4457 102.133 71.6094 102.22 71.7901C102.287 71.9481 102.339 72.1132 102.374 72.2826C102.374 72.2714 102.374 72.2602 102.374 72.249C102.374 72.221 102.374 72.1874 102.374 72.1483C102.349 72.0204 102.311 71.8956 102.262 71.7761C102.176 71.5902 102.062 71.4209 101.925 71.2752C101.638 70.9597 101.253 70.7667 100.843 70.7323C100.681 70.7202 100.518 70.7372 100.36 70.7826C100.015 70.8837 99.6989 71.0762 99.441 71.3423C99.1605 71.6369 98.9212 71.9734 98.7307 72.3414C98.5244 72.7191 98.3389 73.1221 98.1117 73.5111C97.7088 74.2584 97.1697 74.9113 96.5265 75.4308C95.9928 75.8493 95.3584 76.095 94.6983 76.1388C94.2555 76.1693 93.8122 76.0858 93.4056 75.8953C93.1157 75.7582 92.9825 75.6295 92.9773 75.6407Z" fill="#455A64"/>
<path d="M95.1555 79.1672C95.2155 79.2344 95.5733 78.9349 96.0852 78.9293C96.5971 78.9237 96.9758 79.1952 97.0306 79.1252C97.0855 79.0553 96.9967 78.9713 96.8295 78.8454C96.6074 78.6806 96.3423 78.5954 96.0722 78.6019C95.8042 78.6081 95.5452 78.7062 95.3331 78.8818C95.179 79.0133 95.1268 79.1392 95.1555 79.1672Z" fill="#263238"/>
<path d="M95.939 80.5915C95.9444 80.7071 95.9916 80.8158 96.0706 80.8947C96.1496 80.9736 96.2541 81.0164 96.3621 81.0141C96.4151 81.0152 96.4677 81.0049 96.517 80.9839C96.5662 80.9629 96.611 80.9314 96.6488 80.8915C96.6865 80.8516 96.7164 80.804 96.7367 80.7515C96.757 80.699 96.7672 80.6427 96.7669 80.5859C96.7614 80.4706 96.7141 80.3622 96.6351 80.2837C96.556 80.2053 96.4515 80.1631 96.3438 80.1662C96.2909 80.1647 96.2383 80.1746 96.189 80.1953C96.1398 80.2161 96.095 80.2472 96.0572 80.2869C96.0194 80.3266 95.9895 80.374 95.9692 80.4263C95.9489 80.4787 95.9386 80.5348 95.939 80.5915Z" fill="#263238"/>
<path d="M94.1864 73.0918C93.9252 73.4612 93.5257 73.797 93.0973 73.7466C92.9418 73.7115 92.7891 73.6638 92.6403 73.6039C92.4915 73.7018 92.5254 74.2503 92.6403 74.4015C92.7375 74.5298 92.845 74.6487 92.9615 74.7569C92.4575 75.0367 92.0005 74.9052 91.4651 74.6953C91.5189 75.1858 91.692 75.6525 91.967 76.0488C92.242 76.4451 92.6092 76.7571 93.0321 76.9536C93.1613 77.0279 93.3053 77.0682 93.4519 77.0711C93.5986 77.074 93.7438 77.0395 93.8756 76.9704C94.078 76.7936 94.2112 76.542 94.2491 76.2652C94.4889 75.2818 94.6152 74.2705 94.6251 73.2541L94.1864 73.0918Z" fill="#263238"/>
<path d="M90.9585 94.6388L91.0133 94.5633C93.463 91.7845 97.9733 90.8554 97.9733 90.8554C97.9733 90.8554 98.2501 92.6744 100.778 92.8786C103.306 93.0829 105.155 90.3125 105.155 90.3125L108.55 90.8274C108.55 90.8274 110.248 91.0429 111.303 91.7089C113.685 93.2089 114.959 98.3831 114.959 98.3831L88.9475 98.4978L90.9585 94.6388Z" fill="#455A64"/>
<path d="M88.5794 67.3642L88.3965 67.3782L88.1719 67.395C88.0831 67.395 87.9813 67.4258 87.8638 67.4454C87.1755 67.571 86.5274 67.8788 85.9782 68.3408C85.5779 68.6754 85.2365 69.0839 84.9701 69.547C84.649 70.1024 84.444 70.7258 84.3694 71.3743C84.3346 71.7387 84.3224 72.1052 84.3329 72.4713C84.3329 72.8491 84.3329 73.2437 84.3329 73.6466C84.3329 74.4582 84.3329 75.3257 84.3329 76.2268C84.3329 79.8647 84.3329 84.2526 84.3459 89.2646C84.3459 90.5182 84.3459 91.8092 84.3459 93.1376C84.3459 93.4678 84.3459 93.8036 84.3642 94.1338C84.3874 94.4675 84.4435 94.7977 84.5314 95.1188C84.7201 95.7725 85.0452 96.3715 85.482 96.8706C85.9235 97.3879 86.4742 97.7842 87.0881 98.0264L87.3206 98.1159L87.5608 98.1831C87.7224 98.2261 87.8864 98.2579 88.0518 98.2782C88.3877 98.3125 88.7252 98.3256 89.0625 98.3174H93.309V98.3818C93.309 100.634 93.309 103.038 93.309 105.504L93.2019 105.453C94.3023 104.334 95.4192 103.187 96.5526 102.011C97.6808 100.825 98.8352 99.6215 99.9347 98.3342L99.9556 98.3118H115.189C115.469 98.3118 115.745 98.3118 116.017 98.295C116.831 98.2215 117.607 97.8958 118.25 97.3576C118.894 96.8194 119.378 96.0921 119.642 95.2644C119.81 94.7233 119.888 94.1552 119.874 93.5853V91.8503C119.874 87.2749 119.874 82.859 119.874 78.653C119.874 76.5523 119.874 74.5001 119.874 72.4965C119.893 72.0059 119.865 71.5146 119.791 71.0301C119.697 70.5599 119.537 70.1079 119.315 69.6897C119.097 69.2776 118.817 68.9062 118.488 68.5899C118.168 68.2747 117.803 68.0167 117.406 67.8259C117.018 67.6347 116.604 67.5092 116.179 67.4537C115.758 67.4155 115.335 67.4024 114.912 67.4146H112.434H107.775L93.7164 67.3922L89.893 67.3782H93.7164L107.775 67.3558H112.434H114.912C115.34 67.3439 115.768 67.357 116.195 67.395C116.63 67.4513 117.055 67.5797 117.453 67.7756C117.861 67.9708 118.237 68.2354 118.566 68.5591C118.904 68.881 119.191 69.2589 119.417 69.6785C119.644 70.1083 119.809 70.5725 119.906 71.0553C119.983 71.5478 120.013 72.0477 119.994 72.5469C119.994 74.5393 119.994 76.5915 119.994 78.7034C119.994 82.901 119.994 87.3253 119.994 91.9007V93.6245C120.009 94.2132 119.929 94.8002 119.757 95.3595C119.477 96.1981 118.978 96.9329 118.32 97.4766C117.661 98.0203 116.871 98.35 116.043 98.4266C115.758 98.4489 115.479 98.4489 115.202 98.4461H100L100.05 98.4238C98.9422 99.7138 97.7879 100.917 96.6545 102.104C95.521 103.29 94.398 104.435 93.2985 105.546L93.1889 105.655V105.495C93.1889 103.03 93.1889 100.626 93.1889 98.3734L93.2515 98.4405H89.073C88.7304 98.4512 88.3876 98.4381 88.0466 98.4014C87.8772 98.3819 87.7096 98.3482 87.5452 98.3006L87.2971 98.2335L87.0568 98.1411C86.4264 97.8904 85.8607 97.4827 85.4062 96.9518C84.9607 96.4365 84.6287 95.8206 84.4347 95.1496C84.3445 94.8204 84.2876 94.4817 84.265 94.1394C84.2415 93.798 84.2493 93.465 84.2493 93.1348C84.2493 91.8064 84.2493 90.5154 84.2493 89.2618C84.2493 84.2498 84.2493 79.8563 84.2624 76.224C84.2624 75.3145 84.2624 74.4554 84.2624 73.6438C84.2624 73.2409 84.2624 72.8463 84.2624 72.4685C84.2528 72.0995 84.2659 71.7303 84.3015 71.3631C84.374 70.7625 84.5564 70.1832 84.8383 69.6583C85.1202 69.1334 85.496 68.6733 85.9442 68.3045C86.5001 67.8424 87.1559 67.5383 87.8507 67.4202C87.9682 67.4034 88.0701 67.381 88.1615 67.3754H88.3861L88.5794 67.3642Z" fill="#263238"/>
<path d="M7.80474 37.6211L43.7327 37.6211C45.7535 37.6211 47.3916 35.8658 47.3916 33.7005L47.3916 3.91984C47.3916 1.75457 45.7535 -0.000736237 43.7327 -0.000736237L7.80474 -0.000736237C5.784 -0.000736237 4.14587 1.75457 4.14587 3.91984L4.14587 33.7005C4.14587 35.8658 5.784 37.6211 7.80474 37.6211Z" fill="white"/>
<path d="M24.0308 36.4727C23.5868 37.6228 15.0103 46.2671 15.0103 46.2671V36.4727H24.0308Z" fill="#455A64"/>
<path d="M34.5215 16.5116C34.5424 14.5527 34.8323 12.5938 34.7618 10.6349C34.6913 8.67604 34.2081 6.6304 32.9336 5.2256C31.6592 3.8208 29.4393 3.26671 27.9455 4.41686L27.6399 6.09591C28.2284 13.6647 28.8169 21.2325 29.4053 28.7994C29.4811 29.7928 29.5647 30.8171 29.9877 31.7042C30.4108 32.5913 31.257 33.3272 32.1867 33.2657C33.4011 33.1873 34.2003 31.8665 34.5763 30.6268C35.9474 26.1129 34.4667 21.2437 34.5215 16.5116Z" fill="#263238"/>
<path d="M30.1156 6.33719C29.8716 5.83866 29.558 5.38288 29.1859 4.98556C28.9973 4.7888 28.7697 4.64008 28.5202 4.55045C28.2706 4.46083 28.0054 4.4326 27.7442 4.46786C27.6212 4.4842 27.5042 4.5339 27.4041 4.61225C27.304 4.6906 27.2242 4.79501 27.1723 4.9156C27.0913 5.16746 27.2637 5.50047 27.5118 5.47528L27.564 5.52286C28.1125 6.04336 28.6688 6.55267 29.2381 7.04799C29.3728 7.18287 29.5307 7.28837 29.703 7.35861C29.7914 7.39438 29.8876 7.40232 29.9801 7.3815C30.0727 7.36068 30.1577 7.31196 30.2253 7.24108C30.4185 7.00042 30.2697 6.61983 30.1156 6.33719Z" fill="#00AD37"/>
<path d="M31.1499 8.26472C29.3218 5.87208 26.8747 4.49806 23.9915 4.44489C22.367 4.4169 21.6932 4.7779 20.5232 5.11651C19.3492 5.42159 18.3128 6.15964 17.5956 7.20132C16.7677 8.46341 16.0704 9.8766 15.9137 11.4129C15.757 12.9493 15.5899 14.5639 15.7022 16.1562C15.8145 17.7485 16.2245 19.3296 17.0811 20.6141L20.8366 21.3109C22.9103 21.3865 25.0152 21.4592 27.0314 20.9527C29.0475 20.4462 31.0167 19.2737 32.0979 17.3847C33.597 14.7374 32.9754 10.6546 31.1499 8.26472Z" fill="#263238"/>
<path d="M20.8211 28.4413C20.8472 27.0421 20.8916 25.2595 20.8916 25.2679C20.8916 25.2763 17.8308 24.9069 16.9741 20.7009C16.5537 18.6105 16.4753 15.146 16.4962 12.3056C16.5145 9.75349 18.5437 6.27506 21.487 6.26387L22.7928 6.10156L27.7967 8.23395C28.1456 8.2533 28.4751 8.412 28.7201 8.67877C28.9652 8.94554 29.1082 9.30102 29.1208 9.67513L29.3088 28.1642L26.1017 33.9038L20.3562 29.1465L20.8211 28.4413Z" fill="#B56760"/>
<path d="M22.8685 19.7162C22.8409 19.4979 22.7385 19.2984 22.5812 19.1565C22.4379 19.024 22.2577 18.9461 22.0687 18.935C21.8797 18.9238 21.6926 18.9801 21.5366 19.0949C21.3752 19.2278 21.2499 19.4045 21.1736 19.6067C21.0974 19.809 21.073 20.0294 21.1031 20.2451C21.1894 20.3742 21.3005 20.4822 21.4288 20.5618C21.5571 20.6415 21.6998 20.6909 21.8474 20.7068H21.9858C22.2209 20.7012 22.4454 20.6013 22.6152 20.427C22.7038 20.3359 22.7725 20.225 22.8163 20.1021C22.8601 19.9791 22.8779 19.8474 22.8685 19.7162Z" fill="#8A4A43"/>
<path d="M18.0867 15.5967C18.0921 15.7395 18.1501 15.8742 18.248 15.9712C18.3459 16.0682 18.4757 16.1198 18.609 16.1144C18.6732 16.1156 18.737 16.103 18.7967 16.0775C18.8564 16.052 18.9107 16.0141 18.9566 15.966C19.0025 15.9178 19.0391 15.8604 19.0641 15.797C19.0892 15.7336 19.1023 15.6656 19.1026 15.5967C19.0933 15.4552 19.0342 15.3227 18.9373 15.2261C18.8403 15.1295 18.7127 15.0759 18.5803 15.0762C18.5158 15.0751 18.4518 15.0878 18.392 15.1134C18.3321 15.1391 18.2776 15.1772 18.2317 15.2257C18.1858 15.2741 18.1493 15.3319 18.1244 15.3956C18.0995 15.4593 18.0867 15.5277 18.0867 15.5967Z" fill="#263238"/>
<path d="M17.4049 13.7274C17.4728 13.7945 17.8411 13.4671 18.3869 13.4475C18.9327 13.4279 19.3506 13.6854 19.4054 13.6126C19.4603 13.5399 19.361 13.4531 19.1808 13.3328C18.9353 13.1706 18.6487 13.0943 18.3608 13.1145C18.0746 13.1289 17.8002 13.2407 17.5773 13.4335C17.4206 13.5651 17.371 13.6966 17.4049 13.7274Z" fill="#263238"/>
<path d="M20.9152 18.3196C20.6218 18.2383 20.3198 18.1979 20.0168 18.1992C19.8757 18.1992 19.7426 18.1685 19.7138 18.0705C19.693 17.9161 19.7177 17.7586 19.7843 17.62L20.1369 16.4586C20.6279 14.8048 20.9752 13.4475 20.9204 13.4279C20.8656 13.4084 20.3981 14.7292 19.9201 16.3859L19.578 17.5556C19.4992 17.7409 19.4844 17.9502 19.5362 18.1461C19.5587 18.1978 19.5921 18.2432 19.6338 18.2787C19.6755 18.3141 19.7244 18.3387 19.7765 18.3504C19.8544 18.3692 19.9344 18.3768 20.0142 18.3727C20.3154 18.3958 20.6181 18.3779 20.9152 18.3196Z" fill="#263238"/>
<path d="M20.8915 25.2668C22.7567 25.1862 24.5645 24.5537 26.1147 23.4395C26.1147 23.4395 24.8533 26.4617 20.8706 26.2994L20.8915 25.2668Z" fill="#8A4A43"/>
<path d="M22.5421 18.6271C22.4533 18.6271 22.4846 19.2623 22.0015 19.7465C21.5183 20.2306 20.8811 20.1942 20.8811 20.2838C20.8811 20.3257 21.0274 20.3985 21.2964 20.3929C21.6435 20.3756 21.9741 20.2291 22.2313 19.9787C22.4765 19.7367 22.626 19.4033 22.6492 19.0469C22.657 18.7754 22.5839 18.6215 22.5421 18.6271Z" fill="#263238"/>
<path d="M17.5904 11.6789C17.6896 11.8161 18.1127 11.6957 18.5933 11.7097C19.0738 11.7237 19.4969 11.8385 19.5961 11.7097C19.6405 11.6426 19.5804 11.5082 19.4055 11.3739C19.1631 11.2126 18.8841 11.1252 18.5988 11.1212C18.3134 11.1173 18.0325 11.1969 17.7863 11.3515C17.6087 11.4775 17.546 11.6118 17.5904 11.6789Z" fill="#263238"/>
<path d="M24.3024 15.4458C24.3067 15.5879 24.2588 15.7262 24.1689 15.8309C24.0791 15.9355 23.9545 15.9982 23.8219 16.0055C23.7581 16.0108 23.6939 16.0026 23.633 15.9813C23.5722 15.9599 23.5159 15.9259 23.4673 15.8812C23.4188 15.8365 23.379 15.7819 23.3502 15.7206C23.3214 15.6593 23.3042 15.5926 23.2996 15.5242C23.2953 15.382 23.3432 15.2437 23.4331 15.1391C23.523 15.0344 23.6476 14.9717 23.7801 14.9645C23.8439 14.9591 23.9081 14.9674 23.969 14.9887C24.0298 15.01 24.0861 15.044 24.1347 15.0888C24.1832 15.1335 24.223 15.1881 24.2518 15.2493C24.2806 15.3106 24.2978 15.3774 24.3024 15.4458Z" fill="#263238"/>
<path d="M24.7957 13.5007C24.7331 13.5735 24.3439 13.274 23.7981 13.288C23.2523 13.302 22.8553 13.5986 22.7926 13.5287C22.7299 13.4587 22.8266 13.3692 22.9989 13.2293C23.2329 13.0497 23.5129 12.952 23.8007 12.9494C24.0851 12.9445 24.3638 13.0355 24.5973 13.2097C24.767 13.3412 24.8271 13.4699 24.7957 13.5007Z" fill="#263238"/>
<path d="M24.4562 11.6255C24.3517 11.7598 23.9339 11.6255 23.4116 11.6255C22.8892 11.6255 22.4766 11.7318 22.3669 11.5947C22.3225 11.5275 22.3878 11.3932 22.5732 11.2645C22.828 11.1076 23.1172 11.0264 23.4111 11.0294C23.7049 11.0323 23.9927 11.1193 24.2447 11.2812C24.4562 11.424 24.5137 11.5583 24.4562 11.6255Z" fill="#263238"/>
<path d="M28.4547 16.8053C28.439 16.4891 28.7394 15.7223 29.0292 15.6579C29.8127 15.4816 31.2047 15.4676 31.3249 17.5804C31.492 20.4712 28.7498 20.0542 28.7394 19.9731C28.7289 19.8919 28.5069 17.8939 28.4547 16.8053Z" fill="#B56760"/>
<path d="M29.4185 18.8665C29.4185 18.8665 29.4681 18.8973 29.549 18.9309C29.6622 18.9793 29.7884 18.9793 29.9016 18.9309C30.1784 18.7994 30.39 18.2984 30.3743 17.7779C30.3698 17.5245 30.3108 17.2755 30.2019 17.0504C30.1716 16.9615 30.1214 16.882 30.0559 16.8186C29.9904 16.7552 29.9114 16.7099 29.8259 16.6866C29.7722 16.6772 29.7172 16.6876 29.6697 16.716C29.6223 16.7445 29.5853 16.7893 29.5647 16.8433C29.5334 16.9272 29.5647 16.9832 29.5386 16.9888C29.5125 16.9944 29.4785 16.944 29.4942 16.8237C29.5042 16.7513 29.5374 16.685 29.5882 16.6362C29.6607 16.5702 29.7544 16.537 29.8494 16.5438C29.9624 16.5599 30.0697 16.6066 30.1611 16.6796C30.2525 16.7525 30.325 16.8494 30.3717 16.9608C30.502 17.203 30.5738 17.4761 30.5806 17.7556C30.5963 18.3404 30.3508 18.9029 29.9669 19.0484C29.8961 19.0766 29.8201 19.0869 29.745 19.0787C29.6698 19.0704 29.5974 19.0438 29.5334 19.0008C29.4315 18.9365 29.4185 18.8721 29.4185 18.8665Z" fill="#8A4A43"/>
<path d="M29.1388 15.6673L28.4545 16.4368C25.5008 13.3922 19.7082 5.80288 20.0321 6.24503C21.3807 5.70389 22.8346 5.53453 24.2603 5.75251C26.4619 6.15548 30.6352 7.33361 30.5726 10.1152C30.5099 12.8969 29.1388 15.6673 29.1388 15.6673Z" fill="#263238"/>
<path d="M33.0589 15.0362C33.0512 14.9786 33.0372 14.9223 33.0172 14.8683C32.969 14.7107 32.9078 14.5581 32.8343 14.4121C32.5556 13.8758 32.1705 13.4116 31.7061 13.0521C31.0178 12.5257 30.2501 12.13 29.4366 11.8824C28.533 11.5689 27.5171 11.3227 26.5195 10.8637C25.5765 10.4422 24.6818 9.90605 23.853 9.26585C23.1775 8.74062 22.5481 8.15051 21.9726 7.50285C21.585 7.064 21.2214 6.60148 20.8836 6.11764L20.6224 5.72026C20.5927 5.67275 20.5595 5.62783 20.5232 5.58594C20.5413 5.64007 20.5668 5.69101 20.5989 5.73705C20.6564 5.8322 20.7373 5.97492 20.8601 6.15122C21.1822 6.65098 21.5365 7.126 21.9204 7.57281C22.4909 8.23676 23.1197 8.84027 23.7982 9.37498C24.6305 10.0294 25.5326 10.5752 26.4855 11.0009C27.4462 11.3923 28.4252 11.7304 29.4184 12.0139C30.2216 12.2503 30.9825 12.6286 31.6696 13.1332C32.1288 13.4794 32.5164 13.9233 32.8082 14.4373C32.9858 14.8011 33.0459 15.0362 33.0589 15.0362Z" fill="#455A64"/>
<path d="M32.2728 15.4824C32.2812 15.2669 32.2455 15.052 32.1683 14.8527C31.9665 14.2994 31.6133 13.8244 31.155 13.4899C30.5935 13.0394 29.7891 12.7623 28.9038 12.5441C27.9413 12.3395 27.0031 12.0204 26.1068 11.5926C25.2145 11.1568 24.3766 10.6031 23.6127 9.94434C22.9886 9.40532 22.4156 8.80167 21.9021 8.14216C21.5578 7.69715 21.2395 7.22986 20.9488 6.74296L20.7216 6.33439C20.6974 6.28492 20.6676 6.23886 20.6328 6.19727C20.6475 6.25035 20.6685 6.30115 20.6955 6.34838L20.9044 6.76814C21.1779 7.27238 21.4861 7.7541 21.8263 8.20932C22.3351 8.88346 22.9065 9.50042 23.5317 10.0507C24.3014 10.722 25.1473 11.2862 26.0493 11.7297C26.9544 12.1604 27.9025 12.4787 28.8751 12.6784C29.7578 12.8855 30.5465 13.1485 31.1002 13.5767C31.5489 13.8946 31.9025 14.3445 32.1187 14.8723C32.1872 15.0703 32.2388 15.2744 32.2728 15.4824Z" fill="#455A64"/>
<path d="M29.0503 20.5614C29.0503 20.5418 29.2801 20.5082 29.6797 20.3963C30.2402 20.2212 30.7563 19.9121 31.1892 19.4924C31.8212 18.8575 32.3021 18.0697 32.5916 17.1949C32.959 16.1258 33.1568 14.9983 33.1766 13.8592C33.1881 13.2711 33.1443 12.6833 33.0461 12.1046C32.9436 11.5689 32.7932 11.045 32.5969 10.5403C32.2564 9.68394 31.7841 8.89499 31.1997 8.20639C30.6472 7.5867 30.0412 7.02451 29.3898 6.52734C29.4428 6.5467 29.4929 6.57402 29.5387 6.6085C29.6327 6.67286 29.7763 6.75681 29.9461 6.88834C30.4361 7.24872 30.888 7.66535 31.2937 8.13083C31.9015 8.81966 32.3936 9.61587 32.7483 10.4843C32.9538 10.9997 33.1105 11.536 33.2158 12.085C33.3206 12.6751 33.367 13.2754 33.3542 13.876C33.3353 15.0368 33.1285 16.1854 32.7431 17.2704C32.4381 18.1676 31.9323 18.9709 31.2702 19.6099C30.8209 20.0316 30.2834 20.331 29.7032 20.483C29.5461 20.5232 29.3863 20.5504 29.2253 20.5642C29.1671 20.5721 29.1082 20.5711 29.0503 20.5614Z" fill="#455A64"/>
<path d="M12.2181 33.0785L12.286 32.9861C15.258 29.628 20.7293 28.4891 20.7293 28.4891C20.7293 28.4891 21.0636 30.6942 24.1244 30.9405C27.1852 31.1867 29.4443 27.8398 29.4443 27.8398L33.5367 28.4555C33.5367 28.4555 35.5946 28.7157 36.8769 29.5217C39.7654 31.3435 41.2984 37.6203 41.2984 37.6203L9.74487 37.7574L12.2181 33.0785Z" fill="#455A64"/>
<path d="M9.33243 0L9.11305 0.0167908L8.85189 0.0335806C8.74481 0.0335806 8.61946 0.0727587 8.47843 0.095146C7.63816 0.245707 6.84635 0.618948 6.17499 1.18093C5.09422 2.08312 4.3909 3.40724 4.21889 4.86364C4.17956 5.30538 4.16561 5.7493 4.1771 6.19288C4.1771 6.65462 4.1771 7.13035 4.1771 7.62287C4.1771 8.60511 4.1771 9.64892 4.1771 10.7487C4.1771 15.1562 4.1771 20.4872 4.19277 26.5653C4.19277 28.0858 4.19277 29.652 4.19277 31.2638C4.19277 31.664 4.19277 32.0726 4.21366 32.4728C4.24255 32.8785 4.31082 33.2799 4.41737 33.6705C4.64692 34.4656 5.04157 35.1946 5.5717 35.8029C5.83935 36.1114 6.13801 36.3874 6.46226 36.6256C6.79477 36.8615 7.1514 37.0559 7.52519 37.2049L7.80724 37.3168L8.09975 37.3952C8.29555 37.4492 8.49446 37.4894 8.69519 37.5155C8.89629 37.5491 9.09999 37.5435 9.3037 37.5575H15.0701V37.6246C15.0701 40.3531 15.0701 43.269 15.0701 46.2605L14.9631 46.2101C16.2967 44.8613 17.6522 43.4696 19.0294 42.0349C20.3978 40.5965 21.7977 39.1358 23.1322 37.5743L23.1531 37.5519H41.625C41.9646 37.5519 42.3015 37.5519 42.6305 37.5267C43.6206 37.4385 44.5652 37.0429 45.3486 36.3883C46.1321 35.7337 46.7204 34.8486 47.0415 33.8412C47.2451 33.18 47.3397 32.4859 47.321 31.7899V29.6995C47.321 24.1475 47.321 18.7857 47.321 13.6898C47.321 11.1414 47.321 8.65642 47.321 6.23486C47.3429 5.63933 47.3079 5.04296 47.2165 4.45507C47.1072 3.8849 46.9179 3.33578 46.655 2.82639C46.1197 1.83 45.3083 1.03682 44.3333 0.556883C43.8609 0.325078 43.3579 0.173095 42.8421 0.10634C42.3305 0.0596964 41.817 0.0438133 41.3038 0.0587664H38.2979H32.6463L15.5768 0.0279837L32.6306 0.00559695H38.2822H41.2882C41.8057 -0.00906769 42.3236 0.0068135 42.8395 0.0531694C43.3671 0.119692 43.8818 0.274557 44.3646 0.512109C45.3607 1.00262 46.1901 1.8122 46.7386 2.82919C47.0157 3.35314 47.2165 3.91934 47.334 4.50824C47.4249 5.10467 47.4599 5.70933 47.4385 6.31321C47.4385 8.7385 47.4385 11.2235 47.4385 13.7682C47.4385 18.8697 47.4385 24.2258 47.4385 29.7779V31.8683C47.4579 32.5805 47.3606 33.2908 47.1512 33.9671C46.822 35.0011 46.2185 35.9097 45.4146 36.5817C44.6107 37.2537 43.6414 37.6599 42.6253 37.7506C42.2832 37.7757 41.9463 37.7757 41.6094 37.7729H23.1844L23.2341 37.7506C21.8943 39.3149 20.4945 40.7756 19.1234 42.228C17.7523 43.6804 16.389 44.9621 15.0545 46.3109L14.9448 46.4228V46.2605C14.9448 43.269 14.9448 40.3531 14.9448 37.6246L15.0075 37.689H9.30892C9.09999 37.6722 8.89106 37.689 8.68736 37.6442C8.48223 37.6175 8.27895 37.5764 8.07885 37.5211L7.77852 37.4399L7.48079 37.3224C7.09969 37.1693 6.73608 36.9703 6.39697 36.7291C6.06504 36.4853 5.75858 36.2038 5.48291 35.8896C4.94408 35.2662 4.5425 34.5213 4.30768 33.7096C4.19971 33.3106 4.12971 32.9009 4.09875 32.4867C4.08569 32.0698 4.08569 31.6668 4.08569 31.2666C4.08569 29.6548 4.08569 28.0886 4.08569 26.5681C4.08569 20.49 4.08569 15.159 4.10136 10.7515C4.10136 9.65172 4.10136 8.60791 4.10136 7.62567C4.10136 7.13315 4.10136 6.65742 4.10136 6.19568C4.09175 5.74919 4.10745 5.30249 4.14837 4.85804C4.32741 3.3885 5.04309 2.05504 6.13842 1.15015C6.81269 0.590175 7.60744 0.22067 8.4497 0.0755572C8.59073 0.0559683 8.71086 0.030782 8.82578 0.0223867L9.08694 0.00839489L9.33243 0Z" fill="#263238"/>
<path d="M28.2224 64.4355H3.05163C1.4059 64.4355 0.0717773 65.8651 0.0717773 67.6285V88.3256C0.0717773 90.089 1.4059 91.5186 3.05163 91.5186H28.2224C29.8681 91.5186 31.2022 90.089 31.2022 88.3256V67.6285C31.2022 65.8651 29.8681 64.4355 28.2224 64.4355Z" fill="white"/>
<path d="M16.8826 90.6895C17.2012 91.529 23.3777 97.7358 23.3777 97.7358V90.6895H16.8826Z" fill="#00AD37"/>
<path d="M21.2256 70.4439C21.073 69.9147 20.8235 69.4233 20.4917 68.9986C20.1598 68.5739 19.7524 68.2242 19.293 67.9701C18.2561 67.4527 17.0835 67.338 15.9763 67.6455C14.8793 67.9565 13.8367 68.4564 12.8894 69.1258C12.3316 69.4564 11.8364 69.8959 11.4295 70.4215C10.7322 71.4149 10.0636 73.0352 10.027 74.2777C9.99568 75.2823 10.4214 77.7813 10.8418 78.6796C11.0651 79.0508 11.3859 79.3428 11.7637 79.5191C12.2144 80.4093 12.8096 81.2063 13.5214 81.8726C13.7198 81.1935 13.9192 80.5135 14.1194 79.8326L21.2256 70.4439Z" fill="#263238"/>
<path d="M20.6541 69.2283L18.7998 68.9316C19.8758 71.4726 20.3067 77.3493 20.957 80.0525C21.6073 78.9751 23.1011 75.7066 22.9836 74.4277C22.8661 73.1488 22.84 68.9428 20.6541 69.2283Z" fill="#263238"/>
<path d="M12.0223 73.7795C12.0356 73.0566 12.265 72.3573 12.6768 71.7846C13.0887 71.2118 13.6611 70.7958 14.3101 70.5977L18.5278 69.3076C20.3559 69.0278 21.6461 71.4204 21.8211 73.3905C22.0117 75.5788 22.1553 77.8931 21.9595 79.547C21.5677 82.8547 19.2251 83.3528 19.2251 83.3528C19.2251 83.3528 19.2669 84.9171 19.2904 85.8714L18.6036 90.1781L13.0434 85.0906L11.9988 73.8186C12.0092 73.7627 12.0197 73.855 12.0223 73.7795Z" fill="#FFBF9D"/>
<path d="M20.8917 76.1315C20.8966 76.2412 20.861 76.3486 20.7926 76.4303C20.7241 76.512 20.6283 76.5615 20.526 76.568C20.476 76.5742 20.4253 76.5696 20.377 76.5544C20.3286 76.5392 20.2837 76.5137 20.2447 76.4795C20.2057 76.4453 20.1735 76.4031 20.1501 76.3553C20.1266 76.3076 20.1124 76.2552 20.1082 76.2014C20.1045 76.0918 20.1405 75.9849 20.2086 75.903C20.2767 75.8212 20.3717 75.7707 20.4738 75.7621C20.524 75.7563 20.5747 75.7613 20.6231 75.7769C20.6714 75.7924 20.7164 75.8181 20.7553 75.8525C20.7942 75.8869 20.8263 75.9294 20.8498 75.9773C20.8732 76.0252 20.8874 76.0776 20.8917 76.1315Z" fill="#263238"/>
<path d="M21.3928 74.6957C21.3458 74.7516 21.0402 74.525 20.6093 74.5418C20.1784 74.5585 19.8806 74.7936 19.8258 74.7376C19.771 74.6817 19.8493 74.6145 19.9825 74.5026C20.1623 74.361 20.3784 74.2819 20.6014 74.2759C20.8216 74.2687 21.0382 74.3363 21.2204 74.469C21.3693 74.5725 21.4163 74.6705 21.3928 74.6957Z" fill="#263238"/>
<path d="M17.0733 76.1315C17.0783 76.2412 17.0427 76.3485 16.9742 76.4303C16.9058 76.512 16.81 76.5615 16.7077 76.568C16.6576 76.5742 16.6069 76.5696 16.5586 76.5544C16.5103 76.5392 16.4653 76.5137 16.4263 76.4795C16.3873 76.4453 16.3552 76.4031 16.3317 76.3553C16.3083 76.3075 16.294 76.2552 16.2898 76.2014C16.2862 76.0914 16.3225 75.9841 16.3912 75.9021C16.4599 75.8202 16.5555 75.77 16.658 75.7621C16.7081 75.7563 16.7587 75.7613 16.8069 75.7769C16.8551 75.7925 16.8998 75.8182 16.9386 75.8527C16.9773 75.8871 17.0092 75.9296 17.0323 75.9774C17.0554 76.0253 17.0694 76.0777 17.0733 76.1315Z" fill="#263238"/>
<path d="M17.3684 74.8187C17.3188 74.8747 17.0159 74.648 16.5849 74.6648C16.154 74.6816 15.8589 74.9167 15.8015 74.8607C15.744 74.8047 15.825 74.7376 15.9582 74.6256C16.138 74.4841 16.354 74.4049 16.5771 74.399C16.7973 74.3918 17.0139 74.4594 17.1961 74.592C17.3423 74.6956 17.405 74.7935 17.3684 74.8187Z" fill="#263238"/>
<path d="M18.7865 78.3445C19.0089 78.2641 19.2395 78.2124 19.4734 78.1906C19.5804 78.1738 19.6823 78.1487 19.698 78.0675C19.7035 77.9476 19.6753 77.8286 19.617 77.7261C19.5073 77.4462 19.3924 77.1664 19.2697 76.853C18.7891 75.6105 18.4392 74.5863 18.4862 74.5667C18.5332 74.5471 18.9589 75.5377 19.4394 76.7802L19.7737 77.6589C19.8449 77.797 19.8689 77.9573 19.8416 78.1123C19.8271 78.1537 19.8041 78.191 19.7742 78.2215C19.7444 78.2521 19.7085 78.275 19.6692 78.2886C19.6098 78.3077 19.5484 78.3189 19.4864 78.3222C19.255 78.3617 19.0197 78.3692 18.7865 78.3445Z" fill="#263238"/>
<path d="M15.1199 82.2949C15.1199 82.2949 16.1802 84.5337 19.2436 84.1139L19.2332 83.3415C17.798 83.4084 16.3738 83.046 15.1199 82.2949Z" fill="#FF9A6C"/>
<path d="M17.1908 73.1816C17.1517 73.3048 16.7286 73.2628 16.2324 73.3412C15.7362 73.4195 15.3392 73.5818 15.2687 73.4727C15.2373 73.4195 15.3052 73.302 15.4646 73.1761C15.6767 73.0228 15.9187 72.9232 16.172 72.8849C16.4254 72.8466 16.6836 72.8706 16.9271 72.955C17.1125 73.0277 17.2065 73.1229 17.1908 73.1816Z" fill="#263238"/>
<path d="M21.218 73.3109C21.1475 73.4172 20.8524 73.3109 20.4998 73.3249C20.1473 73.3389 19.8548 73.4172 19.7816 73.3109C19.7503 73.2577 19.7947 73.1542 19.9227 73.0534C20.0934 72.9295 20.2949 72.8633 20.5011 72.8633C20.7074 72.8633 20.9089 72.9295 21.0796 73.0534C21.205 73.1542 21.2494 73.2605 21.218 73.3109Z" fill="#263238"/>
<path d="M20.9046 70.4102C20.7898 70.1718 20.6155 69.9722 20.401 69.8339C20.1866 69.6955 19.9405 69.6237 19.6902 69.6266C19.1878 69.6407 18.7 69.8098 18.2851 70.1135C16.4857 71.3029 15.6187 74.0677 13.8454 75.2962C13.4092 75.5956 12.8216 75.3494 12.4534 75.7439C12.0851 76.1385 11.8579 76.7542 12.0799 77.2579C11.8121 76.9201 11.5905 76.5432 11.4218 76.1385C11.3393 75.9354 11.2983 75.7157 11.3014 75.4941C11.3046 75.2726 11.3519 75.0544 11.4401 74.854C11.5889 74.5574 11.8579 74.3279 11.9258 74.0145C11.9937 73.7011 11.871 73.4296 11.8762 73.1358C11.9008 72.8379 11.9902 72.5504 12.1374 72.2963C12.7807 70.9071 13.7647 69.7317 14.984 68.8962C15.7888 68.3615 16.7141 68.0714 17.6609 68.0567C18.6106 68.0516 19.5305 68.4109 20.2543 69.0697C20.6695 69.4615 21.1057 69.8673 20.9098 70.4214" fill="#263238"/>
<path d="M12.5083 76.151C12.4717 76.0586 10.8525 75.4878 10.8812 77.3123C10.9074 79.0865 12.5683 78.6863 12.5683 78.636C12.5683 78.5856 12.5083 76.151 12.5083 76.151Z" fill="#FFBF9D"/>
<path d="M12.0461 77.9764C12.0461 77.9764 12.0174 77.9988 11.9704 78.0212C11.9007 78.0506 11.8232 78.0506 11.7536 78.0212C11.646 77.9498 11.5579 77.8494 11.4978 77.7301C11.4378 77.6107 11.408 77.4766 11.4115 77.3411C11.4062 77.189 11.4311 77.0373 11.4846 76.8962C11.4999 76.8407 11.5273 76.79 11.5645 76.7481C11.6017 76.7062 11.6478 76.6745 11.6987 76.6555C11.7314 76.6453 11.7664 76.6478 11.7975 76.6627C11.8286 76.6776 11.8538 76.7038 11.8685 76.7367C11.892 76.7871 11.8816 76.8206 11.892 76.8234C11.9024 76.8262 11.926 76.7955 11.9129 76.7199C11.9019 76.6766 11.8781 76.6383 11.845 76.6108C11.799 76.5752 11.7419 76.5602 11.6857 76.5688C11.618 76.5847 11.5553 76.6187 11.5032 76.6676C11.4511 76.7166 11.4115 76.7788 11.388 76.8486C11.3202 77.0033 11.2888 77.1733 11.2966 77.3439C11.2913 77.5024 11.3299 77.6589 11.4075 77.7938C11.4851 77.9288 11.5983 78.0361 11.7327 78.1023C11.7772 78.1143 11.8236 78.1158 11.8687 78.1066C11.9138 78.0974 11.9565 78.0778 11.9939 78.0491C12.0435 78.0184 12.0539 77.9792 12.0461 77.9764Z" fill="#FF9A6C"/>
<path d="M11.824 75.2599C11.8581 75.2442 11.8905 75.2245 11.9206 75.2011C11.9833 75.1564 12.0773 75.0976 12.1818 75.0053C12.5004 74.7395 12.7919 74.4384 13.0514 74.107C13.4269 73.611 13.7757 73.0924 14.0961 72.5538C14.4823 71.8948 14.9191 71.2714 15.4019 70.6901C15.662 70.3989 15.951 70.139 16.2637 69.9149C16.5572 69.7111 16.873 69.5466 17.2039 69.4252C17.7644 69.2136 18.3574 69.1186 18.9511 69.1454C19.3514 69.1596 19.7483 69.2302 20.1315 69.3553C20.2673 69.3972 20.3692 69.442 20.4397 69.4672L20.5494 69.5064L20.4449 69.4532C20.3454 69.405 20.2434 69.363 20.1394 69.3273C19.7561 69.1869 19.3558 69.1068 18.9511 69.0894C18.3495 69.0593 17.7482 69.1544 17.1804 69.3693C16.8438 69.4923 16.5227 69.6596 16.2245 69.8674C15.9056 70.0925 15.6112 70.3553 15.347 70.6509C14.8621 71.2353 14.4252 71.8636 14.0412 72.5287C13.7179 73.0669 13.3693 73.5871 12.9966 74.0874C12.7513 74.4096 12.4785 74.7066 12.1818 74.9745C12.0721 75.0696 11.9781 75.134 11.9206 75.1844L11.824 75.2599Z" fill="white"/>
<path d="M12.2549 75.7616C12.2021 76.2376 12.2669 76.7201 12.443 77.1608C12.665 77.5861 13.1977 77.8632 13.5843 77.6085C13.9003 77.4042 13.9838 76.9593 14.0282 76.5675C14.1562 75.4342 14.1954 74.2896 14.3312 73.1562L12.2549 75.7616Z" fill="#263238"/>
<path d="M20.4761 69.5795C20.4761 69.5795 20.3299 69.5543 20.0635 69.5543C19.6889 69.559 19.3189 69.6427 18.9745 69.8006C18.7367 69.9085 18.51 70.0427 18.298 70.2007C18.0558 70.3856 17.8247 70.5865 17.606 70.8024C17.0984 71.29 16.6477 71.8416 16.2636 72.4451C16.0625 72.7669 15.8849 73.0971 15.689 73.4049C15.5086 73.7042 15.2955 73.9795 15.0544 74.2249C14.6352 74.6279 14.1743 74.9781 13.6807 75.2687C13.2655 75.5233 12.9155 75.7024 12.6752 75.8283L12.3958 75.9655C12.3635 75.9838 12.3293 75.9979 12.2939 76.0074C12.323 75.9839 12.3545 75.9642 12.388 75.9487L12.6491 75.792C12.8842 75.6576 13.2289 75.4701 13.6389 75.2127C14.1216 74.9154 14.5726 74.5626 14.9839 74.1605C15.2209 73.9192 15.4305 73.6487 15.6081 73.3545C15.7987 73.0495 15.9763 72.7193 16.18 72.3919C16.5707 71.778 17.0303 71.2178 17.5485 70.724C17.7723 70.5096 18.0077 70.3097 18.2537 70.1252C18.4707 69.9655 18.7037 69.8322 18.9483 69.7278C19.3017 69.5721 19.6815 69.4968 20.0635 69.5067C20.1669 69.5107 20.2699 69.5228 20.3717 69.5431C20.4077 69.5509 20.4428 69.5631 20.4761 69.5795Z" fill="#455A64"/>
<path d="M12.1818 74.6551C12.1381 74.6973 12.0899 74.734 12.0382 74.7642L11.6256 75.044L11.4871 75.1336C11.4327 75.1709 11.3711 75.1948 11.3069 75.2036C11.2682 75.211 11.2283 75.203 11.1946 75.1812C11.1764 75.1678 11.1612 75.1504 11.1499 75.1301C11.1386 75.1098 11.1316 75.0871 11.1294 75.0636C11.1315 74.9818 11.1571 74.9027 11.2025 74.837L11.6674 73.9974L11.7353 74.0618C11.5775 74.1914 11.4011 74.2925 11.2129 74.3612C11.0227 74.4286 10.823 74.4598 10.6227 74.4536C10.5715 74.4541 10.5204 74.4466 10.4712 74.4312C10.4425 74.4236 10.4158 74.4091 10.3932 74.3887C10.3705 74.3683 10.3526 74.3426 10.3407 74.3137C10.3307 74.2842 10.3274 74.2526 10.331 74.2214C10.3347 74.1903 10.3451 74.1605 10.3615 74.1346C10.3894 74.094 10.4199 74.0557 10.4529 74.0198C10.6646 73.788 10.8456 73.5263 10.9909 73.2419C11.1226 72.9714 11.2353 72.6908 11.3278 72.4023C11.3233 72.4834 11.3084 72.5635 11.2834 72.6402C11.2252 72.855 11.1473 73.063 11.051 73.2615C10.9081 73.5609 10.726 73.837 10.5104 74.0814C10.4503 74.1458 10.3903 74.2213 10.4164 74.2745C10.4425 74.3277 10.5339 74.3556 10.6201 74.3528C10.8099 74.3586 10.9991 74.3283 11.179 74.2633C11.3581 74.2012 11.526 74.1065 11.6752 73.9834L11.8684 73.8239L11.7431 74.0478L11.2678 74.8873C11.2308 74.9382 11.2081 74.9994 11.2025 75.0636C11.2025 75.114 11.2469 75.142 11.2991 75.1364C11.4048 75.1087 11.5049 75.0603 11.5942 74.9937L12.0199 74.7446C12.0696 74.7065 12.1241 74.6763 12.1818 74.6551Z" fill="white"/>
<path d="M17.1988 79.2314C17.2258 79.0955 17.2966 78.9741 17.3988 78.8886C17.501 78.8032 17.6281 78.759 17.7577 78.7641C17.8525 78.774 17.9436 78.8088 18.0228 78.8654C18.1021 78.9221 18.1671 78.9987 18.2121 79.0887C18.2552 79.1798 18.2809 79.2792 18.2876 79.3811C18.2943 79.4829 18.282 79.5852 18.2513 79.6819V79.7239C18.1664 79.8287 18.0532 79.9027 17.9274 79.9358C17.8016 79.9689 17.6693 79.9594 17.5488 79.9086C17.4284 79.8536 17.3286 79.7571 17.2652 79.6344C17.2018 79.5117 17.1784 79.3699 17.1988 79.2314Z" fill="#FF9A6C"/>
<path d="M18.5516 79.7241C18.5516 79.657 18.1233 79.6905 17.789 79.324C17.4547 78.9574 17.4677 78.4648 17.4077 78.4648C17.3476 78.4648 17.3346 78.5824 17.3424 78.7895C17.36 79.0578 17.4643 79.3111 17.6375 79.5059C17.8043 79.6936 18.033 79.8041 18.2747 79.8137C18.4497 79.8165 18.5568 79.7549 18.5516 79.7241Z" fill="#263238"/>
<path d="M25.3912 88.2505L25.3442 88.1834C23.2026 85.7571 19.2643 84.9456 19.2643 84.9456C19.2643 84.9456 19.0241 86.5323 16.8172 86.7114C14.6104 86.8905 12.986 84.4727 12.986 84.4727L10.0427 84.9148C10.0427 84.9148 8.55932 85.1023 7.6348 85.6844C5.54551 86.994 4.45386 91.5135 4.45386 91.5135L27.1749 91.6114L25.3912 88.2505Z" fill="#00AD37"/>
<path d="M27.4702 64.4358C27.4702 64.4358 27.5224 64.4358 27.6269 64.4358C27.7845 64.437 27.9417 64.452 28.097 64.4806C28.7036 64.5858 29.2763 64.8513 29.7632 65.253C30.5522 65.9059 31.0685 66.8665 31.1996 67.9255C31.2295 68.2462 31.2408 68.5687 31.2335 68.8909C31.2335 69.2211 31.2335 69.5653 31.2335 69.9179C31.2335 70.6259 31.2335 71.3787 31.2335 72.1707C31.2335 75.3413 31.2335 79.1807 31.2492 83.5546C31.2492 84.6478 31.2492 85.7756 31.2492 86.9379C31.2492 87.2177 31.2492 87.5171 31.2492 87.8166C31.2286 88.1163 31.1778 88.4128 31.0977 88.7009C30.9301 89.2883 30.6398 89.827 30.249 90.2764C29.8519 90.7418 29.3567 91.0987 28.8047 91.3174L28.5958 91.3985L28.379 91.4573C28.2347 91.4968 28.0881 91.5267 27.9403 91.5468C27.6425 91.5761 27.3434 91.5873 27.0445 91.5804H23.3882L23.4483 91.5133C23.4483 93.4722 23.4483 95.5794 23.4483 97.7313V97.8908L23.3386 97.7817C22.3775 96.8153 21.4008 95.8182 20.4084 94.7902C19.4212 93.7548 18.4131 92.7026 17.4468 91.5748L17.4964 91.6H4.2216C3.97872 91.6 3.73584 91.6 3.48773 91.5832C2.75268 91.5175 2.05144 91.2236 1.4698 90.7375C0.888166 90.2514 0.451343 89.5943 0.212768 88.8464C0.0622592 88.3574 -0.00841959 87.8443 0.00383851 87.3296V85.8241C0.00383851 81.8252 0.00383851 77.9718 0.00383851 74.2974C0.00383851 72.4617 0.00383851 70.6735 0.00383851 68.9329C-0.0105846 68.4965 0.0156613 68.0596 0.0821868 67.6288C0.166838 67.2058 0.31127 66.7991 0.510491 66.4227C0.907519 65.6861 1.50789 65.0995 2.22893 64.7437C2.57827 64.5735 2.95001 64.4622 3.33104 64.4135C3.70268 64.3787 4.07592 64.3675 4.44881 64.3799H10.6906L22.9652 64.4023L26.3028 64.4163L22.9652 64.4303L10.6906 64.4526H6.62167H4.45664C4.08806 64.4437 3.7193 64.4559 3.35193 64.489C2.78605 64.5663 2.24468 64.7835 1.77059 65.1235C1.29649 65.4634 0.902654 65.9168 0.620179 66.4479C0.425274 66.822 0.285221 67.2259 0.204932 67.6456C0.139562 68.0681 0.115057 68.4966 0.131808 68.9245C0.131808 70.6614 0.131808 72.4496 0.131808 74.289C0.131808 77.9634 0.131808 81.8168 0.131808 85.8157V87.3212C0.117162 87.8199 0.18525 88.3173 0.332902 88.7904C0.639935 89.7529 1.28429 90.5497 2.12969 91.0124C2.55551 91.2477 3.02062 91.3904 3.49818 91.4321C3.73322 91.4489 3.9761 91.4517 4.2216 91.4489H17.5252L17.5461 91.4741C18.5071 92.5935 19.5152 93.6485 20.4998 94.6839C21.4844 95.7193 22.4663 96.7183 23.4274 97.6894L23.3177 97.7397C23.3177 95.5878 23.3177 93.4861 23.3177 91.5217V91.4545H27.0367C27.3303 91.464 27.6243 91.4537 27.9168 91.4237C28.0605 91.4062 28.2028 91.3772 28.3425 91.337L28.554 91.281L28.7551 91.2026C29.2911 90.9919 29.772 90.6464 30.1575 90.1952C30.5365 89.7601 30.8187 89.2387 30.9828 88.6701C31.0605 88.3901 31.1104 88.1022 31.1317 87.811C31.15 87.5311 31.1447 87.2289 31.1447 86.9407C31.1447 85.7803 31.1447 84.6525 31.1447 83.5574C31.1447 79.1835 31.1447 75.3441 31.1604 72.1735C31.1604 71.3815 31.1604 70.6287 31.1604 69.9207V68.8937C31.1695 68.5744 31.1599 68.2547 31.1317 67.9367C31.0321 67.0906 30.6821 66.301 30.1332 65.6836C29.5842 65.0661 28.8651 64.6534 28.0813 64.5058C27.9281 64.4731 27.7726 64.4544 27.6164 64.4498L27.4702 64.4358Z" fill="#263238"/>
<path d="M75.9052 120L43.3226 119.975C39.4052 119.975 36.2295 116.729 36.2295 112.727L36.2452 29.3065C36.2452 25.302 39.4261 22.0558 43.3488 22.0586L75.9339 22.0782C79.8513 22.0782 83.027 25.3243 83.027 29.3261L83.0114 112.744C83.0087 116.76 79.8226 120.003 75.9052 120Z" fill="#263238"/>
<path d="M75.9051 25.038H69.5797C69.3788 25.0376 69.1797 25.0796 68.9939 25.1617C68.8081 25.2438 68.6392 25.3643 68.4968 25.5163C68.3544 25.6683 68.2414 25.8489 68.1642 26.0477C68.087 26.2465 68.0471 26.4597 68.0467 26.675V27.8448C68.0464 28.0604 68.0064 28.2738 67.929 28.4728C67.8516 28.6718 67.7383 28.8525 67.5957 29.0045C67.4531 29.1566 67.2839 29.277 67.0977 29.3589C66.9116 29.4408 66.7123 29.4826 66.5111 29.4818H54.1973C53.9963 29.4822 53.7973 29.4402 53.6115 29.3581C53.4256 29.276 53.2567 29.1555 53.1144 29.0035C52.972 28.8515 52.859 28.6709 52.7818 28.4721C52.7046 28.2733 52.6646 28.0601 52.6643 27.8448V26.6722C52.664 26.4566 52.6239 26.2433 52.5466 26.0442C52.4692 25.8452 52.3559 25.6646 52.2133 25.5125C52.0707 25.3604 51.9014 25.24 51.7153 25.1581C51.5292 25.0762 51.3299 25.0344 51.1287 25.0352H43.3774C40.6326 25.0352 38.4153 27.3075 38.4153 30.1115L38.3997 111.545C38.3997 114.344 40.6221 116.622 43.3617 116.622L75.8816 116.641C78.629 116.641 80.8436 114.372 80.8567 111.568L80.8723 30.1339C80.8671 27.3131 78.642 25.0408 75.9051 25.038Z" fill="white"/>
<path d="M58.5458 45.3348C59.0056 45.2995 59.4366 45.0821 59.7548 44.7247C60.0731 44.3674 60.2557 43.8959 60.2671 43.4022C60.2785 42.9084 60.1179 42.4278 59.8166 42.0541C59.5152 41.6803 59.0948 41.4402 58.6372 41.3806C58.8598 41.0184 58.9703 40.5903 58.9531 40.1569C58.9359 39.7236 58.7917 39.3071 58.5412 38.9665C58.2906 38.6258 57.9463 38.3784 57.5572 38.2592C57.168 38.14 56.7537 38.1551 56.373 38.3024C56.2817 37.8862 56.0913 37.5025 55.8204 37.1886C55.5495 36.8748 55.2073 36.6415 54.8272 36.5116C54.4471 36.3816 54.0421 36.3595 53.6516 36.4472C53.2611 36.535 52.8985 36.7297 52.5992 37.0123C52.0884 36.7205 51.5017 36.6188 50.9311 36.7231C50.3605 36.8275 49.8385 37.132 49.4469 37.5888C49.0483 37.5876 48.66 37.7246 48.34 37.9795C48.0201 38.2344 47.7857 38.5933 47.672 39.0028C47.5582 39.4122 47.5712 39.8501 47.709 40.2509C47.8467 40.6518 48.1019 40.9941 48.4363 41.2267" fill="#263238"/>
<path d="M58.8591 45.5546C58.3335 43.5096 57.1082 41.7518 55.4272 40.6316C53.7463 39.5114 51.7331 39.1109 49.7889 39.5101L49.3893 39.5912C45.122 40.7442 43.6438 45.2692 44.8399 49.811L47.8276 66.2937L56.6209 73.5695L58.8956 67.4998L57.9998 62.0149C57.9998 62.0149 62.0269 60.4758 61.2879 56.0207C60.9405 53.8631 59.8697 49.4948 58.8591 45.5546Z" fill="#C17560"/>
<path d="M58.0441 61.9925C56.1152 62.3876 54.121 62.1807 52.2986 61.3965C52.2986 61.3965 54.098 64.4328 58.1669 63.1875L58.0441 61.9925Z" fill="#7C4236"/>
<path d="M58.4881 49.8174C58.5193 49.9828 58.489 50.1546 58.4036 50.2963C58.3182 50.438 58.1846 50.5383 58.0311 50.5758C57.9568 50.5976 57.8792 50.6033 57.8029 50.5925C57.7265 50.5818 57.653 50.5547 57.5865 50.513C57.5201 50.4713 57.4621 50.4157 57.416 50.3496C57.3699 50.2835 57.3366 50.2082 57.3181 50.1281C57.2869 49.9628 57.3173 49.7909 57.4026 49.6492C57.488 49.5076 57.6217 49.4072 57.7752 49.3697C57.8494 49.3479 57.927 49.3422 58.0034 49.353C58.0797 49.3638 58.1533 49.3908 58.2197 49.4325C58.2862 49.4743 58.3441 49.5298 58.3902 49.5959C58.4363 49.662 58.4696 49.7373 58.4881 49.8174Z" fill="#263238"/>
<path d="M58.3526 47.9131C58.2951 48.0082 57.7833 47.7452 57.146 47.8767C56.5088 48.0082 56.1014 48.4364 56.0178 48.3776C55.976 48.3468 56.0178 48.1817 56.2006 47.9802C56.4404 47.7194 56.7497 47.5444 57.086 47.4793C57.4171 47.409 57.7606 47.4551 58.0653 47.6108C58.2899 47.7312 58.3839 47.8683 58.3526 47.9131Z" fill="#263238"/>
<path d="M52.7061 51.1339C52.7365 51.2991 52.7054 51.4706 52.6196 51.6117C52.5337 51.7528 52.3998 51.8525 52.2465 51.8894C52.1724 51.9112 52.0949 51.9169 52.0188 51.9061C51.9426 51.8952 51.8692 51.8682 51.803 51.8264C51.7367 51.7847 51.679 51.7291 51.6331 51.663C51.5873 51.5969 51.5543 51.5217 51.5361 51.4417C51.505 51.2767 51.5354 51.1052 51.6208 50.964C51.7062 50.8228 51.8399 50.723 51.9931 50.6861C52.0674 50.6643 52.145 50.6586 52.2213 50.6694C52.2977 50.6802 52.3712 50.7072 52.4377 50.7489C52.5041 50.7907 52.5621 50.8462 52.6082 50.9123C52.6543 50.9784 52.6876 51.0538 52.7061 51.1339Z" fill="#263238"/>
<path d="M52.1081 49.3186C52.0507 49.4165 51.5388 49.1507 50.9015 49.2822C50.2643 49.4138 49.8569 49.8419 49.7733 49.7831C49.7342 49.7524 49.7733 49.5873 49.9561 49.3886C50.195 49.1324 50.5011 48.9606 50.8336 48.896C51.1649 48.8277 51.5078 48.8737 51.813 49.0276C52.0454 49.1367 52.1394 49.2738 52.1081 49.3186Z" fill="#263238"/>
<path d="M55.323 53.9115C55.323 53.8723 55.6964 53.7184 56.3232 53.4973C56.4825 53.4469 56.6314 53.3826 56.6366 53.2566C56.6179 53.0735 56.5478 52.9008 56.4355 52.7613L55.7199 51.5328C54.7145 49.7782 53.9545 48.3202 54.0198 48.2783C54.0851 48.2363 54.9547 49.6243 55.9602 51.3789L56.6575 52.6186C56.7971 52.8089 56.8701 53.0455 56.8638 53.2874C56.851 53.3538 56.8244 53.4161 56.7859 53.4699C56.7475 53.5237 56.6983 53.5675 56.6418 53.598C56.5587 53.6409 56.471 53.6728 56.3807 53.6932C55.733 53.8639 55.3334 53.9478 55.323 53.9115Z" fill="#263238"/>
<path d="M51.8783 46.9533C51.8261 47.1436 51.2463 47.068 50.5725 47.18C49.8987 47.2919 49.3503 47.5298 49.2667 47.3619C49.2249 47.2807 49.3163 47.1016 49.5279 46.9141C49.8103 46.682 50.1442 46.5325 50.4968 46.4804C50.8437 46.4226 51.1987 46.4642 51.5258 46.6007C51.7843 46.7182 51.9123 46.8637 51.8783 46.9533Z" fill="#263238"/>
<path d="M58 45.4792C57.8929 45.6611 57.3393 45.6079 56.6942 45.7282C56.0491 45.8486 55.5451 46.0724 55.3884 45.9353C55.3205 45.8654 55.3753 45.6947 55.5843 45.4988C55.8746 45.2499 56.2217 45.0886 56.5897 45.0314C56.9537 44.9583 57.3293 44.9931 57.6762 45.1322C57.9452 45.2581 58.047 45.3896 58 45.4792Z" fill="#263238"/>
<path d="M46.2867 53.9983C46.2527 53.8361 46.1883 53.6829 46.0974 53.5481C46.0065 53.4133 45.891 53.2997 45.758 53.2141C45.6249 53.1286 45.477 53.0729 45.3232 53.0504C45.1694 53.0279 45.013 53.039 44.8634 53.0832C44.1034 53.3211 43.3251 53.9675 43.6829 55.669C44.3123 58.6885 47.0127 57.3872 46.9997 57.3004C46.9866 57.2137 46.5609 55.2604 46.2867 53.9983Z" fill="#C17560"/>
<path d="M46.1484 56.3097C46.1354 56.3097 46.1066 56.3601 46.0335 56.4188C45.9283 56.5014 45.797 56.5366 45.6679 56.5168C45.344 56.4692 44.9889 56.0242 44.8609 55.4842C44.7991 55.2269 44.7928 54.958 44.8426 54.6978C44.8489 54.597 44.8782 54.4995 44.9278 54.4136C44.9774 54.3278 45.0459 54.2562 45.1273 54.2053C45.1802 54.1769 45.2406 54.1687 45.2985 54.1819C45.3564 54.1951 45.4083 54.229 45.4459 54.278C45.5007 54.3536 45.4955 54.418 45.5138 54.4208C45.5321 54.4236 45.5634 54.3564 45.5138 54.2361C45.482 54.1651 45.4285 54.1079 45.3623 54.0738C45.3168 54.0534 45.268 54.043 45.2187 54.043C45.1694 54.043 45.1206 54.0534 45.075 54.0738C44.9644 54.1258 44.8681 54.2074 44.7954 54.3108C44.7227 54.4142 44.676 54.5359 44.6598 54.6642C44.5945 54.9539 44.5945 55.256 44.6598 55.5457C44.806 56.1502 45.2161 56.6651 45.6496 56.6791C45.7303 56.6846 45.8112 56.6706 45.8863 56.6381C45.9613 56.6057 46.0286 56.5556 46.0831 56.4916C46.1589 56.3852 46.1589 56.3153 46.1484 56.3097Z" fill="#7C4236"/>
<path d="M55.3777 39.7141C55.3384 39.6435 55.292 39.5778 55.2393 39.5182C55.0376 39.2988 54.791 39.1327 54.519 39.0332C54.247 38.9336 53.9571 38.9032 53.6723 38.9445C53.321 38.8328 52.9621 38.7504 52.5989 38.6982C52.3231 38.3479 51.9684 38.0789 51.5684 37.9166C51.1684 37.7543 50.7363 37.7041 50.3131 37.7708C49.89 37.8375 49.4897 38.0189 49.1502 38.2978C48.8108 38.5766 48.5434 38.9437 48.3734 39.3643C48.2584 39.4062 48.1461 39.451 48.0338 39.4986C47.68 39.3168 47.292 39.2243 46.8996 39.2285C46.5073 39.2326 46.121 39.3331 45.7706 39.5223C45.4202 39.7116 45.115 39.9844 44.8785 40.3199C44.6419 40.6554 44.4804 41.0446 44.4063 41.4575C44.0406 41.4274 43.6747 41.5138 43.3547 41.7058C43.0346 41.8977 42.7745 42.1867 42.6072 42.5364C42.4398 42.8862 42.3725 43.2811 42.4138 43.6716C42.4551 44.0621 42.6032 44.4309 42.8393 44.7316C42.3849 45.1486 42.0559 45.781 42.1447 46.4107C42.2334 47.0403 42.8498 47.4824 43.3695 47.3033C43.5288 48.7809 43.978 50.4656 44.3175 51.9627C44.5578 53.0177 45.9341 53.3927 46.1456 54.0979C47.2425 57.6938 48.0051 55.4271 47.0806 47.7063C47.1407 47.6308 47.2034 47.5524 47.2634 47.4684C47.3511 47.2877 47.427 47.1007 47.4906 46.9088C47.6108 46.6821 47.9085 46.6849 48.1514 46.6625C48.5717 46.6119 48.9631 46.4081 49.2598 46.085C49.5565 45.762 49.7405 45.3395 49.781 44.8883C50.0422 45.1682 50.541 45.0674 50.8257 44.782C51.0753 44.468 51.282 44.1174 51.4394 43.741C51.6353 43.3828 51.9356 43.0386 52.3195 43.019C52.5331 43.0519 52.7496 43.0585 52.9646 43.0386C53.3302 42.9294 53.4294 42.4229 53.4138 42.0171C53.3672 41.674 53.4087 41.3238 53.5339 41.0041C53.7382 40.8381 53.9693 40.7139 54.2155 40.6375C54.3592 40.6375 54.508 40.6375 54.6491 40.6207C54.7167 40.6168 54.7839 40.6074 54.8502 40.5928C54.9435 40.6064 55.0359 40.626 55.127 40.6515C56.4955 41.0461 58.0833 43.6066 58.0833 43.6066C57.8849 41.8157 56.7149 40.5284 55.3777 39.7141Z" fill="#263238"/>
<path d="M42.5127 44.9536C42.5127 44.9536 42.5127 44.9368 42.531 44.9032C42.5493 44.8696 42.5649 44.8249 42.5989 44.7661C42.7018 44.5991 42.8308 44.4524 42.9802 44.3323C43.218 44.1429 43.4947 44.0172 43.7872 43.9657C44.1743 43.8934 44.5728 43.9666 44.9154 44.1728L44.8423 44.2148C44.8677 43.8695 44.9614 43.5339 45.1172 43.2304C45.273 42.9269 45.4873 42.6625 45.7459 42.4546C46.0312 42.2122 46.3562 42.029 46.7043 41.9145C47.0723 41.8004 47.4552 41.7522 47.8378 41.7718C48.5546 41.8183 49.2571 42.0082 49.9088 42.3315L49.8304 42.3762C49.9586 41.6915 50.3244 41.0844 50.8542 40.6776C51.1974 40.4193 51.5959 40.2581 52.0128 40.2092C52.4297 40.1603 52.8514 40.2251 53.2386 40.3978C53.3194 40.4332 53.3979 40.4744 53.4736 40.5209C53.5233 40.5545 53.5494 40.5741 53.5468 40.5769C53.5442 40.5797 53.4371 40.5181 53.2255 40.4341C52.9219 40.3162 52.6004 40.2602 52.2775 40.269C51.7851 40.2797 51.3076 40.4516 50.909 40.7616C50.406 41.1579 50.0603 41.7421 49.9401 42.3986L49.9271 42.4742L49.8618 42.4434C49.2229 42.1258 48.5352 41.9361 47.8326 41.8837C47.4633 41.8663 47.0938 41.9126 46.7383 42.0208C46.4032 42.128 46.0903 42.3028 45.8164 42.5358C45.5674 42.7332 45.3602 42.9849 45.2085 43.2743C45.0568 43.5637 44.964 43.8842 44.9363 44.2148V44.2988L44.8684 44.2568C44.5461 44.0554 44.1688 43.9793 43.8002 44.0413C43.5181 44.0843 43.2496 44.1984 43.0167 44.3743C42.8147 44.5298 42.6433 44.7267 42.5127 44.9536Z" fill="#455A64"/>
<path d="M53.5392 40.7949C53.533 40.8386 53.5234 40.8817 53.5105 40.9236C53.4869 41.0463 53.472 41.1707 53.4661 41.2958C53.4661 41.4609 53.4661 41.6624 53.4478 41.9003C53.4543 42.176 53.4053 42.4499 53.3042 42.7034C53.2668 42.7781 53.2158 42.844 53.1544 42.8973C53.093 42.9506 53.0223 42.9903 52.9464 43.0141C52.7864 43.0553 52.6225 43.0769 52.458 43.0784C52.2914 43.0788 52.1278 43.1251 51.9827 43.2127C51.8389 43.328 51.7189 43.4737 51.6301 43.6409C51.5309 43.8116 51.4421 43.9991 51.3455 44.2006C51.259 44.4043 51.1446 44.5929 51.0059 44.7603C50.8421 44.9271 50.6419 45.0473 50.4235 45.1101C50.311 45.1462 50.1935 45.1614 50.0762 45.1548C49.9474 45.1527 49.8245 45.0964 49.7341 44.9981L49.8333 44.959C49.8255 45.3429 49.6966 45.7128 49.4677 46.0084C49.2251 46.312 48.9087 46.5377 48.5536 46.6604C48.4062 46.7106 48.2551 46.7471 48.1018 46.7695C47.9602 46.7646 47.8193 46.7932 47.6892 46.8535C47.5706 46.9246 47.4784 47.0372 47.428 47.1725C47.3626 47.3132 47.2866 47.4479 47.2008 47.5755C46.8955 48.0891 46.4209 48.4608 45.8715 48.6165C45.3691 48.6938 44.8575 48.5724 44.4325 48.2751C44.0671 48.0284 43.7795 47.6696 43.6072 47.2453L43.6621 47.2676C43.5081 47.3362 43.3419 47.3674 43.1753 47.3592C43.0087 47.351 42.8459 47.3035 42.6984 47.2201C42.4771 47.0932 42.3043 46.8872 42.21 46.638C42.1504 46.4849 42.1227 46.3196 42.1291 46.1539C42.1293 46.1115 42.1337 46.0693 42.1421 46.0279C42.1421 46 42.1421 45.986 42.1421 45.986C42.1262 46.2032 42.1603 46.4214 42.2414 46.6212C42.3369 46.8539 42.5049 47.0438 42.7167 47.1585C42.8558 47.2332 43.0085 47.2746 43.164 47.2799C43.3196 47.2852 43.4744 47.2543 43.6177 47.1893L43.6569 47.1725L43.6725 47.2117C43.8437 47.6151 44.1227 47.955 44.4743 48.1883C44.8795 48.4657 45.3645 48.577 45.8402 48.5017C46.359 48.3514 46.8069 47.9992 47.0964 47.5139C47.1795 47.392 47.2529 47.2628 47.3157 47.1277C47.3772 46.9698 47.4855 46.838 47.6239 46.7527C47.6952 46.7112 47.7732 46.6847 47.8537 46.6744L48.0757 46.6548C48.2212 46.6336 48.3646 46.598 48.504 46.5485C48.8387 46.4352 49.1373 46.2239 49.3658 45.9384C49.5799 45.6649 49.7006 45.3214 49.708 44.9646V44.819L49.802 44.9254C49.8832 44.9907 49.9787 45.0325 50.0793 45.0467C50.18 45.0609 50.2823 45.0471 50.3765 45.0065C50.577 44.9497 50.7611 44.84 50.9119 44.6875C51.0517 44.5253 51.1663 44.3401 51.2514 44.139C51.3507 43.9487 51.4421 43.7612 51.5465 43.5793C51.6437 43.4004 51.7744 43.2451 51.9304 43.1232C52.0899 43.0275 52.27 42.9783 52.4528 42.9805C52.6109 42.98 52.7685 42.9613 52.9229 42.9245C52.9891 42.9051 53.0511 42.8718 53.1053 42.8267C53.1595 42.7816 53.2049 42.7254 53.2389 42.6615C53.3405 42.4196 53.3922 42.1571 53.3903 41.8919C53.4034 41.6568 53.4112 41.4525 53.4269 41.2874C53.4377 41.1605 53.4596 41.035 53.4922 40.9125C53.5034 40.8714 53.5192 40.8319 53.5392 40.7949Z" fill="#455A64"/>
<path d="M53.5471 55.5098C53.4296 56.3493 53.7665 57.1524 54.5029 57.4407C54.6463 57.4882 54.797 57.5051 54.9464 57.4902C55.0958 57.4752 55.2411 57.4289 55.3738 57.3538C55.5064 57.2787 55.624 57.1762 55.7197 57.0524C55.8154 56.9285 55.8874 56.7856 55.9315 56.6319C56.0157 56.2887 56.022 55.9289 55.9498 55.5825C55.2734 55.5405 54.2287 55.5517 53.5471 55.5098Z" fill="#7C4236"/>
<path d="M55.7955 56.9713C55.7955 56.9713 55.7955 56.9937 55.7668 57.0301C55.7343 57.0835 55.6957 57.1324 55.6519 57.1756C55.4913 57.3395 55.2884 57.4478 55.0695 57.4862C54.7397 57.5403 54.4027 57.4669 54.1188 57.2791C53.9493 57.1583 53.805 57.0012 53.6948 56.8177C53.5847 56.6342 53.5112 56.4283 53.479 56.2129C53.4634 56.0999 53.4582 55.9856 53.4633 55.8715C53.4638 55.752 53.4926 55.6345 53.5469 55.5301C53.5809 55.4739 53.6315 55.4315 53.6905 55.4098C53.7428 55.3919 53.7977 55.3843 53.8525 55.3874H54.1293C54.4871 55.407 54.8083 55.4434 55.0773 55.4741C55.6127 55.5357 55.947 55.5525 55.947 55.5749C55.6555 55.6115 55.361 55.6115 55.0695 55.5749C54.8083 55.5581 54.4793 55.5301 54.1241 55.5189H53.8629C53.7715 55.5189 53.7062 55.5329 53.667 55.6001C53.6286 55.6876 53.609 55.7832 53.6096 55.8799C53.5976 56.1303 53.6452 56.3798 53.748 56.605C53.8508 56.8302 54.0054 57.0236 54.1972 57.1672C54.4549 57.3426 54.7608 57.4186 55.0643 57.3827C55.2708 57.358 55.4665 57.2706 55.6284 57.1308C55.7381 57.0356 55.7955 56.9601 55.7955 56.9713Z" fill="#263238"/>
<path d="M71.5698 47.3148C71.5698 47.3148 74.8787 46.8726 79.8513 42.633C84.8238 38.3934 87.519 32.3685 88.0726 32.458C88.6263 32.5476 91.1726 31.5765 94.8628 42.8513C98.553 54.1261 96.5003 56.4516 95.581 56.3369C94.6617 56.2221 88.561 53.7203 84.6122 53.8043C80.6635 53.8882 75.4376 55.5617 75.4376 55.5617L71.5698 47.3148Z" fill="#00AD37"/>
<path d="M65.6178 55.7303L67.3859 55.3274L66.4274 52.834L64.9336 53.6343L65.6178 55.7303Z" fill="#455A64"/>
<path d="M65.8244 52.7677L66.4773 54.8721L66.8847 55.9299C67.1502 56.6327 67.658 57.1991 68.3027 57.5117C68.9474 57.8243 69.6797 57.8591 70.3477 57.6089L77.5218 55.4458L74.4401 45.7129L67.3104 48.9339C66.6416 49.2347 66.1105 49.8059 65.8323 50.5237C65.5541 51.2414 65.5513 52.0477 65.8244 52.7677Z" fill="#263238"/>
<path d="M68.3967 56.0012L70.7994 60.5654L71.8963 60.1876L79.3995 66.1874L81.2615 61.8443C81.2615 61.8443 76.8949 60.0561 76.0383 58.4526C75.1817 56.8491 76.0853 56.4378 76.0853 56.4378L73.9725 54.0703L68.3967 56.0012Z" fill="#263238"/>
<path d="M94.4684 43.0175C96.4193 49.1209 96.9886 54.4407 95.7377 54.8996C94.4867 55.3585 91.8881 50.7859 89.9347 44.6826C87.9812 38.5793 87.4144 33.2595 88.6654 32.7978C89.9164 32.336 92.5149 36.9058 94.4684 43.0175Z" fill="#263238"/>
<path d="M89.5508 41.1994C89.5508 41.1994 92.5332 39.6127 93.7163 43.8467C94.8994 48.0807 91.8751 48.4529 91.8751 48.4529C90.7864 46.164 90.004 43.7222 89.5508 41.1994Z" fill="#FAFAFA"/>
<path d="M86.9836 36.0371C86.9741 36.3019 86.9881 36.5671 87.0253 36.8291C87.0697 37.3356 87.1324 38.0716 87.2343 38.9782C87.3161 39.4278 87.4032 39.9166 87.4954 40.4446C87.5451 40.7077 87.5947 40.9819 87.6443 41.2617C87.6704 41.4017 87.6965 41.5444 87.7226 41.6899C87.754 41.8326 87.7958 41.9697 87.8323 42.1209L88.3155 43.9426L88.4408 44.4183C88.4826 44.5807 88.5479 44.7346 88.6001 44.8941C88.7098 45.2131 88.8221 45.5349 88.937 45.8623L89.2766 46.8306C89.334 46.9873 89.381 47.1496 89.4489 47.3007L89.6448 47.7513L90.3996 49.4667C90.4622 49.601 90.5171 49.7465 90.5824 49.8669L90.7861 50.2446L91.1752 50.9694L91.8751 52.2595C92.353 53.0151 92.7552 53.6111 93.0321 54.0253C93.1651 54.2488 93.3173 54.4587 93.4865 54.6521C93.3796 54.4134 93.2538 54.185 93.1104 53.9693L92.0188 52.1588L91.3502 50.8547L90.9767 50.1355C90.9114 50.0096 90.8461 49.8836 90.7782 49.7577C90.7103 49.6318 90.6633 49.4919 90.6033 49.3547C90.3682 48.8091 90.1201 48.2354 89.8668 47.6449L89.6709 47.1972C89.6056 47.0461 89.5586 46.8865 89.5012 46.7298L89.1669 45.77C89.0546 45.4454 88.9423 45.1235 88.83 44.8073C88.7777 44.6506 88.7125 44.4967 88.6733 44.3372C88.6341 44.1777 88.5871 44.0182 88.5427 43.8615L88.0517 42.0537C88.0152 41.911 87.9707 41.7738 87.9394 41.6283C87.9081 41.4828 87.882 41.3485 87.8558 41.2058C87.801 40.9259 87.7462 40.6461 87.6965 40.3942C87.5921 39.8737 87.4928 39.3868 87.404 38.9419C87.2865 38.052 87.1873 37.3272 87.1194 36.8123C87.0928 36.5505 87.0474 36.2914 86.9836 36.0371Z" fill="#263238"/>
<path d="M77.5217 55.4336C77.4184 55.4844 77.3096 55.521 77.1978 55.5427L76.3099 55.7946C75.5577 56.0017 74.5209 56.2955 73.377 56.6341C72.2331 56.9727 71.2016 57.2805 70.4468 57.4736C70.0681 57.5744 69.7626 57.6499 69.5484 57.6975C69.4388 57.7274 69.3269 57.747 69.2141 57.7563C69.318 57.7061 69.4266 57.6676 69.5379 57.6415L70.4207 57.3617L73.3431 56.4746C74.4843 56.136 75.529 55.8562 76.2864 55.6743C76.665 55.5819 76.9732 55.512 77.1874 55.47C77.2975 55.4467 77.4094 55.4345 77.5217 55.4336Z" fill="#455A64"/>
<path d="M73.2935 53.8438C73.0716 53.9775 72.8369 54.0854 72.5935 54.1656C72.1522 54.3419 71.5489 54.5657 70.8516 54.7868C70.1543 55.0079 69.5327 55.1786 69.0757 55.2905C68.8311 55.3655 68.5799 55.4133 68.3262 55.4332C68.5618 55.3315 68.8045 55.2501 69.0522 55.1898C69.504 55.0527 70.1256 54.8652 70.8124 54.6469C71.4993 54.4286 72.1182 54.2187 72.5622 54.0676C72.8 53.9722 73.0445 53.8974 73.2935 53.8438Z" fill="#455A64"/>
<path d="M72.1651 51.6211C71.4431 51.9319 70.7044 52.1964 69.953 52.413C69.2143 52.6781 68.4617 52.8967 67.6992 53.0679C68.4222 52.7565 69.1617 52.4911 69.9139 52.2731C70.6519 52.0096 71.4036 51.7919 72.1651 51.6211Z" fill="#455A64"/>
<path d="M71.0527 49.4805C70.4443 49.8448 69.8144 50.1664 69.1671 50.4431C68.5387 50.7674 67.8914 51.0478 67.2292 51.2826C67.8358 50.9157 68.4649 50.5931 69.1122 50.3172C69.7407 49.9919 70.389 49.7123 71.0527 49.4805Z" fill="#455A64"/>
<path d="M62.9801 73.5631L58.6239 65.6856L47.36 65.1875V66.2845C47.36 66.2845 44.2679 69.6202 43.2702 74.162C42.5155 77.6013 45.6912 90.7258 46.5844 95.276C47.6812 100.873 49.196 107.947 49.196 107.947C48.9688 109.201 47.4671 110.217 47.5715 111.89L72.6065 111.596L71.319 106.159L62.9801 73.5631Z" fill="#00AD37"/>
<path d="M71.6664 108.245C71.6664 108.287 66.6835 108.317 60.5383 108.317C54.3932 108.317 49.4128 108.287 49.4128 108.245C49.4128 108.203 54.3932 108.172 60.5383 108.172C66.6835 108.172 71.6664 108.205 71.6664 108.245Z" fill="white"/>
<path d="M69.9349 101.506C69.9349 101.548 64.9989 101.582 58.9112 101.582C52.8236 101.582 47.885 101.548 47.885 101.506C47.885 101.464 52.821 101.434 58.9112 101.434C65.0015 101.434 69.9349 101.476 69.9349 101.506Z" fill="white"/>
<path d="M68.2374 94.1978C68.2374 94.2369 63.4059 94.2705 57.4462 94.2705C51.4865 94.2705 46.655 94.2285 46.655 94.1978C46.655 94.167 51.4839 94.125 57.4436 94.125C63.4033 94.125 68.2374 94.1558 68.2374 94.1978Z" fill="white"/>
<path d="M67.0492 86.8345C67.0492 86.8736 62.0715 86.9072 55.9342 86.9072C49.7969 86.9072 44.8218 86.8736 44.8218 86.8345C44.8218 86.7953 49.7969 86.7617 55.9342 86.7617C62.0715 86.7617 67.0492 86.7925 67.0492 86.8345Z" fill="white"/>
<path d="M64.4138 77.7006C64.4138 77.7397 59.7129 77.7733 53.8969 77.7733C48.0808 77.7733 43.3799 77.7397 43.3799 77.7006C43.3799 77.6614 48.0808 77.625 53.8969 77.625C59.7129 77.625 64.4138 77.6586 64.4138 77.7006Z" fill="white"/>
<path d="M60.8334 69.3228C60.8334 69.3619 57.3574 69.3955 53.0665 69.3955C48.7756 69.3955 45.2996 69.3619 45.2996 69.3228C45.2996 69.2836 48.7756 69.25 53.0665 69.25C57.3574 69.25 60.8334 69.2948 60.8334 69.3228Z" fill="white"/>
<path opacity="0.3" d="M46.4746 78.4199C47.5707 80.3918 48.9541 82.1632 50.5722 83.6669C53.0872 85.9057 60.7392 89.9186 60.7392 89.9186L61.3791 88.5026L67.0881 89.9326L66.0434 86.1659L46.4746 78.4199Z" fill="black"/>
<path d="M73.3327 68.4828L71.34 80.0794L54.2705 71.3847L51.5205 81.6997C58.2297 85.2145 71.8101 91.066 73.5573 90.8981C76.0436 90.6574 77.762 89.0651 78.5351 85.1641C79.0156 82.7491 78.7962 66.5547 78.7962 66.5547L73.3327 68.4828Z" fill="#C17560"/>
<path d="M55.3858 69.8265C55.3858 69.8265 49.003 65.6009 46.219 70.9263C44.2289 76.1201 46.4305 80.2674 51.3456 82.8419C53.7143 84.0844 56.9423 85.6179 60.2016 87.0759L64.9521 75.7787L55.3858 69.8265Z" fill="#00AD37"/>
<path d="M55.3856 69.8284C55.3856 69.8284 55.4483 69.8591 55.5632 69.9291L56.0698 70.2341L57.9972 71.4151L64.9807 75.7302L65.0224 75.7582L65.0016 75.8058L60.2641 87.1057L60.238 87.1701L60.1779 87.1421C58.5065 86.3978 56.7828 85.603 55.0278 84.7635C54.253 84.3904 53.4878 84.0172 52.7322 83.6441C51.98 83.2663 51.2384 82.8885 50.5254 82.4716C50.1772 82.257 49.8333 82.0322 49.4938 81.7972C49.1699 81.5453 48.8357 81.3158 48.5406 81.036C47.9375 80.517 47.3947 79.9223 46.924 79.2646L46.6001 78.7665C46.4953 78.6014 46.4002 78.4294 46.3155 78.2516C46.1373 77.9074 45.982 77.5501 45.8506 77.1826C45.7905 77.0007 45.7461 76.8104 45.6939 76.6229L45.6182 76.3431C45.5973 76.2479 45.5868 76.1556 45.5685 76.0632C45.5398 75.8785 45.5085 75.691 45.4797 75.5035C45.451 75.316 45.4588 75.1341 45.4484 74.9439C45.4296 74.581 45.4357 74.2172 45.4667 73.8553C45.4928 73.4999 45.5633 73.1529 45.6103 72.8115C45.6573 72.4701 45.7696 72.1454 45.8558 71.8236C45.942 71.5018 46.0674 71.1996 46.1692 70.8974C46.5402 70.1746 47.0556 69.5487 47.6787 69.0644C48.2488 68.6508 48.8971 68.3775 49.5774 68.264C50.6704 68.1219 51.7792 68.2375 52.8262 68.6027C53.4898 68.8233 54.1346 69.1042 54.7536 69.4422C54.9651 69.5597 55.1218 69.6549 55.2289 69.722C55.336 69.7892 55.383 69.8284 55.383 69.8284L55.2211 69.736C55.114 69.6744 54.9599 69.5849 54.7379 69.473C54.1163 69.1479 53.4708 68.8784 52.8079 68.667C51.7694 68.3135 50.6712 68.2075 49.5904 68.3564C48.924 68.4699 48.2896 68.7415 47.7336 69.1511C47.1245 69.6292 46.6215 70.2455 46.2606 70.9561C46.1614 71.2583 46.0569 71.5634 45.9524 71.8768C45.848 72.1902 45.7931 72.5204 45.7148 72.8506C45.6364 73.1809 45.6025 73.5307 45.5764 73.8833C45.5476 74.2397 45.5423 74.5978 45.5607 74.955C45.5607 75.1341 45.579 75.3188 45.5947 75.5147C45.6103 75.7106 45.6521 75.8785 45.6834 76.0604C45.6991 76.1528 45.7096 76.2451 45.7305 76.3403L45.8062 76.6201C45.8584 76.802 45.9002 76.9867 45.9629 77.1658C46.0917 77.5268 46.2444 77.8775 46.4199 78.2152C46.5045 78.3893 46.5978 78.5584 46.6994 78.7217L47.0206 79.2086C47.486 79.8573 48.0227 80.4436 48.6189 80.9548C48.9211 81.2226 49.2358 81.4739 49.5617 81.7076C49.8925 81.9408 50.2337 82.1628 50.5854 82.3736C51.2906 82.785 52.0323 83.1656 52.7844 83.5406C53.5366 83.9156 54.3044 84.2933 55.08 84.6599C56.8298 85.4995 58.5535 86.2942 60.2223 87.0414L60.1361 87.0778C61.9094 82.8801 63.5312 79.0127 64.8971 75.789L64.9206 75.8617L57.9606 71.5018L56.0568 70.2621L55.5606 69.9431C55.4431 69.8843 55.3856 69.8284 55.3856 69.8284Z" fill="#263238"/>
<path d="M73.0768 70.4719L73.4607 66.1511C73.4607 66.1511 71.9198 62.8266 71.9512 62.4936C71.9825 62.1606 72.0713 60.3276 72.0713 60.3276L75.9234 56.6113C75.9234 56.6113 77.1718 56.6113 77.2031 57.935C77.2031 57.935 78.4018 57.6551 78.4201 59.2055C78.4201 59.2055 79.7259 59.2558 79.7521 60.3836C79.7521 60.3836 80.5355 60.2716 80.5094 61.4498C80.4885 62.2893 80.1438 65.5383 80.1438 65.5383L78.5324 68.541L78.3992 71.5436L73.0768 70.4719Z" fill="#C17560"/>
<path d="M73.4764 84.3169C73.432 84.3337 73.1473 83.2843 72.5649 82.1089C71.9826 80.9336 71.3061 80.1109 71.3401 80.0801C71.5126 80.2319 71.6662 80.4069 71.7971 80.6006C72.134 81.0496 72.4312 81.5311 72.6851 82.039C72.9365 82.5474 73.1462 83.0783 73.3119 83.6257C73.3915 83.8485 73.4467 84.0804 73.4764 84.3169Z" fill="#7C4236"/>
<path d="M51.5204 68.3906C51.475 68.5273 51.4181 68.6594 51.3506 68.7852C51.2331 69.0343 51.0581 69.3897 50.8283 69.8262C50.387 70.7021 49.7576 71.8998 49.055 73.2151L47.2452 76.5732L46.6967 77.5918C46.6332 77.7197 46.5607 77.8422 46.48 77.9584C46.5254 77.8217 46.5822 77.6896 46.6497 77.5638C46.7673 77.3176 46.9422 76.9594 47.1721 76.5228C47.6134 75.6469 48.2402 74.4492 48.9453 73.1339C49.6505 71.8187 50.2799 70.6517 50.7526 69.7758C50.9772 69.3645 51.1626 69.0203 51.3036 68.7572C51.3659 68.6286 51.4384 68.5059 51.5204 68.3906Z" fill="white"/>
<path d="M56.7252 70.834C56.7164 70.8777 56.7024 70.92 56.6835 70.9599L56.5398 71.3097C56.4119 71.6147 56.2238 72.0485 55.9809 72.583C55.5004 73.652 54.8135 75.1156 54.0092 76.7079C53.2048 78.3001 52.4422 79.7189 51.8676 80.7348C51.5804 81.2413 51.3453 81.6498 51.1782 81.9297L50.9849 82.2515C50.9628 82.2894 50.9374 82.325 50.9092 82.3578C50.9092 82.3578 50.9222 82.3131 50.9614 82.2347L51.1338 81.9017L51.7841 80.6816C52.3351 79.6546 53.0899 78.2274 53.889 76.6379C54.6882 75.0484 55.3933 73.5932 55.8948 72.5354L56.4928 71.2873L56.6573 70.9487C56.675 70.9073 56.6979 70.8687 56.7252 70.834Z" fill="white"/>
<path d="M62.5491 74.3281C62.5062 74.4868 62.4529 74.642 62.3898 74.7927C62.2827 75.0725 62.1155 75.5091 61.9014 76.0268C61.4705 77.0594 60.8332 78.4698 60.0471 79.9809C59.261 81.4921 58.4802 82.8129 57.8821 83.7504C57.5844 84.2177 57.3363 84.5899 57.1587 84.8445C57.0738 84.9814 56.9786 85.1106 56.874 85.2307C56.9443 85.0849 57.0256 84.9455 57.1169 84.8138L57.8011 83.6944C58.3757 82.7457 59.1435 81.4193 59.9296 79.9137C60.7157 78.4082 61.3608 77.0062 61.8126 75.996L62.3349 74.7815C62.3935 74.6238 62.4652 74.4721 62.5491 74.3281Z" fill="white"/>
<path d="M47.373 117.072L47.9163 111.892L71.7995 111.609L72.408 117.072H47.373Z" fill="#263238"/>
<path d="M76.9495 116.616C76.9495 116.655 69.5926 116.688 60.5172 116.688C51.4419 116.688 44.085 116.655 44.085 116.616C44.085 116.577 51.4419 116.543 60.5172 116.543C69.5926 116.543 76.9495 116.571 76.9495 116.616Z" fill="#455A64"/>
<path d="M63.6383 26.2305H54.7562C54.4619 26.2305 54.2234 26.4861 54.2234 26.8013V27.2127C54.2234 27.528 54.4619 27.7836 54.7562 27.7836H63.6383C63.9325 27.7836 64.171 27.528 64.171 27.2127V26.8013C64.171 26.4861 63.9325 26.2305 63.6383 26.2305Z" fill="#455A64"/>
<path d="M66.5844 27.0084C66.5844 27.1623 66.5418 27.3127 66.462 27.4406C66.3823 27.5686 66.2689 27.6683 66.1362 27.7272C66.0035 27.786 65.8575 27.8015 65.7167 27.7714C65.5759 27.7414 65.4465 27.6673 65.345 27.5585C65.2434 27.4497 65.1743 27.3111 65.1463 27.1602C65.1183 27.0093 65.1326 26.8529 65.1876 26.7107C65.2425 26.5686 65.3356 26.4471 65.455 26.3616C65.5744 26.2761 65.7148 26.2305 65.8584 26.2305C65.9537 26.2305 66.0481 26.2506 66.1362 26.2897C66.2243 26.3288 66.3043 26.3861 66.3717 26.4583C66.4392 26.5306 66.4926 26.6163 66.5291 26.7107C66.5656 26.8051 66.5844 26.9063 66.5844 27.0084Z" fill="#455A64"/>
<path d="M36.4905 38.2871H37.0782V51.2717H36.4905C36.0611 51.2717 35.6492 51.0889 35.3456 50.7636C35.0419 50.4382 34.8713 49.9969 34.8713 49.5367V40.0221C34.8713 39.7943 34.9132 39.5687 34.9946 39.3582C35.076 39.1477 35.1952 38.9564 35.3456 38.7953C35.4959 38.6342 35.6744 38.5064 35.8709 38.4192C36.0673 38.332 36.2779 38.2871 36.4905 38.2871Z" fill="#263238"/>
<path d="M36.3443 57.1523H36.9319V70.137H36.3443C35.9149 70.137 35.503 69.9542 35.1993 69.6288C34.8957 69.3034 34.7251 68.8621 34.7251 68.402V58.8874C34.7251 58.4272 34.8957 57.9859 35.1993 57.6605C35.503 57.3351 35.9149 57.1523 36.3443 57.1523Z" fill="#263238"/>
<path d="M36.3863 76.399C36.3471 76.399 36.3184 66.9739 36.3184 55.3493C36.3184 43.7247 36.3471 34.2969 36.3863 34.2969C36.4254 34.2969 36.4542 43.7219 36.4542 55.3493C36.4542 66.9767 36.4228 76.399 36.3863 76.399Z" fill="#455A64"/>
</svg>
