<svg width="120" height="120" viewBox="0 0 120 120" fill="none" xmlns="http://www.w3.org/2000/svg">
<path d="M75.2243 2.09523C73.6516 0.945361 71.8088 0.240237 69.8828 0.0513619C67.9569 -0.137513 66.0162 0.196578 64.2576 1.01976C46.894 9.16669 -10.4173 37.9151 1.65631 57.1346C15.8409 79.7224 66.1823 115.358 84.6417 113.658C103.101 111.958 124.03 80.3608 119.33 59.5636C115.381 42.0893 88.8303 12.0781 75.2243 2.09523Z" fill="#00AD37"/>
<path opacity="0.7" d="M75.2243 2.09523C73.6516 0.945361 71.8088 0.240237 69.8828 0.0513619C67.9569 -0.137513 66.0162 0.196578 64.2576 1.01976C46.894 9.16669 -10.4173 37.9151 1.65631 57.1346C15.8409 79.7224 66.1823 115.358 84.6417 113.658C103.101 111.958 124.03 80.3608 119.33 59.5636C115.381 42.0893 88.8303 12.0781 75.2243 2.09523Z" fill="white"/>
<path d="M60.3386 120C72.2216 120 81.8547 118.812 81.8547 117.347C81.8547 115.881 72.2216 114.693 60.3386 114.693C48.4556 114.693 38.8225 115.881 38.8225 117.347C38.8225 118.812 48.4556 120 60.3386 120Z" fill="#263238"/>
<path d="M109.918 15.4684C113.915 15.4684 117.155 12.1626 117.155 8.08477C117.155 4.00692 113.915 0.701172 109.918 0.701172C105.921 0.701172 102.681 4.00692 102.681 8.08477C102.681 12.1626 105.921 15.4684 109.918 15.4684Z" stroke="#263238" stroke-linecap="round" stroke-linejoin="round"/>
<path d="M109.968 14.067V13.0738C109.161 13.0398 108.563 12.7731 108.168 12.2708C107.773 11.7685 107.557 11.0563 107.518 10.1312L109.017 9.84742C109.026 10.1692 109.065 10.4894 109.134 10.8037C109.183 11.0522 109.298 11.282 109.467 11.4677C109.547 11.5464 109.642 11.6076 109.745 11.6476C109.849 11.6876 109.96 11.7056 110.071 11.7004C110.184 11.7113 110.298 11.6937 110.404 11.6492C110.509 11.6047 110.602 11.5346 110.674 11.445C110.802 11.2529 110.865 11.0241 110.855 10.7924C110.874 10.4247 110.776 10.0608 110.577 9.75378C110.36 9.45411 110.11 9.18085 109.832 8.93937L108.625 7.8639C108.415 7.67338 108.223 7.46344 108.052 7.23677C107.885 7.01108 107.755 6.76021 107.665 6.49331C107.565 6.18306 107.517 5.85785 107.523 5.53134C107.506 5.22017 107.551 4.90864 107.655 4.61585C107.76 4.32307 107.922 4.05521 108.132 3.82874C108.577 3.402 109.163 3.16101 109.773 3.15337V2.19141H110.279V3.14202C110.624 3.15157 110.961 3.24394 111.264 3.4116C111.512 3.55921 111.723 3.76432 111.879 4.01035C112.035 4.26783 112.148 4.54965 112.215 4.84462C112.291 5.15414 112.336 5.47077 112.349 5.78956L110.872 6.05347C110.861 5.77817 110.83 5.50406 110.78 5.23338C110.745 5.02288 110.654 4.8264 110.516 4.66585C110.443 4.59456 110.355 4.54098 110.258 4.50905C110.162 4.47713 110.06 4.46768 109.96 4.4814C109.846 4.47751 109.733 4.49913 109.629 4.54474C109.525 4.59035 109.431 4.65882 109.356 4.7453C109.214 4.92359 109.141 5.14863 109.15 5.3781C109.138 5.67208 109.216 5.96264 109.373 6.20954C109.537 6.43732 109.723 6.64745 109.929 6.83666L111.125 7.90079C111.375 8.13389 111.608 8.38521 111.823 8.65277C112.039 8.9278 112.213 9.23499 112.338 9.56366C112.47 9.92671 112.535 10.3115 112.529 10.6987C112.536 11.0985 112.451 11.4942 112.279 11.8537C112.116 12.1848 111.872 12.4673 111.57 12.6737C111.242 12.8893 110.868 13.0199 110.48 13.054V14.067H109.968Z" fill="#263238"/>
<path d="M17.7894 7.92441C19.0774 7.61789 19.878 6.30413 19.5775 4.99005C19.2771 3.67596 17.9894 2.85917 16.7015 3.1657C15.4135 3.47222 14.6129 4.78598 14.9134 6.10006C15.2138 7.41414 16.5015 8.23093 17.7894 7.92441Z" stroke="#263238" stroke-linecap="round" stroke-linejoin="round"/>
<path d="M20.669 12.5712C20.605 10.3294 19.0975 8.5332 17.2452 8.5332C15.3929 8.5332 13.8882 10.3294 13.8242 12.5712" stroke="#263238" stroke-linecap="round" stroke-linejoin="round"/>
<path d="M22.7521 7.16119C23.852 7.16119 24.7436 6.25154 24.7436 5.12942C24.7436 4.00731 23.852 3.09766 22.7521 3.09766C21.6523 3.09766 20.7607 4.00731 20.7607 5.12942C20.7607 6.25154 21.6523 7.16119 22.7521 7.16119Z" stroke="#263238" stroke-linecap="round" stroke-linejoin="round"/>
<path d="M25.5946 10.9731C25.5418 9.10022 24.3041 7.61328 22.7521 7.61328C22.2478 7.63166 21.758 7.79052 21.3359 8.07264C20.9138 8.35476 20.5754 8.74938 20.3574 9.21372" stroke="#263238" stroke-linecap="round" stroke-linejoin="round"/>
<path d="M11.8049 7.16119C12.9047 7.16119 13.7963 6.25154 13.7963 5.12942C13.7963 4.00731 12.9047 3.09766 11.8049 3.09766C10.7051 3.09766 9.81348 4.00731 9.81348 5.12942C9.81348 6.25154 10.7051 7.16119 11.8049 7.16119Z" stroke="#263238" stroke-linecap="round" stroke-linejoin="round"/>
<path d="M8.9624 10.9731C9.0069 9.10022 10.2668 7.61328 11.8049 7.61328C12.3092 7.633 12.7988 7.79237 13.2211 8.07431C13.6435 8.35625 13.9827 8.75012 14.2024 9.21372" stroke="#263238" stroke-linecap="round" stroke-linejoin="round"/>
<path d="M83.1562 15.1464V101.258C83.1562 102.393 82.7144 103.482 81.9278 104.284C81.1412 105.087 80.0744 105.537 78.962 105.537H42.4937C41.3814 105.537 40.3146 105.087 39.528 104.284C38.7414 103.482 38.2996 102.393 38.2996 101.258V15.1464C38.2996 14.012 38.7411 12.924 39.527 12.1216C40.313 11.3191 41.3791 10.868 42.491 10.8672H58.1441L58.158 10.9183C58.5474 12.3371 59.4457 13.2821 60.4414 13.2821H60.9977C61.9962 13.2821 62.8945 12.3485 63.2839 10.9183L63.2978 10.8672H78.9481C79.5001 10.8653 80.047 10.9747 80.5575 11.1889C81.0679 11.4031 81.5319 11.718 81.9229 12.1155C82.3138 12.5131 82.624 12.9854 82.8356 13.5055C83.0473 14.0256 83.1562 14.5833 83.1562 15.1464Z" fill="white" stroke="#263238" stroke-linecap="round" stroke-linejoin="round"/>
<path d="M86.0073 35.7132V27.1123H85.2452V16.1021C85.2452 14.3019 84.5443 12.5755 83.2966 11.3025C82.049 10.0296 80.3568 9.31445 78.5924 9.31445H42.8611C41.0967 9.31445 39.4045 10.0296 38.1568 11.3025C36.9092 12.5755 36.2083 14.3019 36.2083 16.1021V103.596C36.2083 105.396 36.9092 107.123 38.1568 108.395C39.4045 109.668 41.0967 110.384 42.8611 110.384H78.5924C80.3568 110.384 82.049 109.668 83.2966 108.395C84.5443 107.123 85.2452 105.396 85.2452 103.596V43.0429H86.0073V37.9607H85.2452V35.7132H86.0073ZM83.1565 98.7491C83.1557 100.549 82.4546 102.275 81.2071 103.548C79.9596 104.821 78.2678 105.536 76.5036 105.537H44.9526C43.1882 105.537 41.496 104.822 40.2484 103.549C39.0007 102.276 38.2998 100.549 38.2998 98.7491V17.6543C38.2998 15.8541 39.0007 14.1277 40.2484 12.8547C41.496 11.5818 43.1882 10.8667 44.9526 10.8667H58.1443L58.1582 10.9177C58.5476 12.3366 59.4459 13.2815 60.4416 13.2815H60.9979C61.9964 13.2815 62.8947 12.3479 63.2841 10.9177L63.298 10.8667H76.4897C77.3644 10.8652 78.2309 11.0396 79.0395 11.38C79.8481 11.7204 80.583 12.2201 81.2022 12.8505C81.8213 13.4809 82.3126 14.2297 82.648 15.054C82.9833 15.8783 83.1561 16.7619 83.1565 17.6543V98.7491Z" fill="#00AD37" stroke="#263238" stroke-linecap="round" stroke-linejoin="round"/>
<path d="M78.0612 10.252H43.3952C42.5526 10.252 41.7182 10.4213 40.9397 10.7503C40.1613 11.0793 39.4539 11.5615 38.8581 12.1694C38.2623 12.7773 37.7896 13.499 37.4672 14.2932C37.1447 15.0875 36.9788 15.9387 36.9788 16.7984V102.905C36.9788 104.641 37.6548 106.306 38.8581 107.534C40.0614 108.761 41.6935 109.451 43.3952 109.451H78.0612C78.9037 109.451 79.7379 109.282 80.5163 108.953C81.2946 108.624 82.0018 108.141 82.5974 107.533C83.193 106.925 83.6653 106.204 83.9875 105.41C84.3096 104.615 84.4753 103.764 84.4749 102.905V16.7984C84.4753 15.9389 84.3096 15.0877 83.9875 14.2934C83.6653 13.4992 83.193 12.7775 82.5974 12.1695C82.0018 11.5616 81.2946 11.0794 80.5163 10.7503C79.7379 10.4213 78.9037 10.252 78.0612 10.252ZM83.1566 98.9914C83.1566 100.728 82.4805 102.393 81.2772 103.62C80.0739 104.848 78.4419 105.538 76.7401 105.538H44.7163C43.0146 105.538 41.3825 104.848 40.1792 103.62C38.9759 102.393 38.2999 100.728 38.2999 98.9914V17.4114C38.2999 15.6759 38.9756 14.0115 40.1784 12.7843C41.3812 11.5571 43.0125 10.8677 44.7135 10.8677H58.1444L58.1583 10.9188C58.5477 12.3376 59.446 13.2826 60.4417 13.2826H60.998C61.9965 13.2826 62.8948 12.349 63.2842 10.9188L63.2981 10.8677H76.7262C77.57 10.8659 78.4059 11.0338 79.1859 11.362C79.966 11.6901 80.675 12.172 81.2723 12.7801C81.8696 13.3882 82.3435 14.1105 82.6668 14.9057C82.9901 15.7009 83.1566 16.5533 83.1566 17.4142V98.9914Z" fill="#263238" stroke="#263238" stroke-linecap="round" stroke-linejoin="round"/>
<path d="M61.215 11.194C61.2155 11.0675 61.1792 10.9437 61.1106 10.8383C61.0421 10.7328 60.9444 10.6506 60.8299 10.6019C60.7155 10.5532 60.5894 10.5403 60.4678 10.5649C60.3461 10.5894 60.2344 10.6503 60.1467 10.7397C60.059 10.8292 59.9993 10.9432 59.9753 11.0673C59.9512 11.1915 59.9638 11.3201 60.0115 11.4369C60.0593 11.5536 60.1399 11.6533 60.2432 11.7233C60.3466 11.7932 60.4679 11.8302 60.5919 11.8297C60.7572 11.8297 60.9156 11.7627 61.0325 11.6435C61.1493 11.5243 61.215 11.3626 61.215 11.194Z" fill="white"/>
<path d="M42.2854 13.6416C42.2854 14.2858 41.5762 14.5184 41.5734 15.0094V15.0434H42.2631V15.2619H41.3425V15.0604C41.3425 14.3709 42.0518 14.2347 42.0518 13.6416C42.0518 13.4231 41.9822 13.3068 41.807 13.3068C41.6318 13.3068 41.5623 13.4316 41.5623 13.6217V13.8119H41.3425V13.6416C41.3425 13.3153 41.4899 13.0996 41.8126 13.0996C42.1352 13.0996 42.2854 13.3068 42.2854 13.6416Z" fill="#263238"/>
<path d="M43.4339 13.6418V13.6957C43.4446 13.7875 43.4254 13.8804 43.3791 13.9599C43.3329 14.0395 43.2622 14.1012 43.178 14.1355C43.2626 14.1709 43.3335 14.2337 43.3797 14.3142C43.4259 14.3947 43.445 14.4884 43.4339 14.5811V14.7456C43.4339 15.072 43.2837 15.2848 42.961 15.2848C42.6384 15.2848 42.491 15.072 42.491 14.7456V14.5981H42.7079V14.7598C42.7079 14.9528 42.7858 15.0691 42.9555 15.0691C43.1251 15.0691 43.2002 14.9556 43.2002 14.74V14.5725C43.2002 14.3626 43.114 14.2632 42.936 14.2547H42.8109V14.0419H42.9388C42.9743 14.0421 43.0093 14.0347 43.0418 14.0201C43.0743 14.0056 43.1034 13.9842 43.1272 13.9575C43.1511 13.9307 43.1692 13.8991 43.1803 13.8648C43.1915 13.8305 43.1954 13.7941 43.1919 13.7581V13.6418C43.1919 13.4233 43.1168 13.3098 42.9471 13.3098C42.7775 13.3098 42.6996 13.429 42.6996 13.6219V13.7326H42.4827V13.6418C42.4827 13.3155 42.6329 13.1055 42.9527 13.1055C43.2726 13.1055 43.4339 13.3041 43.4339 13.6418Z" fill="#263238"/>
<path d="M43.8846 13.793V14.0767H43.6621V13.793H43.8846ZM43.8846 14.9564V15.2544H43.6621V14.9564H43.8846Z" fill="#263238"/>
<path d="M44.3602 13.9844C44.3906 13.9281 44.4359 13.8817 44.4911 13.8506C44.5462 13.8194 44.6088 13.8048 44.6717 13.8085C44.9499 13.8085 45.0583 14.01 45.0583 14.3136V14.7336C45.0583 15.0599 44.9081 15.2727 44.5855 15.2727C44.2629 15.2727 44.1155 15.0599 44.1155 14.7336V14.5889H44.3296V14.7478C44.3296 14.9407 44.4075 15.0571 44.5744 15.0571C44.7413 15.0571 44.8219 14.9407 44.8219 14.7478V14.3335C44.8219 14.1405 44.7441 14.0242 44.5744 14.0242C44.544 14.023 44.5137 14.0281 44.4852 14.0391C44.4567 14.0501 44.4307 14.0668 44.4087 14.0883C44.3867 14.1097 44.3691 14.1354 44.3569 14.1638C44.3448 14.1923 44.3383 14.223 44.338 14.254V14.3023H44.121L44.1767 13.1133H45.0111V13.3261H44.3936L44.3602 13.9844Z" fill="#263238"/>
<path d="M46.2236 13.6434V13.6831H45.9983V13.615C45.9983 13.422 45.9204 13.3085 45.7507 13.3085C45.5811 13.3085 45.4949 13.4249 45.4949 13.6547V14.1343C45.519 14.0634 45.5653 14.0026 45.6266 13.961C45.6878 13.9195 45.7608 13.8997 45.8342 13.9044C46.1123 13.9044 46.2236 14.1031 46.2236 14.4124V14.7359C46.2236 15.0622 46.0622 15.275 45.7424 15.275C45.4225 15.275 45.2612 15.0622 45.2612 14.7359V13.6434C45.2612 13.3057 45.4114 13.0957 45.7424 13.0957C46.0734 13.0957 46.2236 13.3029 46.2236 13.6434ZM45.5032 14.4436V14.7501C45.5032 14.943 45.5811 15.0594 45.7507 15.0594C45.9204 15.0594 46.0011 14.943 46.0011 14.7501V14.4294C46.0011 14.2364 45.9204 14.1201 45.7507 14.1201C45.5811 14.1201 45.5032 14.2364 45.5032 14.4294V14.4436Z" fill="#263238"/>
<path d="M69.108 13.7207H68.5156V15.2303H69.108V13.7207Z" fill="#263238"/>
<path d="M69.8981 13.4199H69.3057V15.2332H69.8981V13.4199Z" fill="#263238"/>
<path d="M70.6852 13.2051H70.0928V15.2312H70.6852V13.2051Z" fill="#263238"/>
<path d="M71.475 12.8301H70.8826V15.2307H71.475V12.8301Z" fill="#263238"/>
<path d="M78.7983 15.188H75.2466V12.9746H78.7983V15.188ZM75.4441 14.9894H78.6008V13.1761H75.4441V14.9894Z" fill="#263238"/>
<path d="M77.6163 13.3945H75.7417V14.768H77.6163V13.3945Z" fill="#263238"/>
<path d="M79.1236 13.8203H78.6758V14.3424H79.1236V13.8203Z" fill="#263238"/>
<path d="M73.9448 14.7095C73.9212 14.7096 73.898 14.7027 73.8781 14.6897C73.1549 14.2527 72.6766 14.6585 72.6571 14.6897C72.6449 14.7023 72.6304 14.7123 72.6144 14.7191C72.5984 14.726 72.5813 14.7295 72.5639 14.7295C72.5466 14.7295 72.5294 14.726 72.5134 14.7191C72.4974 14.7123 72.4829 14.7023 72.4708 14.6897C72.4465 14.6642 72.4329 14.6301 72.4329 14.5946C72.4329 14.5591 72.4465 14.525 72.4708 14.4995C72.4986 14.4768 73.1077 13.932 74.0032 14.4995C74.0181 14.5086 74.0311 14.5206 74.0414 14.5348C74.0517 14.549 74.0592 14.5651 74.0633 14.5823C74.0675 14.5994 74.0682 14.6173 74.0655 14.6347C74.0629 14.6522 74.0568 14.6689 74.0477 14.684C74.0331 14.695 74.0165 14.703 73.9988 14.7074C73.9811 14.7118 73.9628 14.7125 73.9448 14.7095Z" fill="#263238"/>
<path d="M74.2118 14.2516C74.1885 14.2513 74.1657 14.2455 74.145 14.2345C73.0993 13.5989 72.3984 14.2147 72.3901 14.2345C72.3631 14.2548 72.3297 14.2641 72.2964 14.2604C72.2631 14.2567 72.2323 14.2404 72.2103 14.2147C72.1882 14.1889 72.1764 14.1557 72.1773 14.1215C72.1781 14.0874 72.1915 14.0548 72.2148 14.0302C72.2148 14.0302 73.0715 13.2811 74.2813 14.0302C74.2962 14.0393 74.3092 14.0512 74.3195 14.0654C74.3298 14.0796 74.3373 14.0958 74.3414 14.1129C74.3455 14.1301 74.3463 14.1479 74.3436 14.1654C74.3409 14.1829 74.3349 14.1996 74.3258 14.2147C74.3111 14.2296 74.293 14.2408 74.2732 14.2472C74.2534 14.2536 74.2323 14.2551 74.2118 14.2516Z" fill="#263238"/>
<path d="M74.4567 13.7285C74.4321 13.729 74.4079 13.7221 74.3872 13.7086C73.0633 12.9056 72.1844 13.6632 72.1482 13.7086C72.1352 13.7204 72.1199 13.7293 72.1034 13.735C72.0869 13.7406 72.0695 13.7428 72.0521 13.7415C72.0348 13.7402 72.0179 13.7354 72.0024 13.7273C71.9869 13.7192 71.9731 13.708 71.9619 13.6944C71.9495 13.682 71.9397 13.6672 71.933 13.6509C71.9263 13.6346 71.9229 13.6171 71.9229 13.5994C71.9229 13.5817 71.9263 13.5642 71.933 13.5479C71.9397 13.5315 71.9495 13.5167 71.9619 13.5043C71.9619 13.5043 73.0188 12.5849 74.5123 13.5043C74.5425 13.5232 74.5643 13.5533 74.5731 13.5882C74.5819 13.6232 74.5771 13.6602 74.5596 13.6916C74.546 13.7048 74.5298 13.7149 74.512 13.7213C74.4943 13.7276 74.4754 13.7301 74.4567 13.7285Z" fill="#263238"/>
<path d="M73.5471 14.9362C73.5471 15.0036 73.5276 15.0694 73.4909 15.1254C73.4542 15.1814 73.4021 15.2251 73.3411 15.2508C73.2801 15.2766 73.213 15.2834 73.1483 15.2702C73.0835 15.2571 73.0241 15.2246 72.9774 15.177C72.9307 15.1294 72.8989 15.0687 72.8861 15.0027C72.8732 14.9366 72.8798 14.8681 72.905 14.8059C72.9303 14.7437 72.9731 14.6905 73.028 14.6531C73.0829 14.6157 73.1474 14.5957 73.2134 14.5957C73.2573 14.5953 73.3009 14.6039 73.3416 14.6209C73.3822 14.6378 73.4192 14.6629 73.4502 14.6946C73.4813 14.7263 73.5059 14.764 73.5225 14.8055C73.5391 14.847 73.5475 14.8914 73.5471 14.9362Z" fill="#263238"/>
<path d="M16.6504 26.5566H19.8934" stroke="#263238" stroke-linecap="round" stroke-linejoin="round"/>
<path d="M41.7905 26.5566H45.0335" stroke="#263238" stroke-linecap="round" stroke-linejoin="round"/>
<path d="M19.8933 17.8691L21.7178 19.3163" stroke="#263238" stroke-linecap="round" stroke-linejoin="round"/>
<path d="M41.3843 17.8691L39.5598 19.3163" stroke="#263238" stroke-linecap="round" stroke-linejoin="round"/>
<path d="M27.1914 14.3535L27.3944 17.4551" stroke="#263238" stroke-linecap="round" stroke-linejoin="round"/>
<path d="M34.2891 14.7637L33.8831 17.4538" stroke="#263238" stroke-linecap="round" stroke-linejoin="round"/>
<path d="M38.8895 22.6836H21.384V38.0949H38.8895V22.6836Z" fill="white" stroke="#263238" stroke-linecap="round" stroke-linejoin="round"/>
<path d="M27.8839 22.6836H24.5825V38.0949H27.8839V22.6836Z" fill="#00AD37" stroke="#263238" stroke-linecap="round" stroke-linejoin="round"/>
<path d="M38.8896 22.6836H31.2161V38.0949H38.8896V22.6836Z" fill="white" stroke="#263238" stroke-linecap="round" stroke-linejoin="round"/>
<path d="M28.9018 21.4253L26.3347 20.2903C26.2718 20.2848 26.2085 20.2848 26.1456 20.2903L26.1038 20.2676H23.52L25.5337 21.2324C25.5439 21.3767 25.5653 21.52 25.5976 21.6609C25.6651 21.8762 25.784 22.0709 25.9438 22.2275C26.1036 22.3841 26.2991 22.4975 26.5127 22.5576L26.5294 22.6399H26.8075L31.277 22.7023C31.277 22.7023 30.12 22.0525 28.9018 21.4253Z" fill="#00AD37" stroke="#263238" stroke-linecap="round" stroke-linejoin="round"/>
<path d="M28.6961 22.6821C28.6961 22.6821 25.9148 21.1526 24.4074 20.48C22.8999 19.8075 22.8471 20.8461 23.0167 21.6406C23.1864 22.4352 24.2155 22.6196 24.2155 22.6196L28.6961 22.6821Z" fill="#00AD37" stroke="#263238" stroke-linecap="round" stroke-linejoin="round"/>
<path d="M29.3581 21.5684H28.3763C28.2363 21.568 28.0976 21.5958 27.9682 21.6503C27.8388 21.7048 27.7212 21.7849 27.6222 21.8859C27.5232 21.9868 27.4448 22.1068 27.3914 22.2388C27.338 22.3709 27.3107 22.5124 27.311 22.6552H30.4233C30.4233 22.3669 30.3111 22.0905 30.1113 21.8867C29.9115 21.6829 29.6406 21.5684 29.3581 21.5684Z" fill="#00AD37" stroke="#263238" stroke-linecap="round" stroke-linejoin="round"/>
<path d="M35.4934 20.2778H33.2239L32.929 21.4128C31.7108 22.0399 30.5649 22.6699 30.5649 22.6699L35.0345 22.6075H35.3126L35.3265 22.5252C35.5406 22.4655 35.7367 22.3523 35.897 22.1957C36.0573 22.0391 36.1767 21.8441 36.2443 21.6285C36.3806 20.9815 36.3639 20.1671 35.4934 20.2778Z" fill="#00AD37" stroke="#263238" stroke-linecap="round" stroke-linejoin="round"/>
<path d="M27.884 22.6821C27.884 22.6821 30.6653 21.1526 32.1756 20.48C33.6858 19.8075 33.7331 20.8461 33.5523 21.6406C33.3715 22.4352 32.3536 22.6196 32.3536 22.6196L27.884 22.6821Z" fill="#00AD37" stroke="#263238" stroke-linecap="round" stroke-linejoin="round"/>
<path d="M21.9542 39.1805C21.9542 39.1805 20.4913 38.1873 20.8111 37.8724C21.131 37.5574 22.7024 38.2498 23.0612 38.7237C23.42 39.1975 23.2392 39.5154 22.9416 39.5437C22.644 39.5721 21.9542 39.1805 21.9542 39.1805Z" fill="white" stroke="#263238" stroke-linecap="round" stroke-linejoin="round"/>
<path d="M23.192 38.0224C23.192 38.0224 20.9252 36.822 21.4704 37.9316C22.0155 39.0411 23.3728 40.0598 23.9179 40.3379C24.463 40.616 27.4557 40.5224 27.4557 40.5224C27.4557 40.5224 26.8995 39.5036 26.3654 39.2255C25.8314 38.9475 23.192 38.0224 23.192 38.0224Z" fill="white" stroke="#263238" stroke-linecap="round" stroke-linejoin="round"/>
<path d="M25.367 38.0228C25.367 38.0228 22.3743 36.3599 22.2825 37.0069C22.1908 37.6539 24.6411 39.7821 25.456 40.151C26.0954 40.3923 26.7712 40.5181 27.453 40.5228L25.367 38.0228Z" fill="white" stroke="#263238" stroke-linecap="round" stroke-linejoin="round"/>
<path d="M37.1541 40.8842C37.1541 40.8842 36.0666 38.2934 35.2489 37.9245C34.4312 37.5556 27.0886 38.2934 27.0886 38.2934C27.0886 38.2934 23.5508 35.3337 23.8233 36.8121C24.0959 38.2905 26.3626 40.0527 26.9968 40.5011C27.6309 40.9494 32.348 40.7848 32.348 40.7848L33.7998 42.1724L37.1541 40.8842Z" fill="white" stroke="#263238" stroke-linecap="round" stroke-linejoin="round"/>
<path d="M81.7992 45.0443C81.6294 45.38 81.584 45.7669 81.6713 46.134C81.8136 46.4965 82.032 46.8229 82.311 47.0903L82.5251 48.441L85.4288 48.5715L84.2329 44.0312L81.7992 45.0443Z" fill="white" stroke="#263238" stroke-linecap="round" stroke-linejoin="round"/>
<path d="M79.8274 36.6269C79.8274 36.6269 81.0373 44.6575 81.218 45.1399C81.3988 45.6223 82.7923 46.1898 83.279 45.9429C83.7657 45.696 82.9146 44.5241 82.9146 44.5241L83.1566 36.8028C83.1566 36.8028 81.0984 36.0026 79.8274 36.6269Z" fill="#263238" stroke="#263238" stroke-linecap="round" stroke-linejoin="round"/>
<path d="M83.2179 39.1507C83.2179 39.1507 81.5213 39.0287 81.4601 39.338C81.3989 39.6473 81.4017 40.6944 81.7049 40.8192C82.0081 40.9441 84.0662 41.1285 84.4278 41.0037C84.5488 40.941 84.6563 40.854 84.7436 40.748C84.831 40.642 84.8965 40.519 84.9362 40.3866C84.9759 40.2541 84.9891 40.1149 84.9748 39.9771C84.9606 39.8393 84.9193 39.7059 84.8533 39.5848C84.489 39.0287 83.2179 39.1507 83.2179 39.1507Z" fill="white" stroke="#263238" stroke-linecap="round" stroke-linejoin="round"/>
<path d="M83.2177 41.1299C83.2177 41.1299 81.5823 41.1299 81.6435 41.4988C81.7047 41.8677 81.5211 42.6736 82.1998 42.7985C83.0049 42.9005 83.8205 42.8795 84.6195 42.736C84.7555 42.7103 84.8813 42.6448 84.9815 42.5476C85.0818 42.4503 85.1523 42.3255 85.1844 42.1882C85.2164 42.0509 85.2088 41.9071 85.1624 41.7741C85.1159 41.6412 85.0326 41.5249 84.9227 41.4392C84.4276 41.0051 83.2177 41.1299 83.2177 41.1299Z" fill="white" stroke="#263238" stroke-linecap="round" stroke-linejoin="round"/>
<path d="M80.5894 41.6032C80.5894 41.6032 80.3808 40.0481 79.8885 40.0907C79.5214 40.1219 78.6453 40.4057 78.7259 41.0896C78.8643 41.9059 79.1231 42.6962 79.4935 43.4335C79.5576 43.5587 79.6559 43.6622 79.7764 43.7315C79.897 43.8009 80.0348 43.833 80.1729 43.8239C80.3111 43.8149 80.4436 43.7652 80.5546 43.6808C80.6656 43.5963 80.7501 43.4808 80.798 43.3483C81.0622 42.7496 80.5894 41.6032 80.5894 41.6032Z" fill="white" stroke="#263238" stroke-linecap="round" stroke-linejoin="round"/>
<path d="M83.3093 42.7963C83.3093 42.7963 81.8297 42.7963 81.8853 43.1538C81.9409 43.5114 81.7741 44.2889 82.3776 44.4024C83.1067 44.4997 83.8463 44.4796 84.5693 44.3428C84.696 44.3114 84.8116 44.2446 84.9031 44.1498C84.9946 44.0551 85.0584 43.9361 85.0873 43.8064C85.1162 43.6767 85.1091 43.5413 85.0667 43.4155C85.0243 43.2897 84.9484 43.1784 84.8474 43.0943C84.4052 42.68 83.3093 42.7963 83.3093 42.7963Z" fill="white" stroke="#263238" stroke-linecap="round" stroke-linejoin="round"/>
<path d="M83.3792 44.1524C83.3792 44.1524 82.1415 44.1524 82.1888 44.4362C82.2361 44.72 82.097 45.3811 82.6005 45.4805C83.21 45.5643 83.8288 45.548 84.4333 45.4322C84.5388 45.4051 84.6348 45.3487 84.7107 45.2691C84.7865 45.1896 84.8392 45.0901 84.8629 44.9818C84.8865 44.8735 84.8802 44.7606 84.8446 44.6558C84.809 44.5509 84.7456 44.4582 84.6614 44.388C84.297 44.0531 83.3792 44.1524 83.3792 44.1524Z" fill="white" stroke="#263238" stroke-linecap="round" stroke-linejoin="round"/>
<path d="M79.4906 28.4948C78.7061 28.4977 77.9385 28.728 77.2772 29.1587C76.6159 29.5894 76.0881 30.2029 75.7553 30.9278C75.4225 31.6527 75.2984 32.4591 75.3973 33.2531C75.4963 34.0472 75.8143 34.7963 76.3144 35.4131C77.0737 36.3467 78.3169 37.0163 79.5017 36.9397C83.1341 36.7127 92.6573 41.917 92.6573 41.917V23.5176C92.6573 23.5176 83.2676 28.5715 79.4906 28.4948Z" fill="white" stroke="#263238" stroke-linecap="round" stroke-linejoin="round"/>
<path d="M78.7508 32.8681C78.7508 31.9182 79.0019 30.9858 79.4776 30.1693C79.9534 29.3528 80.6363 28.6823 81.4542 28.2285C80.8124 28.3967 80.1532 28.4862 79.4906 28.4953C78.7061 28.4982 77.9385 28.7284 77.2772 29.1591C76.6159 29.5898 76.0881 30.2033 75.7553 30.9282C75.4225 31.6531 75.2984 32.4595 75.3973 33.2536C75.4963 34.0476 75.8143 34.7967 76.3144 35.4135C77.0737 36.3471 78.3169 37.0168 79.5017 36.9401C79.9227 36.9234 80.3442 36.9528 80.7589 37.0281C80.1352 36.537 79.63 35.9068 79.2819 35.1857C78.9339 34.4647 78.7522 33.6719 78.7508 32.8681Z" fill="#00AD37" stroke="#263238" stroke-linecap="round" stroke-linejoin="round"/>
<path d="M101.403 34.8873C102.581 29.9506 99.6131 24.9745 94.7744 23.7729C89.9358 22.5713 85.0585 25.5992 83.8808 30.5359C82.703 35.4726 85.6708 40.4487 90.5094 41.6503C95.3481 42.8519 100.225 39.824 101.403 34.8873Z" fill="white" stroke="#263238" stroke-linecap="round" stroke-linejoin="round"/>
<path d="M100.331 32.7155C100.332 34.2668 99.8812 35.7836 99.0368 37.0737C98.1924 38.3639 96.992 39.3697 95.5874 39.9638C94.1827 40.5578 92.6369 40.7136 91.1455 40.4112C89.6541 40.1089 88.284 39.3622 87.2087 38.2654C86.1333 37.1686 85.4008 35.771 85.104 34.2495C84.8071 32.728 84.9592 31.1508 85.541 29.7175C86.1227 28.2841 87.1081 27.059 88.3723 26.197C89.6366 25.3351 91.123 24.875 92.6435 24.875C94.6817 24.8758 96.6362 25.7019 98.0776 27.1721C99.5191 28.6422 100.33 30.636 100.331 32.7155Z" fill="#A6A6A6" stroke="#263238" stroke-linecap="round" stroke-linejoin="round"/>
<path d="M92.6437 30.8014V34.6408L86.7307 37.731C85.83 36.6211 85.2459 35.2798 85.0423 33.8539C84.8387 32.428 85.0235 30.9724 85.5765 29.6465L92.6437 30.8014Z" fill="white" stroke="#263238" stroke-linecap="round" stroke-linejoin="round"/>
<path d="M94.5209 32.7162C94.5209 33.0952 94.4107 33.4656 94.2043 33.7807C93.9979 34.0957 93.7045 34.3412 93.3613 34.4861C93.0181 34.631 92.6405 34.6688 92.2762 34.5946C91.912 34.5205 91.5774 34.3378 91.315 34.0696C91.0526 33.8014 90.874 33.4599 90.8018 33.0881C90.7297 32.7164 90.7673 32.3312 90.9098 31.9812C91.0523 31.6313 91.2934 31.3323 91.6025 31.1222C91.9116 30.9121 92.2748 30.8002 92.6463 30.8008C93.1437 30.8015 93.6205 31.0037 93.972 31.3628C94.3235 31.7219 94.5209 32.2087 94.5209 32.7162Z" fill="white" stroke="#263238" stroke-linecap="round" stroke-linejoin="round"/>
<path d="M81.9161 48.5615L81.6157 47.2761L85.5151 46.7852L85.4289 48.57L81.9161 48.5615Z" fill="white" stroke="#263238" stroke-linecap="round" stroke-linejoin="round"/>
<path d="M33.5661 42.6846L32.6677 41.2147L36.8063 39.0723L37.1539 40.8742L33.5661 42.6846Z" fill="white" stroke="#263238" stroke-linecap="round" stroke-linejoin="round"/>
<path d="M58.723 40.5587C58.723 40.5587 52.0701 39.8038 51.4916 40.1046C50.9131 40.4054 42.4747 50.587 42.4747 50.587L37.2904 40.0308L32.9265 41.9888C32.9265 41.9888 38.3945 61.0012 39.2818 61.2169C40.169 61.4325 48.5935 55.7146 48.5935 55.7146L48.0762 63.2543C48.0762 63.2543 49.6282 69.588 56.5035 70.794C63.3789 72 67.4396 66.5715 68.3268 64.7611C68.9874 63.3181 69.555 61.8328 70.0262 60.3145L73.2052 50.7374C73.2052 50.7374 82.1554 58.1919 84.1468 59.1056C86.1382 60.0194 87.9877 60.8423 88.2103 60.3883C88.4328 59.9342 86.2161 47.8713 86.2161 47.8713L81.4879 48.0983L81.7104 49.9825C81.7104 49.9825 75.5748 41.7533 75.0575 40.9332C74.5402 40.1131 72.9882 40.255 71.1415 39.7272C69.2947 39.1994 58.723 40.5587 58.723 40.5587Z" fill="#00AD37" stroke="#263238" stroke-linecap="round" stroke-linejoin="round"/>
<path d="M48.5962 55.7146L53.5497 51.9434" stroke="#263238" stroke-linecap="round" stroke-linejoin="round"/>
<path d="M51.7751 53.3779L54.2867 52.9238" stroke="#263238" stroke-linecap="round" stroke-linejoin="round"/>
<path d="M73.2078 50.7384L74.9071 44.6289" stroke="#263238" stroke-linecap="round" stroke-linejoin="round"/>
<path d="M73.8726 48.7777L75.7193 46.1387" stroke="#263238" stroke-linecap="round" stroke-linejoin="round"/>
<path d="M81.9272 54.373L82.0023 55.8657" stroke="#263238" stroke-linecap="round" stroke-linejoin="round"/>
<path d="M81.7075 49.9844L81.841 52.6716" stroke="#263238" stroke-linecap="round" stroke-linejoin="round"/>
<path d="M42.4634 50.5879L44.0153 53.9051" stroke="#263238" stroke-linecap="round" stroke-linejoin="round"/>
<path d="M61.2344 39.728L57.983 40.3325C57.983 40.3325 56.801 41.3115 56.1363 43.5731C55.7325 44.9547 55.4359 46.3665 55.249 47.7955L58.0581 47.9488L55.8331 50.2189C55.8331 50.2189 56.5006 51.1979 57.9024 53.3091C59.01 54.9008 60.2178 56.4174 61.5181 57.8494L57.4017 63.2551C57.4017 63.2551 62.4275 62.1201 65.5315 58.6553C68.6354 55.1905 70.4738 49.9834 70.4738 49.9834L68.0346 48.0225L70.6212 47.4947C70.6212 47.4947 71.1385 43.1985 68.3962 40.4006C65.6538 37.6026 61.2344 39.728 61.2344 39.728Z" fill="#00AD37" stroke="#263238" stroke-linecap="round" stroke-linejoin="round"/>
<path d="M68.5522 41.5398C68.5522 41.5398 67.69 43.2822 67.5175 46.5171C67.384 49.0426 66.0852 52.2605 64.9393 54.5363C64.0298 56.3468 63.2149 57.5613 63.1565 57.374C63.1565 57.374 62.6781 56.5908 61.9132 54.3093C61.7269 53.7645 61.5266 53.1289 61.3097 52.3939C60.1972 48.6226 59.2404 42.516 59.6826 41.31C59.8901 40.7155 60.1373 40.1362 60.4224 39.5762C63.9714 44.4797 68.5522 41.5398 68.5522 41.5398Z" fill="white" stroke="#263238" stroke-linecap="round" stroke-linejoin="round"/>
<path d="M64.0436 51.8702L64.9391 54.5348C64.0297 56.3452 63.2147 57.5598 63.1563 57.3725C63.1563 57.3725 62.6779 56.5893 61.9131 54.3078L63.1563 52.0178L61.9214 49.6597L63.3788 48.1699L65.373 50.2074L64.0436 51.8702Z" fill="#263238" stroke="#263238" stroke-linecap="round" stroke-linejoin="round"/>
<path d="M60.9397 50.7391L63.3789 48.1738L66.3493 51.0342" stroke="#263238" stroke-linecap="round" stroke-linejoin="round"/>
<path d="M60.4224 39.5781C60.5055 41.0973 60.8044 42.5961 61.3096 44.0276C61.8693 45.4732 62.5621 46.8614 63.3789 48.1734L66.8583 43.1224C66.8583 43.1224 63.0841 43.4998 60.4224 39.5781Z" stroke="#263238" stroke-linecap="round" stroke-linejoin="round"/>
<path d="M70.9939 31.5858C70.9939 31.5858 72.0508 31.4184 72.0508 32.8911C72.0508 34.3639 71.4389 36.1772 71.4389 36.1772L70.9939 31.5858Z" fill="white" stroke="#263238" stroke-linecap="round" stroke-linejoin="round"/>
<path d="M70.6213 26.1558C70.6213 26.1558 71.3611 33.0172 71.4334 35.0547C71.5058 37.0921 71.286 38.8997 70.6213 39.8049C69.9566 40.7101 67.2838 44.3282 65.8931 44.4786C64.5025 44.629 62.9366 43.877 62.347 43.3435C61.7573 42.81 58.9454 38.2896 58.9454 38.2896C58.9454 38.2896 56.8039 38.1392 56.2865 35.2732C55.7692 32.4071 58.6506 33.0882 58.6506 33.0882C58.6506 33.0882 57.0987 30.5995 56.9513 28.1875C56.8039 25.7755 56.3588 24.8675 62.7169 24.7171C69.0749 24.5667 70.6213 26.1558 70.6213 26.1558Z" fill="white" stroke="#263238" stroke-linecap="round" stroke-linejoin="round"/>
<path d="M67.2948 30.9824L69.0692 37.2395L66.3352 36.4109" stroke="#263238" stroke-linecap="round" stroke-linejoin="round"/>
<path d="M63.6014 35.6562L61.457 36.1103" stroke="#263238" stroke-linecap="round" stroke-linejoin="round"/>
<path d="M62.5667 36.0332C62.7723 36.6735 63.1525 37.2408 63.6629 37.6685C64.1732 38.0962 64.7925 38.3666 65.4481 38.4481C67.8122 38.8226 68.9942 38.3714 68.9942 38.3714" stroke="#263238" stroke-linecap="round" stroke-linejoin="round"/>
<path d="M63.1562 37.2383C63.1562 37.2383 63.0839 41.0095 64.4134 41.1599C65.7428 41.3103 65.448 38.4471 65.448 38.4471C64.6085 38.2149 63.8273 37.8028 63.1562 37.2383Z" fill="#263238" stroke="#263238" stroke-linecap="round" stroke-linejoin="round"/>
<path d="M63.4287 39.8477C63.6095 40.5344 63.9126 41.1047 64.4133 41.1615C64.5393 41.1796 64.6677 41.1629 64.7852 41.1129C64.9026 41.063 65.0047 40.9818 65.0808 40.8777C64.8221 40.4152 63.9293 40.0321 63.4287 39.8477Z" fill="white" stroke="#263238" stroke-linecap="round" stroke-linejoin="round"/>
<path d="M64.0768 32.7158C64.0768 33.1329 63.896 33.4706 63.6707 33.4706C63.4454 33.4706 63.2646 33.1329 63.2646 32.7158C63.2646 32.2986 63.4454 31.9609 63.6707 31.9609C63.896 31.9609 64.0768 32.2986 64.0768 32.7158Z" fill="#263238"/>
<path d="M69.0332 32.038C69.0332 32.4552 68.8496 32.7928 68.6243 32.7928C68.399 32.7928 68.2183 32.4552 68.2183 32.038C68.2183 31.6209 68.4018 31.2832 68.6243 31.2832C68.8468 31.2832 69.0332 31.6209 69.0332 32.038Z" fill="#263238"/>
<path d="M62.3442 31.4343C62.6895 31.0339 63.1272 30.7276 63.6177 30.5433C64.1082 30.359 64.636 30.3024 65.1533 30.3787" stroke="#263238" stroke-linecap="round" stroke-linejoin="round"/>
<path d="M67.5173 30.0766C67.5173 30.0766 68.4769 28.2662 70.0205 29.1714" stroke="#263238" stroke-linecap="round" stroke-linejoin="round"/>
<path d="M62.7865 26.3053C62.7865 26.3053 60.4975 25.9278 61.0148 26.6089C61.5321 27.2899 62.7142 28.1157 62.1273 28.6435C61.5405 29.1713 60.0581 30.0623 60.1332 30.5277C60.2083 30.9931 60.3529 32.8659 60.1332 33.32C59.9134 33.774 59.3933 33.8478 58.876 33.7711C58.3587 33.6945 57.6189 32.3381 57.3241 31.9607C57.0292 31.5833 54.3675 28.8705 54.8849 26.6827C55.4022 24.4948 60.9453 22.761 60.9453 22.761C60.9453 22.761 64.4859 18.6918 66.8583 18.6152C69.2308 18.5386 68.3352 20.803 68.249 21.0272C68.1627 21.2514 71.6477 20.803 72.3124 22.988C72.9772 25.173 72.7574 25.7774 69.7258 26.6089C66.6942 27.4403 62.7865 26.3053 62.7865 26.3053Z" fill="#263238" stroke="#263238" stroke-linecap="round" stroke-linejoin="round"/>
<path d="M109.406 23.2949L103.382 24.884L104.628 25.5197L101.202 26.5809L108.158 25.6275L106.394 24.779L109.406 23.2949Z" fill="#263238"/>
<path d="M110.641 38.2581L104.547 36.9727L105.393 38.102L101.858 37.5118L108.514 39.7876L107.295 38.2326L110.641 38.2581Z" fill="#263238"/>
<path d="M104.088 48.5029L98.9569 44.9104L99.3073 46.2867L96.2729 44.3457L101.546 49.0761L101.015 47.1607L104.088 48.5029Z" fill="#263238"/>
<path d="M48.5684 85.377V76.6909H50.607C51.1007 76.6782 51.593 76.7482 52.0644 76.8981C52.4389 77.0204 52.759 77.2736 52.9684 77.6132C53.1959 78.0313 53.3039 78.5061 53.2799 78.9838C53.2825 79.3013 53.2508 79.6182 53.1853 79.9287C53.1294 80.188 53.0194 80.4319 52.8627 80.6438C52.6979 80.8498 52.4817 81.0066 52.2369 81.0978L53.4245 85.377H51.8698L50.8407 81.4043H50.1259V85.377H48.5684ZM50.1259 80.3998H50.607C50.854 80.4117 51.1003 80.3661 51.3274 80.2664C51.5055 80.1804 51.6433 80.0266 51.7112 79.8379C51.7966 79.5961 51.8362 79.34 51.828 79.0831C51.8527 78.7385 51.77 78.3949 51.5916 78.1012C51.4331 77.8827 51.1327 77.7721 50.6933 77.7721H50.137L50.1259 80.3998Z" fill="#00AD37"/>
<path d="M54.4453 85.3775V76.6914H58.0193V77.8066H56.0112V80.3038H57.5965V81.4104H56.0112V84.2992H58.0499V85.3917L54.4453 85.3775Z" fill="#00AD37"/>
<path d="M58.9453 85.3775V76.6914H62.447V77.7726H60.5001V80.3265H62.0882V81.4331H60.5001V85.3775H58.9453Z" fill="#00AD37"/>
<path d="M63.2563 85.3775V76.6914H66.8303V77.8066H64.8111V80.3038H66.3992V81.4104H64.8111V84.2992H66.8581V85.3917L63.2563 85.3775Z" fill="#00AD37"/>
<path d="M67.7566 85.377V76.6909H69.7953C70.288 76.6781 70.7794 76.7481 71.2499 76.8981C71.6254 77.0198 71.9466 77.2731 72.1566 77.6132C72.3832 78.0316 72.4902 78.5064 72.4653 78.9838C72.4693 79.3014 72.4376 79.6185 72.3708 79.9287C72.3158 80.1878 72.2067 80.4317 72.0509 80.6438C71.8861 80.8498 71.6699 81.0067 71.4251 81.0978L72.6127 85.377H71.0552L70.0261 81.4043H69.3113V85.377H67.7566ZM69.3113 80.3998H69.7953C70.0422 80.4114 70.2885 80.3658 70.5156 80.2664C70.6925 80.1788 70.8298 80.0255 70.8994 79.8379C70.9824 79.5955 71.0211 79.3397 71.0135 79.0831C71.0382 78.7386 70.9554 78.3949 70.7771 78.1013C70.6213 77.8828 70.3209 77.7721 69.8787 77.7721H69.3225L69.3113 80.3998Z" fill="#00AD37"/>
<path d="M42.0879 96.5455L43.79 87.8594H45.4588L47.1637 96.5455H45.7203L45.3837 94.5421H43.9013L43.5536 96.5455H42.0879ZM44.0515 93.5319H45.2057L44.6272 89.8855L44.0515 93.5319Z" fill="#00AD37"/>
<path d="M50.5181 96.5455V87.8594H54.0197V88.9519H52.0728V91.4831H53.6581V92.5898H52.0728V96.5455H50.5181Z" fill="#00AD37"/>
<path d="M54.8291 96.5469V87.8608H56.8678C57.3614 87.8483 57.8537 87.9182 58.3252 88.068C58.6997 88.1902 59.0198 88.4435 59.2291 88.783C59.4557 89.2014 59.5627 89.6763 59.5378 90.1536C59.5413 90.4711 59.5105 90.788 59.446 91.0986C59.3902 91.3579 59.2801 91.6018 59.1234 91.8137C58.9586 92.0197 58.7424 92.1765 58.4976 92.2677L59.6852 96.5469H58.1305L57.1014 92.5742H56.3866V96.5469H54.8291ZM56.3866 91.5725H56.8678C57.1149 91.5836 57.3613 91.537 57.5881 91.4363C57.7657 91.3496 57.9033 91.196 57.972 91.0078C58.0573 90.766 58.097 90.5098 58.0888 90.253C58.1118 89.9086 58.0291 89.5654 57.8524 89.2711C57.6938 89.0526 57.3935 88.942 56.954 88.942H56.3978L56.3866 91.5725Z" fill="#00AD37"/>
<path d="M60.7393 96.5455V87.8594H62.2745V96.5455H60.7393Z" fill="#00AD37"/>
<path d="M63.5984 96.5455V87.8594H67.1724V88.9746H65.1531V91.4717H66.7412V92.5784H65.1531V95.453H67.1918V96.5455H63.5984Z" fill="#00AD37"/>
<path d="M68.0957 96.5455V87.8594H69.1804L71.2497 92.8111V87.8594H72.5346V96.5455H71.5028L69.4224 91.3554V96.5455H68.0957Z" fill="#00AD37"/>
<path d="M73.8252 96.5464V87.8603H75.8333C76.3895 87.832 76.945 87.9289 77.4603 88.144C77.8373 88.3237 78.1348 88.6404 78.2947 89.0322C78.4742 89.5188 78.5583 90.0365 78.5423 90.5561V93.7314C78.5574 94.2667 78.4734 94.8 78.2947 95.3035C78.14 95.7096 77.8425 96.0425 77.4603 96.2371C76.9671 96.4625 76.4288 96.5665 75.8889 96.5407L73.8252 96.5464ZM75.3827 95.4425H75.8555C76.1253 95.4664 76.3952 95.3986 76.6232 95.2496C76.7841 95.104 76.8837 94.9007 76.9013 94.682C76.9403 94.381 76.9579 94.0776 76.9541 93.774V90.4539C76.9609 90.1682 76.9357 89.8825 76.8791 89.6026C76.8649 89.5073 76.8323 89.4158 76.7831 89.3334C76.7339 89.2511 76.6691 89.1796 76.5926 89.123C76.3607 89.0059 76.1025 88.954 75.8444 88.9726H75.3938L75.3827 95.4425Z" fill="#00AD37"/>
</svg>
