<svg width="81" height="120" viewBox="0 0 81 120" fill="none" xmlns="http://www.w3.org/2000/svg">
<g clip-path="url(#clip0_110520_34463)">
<path d="M13.834 24.0004C13.834 17.6351 16.6436 11.5305 21.6445 7.02956C26.6455 2.52861 33.4283 0 40.5007 0C47.5731 0 54.3559 2.52861 59.3569 7.02956C64.3579 11.5305 67.1674 17.6351 67.1674 24.0004V36.0006H56.5007V24.0004C56.5007 20.1812 54.815 16.5185 51.8144 13.8179C48.8138 11.1173 44.7442 9.60017 40.5007 9.60017C36.2572 9.60017 32.1876 11.1173 29.187 13.8179C26.1864 16.5185 24.5007 20.1812 24.5007 24.0004V36.0006H13.834V24.0004Z" fill="#00AD37"/>
<path d="M67.1667 47.999H13.8333C6.46954 47.999 0.5 53.3717 0.5 59.9992V108C0.5 114.628 6.46954 120 13.8333 120H67.1667C74.5305 120 80.5 114.628 80.5 108V59.9992C80.5 53.3717 74.5305 47.999 67.1667 47.999Z" fill="#00AD37"/>
<path d="M20.5 72H60.5" stroke="white" stroke-width="2"/>
<path d="M40.5008 102.002C44.1827 102.002 47.1674 99.3158 47.1674 96.0021C47.1674 92.6883 44.1827 90.002 40.5008 90.002C36.8189 90.002 33.8341 92.6883 33.8341 96.0021C33.8341 99.3158 36.8189 102.002 40.5008 102.002Z" fill="white"/>
</g>
<defs>
<clipPath id="clip0_110520_34463">
<rect width="80" height="120" fill="white" transform="translate(0.5)"/>
</clipPath>
</defs>
</svg>
