<svg width="20" height="20" viewBox="0 0 20 20" fill="none" xmlns="http://www.w3.org/2000/svg">
<path fill-rule="evenodd" clip-rule="evenodd" d="M2 9.00052C2 5.13418 5.13407 2 9.00001 2C12.8659 2 16 5.13418 16 9.00052C16 10.8859 15.2548 12.5972 14.0428 13.8558C14.0082 13.8823 13.9749 13.9114 13.9433 13.9431C13.9115 13.9748 13.8824 14.0082 13.8558 14.0428C12.5972 15.2554 10.8857 16.001 9.00001 16.001C5.13407 16.001 2 12.8669 2 9.00052ZM14.6183 16.0323C13.0786 17.2643 11.1253 18.001 9.00001 18.001C4.02938 18.001 0 13.9713 0 9.00052C0 4.02973 4.02938 0 9.00001 0C13.9706 0 18 4.02973 18 9.00052C18 11.1254 17.2637 13.0783 16.0324 14.6179L19.7073 18.2927C20.0978 18.6832 20.0978 19.3164 19.7073 19.7069C19.3168 20.0974 18.6836 20.0975 18.2931 19.7069L14.6183 16.0323Z" fill="#00AD37"/>
</svg>
