<svg width="17" height="16" viewBox="0 0 17 16" fill="none" xmlns="http://www.w3.org/2000/svg">
<path fill-rule="evenodd" clip-rule="evenodd" d="M2.5 7.22173C2.5 4.33788 4.83791 2 7.72194 2C10.606 2 12.9439 4.33788 12.9439 7.22173C12.9439 8.62617 12.3894 9.90113 11.4874 10.8396C11.4606 10.8614 11.4347 10.8847 11.4098 10.9096C11.3849 10.9345 11.3616 10.9604 11.3399 10.9871C10.4014 11.889 9.12641 12.4435 7.72194 12.4435C4.83791 12.4435 2.5 10.1056 2.5 7.22173ZM12.0725 12.9865C10.8625 13.9011 9.35558 14.4435 7.72194 14.4435C3.7334 14.4435 0.5 11.2102 0.5 7.22173C0.5 3.23325 3.7334 0 7.72194 0C11.7105 0 14.9439 3.23325 14.9439 7.22173C14.9439 8.8554 14.4014 10.3624 13.4868 11.5723L16.2072 14.2926C16.5977 14.6832 16.5977 15.3163 16.2072 15.7069C15.8167 16.0974 15.1835 16.0974 14.793 15.7069L12.0725 12.9865Z" fill="#121212"/>
</svg>
