<svg width="24" height="22" viewBox="0 0 24 22" fill="none" xmlns="http://www.w3.org/2000/svg">
<path d="M22.1312 4.74585L21.3106 2.7445C21.0971 2.22375 20.7553 1.78266 20.3256 1.47349C19.8959 1.16432 19.3964 1 18.8862 1H4.86385C4.35364 1.00001 3.85411 1.16433 3.42443 1.4735C2.99475 1.78267 2.6529 2.22375 2.43937 2.7445L1.61877 4.74585C1.4622 5.12745 1.375 5.55225 1.375 6C1.375 7.37419 2.07474 8.53259 3.15466 8.88784C3.37679 8.96091 3.61501 9 3.86653 9C5.34084 9 6.53602 7.65685 6.53602 6C6.53602 7.65685 7.73119 9 9.20551 9C10.6798 9 11.875 7.65685 11.875 6C11.875 7.65685 13.0702 9 14.5445 9C16.0188 9 17.214 7.65685 17.214 6C17.214 7.65685 18.4092 9 19.8835 9C20.135 9 20.3732 8.96091 20.5953 8.88784C21.6753 8.53259 22.375 7.37419 22.375 6C22.375 5.55225 22.2878 5.12745 22.1312 4.74585Z" fill="#08A63B"/>
<path d="M3.15466 8.8293V8.88784M3.15466 21V8.88784M1.375 21H22.375M20.5953 17V8.88784M20.5953 8.8293V8.88784M6.71398 21V15C6.71398 13.8954 7.51078 13 8.49364 13H10.2733C11.2562 13 12.053 13.8954 12.053 15V21M15.4343 15H17.214M3.15466 8.88784C2.07474 8.53259 1.375 7.37419 1.375 6C1.375 5.55225 1.4622 5.12745 1.61877 4.74585L2.43937 2.7445C2.6529 2.22375 2.99475 1.78267 3.42443 1.4735C3.85411 1.16433 4.35364 1.00001 4.86385 1H18.8862C19.3964 1 19.8959 1.16432 20.3256 1.47349C20.7553 1.78266 21.0971 2.22375 21.3106 2.7445L22.1312 4.74585C22.2878 5.12745 22.375 5.55225 22.375 6C22.375 7.37419 21.6753 8.53259 20.5953 8.88784M3.15466 8.88784C3.37679 8.96091 3.61501 9 3.86653 9C5.34084 9 6.53602 7.65685 6.53602 6C6.53602 7.65685 7.73119 9 9.20551 9C10.6798 9 11.875 7.65685 11.875 6C11.875 7.65685 13.0702 9 14.5445 9C16.0188 9 17.214 7.65685 17.214 6C17.214 7.65685 18.4092 9 19.8835 9C20.135 9 20.3732 8.96091 20.5953 8.88784" stroke="#08A63B" stroke-width="1.6" stroke-miterlimit="10" stroke-linecap="round" stroke-linejoin="round"/>
</svg>
