<svg width="24" height="22" viewBox="0 0 24 22" fill="none" xmlns="http://www.w3.org/2000/svg">
<path d="M3.15466 8.8293V21M1.375 21H22.375M20.5953 17V8.8293M6.71398 21V15C6.71398 13.8955 7.51078 13 8.49364 13H10.2733C11.2562 13 12.053 13.8955 12.053 15V21M15.4343 15H17.214M22.1312 4.74585L21.3106 2.7445C21.0971 2.22375 20.7553 1.78266 20.3256 1.47349C19.8959 1.16432 19.3964 1 18.8862 1H4.86385C4.35364 1.00001 3.85411 1.16433 3.42443 1.4735C2.99475 1.78267 2.6529 2.22375 2.43937 2.7445L1.61877 4.74585C1.4622 5.12745 1.375 5.55225 1.375 6C1.375 7.65685 2.39221 9 3.86653 9C5.34084 9 6.53602 7.65685 6.53602 6C6.53602 7.65685 7.73119 9 9.20551 9C10.6798 9 11.875 7.65685 11.875 6C11.875 7.65685 13.0702 9 14.5445 9C16.0188 9 17.214 7.65685 17.214 6C17.214 7.65685 18.4092 9 19.8835 9C21.3578 9 22.375 7.65685 22.375 6C22.375 5.55225 22.2878 5.12745 22.1312 4.74585Z" stroke="#737373" stroke-width="1.6" stroke-miterlimit="10" stroke-linecap="round" stroke-linejoin="round"/>
</svg>
