<svg width="29" height="28" viewBox="0 0 29 28" fill="none" xmlns="http://www.w3.org/2000/svg">
<path d="M14.488 28C10.7782 28 7.22036 26.525 4.59715 23.8995C1.97395 21.274 0.500244 17.7131 0.500244 14C0.500244 10.287 1.97395 6.72607 4.59715 4.10057C7.22036 1.47507 10.7782 7.52094e-05 14.488 7.5154e-05C16.6678 -0.00714726 18.8179 0.506292 20.7597 1.49775C20.8741 1.55589 20.9761 1.63604 21.0596 1.73361C21.1431 1.83118 21.2067 1.94427 21.2465 2.06641C21.2864 2.18855 21.3019 2.31736 21.292 2.44547C21.2821 2.57359 21.2471 2.69851 21.189 2.81309C21.131 2.92768 21.0509 3.02969 20.9534 3.1133C20.8559 3.19691 20.7429 3.26048 20.6209 3.30039C20.4988 3.3403 20.3702 3.35576 20.2422 3.34589C20.1141 3.33601 19.9893 3.30101 19.8749 3.24286C18.2092 2.38363 16.3618 1.93702 14.488 1.94054C12.108 1.94054 9.78152 2.64672 7.8025 3.96983C5.82349 5.29294 4.2808 7.17358 3.36945 9.37402C2.4581 11.5745 2.21899 13.9959 2.68234 16.3324C3.1457 18.6688 4.29072 20.8153 5.97267 22.5006C7.65463 24.1858 9.79801 25.3341 12.1319 25.8004C14.4658 26.2667 16.8854 26.03 19.0849 25.1202C21.2844 24.2105 23.1651 22.6685 24.4892 20.6892C25.8132 18.7098 26.5213 16.3821 26.5239 14C26.5307 13.8916 26.5307 13.7829 26.5239 13.6745C26.4997 13.4154 26.5794 13.1574 26.7453 12.9571C26.9113 12.7568 27.1499 12.6307 27.4087 12.6066C27.6675 12.5824 27.9253 12.6621 28.1254 12.8282C28.3255 12.9943 28.4515 13.2331 28.4757 13.4921V14C28.4722 17.712 26.9974 21.2709 24.375 23.8957C21.7525 26.5205 18.1967 27.9966 14.488 28Z" fill="#00AD37"/>
<path d="M14.2528 18.4425C14.1264 18.4444 14.0009 18.4199 13.8844 18.3705C13.7679 18.3212 13.6629 18.2481 13.5762 18.156L7.2915 11.983C7.10875 11.7998 7.0061 11.5516 7.0061 11.2927C7.0061 11.0339 7.10875 10.7856 7.2915 10.6025C7.47831 10.4219 7.7279 10.3209 7.98764 10.3209C8.24738 10.3209 8.49697 10.4219 8.68377 10.6025L14.2658 16.1113L26.8223 3.75229C27.0091 3.57166 27.2587 3.4707 27.5184 3.4707C27.7781 3.4707 28.0277 3.57166 28.2145 3.75229C28.3973 3.93543 28.4999 4.18368 28.4999 4.44252C28.4999 4.70136 28.3973 4.94961 28.2145 5.13275L14.9685 18.156C14.8753 18.2505 14.7637 18.3247 14.6406 18.374C14.5174 18.4233 14.3854 18.4466 14.2528 18.4425Z" fill="#00AD37"/>
</svg>
