<svg width="17" height="18" viewBox="0 0 17 18" fill="none" xmlns="http://www.w3.org/2000/svg">
<path d="M0 0V18H12.5834L17 14.3161V0H0ZM1.26446 1.05469H15.7355V13.3477H11.4223V16.9453H1.26442L1.26446 1.05469ZM15.1083 14.4024L12.6867 16.4222V14.4024H15.1083Z" fill="#121212"/>
<path d="M5.8027 3.22266H11.1977V4.27734H5.8027V3.22266ZM3.32996 5.84763H13.6704V6.90232H3.32996V5.84763ZM3.32996 8.09763H13.6704V9.15232H3.32996V8.09763ZM3.32996 10.3476H13.6704V11.4023H3.32996V10.3476ZM3.32996 13.3477H4.6576V14.4023H3.32996V13.3477ZM5.92211 13.3477H8.50026V14.4023H5.92211V13.3477Z" fill="#121212"/>
</svg>
