<svg width="180" height="180" viewBox="0 0 180 180" fill="none" xmlns="http://www.w3.org/2000/svg">
<path d="M0 0H180V175.135H0V0Z" fill="white"/>
<path d="M153.432 154.939C112.486 199.282 75.5845 171.276 75.5845 171.276C75.5845 171.276 0.886756 105.927 13.0364 88.5363C13.0364 56.9715 68.3399 0 105.284 0C181.906 21.1861 194.378 110.596 153.432 154.939Z" fill="#E0FFEA"/>
<path d="M156.892 42.9102C157.156 43.1506 157.42 43.3918 157.683 43.6333L158.128 44.0401L158.595 44.488C158.766 44.6424 158.936 44.7969 159.112 44.9561C159.568 45.5398 159.568 45.5398 159.638 46.1803C159.406 48.2778 159.056 50.3401 158.656 52.407C158.436 53.5441 158.222 54.6827 158.009 55.8212C157.937 56.2049 157.937 56.2049 157.863 56.5965C157.057 60.9092 156.309 65.2343 155.549 69.5568C155.353 70.6752 155.156 71.7935 154.959 72.9119C154.927 73.0923 154.895 73.2727 154.863 73.4586C154.394 76.1149 153.912 78.7677 153.418 81.4185C152.968 83.8365 152.54 86.2586 152.119 88.6826C152.048 89.0858 151.978 89.489 151.908 89.8922C151.641 91.4225 151.374 92.9528 151.112 94.4839C150.725 96.7306 150.317 98.9719 149.897 101.211C149.094 105.49 148.346 109.779 147.613 114.072C147.532 114.546 147.451 115.02 147.37 115.494C147.331 115.723 147.292 115.951 147.251 116.187C146.881 118.35 146.495 120.51 146.106 122.669C145.74 124.711 145.406 126.757 145.1 128.809C144.888 130.18 144.617 131.521 144.308 132.871C143.509 136.427 142.956 140.044 142.352 143.643C142.089 145.206 141.824 146.768 141.56 148.331C141.468 148.872 141.377 149.414 141.286 149.956C141.203 150.448 141.203 150.448 141.118 150.949C141.07 151.237 141.022 151.525 140.972 151.822C140.863 152.428 140.741 153.022 140.595 153.619C138.682 153.715 136.838 153.352 134.957 153.023C134.593 152.96 134.229 152.898 133.865 152.836C132.907 152.672 131.949 152.506 130.991 152.339C130.039 152.174 129.087 152.01 128.136 151.847C127.019 151.655 125.902 151.463 124.785 151.27C122.566 150.886 120.345 150.512 118.123 150.146C116.046 149.803 113.976 149.436 111.908 149.033C109.36 148.549 106.807 148.123 104.245 147.735C96.4012 146.546 88.5635 145.278 80.7604 143.804C80.0659 143.674 79.3705 143.561 78.6727 143.454C78.4874 143.423 78.302 143.393 78.111 143.362C77.7574 143.304 77.4032 143.25 77.0485 143.201C75.6005 142.535 75.3327 142.122 74.2505 140.589L72.4637 138.643L73.2927 139.353C70.9791 137.46 69.1877 135.287 67.3788 132.844C66.9757 132.316 66.5694 131.791 66.1626 131.267C65.9759 132.169 65.8846 133.014 65.8694 133.938C65.8646 134.201 65.8597 134.464 65.8547 134.735C65.8507 135.016 65.8466 135.297 65.8424 135.586C65.8348 136.021 65.8348 136.021 65.8271 136.465C65.8112 137.389 65.7969 138.313 65.7825 139.238C65.772 139.865 65.7614 140.493 65.7507 141.12C65.7247 142.657 65.6999 144.193 65.6761 145.73C57.2071 148.941 39.6004 148.469 38.903 148.469C38.903 148.469 36.0004 148.373 34.2004 148.373C33.3004 148.373 33.3776 148.373 32.8504 148.373C32.499 148.373 31.9504 148.373 31.9504 148.373C31.9504 148.373 31.1273 148.395 30.6004 148.373C28.7901 148.299 27.5397 148.123 26.0274 147.045C25.2363 146.48 24.5836 145.941 24.3285 145.171C22.1886 138.711 23.8526 129.887 25.8469 123.605C27.134 119.416 27.7344 115.087 28.2662 110.724C28.766 106.665 29.6363 102.845 31.8653 99.4478C31.981 99.2654 32.0967 99.083 32.2159 98.8952C34.8913 95.1402 39.9582 93.8307 44.0815 93.2048C45.4572 92.962 46.1753 92.3994 47.1896 91.4191C47.9225 90.8373 48.4747 90.8284 49.3646 90.9035C52.1717 91.3918 54.8359 92.0421 57.4059 93.3996C57.7586 93.578 57.7586 93.5781 58.1185 93.7601C59.7604 94.6477 61.2729 95.7195 61.9895 97.6276C62.0948 97.9829 62.2 98.3383 62.3049 98.6938C62.6291 99.4552 63.1588 99.8504 63.7596 100.359C65.8609 102.215 67.8167 105.068 69.0511 107.682C68.5654 106.711 69.9478 109.566 69.0511 107.682C69.0511 107.682 70.9089 111.887 73.8005 115.292C74.7223 116.699 75.8613 118.082 76.8207 119.459C77.3701 120.248 77.9181 121.039 78.4616 121.833C78.6225 122.067 78.7833 122.301 78.949 122.542C79.2978 123.115 79.2978 123.115 79.2978 123.641C85.1432 122.598 85.1432 122.598 90.9278 121.225C91.1636 121.162 91.3994 121.1 91.6424 121.035C93.9856 120.382 94.9124 119.42 96.2488 117.264C96.39 117.044 96.5313 116.825 96.6768 116.599C97.8894 114.668 98.321 112.912 98.4779 110.608C98.5012 110.297 98.5011 110.297 98.5249 109.98C98.5735 109.323 98.6198 108.667 98.666 108.011C98.6988 107.563 98.7317 107.115 98.7648 106.668C98.8452 105.576 98.9234 104.484 99.0005 103.392C98.7878 103.399 98.7878 103.399 98.5708 103.407C94.8852 103.478 91.4528 101.428 88.8278 98.7248C85.1418 94.7892 83.3907 90.2919 83.3569 84.6888C83.3569 82.3377 83.4944 80.3166 84.4059 78.1476C84.5019 77.9141 84.5019 77.9141 84.5998 77.6759C86.4623 73.2467 89.6667 69.53 93.8857 67.6454C98.7551 65.7978 103.095 65.8939 107.936 68.0049C111.996 70.1156 115.288 73.8083 116.864 78.3941C116.998 78.8354 117.124 79.2794 117.244 79.7254C117.33 79.9881 117.416 80.2508 117.505 80.5214C118.394 83.9303 118.122 88.6094 116.757 91.8218C116.651 92.0892 116.545 92.3567 116.436 92.6323C115.636 94.51 114.621 96.0678 113.352 97.607C113.199 97.7938 113.046 97.9806 112.889 98.173C110.307 101.147 106.599 103.009 102.892 103.655H101.676L101.919 113.122H104.595L105.082 113.385C105.066 113.862 105.066 113.862 104.838 114.437C103.972 114.897 103.972 114.897 103.136 115.226L103.607 115.374C104.109 115.752 104.109 115.752 104.321 116.656C104.352 117.592 104.352 117.592 103.865 118.381H104.352L104.458 119.351C104.553 120.177 104.674 120.987 104.838 121.8C104.703 121.87 104.569 121.94 104.43 122.011C104.254 122.104 104.077 122.197 103.896 122.293C103.721 122.384 103.546 122.476 103.366 122.57C102.856 122.843 102.856 122.843 102.406 123.378C102.328 124.019 102.328 124.019 102.331 124.763C102.322 125.179 102.322 125.179 102.312 125.603C102.304 126.187 102.296 126.771 102.289 127.356C102.283 127.634 102.277 127.912 102.27 128.198C102.267 128.453 102.263 128.707 102.26 128.969C102.145 129.82 101.901 130.312 101.433 131.004C100.521 131.661 100.081 131.671 99.0005 131.53C98.3607 130.958 97.9124 130.492 97.541 129.689C97.5239 129.196 97.5205 128.703 97.5258 128.21C97.528 127.946 97.5302 127.682 97.5325 127.41C97.5367 127.106 97.5367 127.106 97.541 126.796H97.0545C97.0862 127.068 97.1179 127.34 97.1505 127.62C97.0361 128.832 96.8112 129.062 95.9796 129.8C95.8277 129.926 95.6757 130.052 95.5191 130.182C95.3642 130.317 95.2094 130.453 95.0499 130.593C94.5863 130.997 94.118 131.395 93.6491 131.793C93.1821 132.202 92.7158 132.613 92.2505 133.025C92.0363 133.213 91.8222 133.4 91.6015 133.593C90.9635 134.168 90.3526 134.767 89.742 135.375C87.193 137.866 84.5852 139.318 81.2694 140.245C81.1023 140.293 80.9352 140.34 80.763 140.389C80.3559 140.505 79.9485 140.619 79.541 140.733C85.7642 141.846 91.9898 142.936 98.2253 143.965C101.676 144.535 105.125 145.111 108.573 145.698C108.765 145.73 108.957 145.763 109.154 145.797C111.062 146.121 112.97 146.447 114.878 146.772C115.591 146.894 116.304 147.016 117.017 147.137C117.504 147.22 117.99 147.303 118.477 147.387C120.224 147.684 121.972 147.965 123.723 148.233C125.001 148.431 126.277 148.646 127.553 148.862C127.955 148.93 127.955 148.93 128.366 148.999C128.925 149.094 129.485 149.189 130.045 149.283C130.902 149.429 131.76 149.573 132.617 149.718C133.164 149.81 133.711 149.903 134.257 149.996C134.641 150.06 134.641 150.06 135.032 150.126C135.269 150.166 135.507 150.207 135.751 150.249C135.959 150.284 136.167 150.319 136.381 150.355C136.902 150.455 137.408 150.58 137.919 150.726C137.911 150.431 137.902 150.135 137.893 149.831C137.894 148.553 138.104 147.362 138.347 146.115C138.392 145.878 138.436 145.64 138.482 145.396C138.578 144.888 138.674 144.381 138.771 143.874C138.925 143.071 139.077 142.268 139.228 141.464C139.429 140.392 139.632 139.319 139.834 138.247C140.179 136.421 140.512 134.592 140.838 132.762C140.922 132.296 140.922 132.296 141.007 131.821C141.372 129.767 141.729 127.711 142.084 125.655C142.13 125.391 142.175 125.127 142.222 124.854C142.506 123.209 142.506 123.209 142.79 121.563C143.38 118.148 143.985 114.736 144.624 111.331C145.257 107.956 145.853 104.576 146.433 101.19C146.494 100.833 146.494 100.833 146.556 100.469C146.72 99.5146 146.883 98.5604 147.046 97.6061C147.427 95.3802 147.81 93.155 148.198 90.9305C148.266 90.5407 148.333 90.1508 148.401 89.7608C148.805 87.4184 149.239 85.0843 149.694 82.7525C150.284 79.72 150.821 76.6784 151.345 73.6319C152.158 68.9067 152.994 64.1877 153.878 59.4773C154.64 55.411 155.345 51.3342 156.035 47.2531C156.094 46.9048 156.094 46.9048 156.155 46.5495C156.228 46.1144 156.302 45.6792 156.375 45.244C156.51 44.444 156.654 43.6829 156.892 42.9102Z" fill="#00AD37"/>
<path d="M109.135 71.885C111.452 73.7603 113.232 75.997 114.324 78.9183C114.467 79.2889 114.467 79.2889 114.613 79.6671C115.977 83.7185 115.563 88.0333 113.949 91.9176C111.926 96.2472 108.799 98.8698 104.594 100.481C100.355 101.528 96.0284 100.799 92.3629 98.3356C89.6049 96.315 87.7741 93.588 86.5944 90.2258L86.3588 89.5766C85.1951 85.8024 85.6825 81.7235 87.1503 78.1592C88.0062 76.3111 89.1423 74.854 90.4863 73.396C90.6359 73.2282 90.7855 73.0604 90.9396 72.8875C95.8116 67.8235 103.751 67.9159 109.135 71.885Z" fill="white"/>
<path d="M42.127 56.5684C43.3994 56.9743 44.038 57.7844 44.757 58.9679C44.9261 59.5627 44.9261 59.5627 45.0003 60.0198H45.4867L45.6692 59.5267C46.0433 58.8391 46.2465 58.6873 46.9462 58.442C47.7758 58.3066 48.3637 58.2607 49.1031 58.7306C50.1323 59.626 50.7373 60.5907 51.3246 61.8605C51.5014 61.7136 51.5014 61.7136 51.6818 61.5637C52.5747 60.8825 53.098 60.5517 54.2131 60.5128C54.9978 60.678 55.5439 61.0166 56.2199 61.4661C57.7303 62.3589 59.3257 62.2774 61.0069 62.2673C62.9338 62.2821 64.5897 62.7092 66.1168 64.03L66.6489 64.7532C66.8182 64.9759 66.8182 64.9759 66.991 65.2031C67.844 66.4582 68.0516 67.5357 67.9848 69.0859C67.8407 69.8849 67.5178 70.3295 66.9796 70.8918C66.5375 71.474 66.3789 72.06 66.1624 72.7736C65.425 75.063 65.425 75.063 64.4597 75.7977C62.8951 76.5956 61.2602 77.1475 59.5949 77.6385C59.0574 78.2195 59.2756 79.4276 59.2756 80.1983C59.3527 81.0692 59.5373 81.6377 59.8837 82.4212C60.2844 83.3798 60.3848 83.9058 60.0965 84.9194C59.8628 85.5018 59.8628 85.5018 59.5949 86.0534C59.5165 86.2219 59.4381 86.3904 59.3573 86.5639C58.4371 88.2207 56.8558 88.8812 55.2165 89.472C54.4728 89.5512 53.7285 89.557 52.9817 89.5706C52.7808 89.5804 52.58 89.5902 52.3731 89.6004C50.8255 89.6241 49.8366 89.2338 48.6489 88.1571C45.9675 85.1509 44.7737 80.9084 44.6658 76.8167C44.7027 74.9557 44.9515 73.0106 45.73 71.3273L46.4597 71.0644C44.601 70.9849 44.601 70.9849 42.7807 71.3273C41.7365 71.6455 40.7261 71.806 39.6489 71.5903C39.132 71.0972 39.132 71.0972 38.6759 70.2755C38.383 69.8364 38.089 69.3982 37.7942 68.9606C36.5986 67.1545 36.2403 65.6514 36.4867 63.4383C36.971 62.3914 37.5006 61.6762 38.4327 61.0717H38.9192L39.0712 60.4307C39.5938 58.967 40.5395 56.6357 42.127 56.5684Z" fill="#312D42"/>
<path d="M82.9461 83.6758H83.1893C83.2188 83.9331 83.2483 84.1904 83.2787 84.4554C83.9828 90.4742 85.5642 95.4778 89.927 99.539C92.6257 101.775 95.6242 103.084 99.0001 103.398C99.0703 105.593 98.9565 107.753 98.7873 109.94C98.7682 110.199 98.7491 110.458 98.7295 110.725C98.5118 113.388 97.8642 115.115 96.4071 117.275C95.8464 118.086 95.8464 118.086 95.4437 118.834C94.565 120.327 93.6782 120.806 92.0903 121.197C91.7491 121.273 91.4073 121.347 91.0652 121.419C90.4214 121.557 89.7822 121.712 89.1421 121.869C87.0023 122.39 84.8558 122.881 82.7029 123.334C82.4119 123.396 82.1209 123.457 81.8211 123.52C80.1852 123.772 80.1852 123.772 79.2975 123.647C78.8214 123.129 78.5329 122.727 78.1877 122.118C77.9812 121.78 77.774 121.443 77.5662 121.106C77.4553 120.923 77.3444 120.74 77.2301 120.552C76.5597 119.475 75.834 118.442 75.1167 117.401C74.8267 116.974 74.5369 116.547 74.2473 116.12C73.7889 115.446 73.3256 114.779 72.8468 114.121C72.6083 113.784 72.6083 113.784 72.365 113.44C72.2321 113.26 72.0991 113.079 71.9622 112.893C71.7569 112.339 71.7569 112.339 71.9061 111.604C72.287 110.653 72.7013 109.726 73.1404 108.805C76.5796 101.468 79.6664 93.8558 82.1166 86.0661C82.3708 85.2585 82.6426 84.4637 82.9461 83.6758Z" fill="white"/>
<path d="M150.082 57.0801H150.325C150.236 59.835 149.656 62.4064 149.048 65.0677C148.897 65.7394 148.747 66.4114 148.596 67.0833C148.498 67.5245 148.399 67.9656 148.299 68.4066C147.922 70.0833 147.568 71.7647 147.224 73.4497C146.793 75.5356 146.287 77.5896 145.746 79.6448C145.436 80.8273 145.16 82.0178 144.888 83.2113C144.439 85.1769 143.966 87.1356 143.494 89.0948C143.074 90.841 142.658 92.5881 142.248 94.3369C141.383 98.0148 140.507 101.682 139.505 105.319C139.003 107.141 138.538 108.97 138.087 110.807C137.42 113.517 136.719 116.215 136.004 118.91C135.927 119.202 135.927 119.202 135.847 119.499C135.743 119.893 135.638 120.287 135.534 120.681C135.456 120.974 135.456 120.974 135.377 121.272C135.325 121.468 135.273 121.663 135.22 121.864C134.685 123.88 134.158 125.898 133.632 127.916C133.587 128.089 133.543 128.261 133.496 128.439C133.01 130.305 132.53 132.172 132.059 134.043C131.094 137.872 130.069 141.667 128.919 145.436C126.865 145.357 124.87 145.082 122.844 144.718C122.301 144.623 121.758 144.527 121.215 144.432C120.927 144.382 120.639 144.331 120.341 144.279C118.74 144.002 117.137 143.737 115.534 143.471C115.196 143.415 114.857 143.359 114.518 143.303C113.137 143.074 111.755 142.846 110.374 142.617C109.347 142.448 108.321 142.278 107.295 142.107C107.13 142.08 106.966 142.053 106.796 142.025C104.748 141.685 102.703 141.332 100.661 140.956C98.9823 140.65 97.2976 140.402 95.6103 140.161C92.9317 139.777 90.2844 139.32 87.6441 138.698C87.2062 138.595 87.2062 138.595 86.7595 138.49C86.5447 138.44 86.3299 138.389 86.1086 138.336C86.6661 137.705 87.262 137.174 87.9026 136.644C88.6892 135.989 89.4709 135.329 90.2438 134.655V135.181L91.0039 135.148C92.8843 135.148 94.7727 135.497 96.6014 135.952C98.0295 136.303 99.4713 136.552 100.916 136.808C101.226 136.863 101.535 136.919 101.854 136.976C103.578 137.284 105.303 137.587 107.029 137.887C107.713 138.007 108.397 138.126 109.081 138.246C109.968 138.401 110.855 138.555 111.743 138.708C114.146 139.126 116.538 139.578 118.925 140.095C120.552 140.441 122.153 140.637 123.811 140.703L124.115 139.738C124.919 137.209 125.768 134.711 126.699 132.234C127.646 129.707 128.522 127.151 129.401 124.595C129.689 123.757 129.98 122.92 130.272 122.083C130.725 120.781 131.174 119.478 131.61 118.17C131.938 117.19 132.279 116.216 132.629 115.245C133.358 113.206 134.044 111.152 134.732 109.097C135.063 108.108 135.396 107.119 135.733 106.132C136.695 103.307 137.611 100.469 138.479 97.6077C138.86 96.353 139.255 95.1101 139.691 93.8762C140.012 92.9439 140.293 91.9971 140.58 91.0519C141.13 89.25 141.692 87.4533 142.268 85.6611C143.608 81.4909 144.897 77.3256 145.997 73.0721C146.265 72.0445 146.546 71.0212 146.826 69.9974C147.995 65.7175 149.094 61.4132 150.082 57.0801Z" fill="#121212" fill-opacity="0.1"/>
<path d="M122.473 34.1214C122.796 34.1135 122.796 34.1135 123.126 34.1055C125.391 34.1073 127.089 34.9659 128.741 36.6196C129.563 37.6148 130.135 38.6747 130.135 40.0217C130.337 40.0175 130.54 40.0134 130.749 40.0092C131.501 39.9957 132.253 39.9858 133.005 39.9783C133.49 39.9724 133.975 39.9624 134.461 39.9523C134.766 39.9498 135.071 39.9473 135.385 39.9446C135.666 39.9405 135.948 39.9364 136.238 39.9321C136.946 40.0217 136.946 40.0217 137.403 40.3788C138.127 41.5244 137.747 43.456 137.564 44.7581C137.452 45.3735 137.322 45.9852 137.189 46.5958H134.757L134.681 47.2204C134.513 47.9106 134.703 47.9774 133.973 48.5034C133.445 48.5695 133.255 48.5028 132.63 48.5034C132.392 48.5048 132.155 48.5063 131.91 48.5078C131.516 48.5062 131.516 48.5062 131.122 48.5046C130.711 48.506 130.711 48.506 130.291 48.5074C129.383 48.5097 128.474 48.5082 127.566 48.5064C126.936 48.5068 126.306 48.5073 125.676 48.5079C124.355 48.5087 123.034 48.5076 121.713 48.5051C120.186 48.5023 118.658 48.5032 117.131 48.5061C115.662 48.5088 114.193 48.5085 112.724 48.5069C112.098 48.5066 111.473 48.507 110.848 48.5083C109.975 48.5096 109.102 48.5076 108.229 48.5046C107.839 48.5062 107.839 48.5062 107.441 48.5078C107.203 48.5064 106.966 48.5049 106.721 48.5034C106.515 48.5032 106.309 48.503 106.096 48.5028C105.567 48.4366 105.567 48.4366 104.838 47.9106C104.71 46.3374 104.887 44.7772 105.035 43.2101C105.052 43.013 105.069 42.8159 105.087 42.6127C105.233 41.225 105.233 41.225 105.596 40.6232C106.294 40.1071 106.885 40.1962 107.721 40.2076C107.882 40.2087 108.043 40.2098 108.209 40.211C108.722 40.2154 109.235 40.2253 109.748 40.2353C110.096 40.2393 110.445 40.2429 110.793 40.2461C111.646 40.2548 112.498 40.2684 113.351 40.2846C113.424 40.0358 113.498 39.787 113.573 39.5307C114.232 37.4794 115.98 35.9882 117.73 35.0253C119.316 34.2962 120.759 34.1066 122.473 34.1214Z" fill="#00AD37"/>
<path d="M110.772 69.8773C113.898 72.4024 116.151 75.6899 117.243 79.7565C117.329 80.0192 117.415 80.2819 117.504 80.5526C118.393 83.9615 118.121 88.6406 116.756 91.8529C116.65 92.1204 116.544 92.3879 116.435 92.6634C115.635 94.5411 114.62 96.0989 113.351 97.6382C113.198 97.825 113.045 98.0117 112.888 98.2042C110.306 101.178 106.597 103.04 102.891 103.686H101.675V113.153L99.2426 113.679L98.5129 113.942C98.4455 110.399 98.6364 106.945 98.9994 103.423C98.7867 103.431 98.7867 103.431 98.5697 103.438C94.8841 103.51 91.4517 101.459 88.8267 98.756C85.1407 94.8204 83.3896 90.3231 83.3558 84.72C83.3558 82.3689 83.4933 80.3477 84.4048 78.1787C84.5008 77.9453 84.5008 77.9453 84.5987 77.7071C86.4612 73.2779 89.6657 69.5612 93.8846 67.6766C99.6736 65.4801 105.647 65.904 110.772 69.8773ZM89.3609 74.5506C88.535 75.6021 87.8948 76.6849 87.3237 77.9158C87.2293 78.1192 87.135 78.3225 87.0377 78.5321C85.4402 82.1998 85.3526 86.4066 86.5313 90.2382C88.2031 94.751 91.023 98.048 95.1645 100.012C96.9738 100.7 98.5514 100.876 100.459 100.86C100.689 100.862 100.919 100.864 101.156 100.866C104.441 100.856 107.427 99.6604 109.945 97.3752L110.675 96.8C112.517 95.1018 113.721 92.687 114.567 90.2752L114.803 89.626C115.961 85.868 115.5 81.7484 114.003 78.2085C112.185 74.3597 109.506 71.6855 105.81 70.0268L105.252 69.7721C99.4581 67.6179 93.4332 69.9177 89.3609 74.5506Z" fill="#121212"/>
<path d="M66.4058 71.3281H66.649C67.2313 75.6561 66.84 80.1286 66.649 84.4764H66.1625C66.1752 84.8862 66.1752 84.8862 66.1882 85.3043C66.294 90.1437 66.294 90.1437 64.8399 92.1189C63.7599 93.0017 62.8146 92.9211 61.4801 92.9078C61.1728 92.9054 60.8655 92.903 60.5489 92.9006C60.1971 92.896 60.1971 92.896 59.8382 92.8913V94.4691L59.3517 94.7321C58.8571 94.4758 58.3722 94.1974 57.8923 93.9103C54.8628 92.1887 51.5454 91.4445 48.1625 91.0506L48.649 90.7876L48.6186 89.9001C48.649 88.9468 48.649 88.9468 49.1355 88.4209C49.3299 88.5487 49.5243 88.6765 49.7246 88.8082C50.8072 89.3077 51.6816 89.3404 52.845 89.3248C53.0501 89.323 53.2552 89.3212 53.4665 89.3194C55.3806 89.2661 56.7942 88.8562 58.3331 87.5991C59.6792 85.7625 59.6792 85.7625 60.0035 83.5447C59.8196 82.953 59.6042 82.4076 59.3517 81.8468C59.0928 81.0071 59.0597 80.3625 59.0477 79.4801L59.0287 78.6419C59.1085 77.9023 59.1085 77.9023 59.3897 77.4339C59.987 77.0071 60.5376 76.8801 61.2369 76.7189C63.2714 76.2272 63.2714 76.2272 64.9919 75.0096C65.6391 73.8516 66.0156 72.6094 66.4058 71.3281Z" fill="#F6A385"/>
<path d="M101.676 111.039H101.919V113.143C102.2 113.138 102.2 113.138 102.487 113.134C102.731 113.131 102.975 113.129 103.226 113.126C103.469 113.123 103.712 113.12 103.962 113.117C104.595 113.143 104.595 113.143 105.081 113.406C105.066 113.882 105.066 113.882 104.838 114.458C103.971 114.918 103.971 114.918 103.135 115.247L103.607 115.394C104.108 115.772 104.108 115.772 104.321 116.676C104.351 117.613 104.351 117.613 103.865 118.402H104.351L104.458 119.372C104.553 120.197 104.673 121.007 104.838 121.821C104.636 121.925 104.636 121.925 104.429 122.032C104.253 122.125 104.077 122.218 103.895 122.314C103.72 122.405 103.545 122.497 103.365 122.591C102.855 122.863 102.855 122.863 102.405 123.398C102.327 124.04 102.327 124.04 102.33 124.784C102.321 125.204 102.321 125.204 102.312 125.624C102.303 126.208 102.266 124.2 102.26 124.784C102.253 125.062 102.276 127.933 102.27 128.219C102.266 128.473 102.263 128.727 102.26 128.989C102.144 129.841 101.9 130.333 101.433 131.024C100.52 131.682 100.08 131.691 99.0001 131.55C98.3603 130.979 97.912 130.513 97.5406 129.71C97.5235 129.217 97.5201 128.724 97.5254 128.23C97.5276 127.967 97.5298 127.703 97.5321 127.431C97.5349 127.229 97.5377 127.026 97.5406 126.817H97.0541C96.9952 126.608 96.9362 126.398 96.8755 126.182C96.1643 123.751 95.4269 121.963 93.4055 120.506C93.5726 120.426 93.7397 120.346 93.9119 120.263C94.9496 119.464 95.5451 118.419 96.2484 117.284C96.3897 117.065 96.5309 116.846 96.6764 116.62C97.4485 115.391 97.9879 114.338 98.2704 112.88L98.7568 113.669L99.1217 113.406C99.9952 113.028 100.738 113.109 101.676 113.143V111.039Z" fill="#F5A385"/>
<path d="M97.2971 65.0117C101.841 65.1711 106.379 65.3846 110.919 65.6527C111.217 65.67 111.514 65.6874 111.821 65.7053C115.26 65.9058 118.696 66.1195 122.13 66.4056C124.735 66.6175 127.343 66.7492 129.953 66.8849C134.07 67.099 138.183 67.3593 142.297 67.6414L142.054 68.6932C139.898 68.7223 137.759 68.6336 135.608 68.496C135.247 68.4735 134.885 68.4511 134.524 68.4288C133.67 68.3757 132.816 68.3218 131.961 68.2676C130.774 68.1922 129.587 68.1176 128.4 68.0434C126.368 67.9163 124.336 67.7885 122.305 67.6603C121.746 67.6251 121.187 67.59 120.628 67.5549C119.733 67.4987 118.837 67.442 117.941 67.385C117.45 67.3538 116.958 67.323 116.466 67.2922C114.832 67.1878 113.202 67.0658 111.571 66.9051C110.412 66.8116 109.253 66.8144 108.091 66.8196C107.853 66.8186 107.615 66.8176 107.37 66.8165C107.143 66.8169 106.916 66.8172 106.683 66.8176C106.48 66.8178 106.277 66.8181 106.068 66.8185C105.552 66.8183 105.552 66.8183 105.081 67.1154C104.622 67.0507 104.166 66.9658 103.713 66.8689C103.469 66.8177 103.225 66.7665 102.973 66.7138C102.786 66.6728 102.598 66.6318 102.405 66.5895V66.3265C102.121 66.3106 101.836 66.2947 101.543 66.2783C101.167 66.2561 100.79 66.2338 100.414 66.2115C100.227 66.2012 100.04 66.1908 99.8469 66.1802C98.8946 66.1227 97.9852 66.0407 97.0539 65.8006L97.2971 65.0117Z" fill="#121212" fill-opacity="0.1"/>
<path d="M78.5676 107.885C80.2445 107.798 81.6167 108.023 83.1892 108.674C83.4324 108.937 83.4324 108.937 83.4476 109.611L83.4324 110.252H84.4054L84.1621 111.041C83.9674 111.114 83.7727 111.187 83.5721 111.263C82.8929 111.508 82.8929 111.508 82.6314 112.232C82.5596 112.49 82.4878 112.748 82.4138 113.013C82.0123 114.417 82.0123 114.417 81.4865 114.985C79.9419 115.163 78.5776 114.679 77.1081 114.196C76.6768 112.854 77.1187 111.859 77.5642 110.597C77.6328 110.394 77.7015 110.191 77.7723 109.982C78.2618 108.546 78.2618 108.546 78.5676 107.885Z" fill="#2C2C2C" fill-opacity="0.1"/>
<path d="M32.5942 113.631C32.9871 115.256 33.1507 116.76 33.1367 118.437C33.1365 118.773 33.1365 118.773 33.1364 119.116C33.1356 119.586 33.1337 120.056 33.1307 120.526C33.1263 121.238 33.1257 121.95 33.1258 122.662C33.1215 124.839 33.0982 126.983 32.8374 129.146H32.3509V129.672L31.8644 129.935C31.7515 130.667 31.7515 130.667 31.7191 131.574C31.71 131.748 31.701 131.921 31.6916 132.1C31.5621 134.801 31.5399 137.508 31.5052 140.212C31.4956 140.929 31.4831 141.647 31.4701 142.364C31.467 142.693 31.467 142.693 31.4639 143.029C31.4435 144.053 31.4285 144.579 30.8915 145.45C30.8858 142.986 30.8815 140.522 30.8789 138.057C30.8776 136.913 30.8759 135.769 30.8731 134.625C30.8705 133.522 30.869 132.419 30.8684 131.316C30.8679 130.894 30.8671 130.472 30.8657 130.05C30.864 129.462 30.8637 128.873 30.8638 128.284C30.8633 127.948 30.8628 127.613 30.8622 127.267C30.8915 126.516 30.8915 126.516 31.1347 126.253C31.1563 125.476 31.1627 124.704 31.1585 123.927C31.1579 123.577 31.1579 123.577 31.1574 123.22C31.1561 122.473 31.153 121.725 31.1499 120.977C31.1487 120.472 31.1476 119.966 31.1466 119.461C31.1439 118.219 31.1397 116.977 31.1347 115.735H31.6212L31.606 114.831C31.6255 113.631 31.6255 113.631 32.5942 113.631Z" fill="#00AD37"/>
<path d="M101.676 105.008C104.928 105.472 108.17 105.98 111.411 106.534C113.633 106.913 115.857 107.286 118.081 107.655C118.366 107.702 118.651 107.749 118.944 107.798C120.098 107.989 121.253 108.181 122.407 108.371C123.221 108.506 124.034 108.641 124.848 108.776C125.094 108.816 125.339 108.857 125.593 108.898C125.821 108.936 126.049 108.974 126.284 109.013C126.483 109.046 126.681 109.079 126.886 109.113C127.486 109.22 128.081 109.346 128.676 109.478V110.267C127.226 110.295 125.866 110.216 124.436 109.968C124.245 109.937 124.054 109.905 123.858 109.873C123.239 109.77 122.621 109.665 122.002 109.56C121.57 109.488 121.138 109.417 120.706 109.345C120.044 109.235 119.382 109.125 118.72 109.015C117.272 108.773 115.823 108.538 114.372 108.31C114.185 108.281 113.998 108.251 113.806 108.221C113.093 108.109 112.381 107.997 111.668 107.886C109.892 107.609 108.122 107.318 106.36 106.948C105.284 106.753 104.172 106.697 103.136 107.112L102.649 107.637V107.112H102.163L101.919 111.056H101.676V105.008Z" fill="#121212" fill-opacity="0.1"/>
<path d="M110.189 69.5041C111.957 69.4846 113.71 69.5348 115.475 69.6581C115.714 69.6742 115.954 69.6903 116.201 69.7069C116.969 69.7588 117.737 69.8122 118.505 69.8656C119.036 69.9019 119.566 69.9381 120.097 69.9744C122.895 70.1673 125.69 70.3794 128.482 70.6534C130.348 70.831 132.213 70.9073 134.084 70.9776C136.428 71.0735 138.751 71.3208 141.081 71.6078V72.3967C133.984 72.5682 126.883 71.8262 119.818 71.1894C119.446 71.1562 119.446 71.1562 119.066 71.1222C118.58 71.0786 118.093 71.0345 117.607 70.9898C116.484 70.8893 115.364 70.8055 114.238 70.7656C113.935 70.7537 113.935 70.7537 113.626 70.7416C113.253 70.7285 112.88 70.7196 112.508 70.7159C111.648 70.6854 111.232 70.6185 110.557 70.0196C110.436 69.8495 110.314 69.6794 110.189 69.5041Z" fill="#121212" fill-opacity="0.1"/>
<path d="M114.811 74.2054C117.134 74.1109 119.421 74.3713 121.729 74.6101C126.052 75.0556 130.377 75.4209 134.712 75.7175C134.96 75.7345 135.208 75.7515 135.464 75.769C136.85 75.8634 138.236 75.9557 139.622 76.0462V77.0981C137.168 77.1376 134.746 77.0203 132.3 76.8197C131.936 76.7907 131.573 76.7619 131.209 76.7331C130.455 76.6732 129.7 76.6123 128.946 76.5507C127.981 76.472 127.015 76.3952 126.049 76.3191C125.302 76.26 124.554 76.2 123.807 76.1397C123.451 76.1111 123.094 76.0827 122.738 76.0545C122.242 76.0152 121.747 75.9745 121.251 75.9338C120.969 75.911 120.688 75.8882 120.398 75.8648C119.803 75.7976 119.278 75.6818 118.703 75.5203C118.115 75.5023 117.527 75.4979 116.94 75.5038C116.479 75.5074 116.479 75.5074 116.008 75.511C115.774 75.5141 115.539 75.5171 115.298 75.5203L114.811 74.2054Z" fill="#121212" fill-opacity="0.1"/>
<path d="M121.621 37.3865C122.733 37.9489 122.951 38.1595 123.299 38.9119C123.405 40.026 123.19 40.7824 122.792 41.824C122.033 42.7854 121.452 43.1349 120.283 43.2703C119.371 43.1647 118.927 42.9983 118.216 42.3828C117.649 41.5364 117.786 40.4227 117.899 39.3984C118.856 37.5143 119.582 37.0541 121.621 37.3865Z" fill="white"/>
<path d="M53.9623 91.952C55.5641 92.4468 57.0739 93.086 58.3787 94.2178H57.1625V93.6918L53.5138 92.9029V93.4289H53.0274V93.9548L53.8635 94.2178C55.0665 94.652 56.2102 95.2046 57.3601 95.7791C57.5404 95.8674 57.7207 95.9557 57.9064 96.0467C58.8773 96.5399 59.6155 96.9998 60.3247 97.8993C59.5876 97.6014 58.887 97.2587 58.1877 96.871C56.3028 95.8384 54.7343 95.0352 52.5713 95.0416C52.4007 95.03 52.2301 95.0185 52.0544 95.0066L51.8111 94.4807H50.5949L50.3517 93.6918L44.7571 93.4289L45.7301 92.64C45.8737 92.5006 46.0173 92.3613 46.1652 92.2178C48.4586 90.0813 51.2844 91.1972 53.9623 91.952Z" fill="#00AD37"/>
<path d="M101.432 123.873H101.919C101.954 124.947 101.976 126.02 101.995 127.094C102.005 127.399 102.015 127.704 102.026 128.018C102.056 130.269 102.056 130.269 101.359 131.173C100.487 131.606 99.9485 131.664 98.9997 131.499C98.2852 131.072 98.2852 131.072 97.7835 130.184C97.5111 128.886 97.4463 127.79 97.7835 126.503C98.4797 125.815 99.1356 125.432 99.9926 125.012C100.646 124.69 100.955 124.425 101.432 123.873Z" fill="#312B3D"/>
<path d="M109.946 100.516V101.305C111.678 101.696 113.412 102.021 115.161 102.307C115.56 102.373 115.56 102.373 115.968 102.44C118.72 102.892 121.476 103.316 124.232 103.737C126.283 104.05 128.332 104.376 130.379 104.723L130.135 105.775C126.134 105.214 122.133 104.642 118.133 104.062C117.508 103.972 116.883 103.883 116.258 103.795C116.013 103.76 116.013 103.76 115.763 103.724C115.308 103.66 114.853 103.595 114.398 103.531C113.685 103.422 112.98 103.293 112.272 103.145C110.537 102.787 108.781 102.58 107.027 102.356C107.641 101.914 108.252 101.524 108.897 101.14C109.094 101.023 109.291 100.906 109.493 100.785C109.643 100.696 109.792 100.607 109.946 100.516Z" fill="#121212" fill-opacity="0.1"/>
<path d="M117 78.9043C118.554 78.8713 118.554 78.8713 119.248 79.0255C120.112 79.208 120.977 79.2767 121.854 79.347C122.042 79.3627 122.23 79.3784 122.423 79.3946C123.033 79.4455 123.642 79.4954 124.251 79.5452C124.882 79.5977 125.512 79.6504 126.143 79.7032C126.561 79.7382 126.98 79.7732 127.398 79.808C129.086 79.9488 130.774 80.0978 132.461 80.252C134.361 80.4251 136.261 80.5925 138.162 80.745L137.919 81.7969C136.039 81.8535 134.194 81.6972 132.323 81.5047C131.422 81.4121 130.52 81.3239 129.618 81.236C129.427 81.2174 129.237 81.1989 129.041 81.1797C126.64 80.9486 124.237 80.7563 121.834 80.5642C121.616 80.5468 121.398 80.5293 121.173 80.5113C119.944 80.4131 118.715 80.3157 117.486 80.2191L117.243 80.745L117 78.9043Z" fill="#121212" fill-opacity="0.1"/>
<path d="M113.351 97.3594C114.887 97.5739 116.422 97.789 117.958 98.0046C118.479 98.0777 119 98.1506 119.521 98.2234C122.05 98.5766 124.575 98.9329 127.093 99.3655C127.875 99.4906 128.647 99.5608 129.436 99.611C130.229 99.6624 130.838 99.7165 131.594 99.989V101.041C129.449 101.139 127.371 100.768 125.255 100.433C124.47 100.311 123.685 100.19 122.9 100.069C122.707 100.039 122.514 100.009 122.314 99.9786C120.425 99.688 118.531 99.4329 116.634 99.1972C115.271 99.022 113.958 98.7552 112.621 98.4112L113.351 97.3594Z" fill="#121212" fill-opacity="0.1"/>
<path d="M117.73 83.6758C118.257 83.7314 118.257 83.7314 118.794 83.7881C120.129 83.9289 121.465 84.0689 122.8 84.2086C123.372 84.2686 123.944 84.3288 124.515 84.3892C128.494 84.8091 132.474 85.1873 136.459 85.5165V86.5684C134.346 86.62 132.295 86.465 130.196 86.2068C127.659 85.9082 125.124 85.642 122.58 85.4237C121.123 85.2985 119.67 85.154 118.216 84.9906L117.973 86.8314H117.73V83.6758Z" fill="#121212" fill-opacity="0.1"/>
<path d="M63.9735 76.0254V76.5513C62.5936 77.1967 61.342 77.7248 59.8384 77.8662L62.0276 77.6032V79.4439H62.5141C62.3141 80.5966 62.0515 81.7263 61.7843 82.8625H60.8114L61.2978 83.9144L60.5681 84.1773L60.5073 84.9334L60.3249 85.7551C59.827 86.0695 59.827 86.0695 59.3519 86.2811C59.4159 86.1217 59.4798 85.9624 59.5457 85.7983C60.0335 84.4273 60.0335 84.4273 59.9134 83.0022C59.729 82.5742 59.5424 82.1472 59.3538 81.7213C58.9224 80.4901 58.9067 79.1586 59.1087 77.8662C59.6484 76.982 60.3757 76.8723 61.2978 76.6499C63.8323 76.0254 63.8323 76.0254 63.9735 76.0254Z" fill="#E9A28C"/>
<path d="M117.243 89.2207L117.486 89.7466C118.114 89.8576 118.114 89.8576 118.874 89.8878C120.585 90.0032 122.285 90.1834 123.99 90.3804C124.293 90.4151 124.597 90.4497 124.909 90.4854C125.704 90.5763 126.498 90.6676 127.293 90.7591C128.108 90.8529 128.924 90.9461 129.739 91.0394C131.331 91.2215 132.922 91.4042 134.513 91.5874L134.27 92.6393C132.635 92.751 131.077 92.5813 129.466 92.3105C126.795 91.8633 124.112 91.5676 121.424 91.2751C121.097 91.2395 121.097 91.2395 120.763 91.2031C119.509 91.0668 118.254 90.932 117 90.7985L117.243 89.2207Z" fill="#121212" fill-opacity="0.1"/>
<path d="M116.027 92.8652L116.271 93.3912C117.009 93.495 117.733 93.566 118.475 93.6213C120.861 93.826 123.232 94.1154 125.605 94.443C125.922 94.4867 126.24 94.5304 126.567 94.5754C127.191 94.6618 127.816 94.7485 128.441 94.8354C130.059 95.0595 131.678 95.2771 133.298 95.4949L133.054 96.5468L131.926 96.4112C131.544 96.3654 131.544 96.3654 131.163 96.3197C130.591 96.2509 130.019 96.182 129.447 96.1128C127.885 95.9244 126.324 95.7383 124.761 95.5581C123.974 95.4672 123.188 95.3752 122.401 95.2831C122.016 95.2383 121.631 95.194 121.245 95.1503C120.698 95.0881 120.151 95.0241 119.605 94.9597C119.29 94.9234 118.975 94.8871 118.651 94.8497C117.666 94.6961 116.744 94.4572 115.784 94.1801L116.027 92.8652Z" fill="#121212" fill-opacity="0.1"/>
<path d="M123.324 34.4985C125.006 34.383 126.275 34.5255 127.702 35.5504C128.783 36.6263 129.687 37.6973 130.135 39.2319V40.2837H127.702L127.398 39.3305C126.698 37.3356 125.663 35.8417 123.841 34.9422L123.324 34.7615V34.4985Z" fill="#00AD37"/>
<path d="M86.1086 102.619C86.6257 102.65 87.1425 102.683 87.6593 102.718C88.0911 102.745 88.0911 102.745 88.5316 102.773C89.4713 102.857 90.3756 103.062 91.2975 103.271C92.4237 103.509 93.5605 103.66 94.6982 103.819C95.1635 103.885 95.6288 103.951 96.094 104.017C96.2963 104.045 96.4987 104.074 96.7071 104.103C97.3147 104.2 97.913 104.324 98.5141 104.46L98.7573 103.671L98.2708 103.408H99.0005V106.827H98.7573V105.512C98.4679 105.479 98.1785 105.446 97.8803 105.412C96.2785 105.219 94.6831 104.978 93.0867 104.739C92.6289 104.672 92.6289 104.672 92.1712 104.604C86.8553 103.812 86.8553 103.812 86.1086 103.408V102.619Z" fill="#121212" fill-opacity="0.1"/>
<path d="M87.3245 112.582C89.2311 112.768 91.0989 113.139 92.9777 113.524C93.5165 113.635 94.0556 113.743 94.5947 113.852C94.9379 113.921 95.281 113.991 95.6242 114.061C95.9338 114.124 96.2434 114.187 96.5624 114.252C97.2974 114.423 97.2974 114.423 97.7839 114.686L97.5407 115.475C95.88 115.368 94.2585 115.231 92.6321 114.845C91.5523 114.594 90.465 114.387 89.3784 114.174C88.673 114.033 88.0062 113.88 87.3245 113.634V112.582Z" fill="#121212" fill-opacity="0.1"/>
<path d="M104.108 115.738C109.844 116.517 109.844 116.517 112.621 117.316V118.368C111.023 118.444 109.511 118.154 107.939 117.858C107.542 117.786 107.542 117.786 107.137 117.713C105.187 117.354 105.187 117.354 104.351 117.053L104.108 115.738Z" fill="#121212" fill-opacity="0.1"/>
<path d="M78.5673 108.637L82.7997 108.971C82.7997 108.971 81.6719 113.608 81.4497 114.323C81.4497 114.323 78.5638 113.196 77.3997 113.35L77.8497 111.404L78.2997 109.944C78.7497 109.944 79.1997 109.944 79.1997 109.944H78.2997L78.5673 108.637Z" fill="white"/>
<path d="M103.379 115.531L104.108 115.794C104.201 116.406 104.282 117.02 104.352 117.635C104.108 117.898 104.108 117.898 103.357 117.905C102.733 117.889 102.11 117.873 101.487 117.856C100.681 117.804 100.681 117.804 100.216 118.424V116.057C100.83 115.726 101.251 115.777 101.934 115.794C102.335 115.804 102.735 115.806 103.135 115.794L103.379 115.531Z" fill="#F4A58A"/>
<path d="M45.9728 92.8762C50.7615 92.528 55.2505 94.1799 59.3512 96.8207C59.9831 97.4278 59.9831 97.4278 60.3242 97.8726C59.5871 97.5747 58.8866 97.232 58.1873 96.8443C56.3024 95.8117 54.7338 95.0085 52.5708 95.0149C52.4002 95.0034 52.2297 94.9918 52.0539 94.98L51.8107 94.454H50.5945L50.3512 93.6651L45.9728 93.1392V92.8762Z" fill="#00AD37"/>
<path d="M78.0818 110.758H78.325V113.387C79.0057 113.106 79.6414 112.804 80.2862 112.434C81.0007 112.073 81.0007 112.073 81.9737 112.073L81.4872 114.176C80.0039 114.234 78.7589 114.179 77.3521 113.65C77.4273 113.267 77.5035 112.883 77.5801 112.5C77.6224 112.286 77.6648 112.073 77.7084 111.853C77.8385 111.284 77.8385 111.284 78.0818 110.758Z" fill="white"/>
<path d="M59.1081 119.947C60.0169 120.275 60.1266 120.64 60.5675 121.525L61.054 120.999L61.2972 122.577L61.7533 122.676C62.2702 122.84 62.2702 122.84 62.7567 123.366C62.7871 124.27 62.7871 124.27 62.7567 125.207V125.995L61.7837 125.47V124.155L61.054 123.892L60.8716 123.284C60.425 122.246 59.7999 122.031 58.8648 121.525L59.5945 120.999L59.1081 119.947Z" fill="#00AD37"/>
<path d="M127.46 40.0352H136.946V40.2981H130.379V40.8241H132.325V41.087H127.46V40.0352Z" fill="#00AD37"/>
<path d="M78.5678 110.27H79.0543V112.373C79.1818 112.316 79.3094 112.259 79.4408 112.2C80.0203 111.942 80.6014 111.689 81.1827 111.436C81.3834 111.346 81.584 111.256 81.7908 111.164C81.9852 111.08 82.1796 110.996 82.3799 110.909C82.6474 110.792 82.6474 110.792 82.9203 110.672C83.507 110.512 83.8394 110.587 84.4057 110.795C83.267 111.606 82.0936 112.108 80.8026 112.57C80.6395 112.629 80.4765 112.688 80.3085 112.748C79.1227 113.162 79.1227 113.162 78.5678 113.162V110.27Z" fill="#00AD37"/>
<path d="M60.3247 78.4121C61.2229 78.5942 61.2229 78.5942 61.541 78.938C61.5586 79.5568 61.5613 80.1762 61.5562 80.7952C61.5528 81.3094 61.5528 81.3094 61.5495 81.8235C61.5467 82.0862 61.5439 82.3489 61.541 82.6196H61.0545C60.3295 81.2725 59.9301 80.2788 60.0815 78.6751L60.3247 78.4121Z" fill="#483139"/>
<path d="M81.7298 123.668C81.6919 123.827 81.654 123.985 81.6149 124.149C81.5675 124.359 81.5202 124.569 81.4714 124.786C81.4234 124.993 81.3754 125.2 81.326 125.414C81.2375 126.078 81.3199 126.448 81.4866 127.087C81.5144 127.53 81.5291 127.974 81.5322 128.418C81.5357 128.643 81.5391 128.869 81.5427 129.101C81.4866 129.716 81.4866 129.716 81.0001 130.505C81.0114 130.327 81.0227 130.148 81.0343 129.965C81.1183 127.624 80.501 125.984 79.5406 123.931C80.3077 123.747 80.9338 123.668 81.7298 123.668Z" fill="#00AD37"/>
<path d="M63.0002 125.979C63.4563 126.028 63.4563 126.028 63.9732 126.241C64.1353 126.68 64.2975 127.118 64.4597 127.556L65.4326 127.819L65.9191 130.712H64.9462C64.9239 130.48 64.9016 130.248 64.8787 130.009C64.6844 129.042 64.3861 128.536 63.8364 127.754C63.0002 126.553 63.0002 126.553 63.0002 125.979Z" fill="#00AD37"/>
<path d="M83.1896 97.0742H84.8923C84.7652 97.8007 84.6227 98.4748 84.4059 99.1779H82.7032C82.916 97.6659 82.916 97.6659 83.1896 97.0742Z" fill="#121212" fill-opacity="0.1"/>
<path d="M82.7177 101.271L83.4323 101.288L83.189 103.392H81.4863C81.7334 101.293 81.7334 101.293 82.7177 101.271Z" fill="#121212" fill-opacity="0.1"/>
<path d="M84.6484 92.377C85.2139 93.1272 85.5607 93.834 85.8646 94.7436C85.6214 95.0066 85.6214 95.0066 84.8764 95.023L84.1619 95.0066C84.3747 92.9686 84.3747 92.9686 84.6484 92.377Z" fill="#2C2C2C" fill-opacity="0.1"/>
<path d="M87.8109 97.6406C88.0954 97.8972 88.3791 98.1549 88.6623 98.4131C88.8203 98.5565 88.9784 98.6999 89.1412 98.8476C89.3256 99.0312 89.3256 99.0312 89.5137 99.2184V99.4814L87.3245 99.2184V98.1666H87.8109V97.6406Z" fill="#2C2C2C" fill-opacity="0.1"/>
<path d="M87.3241 143.666L87.5673 144.192H87.0808V144.718L84.1619 144.455C84.9311 143.901 85.2581 143.84 86.1535 143.765C86.4822 143.735 86.4822 143.735 86.8176 143.705C86.9847 143.692 87.1519 143.679 87.3241 143.666Z" fill="#00AD37"/>
<path d="M58.379 62.3438H63.0006C61.6844 63.0552 60.5243 63.3238 59.1087 62.8861L58.379 62.6067V62.3438Z" fill="#3E3C56"/>
<path d="M127.217 150.752L129.406 151.278L129.163 151.804L126 151.541V151.278H127.217V150.752Z" fill="#00AD37"/>
<path d="M59.1081 119.947C59.9551 120.253 60.0538 120.449 60.5067 121.246C60.6158 121.432 60.7249 121.619 60.8374 121.812C60.9088 121.977 60.9803 122.143 61.054 122.314L60.8108 122.84L60.2483 122.347C59.5954 121.773 59.5954 121.773 58.8648 121.262L59.5945 120.999L59.1081 119.947Z" fill="#00AD37"/>
<path d="M61.0534 122.82C61.8453 123.615 62.42 124.466 62.9994 125.45L62.7561 125.976L61.7832 125.45V124.135L61.0534 123.872V122.82Z" fill="#00AD37"/>
<path d="M59.1081 97.6406L61.2972 97.9036L61.5405 98.6925L60.8412 98.5446C60.1057 98.3541 60.1057 98.3541 59.5945 98.6925L58.8648 98.1666L59.1081 97.6406Z" fill="#00AD37"/>
<path d="M99.4866 130.188H99.9731L100.216 130.976L100.703 131.502C99.8819 131.535 99.8819 131.535 99.0002 131.502L98.5137 130.976L99.0002 130.713L99.4866 130.976V130.188Z" fill="#4A4856"/>
<path d="M63.4866 146.543L63.2434 147.332H61.2975C62.7569 146.543 62.7569 146.543 63.4866 146.543Z" fill="#EBE2F9"/>
<path d="M46.9457 58.416H48.6484V58.9419C47.493 59.2378 47.493 59.2378 46.9457 58.9419V58.416Z" fill="#45455E"/>
<path d="M63.0002 125.979L63.9732 126.241V127.556C63.6386 127.217 63.3146 126.866 63.0002 126.504V125.979Z" fill="#00AD37"/>
<path d="M127.703 54.7695H128.189L127.946 56.0844H127.46L127.703 54.7695Z" fill="#F2F1F6"/>
<g clip-path="url(#clip0_110626_14679)">
<path d="M85.5001 59.3618C91.9618 59.3618 97.2001 53.6988 97.2001 46.7131C97.2001 39.7274 91.9618 34.0645 85.5001 34.0645C79.0384 34.0645 73.8001 39.7274 73.8001 46.7131C73.8001 53.6988 79.0384 59.3618 85.5001 59.3618Z" fill="#00AD37"/>
<path fill-rule="evenodd" clip-rule="evenodd" d="M81.8427 52.8872L77.5773 47.9173C77.2943 47.5896 77.1432 47.1538 77.157 46.7057C77.1708 46.2576 77.3485 45.8337 77.651 45.527C77.9554 45.2224 78.3591 45.0607 78.7737 45.0775C79.1882 45.0943 79.5796 45.2882 79.862 45.6167L83.1601 49.4312L88.3837 44.1526C88.4303 44.1063 88.4795 44.063 88.5311 44.0231L90.9816 41.5432C91.2848 41.2373 91.6879 41.0739 92.1023 41.0888C92.5168 41.1038 92.9089 41.2958 93.1926 41.6229C93.4756 41.9507 93.6267 42.3864 93.6129 42.8345C93.5991 43.2826 93.4214 43.7065 93.1189 44.0132L85.6107 51.5825L83.0035 54.2018L81.8519 52.8672L81.8427 52.8872Z" fill="white"/>
</g>
<path d="M97.401 56.6388L99.8682 56.7786L99.5032 57.7551L98.79 57.7147L97.5576 61.0124L96.51 60.9531L97.7424 57.6553L97.036 57.6153L97.401 56.6388ZM100.094 56.7914L102.186 56.9099L101.846 57.8192L100.788 57.7592L100.494 58.5469L101.412 58.5989L101.08 59.4857L100.162 59.4337L99.8714 60.2117L100.936 60.2721L100.595 61.1845L98.4964 61.0656L100.094 56.7914ZM102.589 56.9327L103.793 57.001C104.28 57.0286 104.621 57.1678 104.815 57.4185C105.01 57.6693 105.031 57.9964 104.881 58.3998C104.803 58.6068 104.675 58.8045 104.495 58.9926C104.317 59.1787 104.106 59.315 103.865 59.4016L103.97 61.3758L102.878 61.3139L102.77 59.3199L102.753 59.3189L102.025 61.2656L100.991 61.207L102.589 56.9327ZM103.314 57.8174L102.935 58.8323C103.395 58.8497 103.68 58.7121 103.789 58.4197C103.864 58.2212 103.863 58.0762 103.788 57.9848C103.715 57.8935 103.557 57.8377 103.314 57.8174ZM106.063 57.1296L107.37 57.2036C107.212 58.1363 107.062 58.9376 106.921 59.6074L107.282 58.9511C107.424 58.6954 107.567 58.4463 107.711 58.2038L108.271 57.2547L109.605 57.3303L108.527 61.6339L107.503 61.5759L108.325 58.6211L106.588 61.5241L105.889 61.4845L106.321 58.501L104.954 61.4315L103.974 61.376L106.063 57.1296ZM108.953 61.5763L109.325 60.5806C109.585 60.7785 109.827 60.8837 110.05 60.8963C110.18 60.9037 110.295 60.8764 110.394 60.8145C110.495 60.7504 110.566 60.6629 110.608 60.5519C110.639 60.4665 110.639 60.3848 110.605 60.3066C110.574 60.2285 110.504 60.1319 110.396 60.0168C110.135 59.7405 109.964 59.4878 109.885 59.2588C109.809 59.0278 109.821 58.7767 109.923 58.5056C110.061 58.1364 110.297 57.8425 110.632 57.6238C110.967 57.4052 111.331 57.3071 111.725 57.3294C112.016 57.3459 112.283 57.421 112.526 57.5546L112.168 58.5119C111.92 58.3365 111.7 58.2435 111.509 58.2326C111.382 58.2254 111.269 58.2496 111.172 58.3051C111.078 58.3586 111.011 58.4366 110.973 58.539C110.906 58.7183 111.002 58.9297 111.262 59.1733C111.417 59.3173 111.555 59.5157 111.674 59.7688C111.796 60.0198 111.798 60.3033 111.68 60.6192C111.542 60.9885 111.29 61.287 110.924 61.5147C110.558 61.7403 110.164 61.8411 109.741 61.8171C109.452 61.8008 109.189 61.7205 108.953 61.5763ZM115.029 62.0023L114.941 61.7619C114.528 61.9761 114.154 62.0737 113.817 62.0546C113.458 62.0343 113.195 61.9115 113.028 61.6862C112.864 61.4611 112.84 61.1928 112.956 60.8811C113.044 60.6464 113.183 60.4505 113.374 60.2934C113.565 60.1364 113.835 59.9664 114.182 59.7834C114.061 59.5215 113.998 59.3054 113.992 59.1351C113.986 58.9647 114.014 58.7952 114.077 58.6266C114.204 58.2872 114.423 58.0195 114.733 57.8235C115.044 57.6253 115.387 57.5369 115.763 57.5582C116.111 57.5779 116.369 57.7037 116.538 57.9356C116.707 58.1675 116.735 58.435 116.621 58.7381C116.541 58.9536 116.404 59.1573 116.212 59.3491C116.02 59.5388 115.744 59.7378 115.382 59.9462L115.597 60.4815L116.159 60.1243L116.491 60.8591L115.885 61.24L116.196 62.0684L115.029 62.0023ZM115.108 59.2343C115.428 59.0497 115.618 58.8774 115.678 58.7173C115.706 58.6426 115.697 58.5789 115.652 58.5262C115.609 58.4715 115.539 58.4413 115.442 58.4358C115.355 58.4309 115.268 58.4576 115.182 58.5159C115.096 58.572 115.037 58.6428 115.005 58.7282C114.958 58.852 114.993 59.0207 115.108 59.2343ZM114.661 61.0366L114.45 60.4819C114.171 60.6252 114.006 60.7663 113.954 60.905C113.925 60.9818 113.93 61.0464 113.969 61.0987C114.011 61.149 114.076 61.1767 114.164 61.1817C114.285 61.1886 114.451 61.1402 114.661 61.0366ZM120.32 61.2722L119.941 62.2872C119.698 62.341 119.49 62.363 119.317 62.3532C118.719 62.3193 118.312 62.0815 118.096 61.6399C117.883 61.1962 117.905 60.6308 118.162 59.9435C118.4 59.3053 118.784 58.7898 119.315 58.3969C119.845 58.002 120.398 57.8208 120.971 57.8532C121.194 57.8659 121.388 57.9052 121.554 57.9713L121.173 58.9894C120.999 58.9163 120.824 58.8748 120.649 58.8649C120.38 58.8497 120.114 58.9523 119.85 59.1728C119.587 59.3932 119.388 59.6817 119.255 60.0381C119.112 60.4223 119.087 60.7315 119.18 60.9657C119.277 61.1979 119.475 61.3224 119.773 61.3393C119.918 61.3475 120.101 61.3252 120.32 61.2722ZM121.641 62.4848C121.091 62.4537 120.745 62.2324 120.603 61.8212C120.463 61.4078 120.532 60.8276 120.811 60.0805C121.069 59.3911 121.414 58.8625 121.847 58.4946C122.282 58.1248 122.759 57.9546 123.278 57.984C123.831 58.0153 124.181 58.2324 124.328 58.6352C124.477 59.0382 124.417 59.5982 124.149 60.3154C123.881 61.0326 123.528 61.5815 123.091 61.9621C122.657 62.3408 122.174 62.515 121.641 62.4848ZM122.922 58.9545C122.549 58.9333 122.209 59.3336 121.902 60.1554C121.704 60.6847 121.619 61.0406 121.646 61.2231C121.675 61.4057 121.78 61.502 121.96 61.5122C122.153 61.5232 122.334 61.443 122.502 61.2716C122.673 61.1004 122.855 60.7565 123.048 60.24C123.36 59.4054 123.318 58.9769 122.922 58.9545ZM125.292 58.219L126.336 58.2782L126.729 60.8179L126.863 60.3548L127.612 58.3505L128.646 58.4091L127.049 62.6833L125.988 62.6232L125.608 60.1234L125.437 60.6565L124.729 62.5519L123.695 62.4933L125.292 58.219ZM129.207 58.4408L130.172 58.4955C130.841 58.5334 131.283 58.7415 131.497 59.1198C131.711 59.496 131.69 60.0278 131.434 60.7151C131.239 61.2359 130.995 61.6514 130.703 61.9618C130.413 62.2723 130.086 62.4903 129.723 62.6158C129.363 62.7414 128.996 62.7936 128.623 62.7725L127.609 62.7151L129.207 58.4408ZM129.901 59.4087L128.984 61.8612C129.308 61.8533 129.568 61.7624 129.766 61.5883C129.964 61.4121 130.141 61.1148 130.298 60.6965C130.39 60.4489 130.446 60.2384 130.464 60.0651C130.483 59.8896 130.464 59.7534 130.407 59.6565C130.354 59.5575 130.288 59.4949 130.209 59.4687C130.133 59.4426 130.03 59.4226 129.901 59.4087ZM132.538 58.6295L133.572 58.6881L131.974 62.9624L130.94 62.9038L132.538 58.6295ZM133.821 58.7023L136.288 58.8421L135.923 59.8186L135.21 59.7782L133.978 63.0759L132.93 63.0165L134.162 59.7188L133.456 59.6788L133.821 58.7023ZM136.551 58.857L137.585 58.9155L135.988 63.1898L134.954 63.1312L136.551 58.857ZM138.024 63.413C137.473 63.3818 137.127 63.1606 136.986 62.7494C136.845 62.336 136.915 61.7558 137.194 61.0087C137.452 60.3193 137.797 59.7907 138.229 59.4228C138.665 59.053 139.142 58.8828 139.661 58.9121C140.213 58.9435 140.563 59.1605 140.71 59.5634C140.859 59.9663 140.8 60.5264 140.532 61.2436C140.264 61.9608 139.911 62.5097 139.474 62.8903C139.039 63.269 138.556 63.4432 138.024 63.413ZM139.305 59.8826C138.932 59.8615 138.592 60.2618 138.284 61.0836C138.087 61.6129 138.001 61.9688 138.028 62.1513C138.058 62.3338 138.162 62.4302 138.342 62.4404C138.535 62.4514 138.716 62.3712 138.885 62.1998C139.056 62.0286 139.238 61.6847 139.431 61.1681C139.743 60.3336 139.701 59.9051 139.305 59.8826ZM141.674 59.1472L142.719 59.2064L143.111 61.7461L143.246 61.2829L143.995 59.2787L145.029 59.3373L143.432 63.6115L142.37 63.5514L141.991 61.0516L141.819 61.5847L141.111 63.48L140.077 63.4215L141.674 59.1472ZM144.021 63.5632L144.394 62.5675C144.654 62.7653 144.896 62.8706 145.119 62.8832C145.249 62.8906 145.363 62.8633 145.463 62.8014C145.564 62.7373 145.635 62.6498 145.676 62.5388C145.708 62.4534 145.707 62.3716 145.674 62.2935C145.643 62.2154 145.573 62.1188 145.465 62.0037C145.204 61.7273 145.033 61.4747 144.954 61.2457C144.878 61.0147 144.89 60.7636 144.991 60.4925C145.129 60.1233 145.366 59.8293 145.701 59.6107C146.036 59.3921 146.4 59.294 146.793 59.3163C147.085 59.3328 147.352 59.4078 147.594 59.5415L147.237 60.4988C146.989 60.3234 146.769 60.2303 146.578 60.2195C146.45 60.2123 146.338 60.2364 146.241 60.292C146.146 60.3455 146.08 60.4234 146.042 60.5259C145.975 60.7052 146.071 60.9166 146.331 61.1602C146.486 61.3041 146.623 61.5026 146.743 61.7557C146.865 62.0067 146.867 62.2902 146.749 62.6061C146.611 62.9754 146.359 63.2739 145.992 63.5016C145.627 63.7272 145.233 63.828 144.81 63.804C144.521 63.7877 144.258 63.7074 144.021 63.5632Z" fill="black"/>
<defs>
<clipPath id="clip0_110626_14679">
<rect width="23.4" height="25.2973" fill="white" transform="translate(73.8001 34.0645)"/>
</clipPath>
</defs>
</svg>
