<svg width="21" height="20" viewBox="0 0 21 20" fill="none" xmlns="http://www.w3.org/2000/svg">
<path d="M10.5 0C4.97254 0 0.5 4.47293 0.5 10C0.5 15.5275 4.97293 20 10.5 20C16.0275 20 20.5 15.5271 20.5 10C20.5 4.47254 16.0271 0 10.5 0ZM10.5 18.4375C5.83621 18.4375 2.0625 14.6635 2.0625 10C2.0625 5.33621 5.83652 1.5625 10.5 1.5625C15.1638 1.5625 18.9375 5.33652 18.9375 10C18.9375 14.6638 15.1635 18.4375 10.5 18.4375Z" fill="#E60300"/>
<path d="M10.5 5.03418C10.0685 5.03418 9.71875 5.38395 9.71875 5.81543V10.8464C9.71875 11.2779 10.0685 11.6277 10.5 11.6277C10.9315 11.6277 11.2812 11.2779 11.2812 10.8464V5.81543C11.2812 5.38395 10.9315 5.03418 10.5 5.03418Z" fill="#E60300"/>
<path d="M10.5 14.6934C11.0825 14.6934 11.5547 14.2212 11.5547 13.6387C11.5547 13.0562 11.0825 12.584 10.5 12.584C9.91751 12.584 9.44531 13.0562 9.44531 13.6387C9.44531 14.2212 9.91751 14.6934 10.5 14.6934Z" fill="#E60300"/>
</svg>
