<svg width="17" height="18" viewBox="0 0 17 18" fill="none" xmlns="http://www.w3.org/2000/svg">
<path d="M16.49 12.1405C16.1004 11.9473 15.678 11.833 15.2461 11.8038C15.4345 11.3267 15.537 10.8186 15.5486 10.304C15.6364 7.59716 13.5427 5.63252 12.6518 4.7908L12.5584 4.70472C12.4296 4.58229 12.3119 4.46177 12.2017 4.34125C12.3155 4.24316 12.4069 4.12074 12.4695 3.98259C12.5321 3.84444 12.5643 3.69392 12.564 3.54162V3.52249C12.5633 3.31219 12.501 3.10695 12.3851 2.93335C12.2692 2.75975 12.1052 2.62577 11.9141 2.54878C12.1281 1.93747 12.2777 1.30451 12.3605 0.660659C12.3734 0.550841 12.3559 0.439505 12.31 0.33939C12.2641 0.239274 12.1916 0.154423 12.1008 0.0945458C12.0099 0.0346683 11.9045 0.00218285 11.7965 0.000806305C11.6885 -0.000570237 11.5824 0.0292178 11.4901 0.0867621C11.204 0.24908 10.8981 0.371938 10.5805 0.452143C10.2744 0.533727 9.95288 0.533727 9.64669 0.452143C9.32705 0.371923 9.01928 0.248403 8.73152 0.0848491C8.63872 0.0274466 8.53198 -0.00193216 8.4236 9.85861e-05C8.31521 0.00212933 8.20959 0.0354869 8.11891 0.096327C8.02878 0.155203 7.95697 0.239258 7.91196 0.338574C7.86696 0.43789 7.85063 0.548321 7.8649 0.656833C7.9489 1.30313 8.09914 1.93856 8.31315 2.55261C8.12159 2.62908 7.95695 2.76286 7.84069 2.93654C7.72442 3.11022 7.66192 3.31574 7.66132 3.52632V3.54545C7.66127 3.71545 7.70174 3.88289 7.7792 4.03325C7.85666 4.1836 7.96879 4.31231 8.10584 4.40821C8.02179 4.50003 7.91907 4.5995 7.81074 4.70472L7.72109 4.7908C6.81899 5.63252 4.7365 7.59525 4.82241 10.3021C4.82241 10.4437 4.83922 10.5795 4.85416 10.7153H3.39922V10.1013C3.39922 9.99979 3.35987 9.90248 3.28981 9.83073C3.21976 9.75898 3.12475 9.71867 3.02568 9.71867H0.373541C0.274472 9.71867 0.17946 9.75898 0.109408 9.83073C0.0393552 9.90248 0 9.99979 0 10.1013V16.6246C0 16.726 0.0393552 16.8233 0.109408 16.8951C0.17946 16.9668 0.274472 17.0072 0.373541 17.0072H3.02568C3.12475 17.0072 3.21976 16.9668 3.28981 16.8951C3.35987 16.8233 3.39922 16.726 3.39922 16.6246V16.1272L7.46708 17.8087C7.78139 17.9298 8.11372 17.9945 8.44949 18C9.19657 18 9.85027 17.6691 10.6142 17.2788L10.7001 17.2348H10.7188L16.5086 13.8278C16.6594 13.7468 16.7852 13.6245 16.872 13.4745C16.9587 13.3245 17.003 13.1527 16.9998 12.9784C17.0011 12.8036 16.9539 12.632 16.8636 12.4837C16.7733 12.3353 16.6438 12.2163 16.49 12.1405ZM8.80249 3.83431H8.68669C8.6137 3.83431 8.54368 3.80474 8.49189 3.75206C8.44011 3.69938 8.41076 3.62786 8.41027 3.5531V3.53397C8.40953 3.49631 8.41612 3.45888 8.42968 3.42386C8.44324 3.38885 8.46348 3.35695 8.48922 3.33005C8.51497 3.30315 8.54569 3.28178 8.5796 3.2672C8.61351 3.25261 8.64992 3.2451 8.68669 3.24511H11.5424C11.6152 3.24511 11.6851 3.27474 11.7365 3.32747C11.788 3.38021 11.817 3.45174 11.817 3.52632V3.54545C11.818 3.58302 11.8116 3.62041 11.7982 3.65541C11.7849 3.69042 11.7648 3.72233 11.7392 3.74926C11.7136 3.77619 11.683 3.79759 11.6492 3.8122C11.6154 3.8268 11.5791 3.83432 11.5424 3.83431H8.80249ZM9.44872 1.19821C9.88315 1.31685 10.3404 1.31685 10.7748 1.19821C11.047 1.12502 11.313 1.02971 11.5704 0.913174C11.4721 1.44663 11.3302 1.97071 11.1465 2.47991H9.07331C8.89084 1.97043 8.74966 1.44641 8.65121 0.913174C8.90936 1.02939 9.17601 1.1247 9.44872 1.19821ZM8.22537 5.3647L8.31689 5.27862C8.54289 5.06799 8.75386 4.84104 8.94817 4.5995H11.4229C11.6163 4.83759 11.8254 5.06193 12.0486 5.27096L12.1438 5.35896C12.96 6.12416 14.8744 7.92237 14.7978 10.2773C14.7925 10.8312 14.6505 11.3748 14.3851 11.8574C14.0986 11.919 13.8207 12.0167 13.5577 12.1482L11.5443 13.141C11.4902 12.8403 11.3359 12.5681 11.1077 12.371C10.8794 12.1738 10.5914 12.064 10.2929 12.0602H8.12638C7.45479 11.3518 6.57118 10.8939 5.61619 10.7593C5.59084 10.5998 5.57524 10.4388 5.56949 10.2773C5.49479 7.92237 7.40731 6.1299 8.22537 5.3647ZM0.754552 16.2496V10.4839H2.65961V16.242L0.754552 16.2496ZM16.1575 13.1372L10.3676 16.5461L10.2929 16.5844C9.27128 17.1066 8.65307 17.4223 7.7435 17.0932L3.39922 15.3122V11.4863H5.01292C5.51577 11.4865 6.01288 11.5956 6.47159 11.8067C6.9303 12.0177 7.34022 12.3257 7.6744 12.7106C7.70936 12.7508 7.75222 12.783 7.80018 12.8051C7.84813 12.8272 7.9001 12.8387 7.95268 12.8388H10.2929C10.4173 12.8407 10.5371 12.8873 10.6314 12.9705C10.7256 13.0538 10.7883 13.1683 10.8084 13.294C10.8118 13.3998 10.7816 13.5038 10.7225 13.5906C10.7225 13.5906 10.7225 13.5906 10.7113 13.6059C10.6665 13.6638 10.6098 13.711 10.5453 13.744C10.4807 13.7771 10.4099 13.7952 10.3377 13.7972H6.15969C6.06062 13.7972 5.96561 13.8375 5.89556 13.9092C5.8255 13.981 5.78615 14.0783 5.78615 14.1798C5.78615 14.2812 5.8255 14.3785 5.89556 14.4503C5.96561 14.522 6.06062 14.5624 6.15969 14.5624H10.334C10.4943 14.5629 10.6531 14.5309 10.8012 14.4682C10.9493 14.4055 11.0838 14.3133 11.1969 14.197C11.2212 14.1721 11.2454 14.1453 11.2679 14.1185L13.8826 12.8292C14.1177 12.707 14.3696 12.6224 14.6297 12.5786C15.1516 12.5012 15.6842 12.5872 16.1575 12.8254C16.184 12.8376 16.2064 12.8576 16.222 12.8827C16.2376 12.9079 16.2457 12.9371 16.2453 12.9669C16.2479 13.0009 16.2411 13.035 16.2255 13.0651C16.21 13.0952 16.1864 13.1202 16.1575 13.1372Z" fill="#121212"/>
<path d="M10.7411 10.0223H9.882C9.85413 10.0226 9.82648 10.0172 9.80066 10.0064C9.77484 9.99568 9.75135 9.9798 9.73155 9.9597C9.71176 9.9396 9.69604 9.91569 9.68532 9.88934C9.6746 9.86298 9.66908 9.83472 9.66908 9.80617C9.66908 9.7047 9.62972 9.60738 9.55967 9.53563C9.48962 9.46388 9.39461 9.42357 9.29554 9.42357C9.19647 9.42357 9.10146 9.46388 9.03141 9.53563C8.96135 9.60738 8.922 9.7047 8.922 9.80617C8.92249 10.0666 9.02385 10.3162 9.20383 10.5002C9.38382 10.6842 9.62771 10.7875 9.882 10.7875H9.93803V11.0745C9.93803 11.176 9.97738 11.2733 10.0474 11.345C10.1175 11.4168 10.2125 11.4571 10.3116 11.4571C10.4106 11.4571 10.5056 11.4168 10.5757 11.345C10.6458 11.2733 10.6851 11.176 10.6851 11.0745V10.7875H10.7411C10.867 10.7875 10.9916 10.7621 11.1078 10.7128C11.224 10.6635 11.3297 10.5912 11.4186 10.5001C11.5076 10.409 11.5782 10.3008 11.6263 10.1817C11.6745 10.0627 11.6993 9.93504 11.6993 9.80617V9.17105C11.6988 8.91094 11.5977 8.66162 11.4181 8.47768C11.2385 8.29375 10.9951 8.1902 10.7411 8.18969H9.882C9.85413 8.18994 9.82648 8.18454 9.80066 8.17379C9.77484 8.16304 9.75135 8.14716 9.73155 8.12706C9.71176 8.10696 9.69604 8.08304 9.68532 8.05669C9.6746 8.03034 9.66908 8.00207 9.66908 7.97352V7.33841C9.66957 7.2809 9.69222 7.22592 9.7321 7.18544C9.77197 7.14495 9.82585 7.12224 9.882 7.12224H10.7411C10.797 7.12274 10.8504 7.14568 10.8898 7.18611C10.9293 7.22654 10.9517 7.28123 10.9522 7.33841C10.9522 7.43988 10.9915 7.5372 11.0616 7.60895C11.1317 7.6807 11.2267 7.72101 11.3257 7.72101C11.4248 7.72101 11.5198 7.6807 11.5899 7.60895C11.6599 7.5372 11.6993 7.43988 11.6993 7.33841C11.6993 7.20954 11.6745 7.08192 11.6263 6.96286C11.5782 6.84379 11.5076 6.73561 11.4186 6.64448C11.3297 6.55335 11.224 6.48107 11.1078 6.43175C10.9916 6.38243 10.867 6.35705 10.7411 6.35705H10.6851V6.0701C10.6851 5.96863 10.6458 5.87131 10.5757 5.79956C10.5056 5.72781 10.4106 5.6875 10.3116 5.6875C10.2125 5.6875 10.1175 5.72781 10.0474 5.79956C9.97738 5.87131 9.93803 5.96863 9.93803 6.0701V6.35705H9.882C9.62771 6.35705 9.38382 6.46038 9.20383 6.64436C9.02385 6.82835 8.92249 7.07796 8.922 7.33841V7.97352C8.92249 8.23397 9.02385 8.48358 9.20383 8.66757C9.38382 8.85156 9.62771 8.95489 9.882 8.95489H10.7411C10.797 8.95539 10.8504 8.97832 10.8898 9.01875C10.9293 9.05918 10.9517 9.11388 10.9522 9.17105V9.80617C10.9522 9.8635 10.93 9.91848 10.8904 9.95902C10.8508 9.99956 10.7971 10.0223 10.7411 10.0223Z" fill="#121212"/>
</svg>
