<svg width="23" height="20" viewBox="0 0 23 20" fill="none" xmlns="http://www.w3.org/2000/svg">
<path d="M19.5 6C20.0933 6 20.6734 5.82405 21.1667 5.49441C21.6601 5.16477 22.0446 4.69623 22.2716 4.14805C22.4987 3.59987 22.5581 2.99667 22.4424 2.41473C22.3266 1.83279 22.0409 1.29824 21.6213 0.878681C21.2018 0.459124 20.6672 0.173401 20.0853 0.0576455C19.5033 -0.0581102 18.9001 0.00129986 18.3519 0.228363C17.8038 0.455426 17.3352 0.839943 17.0056 1.33329C16.6759 1.82664 16.5 2.40666 16.5 3C16.5 3.79565 16.8161 4.55871 17.3787 5.12132C17.9413 5.68393 18.7043 6 19.5 6ZM19.5 2C19.6978 2 19.8911 2.05865 20.0556 2.16853C20.22 2.27841 20.3482 2.43459 20.4239 2.61732C20.4996 2.80004 20.5194 3.00111 20.4808 3.19509C20.4422 3.38907 20.347 3.56726 20.2071 3.70711C20.0673 3.84696 19.8891 3.9422 19.6951 3.98079C19.5011 4.01937 19.3 3.99957 19.1173 3.92388C18.9346 3.84819 18.7784 3.72002 18.6685 3.55557C18.5586 3.39112 18.5 3.19778 18.5 3C18.5 2.73478 18.6054 2.48043 18.7929 2.29289C18.9804 2.10536 19.2348 2 19.5 2ZM0.5 3C0.5 2.73478 0.605357 2.48043 0.792893 2.29289C0.98043 2.10536 1.23478 2 1.5 2H13.5C13.7652 2 14.0196 2.10536 14.2071 2.29289C14.3946 2.48043 14.5 2.73478 14.5 3C14.5 3.26522 14.3946 3.51957 14.2071 3.70711C14.0196 3.89464 13.7652 4 13.5 4H1.5C1.23478 4 0.98043 3.89464 0.792893 3.70711C0.605357 3.51957 0.5 3.26522 0.5 3ZM7.5 7C6.88106 7.00174 6.2778 7.19488 5.77293 7.55294C5.26807 7.911 4.88631 8.41645 4.68 9H1.5C1.23478 9 0.98043 9.10536 0.792893 9.29289C0.605357 9.48043 0.5 9.73478 0.5 10C0.5 10.2652 0.605357 10.5196 0.792893 10.7071C0.98043 10.8946 1.23478 11 1.5 11H4.68C4.86345 11.5189 5.1861 11.9773 5.61264 12.3251C6.03918 12.6729 6.55317 12.8966 7.09836 12.9718C7.64355 13.0471 8.19893 12.9709 8.70371 12.7516C9.20849 12.5323 9.64323 12.1784 9.96034 11.7286C10.2775 11.2788 10.4647 10.7504 10.5017 10.2013C10.5386 9.65219 10.4238 9.1035 10.1697 8.61528C9.91571 8.12706 9.53227 7.71812 9.0614 7.43323C8.59052 7.14833 8.05035 6.99846 7.5 7ZM7.5 11C7.30222 11 7.10888 10.9414 6.94443 10.8315C6.77998 10.7216 6.65181 10.5654 6.57612 10.3827C6.50043 10.2 6.48063 9.99889 6.51921 9.80491C6.5578 9.61093 6.65304 9.43275 6.79289 9.29289C6.93275 9.15304 7.11093 9.0578 7.30491 9.01922C7.49889 8.98063 7.69996 9.00043 7.88268 9.07612C8.06541 9.15181 8.22159 9.27998 8.33147 9.44443C8.44135 9.60888 8.5 9.80222 8.5 10C8.5 10.2652 8.39464 10.5196 8.20711 10.7071C8.01957 10.8946 7.76522 11 7.5 11ZM22.5 10C22.5 10.2652 22.3946 10.5196 22.2071 10.7071C22.0196 10.8946 21.7652 11 21.5 11H13.5C13.2348 11 12.9804 10.8946 12.7929 10.7071C12.6054 10.5196 12.5 10.2652 12.5 10C12.5 9.73478 12.6054 9.48043 12.7929 9.29289C12.9804 9.10536 13.2348 9 13.5 9H21.5C21.7652 9 22.0196 9.10536 22.2071 9.29289C22.3946 9.48043 22.5 9.73478 22.5 10ZM10.5 17C10.5 17.2652 10.3946 17.5196 10.2071 17.7071C10.0196 17.8946 9.76522 18 9.5 18H1.5C1.23478 18 0.98043 17.8946 0.792893 17.7071C0.605357 17.5196 0.5 17.2652 0.5 17C0.5 16.7348 0.605357 16.4804 0.792893 16.2929C0.98043 16.1054 1.23478 16 1.5 16H9.5C9.76522 16 10.0196 16.1054 10.2071 16.2929C10.3946 16.4804 10.5 16.7348 10.5 17ZM21.5 16H18.32C18.0841 15.3328 17.6199 14.7704 17.0095 14.4124C16.3991 14.0543 15.6818 13.9235 14.9843 14.0432C14.2868 14.1629 13.654 14.5253 13.1979 15.0663C12.7418 15.6074 12.4916 16.2923 12.4916 17C12.4916 17.7077 12.7418 18.3926 13.1979 18.9337C13.654 19.4747 14.2868 19.8371 14.9843 19.9568C15.6818 20.0765 16.3991 19.9457 17.0095 19.5876C17.6199 19.2296 18.0841 18.6672 18.32 18H21.5C21.7652 18 22.0196 17.8946 22.2071 17.7071C22.3946 17.5196 22.5 17.2652 22.5 17C22.5 16.7348 22.3946 16.4804 22.2071 16.2929C22.0196 16.1054 21.7652 16 21.5 16ZM15.5 18C15.3022 18 15.1089 17.9414 14.9444 17.8315C14.78 17.7216 14.6518 17.5654 14.5761 17.3827C14.5004 17.2 14.4806 16.9989 14.5192 16.8049C14.5578 16.6109 14.653 16.4327 14.7929 16.2929C14.9327 16.153 15.1109 16.0578 15.3049 16.0192C15.4989 15.9806 15.7 16.0004 15.8827 16.0761C16.0654 16.1518 16.2216 16.28 16.3315 16.4444C16.4414 16.6089 16.5 16.8022 16.5 17C16.5 17.2652 16.3946 17.5196 16.2071 17.7071C16.0196 17.8946 15.7652 18 15.5 18Z" fill="#00AD37"/>
</svg>
