<svg width="17" height="18" viewBox="0 0 17 18" fill="none" xmlns="http://www.w3.org/2000/svg">
<path fill-rule="evenodd" clip-rule="evenodd" d="M10.2877 9.49033V8.17223C10.2877 7.61336 11.2103 7.61336 11.2103 8.17223V9.49033H12.5712V8.17223C12.5712 7.61336 13.4939 7.61336 13.4939 8.17223V9.49033H13.8976V8.10896C13.8976 6.24253 9.89552 6.24253 9.89552 8.10896V9.49033H10.2877ZM15.1316 18H1.87992C0.841927 18 0 17.2302 0 16.2812V1.7188C0 0.769772 0.841927 0 1.87992 0H15.1316C16.1696 0 17 0.769772 17 1.7188V16.2812C17 17.2302 16.1696 18 15.1316 18ZM1.87992 0.843585C1.34939 0.843585 0.922659 1.23374 0.922659 1.7188V16.2812C0.922659 16.7663 1.34939 17.1564 1.87992 17.1564H15.1316C15.6506 17.1564 16.0773 16.7663 16.0773 16.2812V1.7188C16.0773 1.23374 15.6506 0.843585 15.1316 0.843585H1.87992ZM14.8894 12.1793H2.12212C1.51085 12.1793 1.51085 11.3357 2.12212 11.3357H14.8894C15.4891 11.3357 15.4891 12.1793 14.8894 12.1793ZM14.8894 14.0141H2.12212C1.51085 14.0141 1.51085 13.1705 2.12212 13.1705H14.8894C15.4891 13.1705 15.4891 14.0141 14.8894 14.0141ZM11.0373 15.8594H2.12212C1.51085 15.8594 1.51085 15.0158 2.12212 15.0158H11.0373C11.637 15.0158 11.637 15.8594 11.0373 15.8594ZM6.47015 6.62214H2.65265C2.39891 6.62214 2.19132 6.43234 2.19132 6.20035V2.56239C2.19132 2.3304 2.39891 2.1406 2.65265 2.1406H6.47015C6.72388 2.1406 6.93148 2.3304 6.93148 2.56239V6.20035C6.93148 6.43234 6.72388 6.62214 6.47015 6.62214ZM3.11398 5.77856H6.00882V2.98418H3.11398V5.77856ZM6.45862 8.58348H2.65265C2.05292 8.58348 2.05292 7.73989 2.65265 7.73989H6.45862C7.06988 7.73989 7.06988 8.58348 6.45862 8.58348ZM6.45862 10.3339H2.65265C2.05292 10.3339 2.05292 9.49033 2.65265 9.49033H6.45862C7.06988 9.49033 7.06988 10.3339 6.45862 10.3339ZM14.3589 10.3339H9.43419C9.18046 10.3339 8.97286 10.1441 8.97286 9.91213V8.10896C8.97286 5.12478 14.8202 5.12478 14.8202 8.10896V9.91213C14.8202 10.1441 14.6126 10.3339 14.3589 10.3339ZM11.8908 5.56766C10.8643 5.56766 10.0224 4.79789 10.0224 3.84886C10.0224 2.91037 10.8643 2.1406 11.8908 2.1406C12.9288 2.1406 13.7707 2.91037 13.7707 3.84886C13.7707 4.79789 12.9288 5.56766 11.8908 5.56766ZM11.8908 2.98418C11.3718 2.98418 10.945 3.37434 10.945 3.84886C10.945 4.33392 11.3718 4.72408 11.8908 4.72408C12.4213 4.72408 12.848 4.33392 12.848 3.84886C12.848 3.37434 12.4213 2.98418 11.8908 2.98418Z" fill="#121212"/>
</svg>
