<svg width="18" height="18" viewBox="0 0 18 18" fill="none" xmlns="http://www.w3.org/2000/svg">
<path d="M15.3385 6.73333H15.266C15.1597 6.73239 15.0561 6.69946 14.9688 6.63881C14.8815 6.57817 14.8144 6.49263 14.7764 6.39333C14.7364 6.29745 14.7258 6.19184 14.746 6.08992C14.7661 5.988 14.8162 5.89439 14.8897 5.821L14.9413 5.76943C15.2521 5.4574 15.4267 5.0349 15.4267 4.59445C15.4267 4.154 15.2521 3.7315 14.9413 3.41947L14.0851 2.5638C13.7733 2.25271 13.3508 2.078 12.9104 2.078C12.4699 2.078 12.0475 2.25271 11.7357 2.5638L11.6841 2.61537C11.6081 2.68853 11.5124 2.73793 11.4088 2.75749C11.3052 2.77705 11.1981 2.76594 11.1006 2.7255C11.0032 2.68507 10.9197 2.61707 10.8604 2.52987C10.8011 2.44266 10.7685 2.34003 10.7667 2.23457V2.16147C10.7662 1.72096 10.591 1.29862 10.2795 0.987129C9.96805 0.675641 9.54571 0.50045 9.1052 0.5H7.8948C7.45429 0.50045 7.03195 0.675641 6.72046 0.987129C6.40897 1.29862 6.23378 1.72096 6.23333 2.16147V2.23457C6.23057 2.33927 6.19752 2.44093 6.13817 2.52723C6.07883 2.61353 5.99574 2.68078 5.89896 2.72084C5.80218 2.76089 5.69587 2.77203 5.59289 2.75291C5.48991 2.73379 5.39468 2.68523 5.31873 2.6131L5.27 2.56153C4.95821 2.25045 4.53574 2.07574 4.0953 2.07574C3.65486 2.07574 3.23239 2.25045 2.9206 2.56153L2.06153 3.4172C1.75069 3.72924 1.57616 4.15174 1.57616 4.59218C1.57616 5.03263 1.75069 5.45513 2.06153 5.76717L2.1131 5.81873C2.18736 5.89471 2.23707 5.99126 2.25576 6.09585C2.27446 6.20044 2.26128 6.30823 2.21793 6.40523C2.17905 6.50185 2.11223 6.58468 2.02603 6.64312C1.93982 6.70157 1.83815 6.73298 1.734 6.73333H1.66147C1.22096 6.73378 0.798617 6.90897 0.487129 7.22046C0.175641 7.53195 0.000450036 7.95429 0 8.3948V9.6052C0.000450036 10.0457 0.175641 10.468 0.487129 10.7795C0.798617 11.091 1.22096 11.2662 1.66147 11.2667H1.734C1.84032 11.2676 1.94389 11.3005 2.03122 11.3612C2.11854 11.4218 2.18558 11.5074 2.2236 11.6067C2.26362 11.7025 2.27422 11.8082 2.25404 11.9101C2.23386 12.012 2.18381 12.1056 2.11027 12.179L2.0587 12.2306C1.74785 12.5426 1.57332 12.9651 1.57332 13.4056C1.57332 13.846 1.74785 14.2685 2.0587 14.5805L2.91437 15.4356C3.22611 15.747 3.64872 15.9219 4.08935 15.9219C4.52998 15.9219 4.95259 15.747 5.26433 15.4356L5.3159 15.3841C5.39192 15.3099 5.48847 15.2602 5.59304 15.2415C5.69761 15.2228 5.80538 15.236 5.9024 15.2792C5.99902 15.318 6.08187 15.3847 6.14032 15.4708C6.19878 15.5569 6.23018 15.6585 6.2305 15.7626V15.8357C6.23035 16.0543 6.2733 16.2708 6.35688 16.4728C6.44047 16.6748 6.56306 16.8583 6.71763 17.0129C6.8722 17.1674 7.05573 17.29 7.25772 17.3736C7.45971 17.4572 7.6762 17.5001 7.8948 17.5H9.1052C9.54571 17.4995 9.96805 17.3244 10.2795 17.0129C10.591 16.7014 10.7662 16.279 10.7667 15.8385V15.7654C10.7694 15.6607 10.8025 15.5591 10.8618 15.4728C10.9212 15.3865 11.0043 15.3192 11.101 15.2792C11.1978 15.2391 11.3041 15.228 11.4071 15.2471C11.5101 15.2662 11.6053 15.3148 11.6813 15.3869L11.7328 15.4385C12.0446 15.7496 12.4671 15.9243 12.9075 15.9243C13.348 15.9243 13.7704 15.7496 14.0822 15.4385L14.9385 14.5834C15.2493 14.2713 15.4238 13.8488 15.4238 13.4084C15.4238 12.9679 15.2493 12.5454 14.9385 12.2334L14.8869 12.1818C14.8126 12.1059 14.7629 12.0093 14.7442 11.9047C14.7255 11.8001 14.7387 11.6923 14.7821 11.5953C14.8209 11.4986 14.8876 11.4157 14.9739 11.3571C15.0601 11.2986 15.1618 11.2671 15.266 11.2667H15.3385C15.779 11.2662 16.2014 11.091 16.5129 10.7795C16.8244 10.468 16.9995 10.0457 17 9.6052V8.3948C16.9995 7.95429 16.8244 7.53195 16.5129 7.22046C16.2014 6.90897 15.779 6.73378 15.3385 6.73333ZM15.8667 9.6052C15.8665 9.74522 15.8108 9.87947 15.7118 9.97848C15.6128 10.0775 15.4786 10.1332 15.3385 10.1333H15.266C14.9372 10.1361 14.6164 10.2357 14.3438 10.4195C14.0711 10.6034 13.8586 10.8634 13.7327 11.1672C13.6069 11.471 13.5732 11.8052 13.636 12.128C13.6987 12.4508 13.8551 12.748 14.0856 12.9825L14.1366 13.0341C14.2356 13.1333 14.2911 13.2677 14.2911 13.4078C14.2911 13.5479 14.2356 13.6823 14.1366 13.7815L13.2804 14.6366C13.1814 14.7357 13.047 14.7913 12.907 14.7913C12.7669 14.7913 12.6326 14.7357 12.5335 14.6366L12.4825 14.5851C12.2479 14.3548 11.9507 14.1987 11.628 14.1361C11.3053 14.0735 10.9713 14.1072 10.6676 14.233C10.3639 14.3588 10.1039 14.5712 9.91998 14.8437C9.73608 15.1161 9.63639 15.4367 9.63333 15.7654V15.8385C9.63318 15.9786 9.57749 16.1128 9.47848 16.2118C9.37947 16.3108 9.24522 16.3665 9.1052 16.3667H7.8948C7.75478 16.3665 7.62053 16.3108 7.52152 16.2118C7.42251 16.1128 7.36682 15.9786 7.36667 15.8385V15.7654C7.36507 15.436 7.26624 15.1145 7.08256 14.841C6.89888 14.5676 6.63855 14.3545 6.33421 14.2285C6.02988 14.1025 5.69511 14.0692 5.3719 14.1327C5.0487 14.1962 4.75145 14.3538 4.51747 14.5856L4.4659 14.6372C4.36671 14.736 4.23244 14.7914 4.09247 14.7914C3.9525 14.7914 3.81822 14.736 3.71903 14.6372L2.86337 13.7821C2.76443 13.6829 2.70888 13.5485 2.70888 13.4084C2.70888 13.2683 2.76443 13.1339 2.86337 13.0347L2.91493 12.9831C3.14568 12.7486 3.30224 12.4513 3.36509 12.1283C3.42793 11.8054 3.39428 11.471 3.26832 11.1671C3.14237 10.8631 2.92969 10.603 2.65683 10.4192C2.38396 10.2353 2.063 10.1359 1.734 10.1333H1.66147C1.52144 10.1332 1.3872 10.0775 1.28819 9.97848C1.18917 9.87947 1.13348 9.74522 1.13333 9.6052V8.3948C1.13348 8.25478 1.18917 8.12053 1.28819 8.02152C1.3872 7.92251 1.52144 7.86682 1.66147 7.86667H1.734C2.06284 7.86387 2.38358 7.76434 2.65624 7.58048C2.9289 7.39663 3.14141 7.13658 3.26727 6.83277C3.39313 6.52895 3.42679 6.19481 3.36403 5.872C3.30127 5.54919 3.14489 5.252 2.91437 5.01747L2.86337 4.9659C2.76447 4.86678 2.70893 4.73248 2.70893 4.59247C2.70893 4.45245 2.76447 4.31815 2.86337 4.21903L3.71903 3.3628C3.81808 3.26376 3.9524 3.20813 4.09247 3.20813C4.23253 3.20813 4.36686 3.26376 4.4659 3.3628L4.5169 3.41437C4.75147 3.64478 5.04865 3.80108 5.37141 3.86382C5.69417 3.92655 6.02826 3.89294 6.33206 3.76716C6.63586 3.64139 6.89594 3.42902 7.07991 3.1565C7.26388 2.88398 7.36361 2.56336 7.36667 2.23457V2.16147C7.36682 2.02144 7.42251 1.8872 7.52152 1.78819C7.62053 1.68917 7.75478 1.63348 7.8948 1.63333H9.1052C9.24522 1.63348 9.37947 1.68917 9.47848 1.78819C9.57749 1.8872 9.63318 2.02144 9.63333 2.16147V2.23457C9.63624 2.56336 9.73585 2.88403 9.91975 3.1566C10.1036 3.42917 10.3637 3.64159 10.6675 3.76738C10.9713 3.89318 11.3054 3.92678 11.6281 3.86401C11.9509 3.80123 12.248 3.64486 12.4825 3.41437L12.5341 3.3628C12.6331 3.26376 12.7675 3.20813 12.9075 3.20813C13.0476 3.20813 13.1819 3.26376 13.281 3.3628L14.1366 4.21903C14.2355 4.31815 14.2911 4.45245 14.2911 4.59247C14.2911 4.73248 14.2355 4.86678 14.1366 4.9659L14.0851 5.01747C13.8545 5.25203 13.6981 5.54928 13.6354 5.87214C13.5726 6.195 13.6063 6.52919 13.7323 6.83303C13.8582 7.13686 14.0708 7.3969 14.3435 7.58071C14.6163 7.76453 14.9371 7.86398 15.266 7.86667H15.3385C15.4786 7.86682 15.6128 7.92251 15.7118 8.02152C15.8108 8.12053 15.8665 8.25478 15.8667 8.3948V9.6052Z" fill="#121212"/>
<path d="M8.49987 5.0332C7.71534 5.0332 6.94842 5.26584 6.29611 5.70171C5.64379 6.13757 5.13538 6.75708 4.83515 7.48189C4.53492 8.20671 4.45637 9.00427 4.60942 9.77373C4.76248 10.5432 5.14027 11.25 5.69501 11.8047C6.24976 12.3595 6.95656 12.7373 7.72601 12.8903C8.49547 13.0434 9.29304 12.9648 10.0178 12.6646C10.7427 12.3644 11.3622 11.8559 11.798 11.2036C12.2339 10.5513 12.4665 9.7844 12.4665 8.99987C12.4653 7.94821 12.047 6.93997 11.3034 6.19634C10.5598 5.4527 9.55153 5.0344 8.49987 5.0332ZM8.49987 11.8332C7.93949 11.8332 7.3917 11.667 6.92576 11.3557C6.45982 11.0444 6.09666 10.6019 5.88221 10.0841C5.66776 9.56642 5.61165 8.99673 5.72098 8.44711C5.8303 7.8975 6.10015 7.39265 6.4964 6.9964C6.89265 6.60015 7.3975 6.3303 7.94712 6.22098C8.49673 6.11165 9.06642 6.16776 9.58414 6.38221C10.1019 6.59666 10.5444 6.95981 10.8557 7.42575C11.167 7.89169 11.3332 8.43949 11.3332 8.99987C11.3323 9.75104 11.0335 10.4712 10.5023 11.0023C9.97119 11.5335 9.25104 11.8323 8.49987 11.8332Z" fill="#121212"/>
</svg>
